<svg width="200" height="60" viewBox="0 0 200 60" fill="none" xmlns="http://www.w3.org/2000/svg">
<g clip-path="url(#clip0)">
<path d="M63.9465 22.6093C65.6804 22.6093 66.814 23.604 66.814 25.707V27.8547C66.814 29.1952 66.3283 30.0277 65.5425 30.4211V30.5833C66.4439 30.9534 66.9995 31.8092 66.9995 33.2419V35.6927C66.9995 37.7967 65.8669 38.7904 64.1321 38.7904H58.6526C58.4447 38.7904 58.3291 38.6933 58.3291 38.4669V22.925C58.3291 22.6938 58.4447 22.6016 58.6526 22.6016L63.9465 22.6093ZM60.9178 24.8289V29.4536H63.4152C64.0165 29.4536 64.3166 29.1758 64.3166 28.5794V25.709C64.3166 25.1077 64.0155 24.8347 63.4152 24.8347L60.9178 24.8289ZM63.4842 31.6732H60.9178V36.5747H63.4842C64.0854 36.5747 64.3584 36.2969 64.3584 35.7005V32.5532C64.3633 31.952 64.0854 31.6741 63.4842 31.6741V31.6732Z" fill="#73D0EE"/>
<path d="M71.4844 38.4951C71.4844 38.703 71.3873 38.7962 71.2066 38.7962H69.3805C69.3397 38.8015 69.2982 38.7973 69.2593 38.784C69.2204 38.7707 69.185 38.7487 69.156 38.7196C69.1269 38.6905 69.1049 38.6552 69.0916 38.6162C69.0783 38.5773 69.0741 38.5359 69.0793 38.4951V22.6803C69.0743 22.6395 69.0786 22.5982 69.0919 22.5594C69.1053 22.5206 69.1273 22.4854 69.1564 22.4564C69.1854 22.4275 69.2207 22.4055 69.2596 22.3923C69.2984 22.3791 69.3398 22.3749 69.3805 22.3801H71.2047C71.3893 22.3801 71.4825 22.4772 71.4825 22.6803L71.4844 38.4951Z" fill="#73D0EE"/>
<path d="M73.8428 36.0443V28.8261C73.8428 26.861 74.8831 25.9363 76.5014 25.9363H79.23C80.8483 25.9363 81.8886 26.861 81.8886 28.8261V36.0405C81.8886 38.0055 80.8483 38.9303 79.23 38.9303H76.5014C74.8841 38.9342 73.8428 38.0094 73.8428 36.0443ZM76.2479 28.8261V36.0405C76.2479 36.6184 76.5257 36.8729 77.0803 36.8729H78.653C79.231 36.8729 79.4854 36.6184 79.4854 36.0405V28.8261C79.4854 28.2481 79.231 27.9936 78.653 27.9936H77.0803C76.5257 27.9975 76.2479 28.252 76.2479 28.8261Z" fill="#73D0EE"/>
<path d="M89.1028 38.9342H86.6977C85.0794 38.9342 84.0391 38.0094 84.0391 36.0443V28.8261C84.0391 26.861 85.0794 25.9363 86.6977 25.9363H89.1028C90.7211 25.9363 91.7614 26.861 91.7614 28.8261V29.8441C91.7614 30.052 91.6459 30.1442 91.4613 30.1676L89.7731 30.3521C89.5652 30.3754 89.4496 30.255 89.4496 30.0743V28.8261C89.4496 28.2481 89.1951 27.9936 88.6171 27.9936H87.2766C86.722 27.9936 86.4442 28.2481 86.4442 28.8261V36.0405C86.4442 36.6184 86.722 36.8729 87.2766 36.8729H88.6171C89.1999 36.8729 89.4496 36.6184 89.4496 36.0405V34.8185C89.4496 34.6339 89.5652 34.5173 89.7731 34.495L91.438 34.3328C91.6692 34.3095 91.7614 34.4299 91.7614 34.6106V36.0443C91.7624 38.0094 90.7211 38.9342 89.1028 38.9342Z" fill="#73D0EE"/>
<path d="M98.9301 32.2259L102.213 38.4922C102.31 38.6544 102.237 38.7933 102.051 38.7933H99.9937C99.907 38.7971 99.821 38.7749 99.747 38.7296C99.6729 38.6842 99.6141 38.6178 99.578 38.5388L96.965 33.2439H96.2481V38.4893C96.2481 38.6972 96.151 38.7904 95.9703 38.7904H94.1441C94.1033 38.7956 94.0619 38.7915 94.023 38.7782C93.9841 38.7649 93.9487 38.7429 93.9196 38.7138C93.8905 38.6847 93.8685 38.6494 93.8552 38.6104C93.842 38.5715 93.8378 38.5301 93.843 38.4893V22.6803C93.8379 22.6395 93.8422 22.5982 93.8556 22.5594C93.8689 22.5206 93.891 22.4854 93.9201 22.4564C93.9491 22.4275 93.9844 22.4055 94.0232 22.3923C94.0621 22.3791 94.1034 22.3749 94.1441 22.3801H95.9742C96.1588 22.3801 96.252 22.4772 96.252 22.6803V31.374H96.9689L99.4196 26.3336C99.4534 26.2526 99.5119 26.1844 99.5867 26.1387C99.6615 26.093 99.7489 26.0721 99.8364 26.0791H101.779C101.964 26.0791 102.034 26.218 101.941 26.3802L98.9301 32.2259Z" fill="#73D0EE"/>
<path d="M102.837 24.8298C102.629 24.8298 102.537 24.6909 102.559 24.5064L102.767 22.9114C102.775 22.8264 102.816 22.7478 102.88 22.6919C102.945 22.636 103.028 22.6071 103.114 22.6112H110.767C110.975 22.6112 111.068 22.7268 111.045 22.9347L110.836 24.5297C110.828 24.6148 110.788 24.6935 110.723 24.7495C110.658 24.8054 110.575 24.8342 110.489 24.8298H108.085V38.4717C108.085 38.7029 107.988 38.7952 107.784 38.7952H105.819C105.611 38.7952 105.518 38.6981 105.518 38.4717V24.8298H102.837Z" fill="#73D0EE"/>
<path d="M117.08 38.9342H114.444C112.825 38.9342 111.785 38.0094 111.785 36.0443V28.8261C111.785 26.861 112.825 25.9363 114.444 25.9363H117.08C118.698 25.9363 119.739 26.861 119.739 28.8261V32.9884C119.739 33.173 119.642 33.2653 119.439 33.2653H114.193V36.0405C114.193 36.6184 114.471 36.8729 115.026 36.8729H116.598C117.176 36.8729 117.431 36.6184 117.431 36.0405V35.004C117.431 34.8194 117.546 34.7029 117.754 34.7262L119.442 34.9108C119.627 34.9341 119.743 35.0263 119.743 35.2342V36.0434C119.74 38.0094 118.699 38.9342 117.08 38.9342ZM114.19 31.3274H117.427V28.8261C117.427 28.2481 117.172 27.9936 116.594 27.9936H115.023C114.468 27.9936 114.19 28.2481 114.19 28.8261V31.3274Z" fill="#73D0EE"/>
<path d="M124.457 38.4951C124.457 38.703 124.36 38.7962 124.179 38.7962H122.353C122.312 38.8015 122.271 38.7973 122.232 38.784C122.193 38.7707 122.158 38.7487 122.129 38.7196C122.1 38.6905 122.078 38.6552 122.064 38.6162C122.051 38.5773 122.047 38.5359 122.052 38.4951V22.6803C122.047 22.6395 122.051 22.5982 122.065 22.5594C122.078 22.5206 122.1 22.4854 122.129 22.4564C122.158 22.4275 122.193 22.4055 122.232 22.3923C122.271 22.3791 122.312 22.3749 122.353 22.3801H124.179C124.364 22.3801 124.457 22.4772 124.457 22.6803V38.4951Z" fill="#73D0EE"/>
<path d="M132.109 38.9342H129.473C127.855 38.9342 126.814 38.0094 126.814 36.0443V28.8261C126.814 26.861 127.855 25.9363 129.473 25.9363H132.109C133.728 25.9363 134.768 26.861 134.768 28.8261V32.9884C134.768 33.173 134.671 33.2653 134.468 33.2653H129.222V36.0405C129.222 36.6184 129.5 36.8729 130.055 36.8729H131.624C132.202 36.8729 132.456 36.6184 132.456 36.0405V35.004C132.456 34.8194 132.572 34.7029 132.78 34.7262L134.468 34.9108C134.652 34.9341 134.768 35.0263 134.768 35.2342V36.0434C134.769 38.0094 133.729 38.9342 132.109 38.9342ZM129.22 31.3274H132.456V28.8261C132.456 28.2481 132.202 27.9936 131.624 27.9936H130.051C129.496 27.9936 129.219 28.2481 129.219 28.8261L129.22 31.3274Z" fill="#73D0EE"/>
<path d="M142.376 37.0148C142.075 37.6627 141.543 38.2406 140.225 38.2406H139.298C137.795 38.2406 136.869 37.4315 136.869 35.582V28.5988C136.869 26.7532 137.794 25.9402 139.298 25.9402H140.407C141.748 25.9402 142.28 26.5415 142.58 27.1884H142.719V26.3792C142.719 26.1714 142.816 26.0781 142.996 26.0781H144.64C144.825 26.0781 144.917 26.1753 144.917 26.3792V39.5112C144.917 41.4763 143.877 42.2854 142.258 42.2854H139.484C137.958 42.2854 136.987 41.5919 136.987 39.7191V39.5345C136.987 39.3266 137.102 39.2334 137.31 39.211L138.997 39.0265C139.205 39.0032 139.299 39.1236 139.299 39.3043V39.6277C139.299 40.1824 139.576 40.3912 140.131 40.3912H141.541C142.212 40.3912 142.513 40.1367 142.513 39.4665V37.0148H142.376ZM139.277 35.4431C139.277 35.9521 139.532 36.1833 140.04 36.1833H141.358C142.144 36.1833 142.514 35.8132 142.514 35.0273V29.1544C142.514 28.3686 142.144 27.9985 141.358 27.9985H140.04C139.531 27.9985 139.277 28.2297 139.277 28.7387V35.4431Z" fill="#73D0EE"/>
<path d="M147.764 26.0792H149.383C149.59 26.0792 149.683 26.1763 149.683 26.3803V27.5829H149.822C150.053 26.9126 150.562 25.9413 152.11 25.9413H152.573C152.612 25.9365 152.652 25.9412 152.69 25.955C152.727 25.9687 152.761 25.9912 152.788 26.0205C152.815 26.0497 152.835 26.085 152.846 26.1234C152.857 26.1618 152.858 26.2023 152.85 26.2414L152.666 27.6985C152.642 27.883 152.55 27.9986 152.365 27.9986H152.023C150.589 27.9986 149.872 28.9933 149.872 30.6116V38.4962C149.872 38.7041 149.775 38.7973 149.594 38.7973H147.768C147.727 38.8024 147.686 38.7981 147.647 38.7847C147.609 38.7714 147.573 38.7493 147.544 38.7203C147.515 38.6912 147.493 38.6559 147.48 38.6171C147.467 38.5782 147.463 38.5369 147.468 38.4962V26.3793C147.463 26.3391 147.467 26.2982 147.48 26.2598C147.493 26.2215 147.515 26.1865 147.544 26.1577C147.572 26.1288 147.607 26.1067 147.645 26.0932C147.683 26.0796 147.724 26.0748 147.764 26.0792Z" fill="#73D0EE"/>
<path d="M159.6 37.686H159.461C159.183 38.3329 158.652 38.9342 157.288 38.9342H156.2C154.697 38.9342 153.771 38.125 153.771 36.2755V34.4027C153.771 32.4376 154.812 31.5129 156.43 31.5129H159.413V28.8261C159.413 28.2481 159.135 27.9936 158.581 27.9936H157.147C156.569 27.9936 156.315 28.2481 156.315 28.8261V29.9131C156.315 30.0976 156.199 30.2142 155.991 30.1909L154.304 30.0063C154.119 29.983 154.003 29.8907 154.003 29.6828V28.8261C154.003 26.861 155.043 25.9363 156.661 25.9363H159.159C160.777 25.9363 161.817 26.861 161.817 28.8261V38.4912C161.823 38.5319 161.818 38.5733 161.805 38.6121C161.792 38.6509 161.77 38.6862 161.741 38.7153C161.712 38.7443 161.677 38.7664 161.638 38.7798C161.599 38.7931 161.558 38.7974 161.517 38.7923H159.899C159.691 38.7923 159.598 38.6952 159.598 38.4912L159.6 37.686ZM159.415 35.7209V33.4547H156.987C156.432 33.4547 156.178 33.7092 156.178 34.2638V36.1366C156.178 36.6456 156.432 36.8768 156.918 36.8768H158.24C159.025 36.8768 159.417 36.5067 159.417 35.7228L159.415 35.7209Z" fill="#73D0EE"/>
<path d="M166.654 37.7093V41.8483C166.654 42.0562 166.557 42.1485 166.377 42.1485H164.553C164.513 42.1537 164.471 42.1495 164.432 42.1363C164.394 42.123 164.358 42.1011 164.329 42.0721C164.3 42.0432 164.278 42.0079 164.265 41.9691C164.251 41.9304 164.247 41.889 164.252 41.8483V26.3792C164.247 26.3385 164.251 26.297 164.264 26.2581C164.278 26.2192 164.3 26.1838 164.329 26.1547C164.358 26.1257 164.393 26.1036 164.432 26.0904C164.471 26.0771 164.513 26.0729 164.553 26.0781H166.172C166.379 26.0781 166.473 26.1753 166.473 26.3792V27.1884H166.612C166.889 26.5415 167.421 25.9402 168.785 25.9402H169.872C171.374 25.9402 172.3 26.7493 172.3 28.5988V36.2726C172.3 38.1182 171.375 38.9313 169.872 38.9313H168.97C167.652 38.9313 167.097 38.3533 166.797 37.7054L166.654 37.7093ZM169.896 28.7377C169.896 28.2287 169.641 27.9975 169.156 27.9975H167.838C167.052 27.9975 166.658 28.3676 166.658 29.1535V35.7228C166.658 36.5087 167.047 36.8788 167.838 36.8788H169.156C169.641 36.8788 169.896 36.6476 169.896 36.1386V28.7377Z" fill="#73D0EE"/>
<path d="M177.197 27.166C177.498 26.5181 178.052 25.9402 179.37 25.9402H180.155C181.658 25.9402 182.584 26.7493 182.584 28.5988V38.4951C182.584 38.703 182.487 38.7962 182.306 38.7962H180.483C180.442 38.8013 180.401 38.797 180.362 38.7837C180.323 38.7703 180.288 38.7483 180.259 38.7192C180.23 38.6901 180.208 38.6548 180.195 38.616C180.182 38.5772 180.177 38.5358 180.183 38.4951V28.7377C180.183 28.2287 179.928 27.9975 179.442 27.9975H178.24C177.454 27.9975 177.061 28.3676 177.061 29.1535V38.4942C177.061 38.702 176.963 38.7953 176.783 38.7953H174.957C174.916 38.8005 174.874 38.7963 174.835 38.783C174.797 38.7698 174.761 38.7477 174.732 38.7187C174.703 38.6896 174.681 38.6542 174.668 38.6153C174.654 38.5764 174.65 38.5349 174.656 38.4942V22.6803C174.65 22.6395 174.655 22.5982 174.668 22.5594C174.681 22.5206 174.703 22.4854 174.733 22.4564C174.762 22.4275 174.797 22.4055 174.836 22.3923C174.875 22.3791 174.916 22.3749 174.957 22.3801H176.783C176.967 22.3801 177.061 22.4772 177.061 22.6803V27.166H177.197Z" fill="#73D0EE"/>
<path d="M50.4087 22.689C51.3663 22.689 52.1426 21.9127 52.1426 20.9551C52.1426 19.9975 51.3663 19.2212 50.4087 19.2212C49.4511 19.2212 48.6748 19.9975 48.6748 20.9551C48.6748 21.9127 49.4511 22.689 50.4087 22.689Z" fill="#73D0EE"/>
<path d="M34.7056 13.4678C35.6632 13.4678 36.4395 12.6915 36.4395 11.7339C36.4395 10.7763 35.6632 10 34.7056 10C33.748 10 32.9717 10.7763 32.9717 11.7339C32.9717 12.6915 33.748 13.4678 34.7056 13.4678Z" fill="#73D0EE"/>
<path d="M18.7339 22.689C19.6915 22.689 20.4678 21.9127 20.4678 20.9551C20.4678 19.9975 19.6915 19.2212 18.7339 19.2212C17.7763 19.2212 17 19.9975 17 20.9551C17 21.9127 17.7763 22.689 18.7339 22.689Z" fill="#73D0EE"/>
<path d="M18.7339 40.5291C19.6915 40.5291 20.4678 39.7528 20.4678 38.7952C20.4678 37.8376 19.6915 37.0613 18.7339 37.0613C17.7763 37.0613 17 37.8376 17 38.7952C17 39.7528 17.7763 40.5291 18.7339 40.5291Z" fill="#73D0EE"/>
<path d="M34.7056 50C35.6632 50 36.4395 49.2237 36.4395 48.2661C36.4395 47.3085 35.6632 46.5322 34.7056 46.5322C33.748 46.5322 32.9717 47.3085 32.9717 48.2661C32.9717 49.2237 33.748 50 34.7056 50Z" fill="#73D0EE"/>
<path d="M50.4087 41.1304C51.3663 41.1304 52.1426 40.3541 52.1426 39.3965C52.1426 38.4389 51.3663 37.6626 50.4087 37.6626C49.4511 37.6626 48.6748 38.4389 48.6748 39.3965C48.6748 40.3541 49.4511 41.1304 50.4087 41.1304Z" fill="#73D0EE"/>
<path d="M34.7055 21.0329C35.5666 21.0329 36.2646 20.3349 36.2646 19.4738C36.2646 18.6128 35.5666 17.9148 34.7055 17.9148C33.8445 17.9148 33.1465 18.6128 33.1465 19.4738C33.1465 20.3349 33.8445 21.0329 34.7055 21.0329Z" fill="white"/>
<path d="M34.5708 42.3359C35.4318 42.3359 36.1298 41.6379 36.1298 40.7768C36.1298 39.9158 35.4318 39.2178 34.5708 39.2178C33.7097 39.2178 33.0117 39.9158 33.0117 40.7768C33.0117 41.6379 33.7097 42.3359 34.5708 42.3359Z" fill="white"/>
<path d="M44.062 37.0351C44.923 37.0351 45.621 36.3371 45.621 35.476C45.621 34.615 44.923 33.917 44.062 33.917C43.2009 33.917 42.5029 34.615 42.5029 35.476C42.5029 36.3371 43.2009 37.0351 44.062 37.0351Z" fill="white"/>
<path d="M44.1616 26.2617C45.0226 26.2617 45.7206 25.5636 45.7206 24.7026C45.7206 23.8416 45.0226 23.1436 44.1616 23.1436C43.3005 23.1436 42.6025 23.8416 42.6025 24.7026C42.6025 25.5636 43.3005 26.2617 44.1616 26.2617Z" fill="white"/>
<path d="M25.1215 36.9333C25.9826 36.9333 26.6806 36.2353 26.6806 35.3742C26.6806 34.5132 25.9826 33.8152 25.1215 33.8152C24.2605 33.8152 23.5625 34.5132 23.5625 35.3742C23.5625 36.2353 24.2605 36.9333 25.1215 36.9333Z" fill="white"/>
<path d="M34.7231 31.4342C35.5841 31.4342 36.2822 30.7362 36.2822 29.8752C36.2822 29.0142 35.5841 28.3162 34.7231 28.3162C33.8621 28.3162 33.1641 29.0142 33.1641 29.8752C33.1641 30.7362 33.8621 31.4342 34.7231 31.4342Z" fill="#73D0EE"/>
<path d="M25.2944 26.2617C26.1554 26.2617 26.8534 25.5636 26.8534 24.7026C26.8534 23.8416 26.1554 23.1436 25.2944 23.1436C24.4334 23.1436 23.7354 23.8416 23.7354 24.7026C23.7354 25.5636 24.4334 26.2617 25.2944 26.2617Z" fill="#73D0EE"/>
<path d="M43.7562 24.6964L43.6582 35.4966L44.4586 35.5038L44.5566 24.7037L43.7562 24.6964Z" fill="white"/>
<path d="M34.9043 18.871L34.5029 19.5635L43.9597 25.0454L44.3611 24.3529L34.9043 18.871Z" fill="white"/>
<path d="M43.8681 35.1564L34.377 40.4282L34.7656 41.1279L44.2568 35.8561L43.8681 35.1564Z" fill="white"/>
<path d="M25.5457 35.1535L25.1484 35.8484L34.372 41.1222L34.7693 40.4274L25.5457 35.1535Z" fill="white"/>
<path d="M25.3477 24.6716L34.8816 30.1764" stroke="#73D0EE" stroke-width="3" stroke-miterlimit="10"/>
<path d="M19.4011 20.9551H18.0674V38.7952H19.4011V20.9551Z" fill="#73D0EE"/>
<path d="M34.3712 11.1572L18.4004 20.3779L19.0672 21.5329L35.038 12.3122L34.3712 11.1572Z" fill="#73D0EE"/>
<path d="M35.043 11.1567L34.3672 12.3076L50.0706 21.5281L50.7463 20.3772L35.043 11.1567Z" fill="#73D0EE"/>
<path d="M51.0749 20.9551H49.7412V39.3955H51.0749V20.9551Z" fill="#73D0EE"/>
<path d="M50.0804 38.8132L34.377 47.6833L35.0329 48.8446L50.7363 39.9745L50.0804 38.8132Z" fill="#73D0EE"/>
<path d="M19.0763 38.2265L18.3955 39.3745L34.366 48.8458L35.0468 47.6978L19.0763 38.2265Z" fill="#73D0EE"/>
<path d="M24.9472 26.8075V35.5042H25.7438V26.7861C25.4808 26.8452 25.2088 26.8518 24.9434 26.8056L24.9472 26.8075Z" fill="white"/>
<path d="M34.9054 19.5671L34.5023 18.8755L26.9014 23.303C27.0783 23.506 27.2151 23.7407 27.3045 23.9946L34.9054 19.5671Z" fill="white"/>
</g>
<defs>
<clipPath id="clip0">
<rect width="165.584" height="40" fill="white" transform="translate(17 10)"/>
</clipPath>
</defs>
</svg>
