<svg width="200" height="60" viewBox="0 0 200 60" fill="none" xmlns="http://www.w3.org/2000/svg">
<path d="M20.9175 22.3724C19.7285 22.3724 18.8009 22.8555 18.1348 23.8217C17.4686 24.7796 17.1355 26.104 17.1355 27.7948C17.1355 31.3098 18.4889 33.0673 21.1958 33.0673C22.0138 33.0673 22.8064 32.9548 23.5738 32.7299C24.3412 32.505 25.1128 32.2343 25.8886 31.9178V36.0908C24.3454 36.7655 22.5998 37.1028 20.6519 37.1028C17.8607 37.1028 15.7188 36.3032 14.2262 34.704C12.7421 33.1048 12 30.7934 12 27.7698C12 25.8791 12.3584 24.2174 13.0752 22.7847C13.8004 21.3521 14.8376 20.2526 16.1868 19.4863C17.5445 18.7117 19.1382 18.3244 20.9681 18.3244C22.9667 18.3244 24.8767 18.7533 26.6981 19.6112L25.1676 23.4969C24.4845 23.1804 23.8015 22.9138 23.1184 22.6973C22.4354 22.4807 21.7018 22.3724 20.9175 22.3724Z" fill="url(#paint0_linear)"/>
<path d="M43.9376 29.7439C43.9376 32.0594 43.3052 33.8669 42.0403 35.1663C40.7838 36.4573 39.0214 37.1028 36.753 37.1028C34.5774 37.1028 32.8445 36.4407 31.5543 35.1163C30.2725 33.7919 29.6317 32.0011 29.6317 29.7439C29.6317 27.4366 30.2599 25.6458 31.5163 24.3715C32.7812 23.0887 34.5521 22.4474 36.8289 22.4474C38.2372 22.4474 39.481 22.7431 40.5604 23.3345C41.6397 23.9258 42.4704 24.7754 43.0522 25.8832C43.6425 26.9827 43.9376 28.2696 43.9376 29.7439ZM34.6533 29.7439C34.6533 30.96 34.8177 31.8887 35.1466 32.53C35.4755 33.1631 36.0278 33.4796 36.8036 33.4796C37.571 33.4796 38.1107 33.1631 38.4227 32.53C38.7431 31.8887 38.9033 30.96 38.9033 29.7439C38.9033 28.5361 38.7431 27.6241 38.4227 27.0077C38.1022 26.3913 37.5541 26.0831 36.7783 26.0831C36.0194 26.0831 35.4755 26.3913 35.1466 27.0077C34.8177 27.6157 34.6533 28.5278 34.6533 29.7439Z" fill="url(#paint1_linear)"/>
<path d="M52.7783 36.853H47.8325V22.6973H52.7783V36.853ZM47.706 19.174C47.706 18.441 47.9126 17.8954 48.3258 17.5372C48.739 17.1791 49.4052 17 50.3244 17C51.2435 17 51.9139 17.1832 52.3355 17.5497C52.7572 17.9162 52.968 18.4576 52.968 19.174C52.968 20.6066 52.0868 21.3229 50.3244 21.3229C48.5788 21.3229 47.706 20.6066 47.706 19.174Z" fill="url(#paint2_linear)"/>
<path d="M66.3116 36.853V29.1317C66.3116 28.1905 66.1725 27.4825 65.8942 27.0077C65.6244 26.5246 65.1859 26.283 64.5787 26.283C63.7439 26.283 63.141 26.612 62.7699 27.2701C62.3989 27.9281 62.2134 29.0567 62.2134 30.6559V36.853H57.2676V22.6973H60.9991L61.6189 24.4464H61.9098C62.3314 23.7801 62.9133 23.2803 63.6554 22.9471C64.4059 22.614 65.266 22.4474 66.2358 22.4474C67.8211 22.4474 69.0523 22.9013 69.9293 23.8092C70.8147 24.7171 71.2574 25.9957 71.2574 27.6449V36.853H66.3116Z" fill="url(#paint3_linear)"/>
<path d="M86.7261 32.505C86.7261 34.021 86.2032 35.1663 85.1576 35.9409C84.1119 36.7155 82.6109 37.1028 80.6546 37.1028C79.592 37.1028 78.6687 37.0445 77.8844 36.9279C77.1002 36.8196 76.2991 36.6156 75.4811 36.3157V32.4051C76.2485 32.7383 77.0876 33.0131 77.9983 33.2297C78.9174 33.4463 79.7354 33.5545 80.4522 33.5545C81.5231 33.5545 82.0586 33.313 82.0586 32.8299C82.0586 32.58 81.9068 32.3593 81.6032 32.1677C81.3081 31.9678 80.4395 31.5847 78.9976 31.0183C77.6821 30.4852 76.7629 29.8813 76.2401 29.2066C75.7173 28.5236 75.4558 27.6615 75.4558 26.6204C75.4558 25.3043 75.9702 24.2798 76.999 23.5469C78.0278 22.8139 79.4824 22.4474 81.3629 22.4474C82.3074 22.4474 83.1928 22.5515 84.0192 22.7597C84.854 22.9596 85.7184 23.2553 86.6122 23.6468L85.2714 26.7953C84.6137 26.5038 83.918 26.258 83.1844 26.0581C82.4507 25.8499 81.852 25.7458 81.3882 25.7458C80.5787 25.7458 80.1739 25.9415 80.1739 26.333C80.1739 26.5746 80.313 26.7828 80.5913 26.9577C80.878 27.1243 81.696 27.47 83.0452 27.9947C84.0487 28.4029 84.795 28.8027 85.2841 29.1941C85.7816 29.5856 86.1442 30.0479 86.3719 30.581C86.608 31.1057 86.7261 31.7471 86.7261 32.505Z" fill="url(#paint4_linear)"/>
<path d="M99.1084 37.1028C98.3832 37.1028 97.7339 36.9862 97.1605 36.753C96.587 36.5115 96.0178 36.0825 95.4529 35.4661H95.2252C95.377 36.4573 95.4529 37.0737 95.4529 37.3152V43H90.5071V22.6973H94.5295L95.2252 24.4964H95.4529C96.372 23.1304 97.6411 22.4474 99.2602 22.4474C100.846 22.4474 102.089 23.0971 102.992 24.3964C103.894 25.6958 104.345 27.4783 104.345 29.7439C104.345 32.0261 103.873 33.8252 102.928 35.1413C101.992 36.449 100.719 37.1028 99.1084 37.1028ZM97.4514 26.283C96.7262 26.283 96.216 26.5412 95.9209 27.0577C95.6342 27.5658 95.4781 28.3237 95.4529 29.3316V29.7189C95.4529 30.935 95.6173 31.8137 95.9462 32.3551C96.275 32.8965 96.7936 33.1672 97.502 33.1672C98.1344 33.1672 98.594 32.9007 98.8807 32.3676C99.1674 31.8262 99.3108 30.935 99.3108 29.6939C99.3108 28.4778 99.1674 27.6074 98.8807 27.0827C98.594 26.5496 98.1176 26.283 97.4514 26.283Z" fill="url(#paint5_linear)"/>
<path d="M115.134 37.1028C112.747 37.1028 110.892 36.4781 109.568 35.2287C108.253 33.971 107.595 32.1844 107.595 29.8688C107.595 27.4783 108.206 25.6458 109.429 24.3715C110.652 23.0887 112.397 22.4474 114.666 22.4474C116.824 22.4474 118.49 23.0054 119.662 24.1216C120.843 25.2294 121.433 26.8286 121.433 28.9193V31.0932H112.591C112.625 31.8845 112.916 32.505 113.464 32.9548C114.021 33.4046 114.775 33.6295 115.728 33.6295C116.597 33.6295 117.394 33.5504 118.119 33.3921C118.852 33.2255 119.645 32.9465 120.497 32.555V36.0658C119.721 36.4573 118.92 36.728 118.093 36.8779C117.267 37.0279 116.28 37.1028 115.134 37.1028ZM114.843 25.7708C114.261 25.7708 113.772 25.954 113.375 26.3205C112.988 26.6787 112.76 27.2451 112.692 28.0197H116.942C116.926 27.3367 116.727 26.7911 116.348 26.383C115.977 25.9749 115.475 25.7708 114.843 25.7708Z" fill="url(#paint6_linear)"/>
<path d="M134.612 36.853L133.663 34.9789H133.562C132.896 35.7951 132.217 36.3532 131.526 36.6531C130.834 36.9529 129.94 37.1028 128.844 37.1028C127.495 37.1028 126.432 36.703 125.657 35.9034C124.881 35.1038 124.493 33.9793 124.493 32.53C124.493 31.0224 125.024 29.9021 126.087 29.1691C127.149 28.4278 128.688 28.0114 130.704 27.9198L133.094 27.8448V27.6449C133.094 26.4788 132.512 25.8957 131.349 25.8957C130.303 25.8957 128.975 26.2456 127.364 26.9452L125.935 23.7218C127.605 22.8722 129.713 22.4474 132.259 22.4474C134.098 22.4474 135.519 22.8972 136.522 23.7967C137.534 24.6963 138.04 25.954 138.04 27.5699V36.853H134.612ZM130.944 33.6545C131.543 33.6545 132.053 33.4671 132.474 33.0923C132.904 32.7174 133.119 32.2302 133.119 31.6305V30.531L131.981 30.581C130.354 30.6393 129.54 31.2307 129.54 32.3551C129.54 33.2214 130.008 33.6545 130.944 33.6545Z" fill="url(#paint7_linear)"/>
<path d="M147.235 28.8943C147.833 27.9531 148.344 27.2201 148.765 26.6953L151.978 22.6973H157.493L152.522 28.7194L157.809 36.853H152.155L149.018 31.7804L147.412 32.9923V36.853H142.441V17.4123H147.412V25.0586C147.412 26.3663 147.319 27.6449 147.134 28.8943H147.235Z" fill="url(#paint8_linear)"/>
<path d="M167.472 37.1028C165.086 37.1028 163.23 36.4781 161.906 35.2287C160.591 33.971 159.933 32.1844 159.933 29.8688C159.933 27.4783 160.545 25.6458 161.767 24.3715C162.99 23.0887 164.736 22.4474 167.004 22.4474C169.163 22.4474 170.828 23.0054 172 24.1216C173.181 25.2294 173.771 26.8286 173.771 28.9193V31.0932H164.93C164.963 31.8845 165.254 32.505 165.802 32.9548C166.359 33.4046 167.114 33.6295 168.067 33.6295C168.935 33.6295 169.732 33.5504 170.457 33.3921C171.191 33.2255 171.984 32.9465 172.835 32.555V36.0658C172.059 36.4573 171.258 36.728 170.432 36.8779C169.605 37.0279 168.619 37.1028 167.472 37.1028ZM167.181 25.7708C166.599 25.7708 166.11 25.954 165.714 26.3205C165.326 26.6787 165.098 27.2451 165.031 28.0197H169.281C169.264 27.3367 169.066 26.7911 168.686 26.383C168.315 25.9749 167.814 25.7708 167.181 25.7708Z" fill="url(#paint9_linear)"/>
<path d="M186.255 22.4474C186.685 22.4474 187.094 22.4807 187.482 22.5473L187.76 22.5973L187.317 27.2076C186.913 27.1076 186.352 27.0577 185.635 27.0577C184.556 27.0577 183.771 27.3034 183.282 27.7948C182.793 28.2779 182.549 28.9776 182.549 29.8938V36.853H177.603V22.6973H181.284L182.055 24.9587H182.296C182.709 24.209 183.282 23.6052 184.016 23.147C184.758 22.6806 185.504 22.4474 186.255 22.4474Z" fill="url(#paint10_linear)"/>
<defs>
<linearGradient id="paint0_linear" x1="12" y1="24.8" x2="187.76" y2="24.8" gradientUnits="userSpaceOnUse">
<stop stop-color="#F5102B"/>
<stop offset="1" stop-color="#B9081C"/>
</linearGradient>
<linearGradient id="paint1_linear" x1="12" y1="24.8" x2="187.76" y2="24.8" gradientUnits="userSpaceOnUse">
<stop stop-color="#F5102B"/>
<stop offset="1" stop-color="#B9081C"/>
</linearGradient>
<linearGradient id="paint2_linear" x1="12" y1="24.8" x2="187.76" y2="24.8" gradientUnits="userSpaceOnUse">
<stop stop-color="#F5102B"/>
<stop offset="1" stop-color="#B9081C"/>
</linearGradient>
<linearGradient id="paint3_linear" x1="12" y1="24.8" x2="187.76" y2="24.8" gradientUnits="userSpaceOnUse">
<stop stop-color="#F5102B"/>
<stop offset="1" stop-color="#B9081C"/>
</linearGradient>
<linearGradient id="paint4_linear" x1="12" y1="24.8" x2="187.76" y2="24.8" gradientUnits="userSpaceOnUse">
<stop stop-color="#F5102B"/>
<stop offset="1" stop-color="#B9081C"/>
</linearGradient>
<linearGradient id="paint5_linear" x1="12" y1="24.8" x2="187.76" y2="24.8" gradientUnits="userSpaceOnUse">
<stop stop-color="#F5102B"/>
<stop offset="1" stop-color="#B9081C"/>
</linearGradient>
<linearGradient id="paint6_linear" x1="12" y1="24.8" x2="187.76" y2="24.8" gradientUnits="userSpaceOnUse">
<stop stop-color="#F5102B"/>
<stop offset="1" stop-color="#B9081C"/>
</linearGradient>
<linearGradient id="paint7_linear" x1="12" y1="24.8" x2="187.76" y2="24.8" gradientUnits="userSpaceOnUse">
<stop stop-color="#F5102B"/>
<stop offset="1" stop-color="#B9081C"/>
</linearGradient>
<linearGradient id="paint8_linear" x1="12" y1="24.8" x2="187.76" y2="24.8" gradientUnits="userSpaceOnUse">
<stop stop-color="#F5102B"/>
<stop offset="1" stop-color="#B9081C"/>
</linearGradient>
<linearGradient id="paint9_linear" x1="12" y1="24.8" x2="187.76" y2="24.8" gradientUnits="userSpaceOnUse">
<stop stop-color="#F5102B"/>
<stop offset="1" stop-color="#B9081C"/>
</linearGradient>
<linearGradient id="paint10_linear" x1="12" y1="24.8" x2="187.76" y2="24.8" gradientUnits="userSpaceOnUse">
<stop stop-color="#F5102B"/>
<stop offset="1" stop-color="#B9081C"/>
</linearGradient>
</defs>
</svg>
