<svg width="189" height="44" viewBox="0 0 189 44" fill="none" xmlns="http://www.w3.org/2000/svg">
<path d="M27.7678 32.0055L19.9387 35.419V35.0745C18.4355 35.4503 16.7444 35.6695 15.1786 35.7635C7.78793 35.7008 1.96308 31.8176 1.86913 27.2454V25.5543C4.28049 29.0618 9.22848 31.4418 15.1786 31.3479C17.1828 31.4418 19.2497 31.1287 20.9721 30.6589L21.6611 28.9678C19.6255 29.5941 17.3707 30.0013 15.1786 30.0013C7.78793 30.0013 1.96308 26.1493 1.86913 21.4832V20.1053C4.28049 23.3622 9.22848 25.7109 15.1786 25.5543C17.8718 25.7109 20.4711 25.1472 22.6945 24.1764L23.039 22.4853C20.8782 23.6127 18.091 24.2704 15.2099 24.1764C7.81924 24.2704 1.9944 20.4184 1.90045 15.6584V14.2804C4.31181 17.6 9.2598 19.98 15.2099 20.074C18.5921 19.98 21.7864 19.0718 24.4169 17.6939L24.7614 15.6584C22.3814 17.4121 18.9052 18.5708 15.2099 18.7274C7.81924 18.5708 1.9944 14.6875 1.90045 9.86482C1.96308 5.26131 7.81924 1.4094 15.2099 1.34677C19.5942 1.4094 23.6967 2.94391 26.108 5.44922L26.3585 5.85633H28.0809L27.8304 5.44922C25.4191 2.161 20.565 0.000163257 15.2099 0.000163257C7.00502 -0.0311531 0.491211 4.44709 0.491211 9.83351V10.178V27.5586C0.773058 32.8197 7.13029 37.1101 15.1473 37.1101C20.4397 37.1414 25.2312 35.0432 27.7678 32.0055Z" fill="white"/>
<path d="M24.5721 44.0002L27.328 32.2878L19.4049 35.7326L24.2277 15.4396H14.958L17.3694 5.44971H46.9634L44.552 15.4396H34.9065L32.8397 20.9513L43.5186 16.4731L24.5721 44.0002ZM29.3949 29.9078L28.0169 36.7974L39.3848 19.6047L30.0838 23.7385L34.2176 14.093H43.5186L45.241 6.85894H18.3715L16.6491 14.093H25.9501L21.4718 33.3526L29.3949 29.9078Z" fill="#FABF2C"/>
<path d="M66.5999 12.1512V12.1825C66.6312 13.2786 66.2867 14.1241 65.5977 14.7504C64.9088 15.3768 63.9693 15.6899 62.748 15.6899C61.5266 15.6899 60.5245 15.2828 59.7729 14.4999C59.0213 13.717 58.6455 12.6835 58.6455 11.4309V9.39532C58.6455 8.14266 59.0213 7.10923 59.7416 6.32632C60.4932 5.54341 61.464 5.1363 62.654 5.1363C63.9067 5.1363 64.8775 5.44946 65.5977 6.04447C66.318 6.6708 66.6625 7.51634 66.6312 8.61241V8.64373H64.6269C64.6269 7.98608 64.4704 7.48503 64.1572 7.17186C63.844 6.8587 63.343 6.70212 62.6853 6.70212C62.059 6.70212 61.5892 6.95265 61.2448 7.45371C60.9003 7.95477 60.7124 8.5811 60.7124 9.36401V11.4309C60.7124 12.2138 60.9003 12.8714 61.2448 13.3725C61.6206 13.8736 62.1216 14.1241 62.7793 14.1241C63.4056 14.1241 63.844 13.9675 64.1572 13.6543C64.4704 13.3412 64.6269 12.8401 64.6269 12.1825H66.5999V12.1512ZM77.9364 11.3369C77.9364 12.5896 77.5293 13.6544 76.7464 14.4686C75.9635 15.2828 74.93 15.6899 73.6461 15.6899C72.3621 15.6899 71.36 15.2828 70.5457 14.4686C69.7628 13.6544 69.3557 12.5896 69.3557 11.3369V9.48927C69.3557 8.23662 69.7628 7.20318 70.5457 6.35764C71.3286 5.54341 72.3621 5.10498 73.6147 5.10498C74.8987 5.10498 75.9322 5.51209 76.7151 6.35764C77.5293 7.17186 77.9051 8.23662 77.9051 9.48927V11.3369H77.9364ZM75.8695 9.45796C75.8695 8.64373 75.6816 8.01741 75.2745 7.48503C74.8674 6.98397 74.335 6.70212 73.6147 6.70212C72.9258 6.70212 72.3621 6.95265 71.9863 7.48503C71.6105 7.98609 71.3913 8.64373 71.3913 9.45796V11.3056C71.3913 12.1198 71.5792 12.7775 71.9863 13.3099C72.3621 13.8109 72.9258 14.0928 73.6147 14.0928C74.335 14.0928 74.8674 13.8422 75.2745 13.3099C75.6816 12.8088 75.8695 12.1198 75.8695 11.3056V9.45796ZM83.2602 15.5333H81.1933V5.26156H83.2602V15.5333ZM95.1291 15.5333H93.0622L88.9285 8.61241H88.8971V15.5333H86.8303V5.26156H88.8971L93.0309 12.1825H93.0622V5.26156H95.1291V15.5333ZM105.495 6.8587H102.551V15.5333H100.484V6.8587H97.6031V5.26156H105.495V6.8587ZM114.013 11.0238H110.192V13.9675H114.733V15.5333H108.157V5.26156H114.733V6.8587H110.224V9.42664H114.044V11.0238H114.013ZM119.744 13.9675H124.347V15.5333H117.677V5.26156H119.744V13.9675ZM133.116 11.0238H129.295V13.9675H133.836V15.5333H127.26V5.26156H133.836V6.8587H129.327V9.42664H133.147V11.0238H133.116ZM144.672 14.1554C144.358 14.5625 143.889 14.9383 143.231 15.2515C142.605 15.5647 141.791 15.7212 140.788 15.7212C139.536 15.7212 138.534 15.3454 137.751 14.5625C136.968 13.7796 136.561 12.7775 136.561 11.5248V9.36401C136.561 8.11136 136.936 7.10923 137.719 6.32632C138.471 5.54341 139.473 5.1363 140.663 5.1363C141.916 5.1363 142.887 5.44946 143.544 6.04447C144.202 6.63948 144.546 7.42239 144.515 8.42452V8.45583H142.573C142.573 7.92345 142.417 7.48503 142.104 7.17186C141.791 6.8587 141.321 6.70212 140.726 6.70212C140.099 6.70212 139.598 6.95265 139.191 7.42239C138.815 7.92345 138.628 8.54978 138.628 9.30137V11.4622C138.628 12.2451 138.815 12.8714 139.223 13.3725C139.63 13.8736 140.162 14.0928 140.82 14.0928C141.321 14.0928 141.697 14.0301 141.978 13.9362C142.26 13.8422 142.479 13.717 142.636 13.5604V11.5562H140.663V10.1156H144.703V14.1554H144.672ZM149.995 11.4309V15.5333H147.929V5.26156H151.499C152.657 5.26156 153.597 5.54341 154.254 6.07579C154.912 6.60817 155.257 7.35975 155.257 8.29925C155.257 8.83162 155.131 9.27006 154.849 9.67717C154.568 10.053 154.16 10.3661 153.628 10.6167C154.223 10.8046 154.662 11.0864 154.943 11.5248C155.194 11.932 155.351 12.4643 155.351 13.0907V13.8422C155.351 14.1241 155.382 14.4373 155.476 14.7504C155.538 15.0636 155.695 15.2828 155.883 15.4394V15.596H153.753C153.565 15.4394 153.44 15.1889 153.378 14.8444C153.315 14.4999 153.284 14.1554 153.284 13.8422V13.122C153.284 12.6209 153.158 12.2138 152.877 11.9319C152.595 11.6501 152.188 11.4935 151.686 11.4935H149.995V11.4309ZM149.995 9.86507H151.467C152.031 9.86507 152.469 9.73981 152.751 9.48927C153.033 9.23874 153.19 8.89426 153.19 8.3932C153.19 7.92345 153.033 7.54766 152.751 7.26581C152.469 6.98396 152.062 6.8587 151.499 6.8587H149.995V9.86507ZM163.994 13.3412H160.674L159.985 15.5647H157.825L161.301 5.29288H163.399L166.844 15.5647H164.683L163.994 13.3412ZM161.175 11.7127H163.493L162.365 8.08004H162.334L161.175 11.7127ZM171.416 11.8067V15.5333H169.349V5.26156H173.295C174.485 5.26156 175.393 5.57472 176.082 6.16974C176.771 6.76475 177.084 7.57897 177.084 8.54978C177.084 9.52059 176.74 10.3348 176.082 10.9298C175.393 11.5248 174.485 11.838 173.295 11.838H171.416V11.8067ZM171.416 10.2409H173.295C173.858 10.2409 174.297 10.0843 174.61 9.77112C174.892 9.45796 175.049 9.05085 175.049 8.5811C175.049 8.08004 174.892 7.67292 174.61 7.35975C174.328 7.04659 173.89 6.89001 173.295 6.89001H171.416V10.2409ZM188.389 15.5333H186.322V11.2743H182.126V15.5333H180.059V5.26156H182.126V9.67717H186.322V5.26156H188.389V15.5333Z" fill="white"/>
<path d="M62.4041 32.3184H61.1201V25.5541H58.8027V24.458H64.7215V25.5541H62.4041V32.3184ZM71.0161 32.3184H69.7322V28.6544C69.7322 28.1846 69.6382 27.8402 69.4503 27.6209C69.2624 27.4017 68.9806 27.2765 68.5734 27.2765C68.0411 27.2765 67.6653 27.433 67.4147 27.7462C67.1642 28.0594 67.0389 28.5917 67.0389 29.3433V32.2871H65.7863V23.9256H67.0389V26.0551C67.0389 26.3996 67.0076 26.7441 66.9763 27.1512H67.0703C67.2268 26.8693 67.4774 26.6501 67.7905 26.4935C68.1037 26.337 68.4482 26.243 68.8553 26.243C70.2958 26.243 71.0161 26.9633 71.0161 28.4352V32.3184ZM75.3691 32.4123C74.4296 32.4123 73.7093 32.1305 73.2083 31.5981C72.6759 31.0657 72.4254 30.3141 72.4254 29.3747C72.4254 28.4038 72.6759 27.6522 73.1456 27.0886C73.6154 26.5249 74.3043 26.243 75.1499 26.243C75.9328 26.243 76.5591 26.4935 76.9976 26.9633C77.4673 27.433 77.6865 28.0907 77.6865 28.9362V29.6252H73.7093C73.7407 30.1889 73.8972 30.6586 74.1791 30.9405C74.4609 31.2536 74.8994 31.4102 75.4317 31.4102C75.7762 31.4102 76.1207 31.3789 76.4025 31.3163C76.7157 31.2536 77.0289 31.1284 77.3734 30.9718V32.0052C77.0602 32.1618 76.747 32.2558 76.4339 32.3184C76.152 32.381 75.7762 32.4123 75.3691 32.4123ZM75.1499 27.2138C74.7428 27.2138 74.4296 27.3391 74.1791 27.5896C73.9286 27.8401 73.8033 28.2159 73.7407 28.717H76.4339C76.4339 28.2159 76.3086 27.8401 76.0894 27.5896C75.8702 27.3391 75.557 27.2138 75.1499 27.2138ZM84.9519 27.3078H83.5114V32.3184H82.2274V27.3078H81.2566V26.7128L82.2274 26.337V25.9612C82.2274 25.2722 82.384 24.7398 82.7285 24.3954C83.0729 24.0509 83.574 23.8943 84.2316 23.8943C84.6701 23.8943 85.1085 23.9569 85.5469 24.1135L85.2024 25.0843C84.8893 24.9904 84.6074 24.9277 84.2943 24.9277C84.0124 24.9277 83.7932 25.0217 83.6679 25.1783C83.5427 25.3662 83.48 25.6167 83.48 25.9612V26.337H84.9206V27.3078H84.9519ZM90.1818 32.3184L89.9939 31.5355H89.9312C89.7433 31.8173 89.4928 32.0365 89.1796 32.1931C88.8665 32.3497 88.4907 32.4437 88.0836 32.4437C87.3633 32.4437 86.8309 32.2558 86.4551 31.9113C86.0793 31.5668 85.9227 31.0031 85.9227 30.2828V26.3683H87.2067V30.0323C87.2067 30.502 87.3006 30.8152 87.4885 31.0657C87.6764 31.285 87.9583 31.4102 88.3654 31.4102C88.8978 31.4102 89.2736 31.2536 89.5241 30.9405C89.7746 30.6273 89.8999 30.0949 89.8999 29.3433V26.3683H91.1839V32.3184H90.1818ZM95.1924 31.3789C95.5055 31.3789 95.8187 31.3163 96.1319 31.2223V32.1618C96.0066 32.2244 95.8187 32.2871 95.5995 32.3184C95.3803 32.3497 95.1611 32.381 94.9105 32.381C93.7205 32.381 93.1255 31.7547 93.1255 30.502V27.3078H92.3113V26.7441L93.1881 26.2743L93.6266 25.0217H94.4095V26.337H96.1006V27.3078H94.4095V30.502C94.4095 30.8152 94.4721 31.0344 94.6287 31.191C94.7226 31.3163 94.9418 31.3789 95.1924 31.3789ZM101.487 32.3184L101.299 31.5355H101.236C101.049 31.8173 100.798 32.0365 100.485 32.1931C100.172 32.3497 99.7959 32.4437 99.3888 32.4437C98.6685 32.4437 98.1361 32.2558 97.7603 31.9113C97.4158 31.5668 97.2279 31.0031 97.2279 30.2828V26.3683H98.5119V30.0323C98.5119 30.502 98.6059 30.8152 98.7938 31.0657C98.9817 31.285 99.2635 31.4102 99.6706 31.4102C100.203 31.4102 100.579 31.2536 100.829 30.9405C101.08 30.6273 101.205 30.0949 101.205 29.3433V26.3683H102.489V32.3184H101.487ZM107.312 26.243C107.562 26.243 107.782 26.2743 107.938 26.3056L107.813 27.4957C107.625 27.4644 107.437 27.433 107.249 27.433C106.748 27.433 106.341 27.5896 106.028 27.9341C105.715 28.2786 105.558 28.6857 105.558 29.2181V32.3184H104.305V26.3683H105.308L105.464 27.4017H105.527C105.715 27.0572 105.997 26.7754 106.31 26.5562C106.592 26.3683 106.936 26.243 107.312 26.243ZM111.414 32.4123C110.475 32.4123 109.754 32.1305 109.253 31.5981C108.721 31.0657 108.471 30.3141 108.471 29.3747C108.471 28.4038 108.721 27.6522 109.191 27.0886C109.661 26.5249 110.35 26.243 111.195 26.243C111.978 26.243 112.604 26.4935 113.043 26.9633C113.512 27.433 113.732 28.0907 113.732 28.9362V29.6252H109.754C109.786 30.1889 109.942 30.6586 110.224 30.9405C110.506 31.2536 110.945 31.4102 111.477 31.4102C111.821 31.4102 112.166 31.3789 112.448 31.3163C112.761 31.2536 113.074 31.1284 113.419 30.9718V32.0052C113.105 32.1618 112.792 32.2558 112.479 32.3184C112.166 32.381 111.821 32.4123 111.414 32.4123ZM111.195 27.2138C110.788 27.2138 110.475 27.3391 110.224 27.5896C109.974 27.8401 109.848 28.2159 109.786 28.717H112.479C112.479 28.2159 112.354 27.8401 112.135 27.5896C111.884 27.3391 111.571 27.2138 111.195 27.2138ZM123.283 29.312C123.283 30.2828 123.033 31.0344 122.532 31.5981C122.031 32.1305 121.342 32.4123 120.465 32.4123C119.901 32.4123 119.431 32.2871 118.993 32.0365C118.554 31.786 118.241 31.4102 118.022 30.9405C117.803 30.4707 117.678 29.9383 117.678 29.312C117.678 28.3412 117.928 27.5896 118.429 27.0572C118.93 26.5249 119.619 26.243 120.527 26.243C121.373 26.243 122.062 26.5249 122.563 27.0886C123.064 27.6522 123.283 28.3725 123.283 29.312ZM118.962 29.312C118.962 30.6899 119.463 31.3789 120.496 31.3789C121.498 31.3789 121.999 30.6899 121.999 29.312C121.999 27.9654 121.498 27.2765 120.496 27.2765C119.964 27.2765 119.588 27.4644 119.337 27.8088C119.087 28.1533 118.962 28.6544 118.962 29.312ZM127.73 27.3078H126.29V32.3184H125.006V27.3078H124.035V26.7128L125.006 26.337V25.9612C125.006 25.2722 125.162 24.7398 125.507 24.3954C125.851 24.0509 126.352 23.8943 127.01 23.8943C127.448 23.8943 127.887 23.9569 128.325 24.1135L127.981 25.0843C127.667 24.9904 127.386 24.9277 127.072 24.9277C126.791 24.9277 126.571 25.0217 126.446 25.1783C126.321 25.3348 126.258 25.6167 126.258 25.9612V26.337H127.699V27.3078H127.73ZM136.624 32.3184H135.34V28.6544C135.34 28.1846 135.246 27.8715 135.089 27.6209C134.933 27.4017 134.651 27.2765 134.275 27.2765C133.774 27.2765 133.43 27.433 133.21 27.7462C132.991 28.0594 132.866 28.5917 132.866 29.3433V32.3184H131.613V26.3683H132.615L132.803 27.1512H132.866C133.023 26.8693 133.273 26.6501 133.586 26.4935C133.899 26.337 134.244 26.2743 134.62 26.2743C135.528 26.2743 136.154 26.5875 136.436 27.2138H136.53C136.718 26.932 136.968 26.6814 137.282 26.5249C137.595 26.3683 137.971 26.2743 138.378 26.2743C139.098 26.2743 139.599 26.4622 139.943 26.8067C140.257 27.1512 140.445 27.7149 140.445 28.4352V32.3184H139.192V28.6544C139.192 28.1846 139.098 27.8715 138.941 27.6209C138.753 27.4017 138.503 27.2765 138.127 27.2765C137.626 27.2765 137.282 27.433 137.062 27.7462C136.843 28.0594 136.718 28.5291 136.718 29.1554V32.3184H136.624ZM147.397 29.312C147.397 30.2828 147.146 31.0344 146.645 31.5981C146.144 32.1305 145.455 32.4123 144.578 32.4123C144.015 32.4123 143.545 32.2871 143.106 32.0365C142.668 31.786 142.355 31.4102 142.136 30.9405C141.916 30.4707 141.791 29.9383 141.791 29.312C141.791 28.3412 142.042 27.5896 142.543 27.0572C143.044 26.5249 143.733 26.243 144.641 26.243C145.486 26.243 146.175 26.5249 146.677 27.0886C147.146 27.6522 147.397 28.3725 147.397 29.312ZM143.075 29.312C143.075 30.6899 143.576 31.3789 144.61 31.3789C145.612 31.3789 146.113 30.6899 146.113 29.312C146.113 27.9654 145.612 27.2765 144.61 27.2765C144.077 27.2765 143.701 27.4644 143.451 27.8088C143.2 28.1533 143.075 28.6544 143.075 29.312ZM154.098 32.3184H152.815V28.6544C152.815 28.1846 152.721 27.8402 152.533 27.6209C152.345 27.4017 152.063 27.2765 151.656 27.2765C151.123 27.2765 150.716 27.433 150.497 27.7462C150.278 28.0594 150.121 28.5917 150.121 29.3433V32.3184H148.869V26.3683H149.871L150.059 27.1512H150.121C150.309 26.8693 150.56 26.6501 150.873 26.4935C151.186 26.337 151.562 26.2743 151.969 26.2743C153.41 26.2743 154.098 26.9946 154.098 28.4665V32.3184ZM158.451 32.4123C157.512 32.4123 156.792 32.1305 156.291 31.5981C155.758 31.0657 155.508 30.3141 155.508 29.3747C155.508 28.4038 155.758 27.6522 156.228 27.0886C156.698 26.5249 157.387 26.243 158.232 26.243C159.015 26.243 159.642 26.4935 160.08 26.9633C160.55 27.433 160.769 28.0907 160.769 28.9362V29.6252H156.792C156.823 30.1889 156.98 30.6586 157.261 30.9405C157.543 31.2536 157.982 31.4102 158.514 31.4102C158.859 31.4102 159.203 31.3789 159.485 31.3163C159.767 31.2536 160.111 31.1284 160.456 30.9718V32.0052C160.143 32.1618 159.829 32.2558 159.516 32.3184C159.203 32.381 158.859 32.4123 158.451 32.4123ZM158.201 27.2138C157.794 27.2138 157.481 27.3391 157.23 27.5896C156.98 27.8401 156.854 28.2159 156.792 28.717H159.485C159.485 28.2159 159.36 27.8401 159.14 27.5896C158.921 27.3391 158.608 27.2138 158.201 27.2138ZM161.082 26.3683H162.46L163.681 29.7504C163.869 30.2202 163.994 30.6899 164.057 31.0971H164.088C164.12 30.9092 164.182 30.6586 164.276 30.3768C164.37 30.0949 164.809 28.7483 165.654 26.3683H167.032L164.496 33.1013C164.026 34.3226 163.274 34.949 162.178 34.949C161.896 34.949 161.614 34.9177 161.364 34.855V33.8529C161.552 33.8842 161.771 33.9155 162.022 33.9155C162.617 33.9155 163.055 33.5711 163.306 32.8508L163.525 32.2871L161.082 26.3683Z" fill="white"/>
</svg>
