<svg width="131" height="32" viewBox="0 0 131 32" fill="none" xmlns="http://www.w3.org/2000/svg">
<g clip-path="url(#clip0)">
<path d="M122.834 24.1746C115.154 24.1746 112.573 15.1131 117.444 10.1774C119.032 8.56863 120.727 7.75879 123.071 7.75879L131 7.75879V23.693C131 26.8996 129.52 29.4058 126.852 30.8832C124.367 32.2512 120.901 31.9776 117.973 31.9776V29.0994C120.263 29.0994 124.011 29.3073 125.664 28.3442C127.187 27.4687 127.964 26.046 127.964 24.0433V10.637H123.071C116.104 10.637 116.083 21.3073 122.834 21.3073C124.314 21.3073 125.62 20.8914 126.744 20.0706V23.1458C125.534 23.8354 124.227 24.1746 122.834 24.1746Z" fill="#DCDFF0"/>
<path d="M87.7832 17.5652V0.317627L90.7861 0.317627V17.5652C90.7861 20.52 91.9959 21.1547 94.6206 21.1547V23.9893C89.8355 23.9893 87.7832 22.4023 87.7832 17.5652Z" fill="#DCDFF0"/>
<path d="M81.3035 7.75946H84.544L80.5043 14.8292C84.8032 16.0002 84.6088 20.126 84.6088 23.9893H81.6708C81.6708 21.7019 81.9625 19.5241 80.353 18.0248C79.0244 16.7772 76.9937 16.6459 75.0278 16.8867V23.9893H72.0898V0.317627L75.0278 0.317627V14.2164C75.9675 14.085 76.8965 14.085 77.8363 14.2164L81.3035 7.75946Z" fill="#44A6DE"/>
<path d="M59.5059 23.989V14.7633C59.5059 11.4472 60.1972 9.17096 62.6383 8.26261C64.5826 7.54032 66.7861 7.75919 69.1083 7.75919V10.6046C67.7042 10.6046 65.0794 10.4076 63.9453 10.8673C62.6599 11.3926 62.4438 12.7496 62.4438 14.7633V23.989H59.5059Z" fill="#44A6DE"/>
<path d="M43.0224 10.1451C47.9155 5.11094 56.8268 8.52543 56.8268 15.8906C56.8268 24.8537 44.6318 27.0644 41.3266 19.0534C40.1061 16.0877 40.6893 12.4762 43.0224 10.1451ZM48.7688 10.6376C42.1151 10.6376 42.1151 21.1437 48.7688 21.1437C55.4334 21.1437 55.4334 10.6376 48.7688 10.6376Z" fill="#44A6DE"/>
<path d="M38.8528 10.604H35.0075V23.9883H32.0047V10.604H29.7363L31.0757 7.7586H32.0047C32.0047 2.93235 35.6339 0.283936 40.1814 0.283936V3.12934C36.7358 3.12934 35.0075 4.67243 35.0075 7.7586H38.8528V10.604Z" fill="#44A6DE"/>
<path fill-rule="evenodd" clip-rule="evenodd" d="M20.6633 21.3077C19.2808 21.2311 17.8873 21.3624 16.5048 21.0232C14.6468 20.5416 13.059 19.5785 11.5468 18.4842C10.3911 17.6306 9.24611 16.755 8.06874 15.9452C5.86523 14.3802 2.86241 14.5554 0 14.5006C0 13.7784 0.021603 13.056 0.021603 12.3337C0.021603 11.6005 0 10.8782 0 10.156C2.86241 10.1012 5.86523 10.2763 8.06874 8.71131C9.24611 7.90147 10.3911 7.02596 11.5468 6.17234C13.059 5.07796 14.6468 4.11489 16.5048 3.63336C17.8873 3.29411 19.2808 3.42543 20.6633 3.34882C19.9936 2.52804 19.3239 1.8714 18.5786 1.11627C18.3734 0.908341 18.2006 0.667576 18.3734 0.361147C18.503 0.120382 18.7407 0.0547193 18.9999 0.0547193C19.8856 0.0437754 20.739 0 21.6246 0C22.3159 0 22.8884 0.262653 23.3745 0.755127C24.6491 2.0684 25.9237 3.34882 27.1875 4.66209C27.8679 5.36249 27.8464 5.8878 27.1551 6.6101C25.9021 7.90147 24.6059 9.1819 23.3421 10.4952C22.8777 10.9657 22.3268 11.2065 21.6786 11.2284C20.8361 11.2503 19.9936 11.2503 19.1511 11.2503C18.8379 11.2503 18.5246 11.1956 18.3734 10.8673C18.179 10.5061 18.449 10.2872 18.6651 10.0574C19.3455 9.38984 20.0152 8.7332 20.8146 7.95619C18.7083 7.70448 16.9152 7.91241 15.3274 9.01774C13.9231 10.0027 12.5405 11.0205 11.1039 12.0273C10.942 12.1368 10.8447 12.2352 10.834 12.3337C10.8447 12.4213 10.942 12.5198 11.1039 12.6292C12.5405 13.636 13.9231 14.6538 15.3274 15.6388C16.9152 16.7441 18.7083 16.9521 20.8146 16.7003C20.0152 15.9233 19.3455 15.2667 18.6651 14.5992C18.449 14.3693 18.179 14.1504 18.3734 13.7893C18.5246 13.461 18.8379 13.4062 19.1511 13.4062C19.9936 13.4062 20.8361 13.4062 21.6786 13.4281C22.3268 13.45 22.8777 13.6907 23.3421 14.1613C24.6059 15.4746 25.9021 16.755 27.1551 18.0464C27.8464 18.7688 27.8679 19.294 27.1875 19.9944C25.9237 21.3077 24.6491 22.5881 23.3745 23.9014C22.8884 24.3939 22.3159 24.6566 21.6246 24.6566C20.739 24.6566 19.8856 24.6128 18.9999 24.6018C18.7407 24.6018 18.503 24.5362 18.3734 24.2953C18.2006 23.989 18.3734 23.7482 18.5786 23.5402C19.3239 22.7851 19.9936 22.1285 20.6633 21.3077Z" fill="#E7A320"/>
<path d="M98.9734 10.1451C103.866 5.11094 112.777 8.52543 112.777 15.8906C112.777 24.8537 100.583 27.0644 97.2769 19.0534C96.0568 16.0877 96.651 12.4762 98.9734 10.1451ZM104.73 10.6376C98.0658 10.6376 98.0658 21.1437 104.73 21.1437C111.384 21.1437 111.384 10.6376 104.73 10.6376Z" fill="#DCDFF0"/>
</g>
<defs>
<clipPath id="clip0">
<rect width="131" height="32" fill="white"/>
</clipPath>
</defs>
</svg>
