<svg width="200" height="60" viewBox="0 0 200 60" fill="none" xmlns="http://www.w3.org/2000/svg">
<path fill-rule="evenodd" clip-rule="evenodd" d="M13.1541 20.3333L12.2794 22.4762L12.2793 25.2208L11.5462 25.1549L10.1455 26.762L10.1455 33.7263L12.2792 33.8448L12.2791 40.1547H27.2866V34.6785L29.4335 34.7978V26.762L27.2866 26.5691V19.7976L13.1541 20.3333Z" fill="#1F1F1F"/>
<path d="M12.1718 18.7674V22.5349L11.1424 22.5442L10.1086 22.5581L10.095 24.6837L10.0859 26.814H9.04295H8L8.00907 30.0093L8.02267 33.2093L9.05655 33.2233L10.0859 33.2326V35.3488V37.4651H11.1288H12.1718V41.2326V45H19.4724H26.773V41.2326V37.4651H27.816H28.8589V35.3488V33.2326H29.9019H30.9448V32.1628V31.093H31.9878H33.0307V30.0233V28.9535H31.9878H30.9448V27.8837V26.814H29.9019L28.8589 26.814V24.6744L28.8589 22.5349H27.816H26.773V18.7674V15H19.4724H12.1718L12.1718 18.7674ZM18.4295 25.7209V31.0465H19.4724H20.5154V25.7209V20.3953H21.5583H22.6013V21.4651V22.5349H24.6872H26.773L26.773 24.6744V26.814H27.816H28.8589V30.0233V33.2326H27.816H26.773V35.3488V37.4651L24.7008 37.4744L22.6239 37.4884L22.6103 38.5442L22.6013 39.6047H19.4724H16.3436V38.5349V37.4651H14.2577H12.1718V35.3488V33.2326L11.1424 33.2233L10.1086 33.2093L10.095 30.0093L10.0859 26.814H11.1288H12.1718V24.6744V22.5349H14.2577H16.3436V21.4651V20.3953H17.3865H18.4295V25.7209Z" fill="white"/>
<path d="M41.599 29.9521L41.6508 36.331L42.4974 36.383C44.2079 36.487 44.156 36.591 44.156 33.7483C44.156 32.3962 44.1906 31.2349 44.2252 31.2002C44.2597 31.1655 46.0047 31.1655 48.078 31.2175L51.8444 31.3042L51.9308 33.8176L52.0172 36.331H53.1402H54.2633V30.0041V23.6772H53.1402H52.0172L51.9308 26.1907L51.8444 28.7041H47.9743H44.1042L44.0869 26.1907L44.0697 23.6772L42.8084 23.6252L41.5645 23.5732L41.599 29.9521Z" fill="white"/>
<path d="M57.1527 29.948L57.2046 36.3269H58.2412H59.2778L59.3297 33.8481L59.3815 31.3694L59.8134 31.1961C60.0726 31.1094 61.7485 31.0574 63.7526 31.0747L67.2254 31.1267L67.2772 33.7615L67.329 36.4136H68.4348C69.0395 36.4136 69.5751 36.3442 69.6269 36.2749C69.7133 36.1362 69.7651 31.9934 69.7479 26.6546L69.7306 23.5864H63.4244H57.1182L57.1527 29.948ZM67.2254 27.3999V28.7L63.3725 28.752C60.038 28.7866 59.5197 28.752 59.4333 28.5266C59.3642 28.388 59.3815 27.7466 59.4506 27.1399L59.5715 26.0132L63.3898 26.0479L67.2254 26.0999V27.3999Z" fill="white"/>
<path d="M72.4382 23.7079C72.3864 23.7945 72.3691 26.6373 72.3691 30.0348V36.2403L72.9047 36.327C73.1985 36.379 76.0492 36.3963 79.2282 36.379L85.0161 36.327L85.0679 35.0616L85.1198 33.8136H80.0057H74.9089L74.9435 29.8788L74.9953 25.944L79.8502 25.9613C82.5282 25.9613 84.8088 25.9093 84.9125 25.8399C85.0507 25.7706 85.1025 25.3546 85.0679 24.6959L85.0161 23.6732L78.7617 23.6212C75.3236 23.6039 72.4728 23.6385 72.4382 23.7079Z" fill="white"/>
<path d="M87.9047 29.948L87.9565 36.3269L88.7167 36.3789C90.3235 36.5002 90.2889 36.5522 90.2717 33.8828C90.2544 32.2881 90.3062 31.4734 90.4444 31.3347C90.5827 31.196 91.5502 31.092 93.0188 31.04L95.3857 30.9534L95.4376 29.8613L95.4894 28.7866H92.9842C91.5329 28.7866 90.4444 28.7173 90.3753 28.6133C90.3235 28.5266 90.2717 27.3479 90.2717 26.0132V23.5864H89.0623H87.8701L87.9047 29.948Z" fill="white"/>
<path d="M98.0625 24.6787C98.0625 25.5454 98.1316 25.8227 98.3389 25.9094C98.719 26.0654 100.481 26.0307 100.499 25.8747C100.499 25.8054 100.516 25.2854 100.533 24.7134L100.55 23.6733L99.3065 23.6213L98.0625 23.5693V24.6787Z" fill="white"/>
<path d="M103.35 23.7424C103.298 23.8118 103.264 26.6546 103.264 30.052C103.264 35.3909 103.298 36.2229 103.523 36.3096C103.886 36.4482 115.41 36.4482 115.755 36.3096C115.962 36.2229 116.032 35.9456 116.032 35.0095V33.8135H110.848H105.648L105.7 32.4614L105.752 31.1267L108.257 31.04L110.745 30.9534L110.727 29.9133L110.71 28.8733L108.24 28.7866L105.752 28.7L105.7 27.3479C105.648 26.1692 105.682 26.0132 105.959 26.0132C106.132 25.9959 108.378 25.9959 110.969 25.9959C114.684 25.9785 115.703 25.9439 115.859 25.7532C115.962 25.6319 116.032 25.1118 115.997 24.5918L115.945 23.6731L109.691 23.6211C106.235 23.6038 103.402 23.6558 103.35 23.7424Z" fill="white"/>
<path d="M118.658 29.948L118.709 36.3269H119.919H121.128L121.163 34.3335C121.18 33.2415 121.197 32.0454 121.197 31.6814L121.215 31.0227L123.772 31.0747L126.311 31.1267L126.398 32.4268L126.484 33.7268L127.573 33.7788C128.16 33.8135 128.644 33.7615 128.661 33.6921C128.713 32.6868 128.851 31.4214 128.903 31.2481C128.955 31.1094 129.352 31.04 130.112 31.04H131.235V27.3132V23.5864H124.929H118.623L118.658 29.948ZM128.765 26.0825C128.799 26.0999 128.834 26.7066 128.851 27.4173L128.903 28.7H125.033H121.163L121.146 27.3479C121.146 26.6199 121.197 25.9959 121.284 25.9612C121.474 25.8919 128.696 26.0132 128.765 26.0825Z" fill="white"/>
<path d="M134.213 29.948L134.265 36.3269H135.302H136.338L136.425 31.2654C136.477 28.492 136.563 26.1519 136.632 26.0825C136.736 25.9959 143.18 25.9092 144.113 25.9959C144.217 26.0132 144.286 27.8506 144.286 31.1614V36.3269L145.547 36.3789L146.791 36.4309V30V23.5864H140.485H134.179L134.213 29.948Z" fill="white"/>
<path d="M149.498 23.7079C149.447 23.7946 149.412 26.62 149.395 29.9828C149.377 34.6976 149.429 36.171 149.602 36.275C149.879 36.4484 161.662 36.4484 161.938 36.275C162.111 36.171 162.145 34.715 162.111 29.8961L162.076 23.6732L155.822 23.6212C152.384 23.6039 149.533 23.6386 149.498 23.7079ZM159.709 29.9655L159.744 33.8136L155.822 33.7789L151.883 33.7269L151.848 30.0868C151.831 28.0761 151.848 26.3427 151.883 26.2213C151.952 26.048 152.816 26.0133 155.805 26.048L159.657 26.1L159.709 29.9655Z" fill="white"/>
<path d="M164.926 23.7598C164.926 23.8465 164.926 26.7239 164.926 30.1213L164.909 36.3269H171.181H177.452L177.504 29.948L177.539 23.5864H171.233C167.138 23.5864 164.926 23.6558 164.926 23.7598ZM175.051 26.6199C175.12 29.2026 175.155 31.0227 175.137 32.2881L175.12 33.8135H171.233H167.328L167.363 29.9133L167.38 26.0132L171.198 26.0479L175.034 26.0999L175.051 26.6199Z" fill="white"/>
<path d="M180.387 23.7945C180.336 23.9158 180.318 26.7932 180.336 30.1733L180.387 36.3269H181.51H182.633L182.668 31.2307C182.703 28.4053 182.789 26.0825 182.875 26.0305C182.962 25.9785 184.707 25.9439 186.763 25.9785L190.495 26.0305L190.529 31.1787L190.581 36.3269H191.79H193V30V23.6731L186.728 23.6211C181.804 23.5864 180.439 23.6211 180.387 23.7945Z" fill="white"/>
<path d="M95.5447 26.4292C95.4929 26.5505 95.4756 27.0879 95.5102 27.5906L95.562 28.5266H96.7714H97.9808L98.0326 27.9373C98.0672 27.6079 98.0499 27.0706 97.9808 26.7585L97.8772 26.1865H96.7541C95.9767 26.1865 95.6138 26.2559 95.5447 26.4292Z" fill="white"/>
<path d="M95.5447 31.4388C95.4929 31.5774 95.4756 32.1495 95.5102 32.7041L95.562 33.7268L96.8232 33.7788L98.0672 33.8308V35.0269C98.0672 36.4136 98.1536 36.4829 99.7085 36.3789L100.555 36.3269L100.538 35.1136L100.521 33.9002L99.2939 33.8482L98.0845 33.7962L98.0326 32.5481L97.9808 31.3001L96.806 31.2481C95.9248 31.2134 95.6138 31.2654 95.5447 31.4388Z" fill="white"/>
<path d="M129.017 35.0615L129.069 36.3269H130.105H131.142L131.194 35.0615L131.245 33.8135H130.105H128.965L129.017 35.0615Z" fill="white"/>
</svg>
