<svg width="145" height="50" viewBox="0 0 145 50" fill="none" xmlns="http://www.w3.org/2000/svg">
<g clip-path="url(#clip0)">
<path d="M23.9424 0C25.7724 0.353505 27.2213 1.49294 28.7751 2.39646C32.4088 4.50946 36.0194 6.66343 39.635 8.80814C40.4999 9.32127 41.3997 9.79498 42.1933 10.4065C43.8121 11.6539 44.8292 13.3279 44.9482 15.3998C45.0576 17.3054 44.9756 19.2231 44.9754 21.1354C44.9754 22.2409 44.9678 23.3465 44.967 24.452C44.9643 27.5888 44.9823 30.7257 44.9544 33.8623C44.9361 35.9154 44.215 37.7016 42.7739 39.1675C41.9645 39.9909 40.9395 40.4951 39.9613 41.0639C37.6598 42.4019 35.3542 43.733 33.0445 45.057C30.5943 46.4683 28.1553 47.9 25.683 49.2707C25.038 49.6282 24.2878 49.7915 23.7083 50H21.1888C20.5849 49.7773 19.8464 49.6139 19.2181 49.2543C16.5205 47.7113 13.8547 46.1121 11.1786 44.5315C8.72196 43.081 6.25666 41.6443 3.81348 40.1707C1.46983 38.7571 0.131122 36.6859 0.127843 33.8861C0.120749 27.9097 0.157209 21.9333 0.197101 15.957C0.21289 13.5973 1.18609 11.6758 3.02334 10.2427C3.72217 9.69754 4.54298 9.31449 5.29192 8.83175C5.59274 8.6353 5.95693 8.56391 6.30853 8.63247C9.12965 9.07995 11.0418 11.3493 11.0371 14.2307C11.0298 18.7685 11.0265 23.3064 11.0272 27.8444C11.0272 28.0883 11.0291 28.3334 11.05 28.5761C11.2595 31.0306 12.5386 32.8834 14.3393 34.4076C16.0463 35.8728 18.1345 36.8095 20.3541 37.1055C22.7736 37.4377 25.0928 37.1295 27.2951 36.0525C29.5183 34.9651 31.273 33.3422 32.4939 31.1712C33.7723 28.8979 34.3027 26.4414 34.0338 23.8306C33.8373 21.8777 33.1722 20.0029 32.0964 18.3691C31.265 17.0939 30.2242 16.0509 28.807 15.4943C27.8165 15.1053 26.7781 14.8376 25.754 14.5412C23.9958 14.0325 22.2307 13.5481 20.4709 13.0445C19.5959 12.7942 18.8222 13.5433 18.8636 14.2885C18.9246 15.3906 18.8894 16.4988 18.8751 17.6043C18.8619 18.6211 19.3182 19.2617 20.2658 19.5232C21.8218 19.9527 23.3838 20.3651 24.928 20.8357C25.3894 20.9728 25.8166 21.2078 26.1811 21.5251C27.9252 23.1081 28.2538 25.8211 27.1752 27.9022C26.8414 28.5516 26.3825 29.127 25.8255 29.5943C25.2685 30.0616 24.6246 30.4114 23.9319 30.6231C23.2392 30.8349 22.5115 30.9043 21.7919 30.8272C21.0722 30.7501 20.3751 30.5282 19.7416 30.1744C18.1779 29.3103 17.3149 28.0566 17.3313 26.1386C17.3855 19.8913 17.3482 13.6433 17.3533 7.39551C17.3554 4.9344 18.1532 2.73607 19.5662 0.75407C19.6675 0.625065 19.8026 0.527524 19.9562 0.472624C20.4158 0.301812 20.8855 0.159008 21.3673 0H23.9424Z" fill="#4770FF"/>
<path d="M70.9474 24.7869C71.5363 25.1808 72.1345 25.4983 72.6317 25.9337C73.3182 26.5347 73.5983 27.3842 73.6301 28.2791C73.6722 29.46 73.6988 30.6472 73.6274 31.8253C73.4796 34.2598 71.9397 36.0328 69.5351 36.3779C69.1202 36.4333 68.7019 36.4596 68.2834 36.4568C65.4879 36.4634 62.6924 36.4644 59.8968 36.4599C59.1926 36.4599 59.0719 36.3394 59.0718 35.6333C59.0711 28.6671 59.0711 21.7009 59.0718 14.7347C59.0718 14.0051 59.2272 13.849 59.9426 13.8489C62.7508 13.8489 65.5594 13.8238 68.3671 13.8602C69.8373 13.8792 71.161 14.3401 72.1809 15.4958C72.7765 16.1705 73.1749 16.9684 73.2616 17.8368C73.3979 19.0862 73.4289 20.3451 73.3543 21.5999C73.2501 23.0998 72.4323 24.1792 71.0257 24.7561C70.9923 24.7733 70.9615 24.7953 70.9342 24.8214C70.9255 24.8282 70.9239 24.8441 70.9474 24.7869ZM62.507 29.9124C62.507 30.9407 62.5134 31.9691 62.5035 32.9973C62.4999 33.3582 62.6603 33.5188 63.005 33.5186C64.657 33.5179 66.3101 33.5522 67.9609 33.5071C69.5081 33.4647 70.2772 32.6121 70.283 31.0555C70.2849 30.554 70.2838 30.0529 70.2839 29.5516C70.2839 29.3201 70.2839 29.0887 70.2835 28.8572C70.2788 27.2382 69.4521 26.3754 67.8442 26.3571C66.2432 26.3388 64.6418 26.3504 63.0406 26.3542C62.594 26.3553 62.51 26.4438 62.508 26.9043C62.5037 27.9071 62.5067 28.9094 62.507 29.9124ZM62.507 20.1227C62.507 21.0478 62.5108 21.9728 62.5049 22.8978C62.5029 23.2169 62.6011 23.4202 62.9562 23.4195C64.6201 23.4161 66.2844 23.4392 67.9478 23.4073C68.9981 23.3871 69.7958 22.6705 69.9004 21.6084C69.9978 20.7024 70.0105 19.7892 69.9382 18.8808C69.8152 17.5096 69.0353 16.8644 67.6774 16.8612C66.1404 16.8574 64.6035 16.8574 63.0666 16.8612C62.5932 16.8622 62.5102 16.9472 62.508 17.4249C62.5037 18.3244 62.5067 19.2234 62.5069 20.1227L62.507 20.1227Z" fill="#4770FF"/>
<path d="M106.736 34.7805C106.273 35.1945 105.864 35.6302 105.388 35.9687C104.81 36.3796 104.117 36.4709 103.42 36.458C102.43 36.4397 101.429 36.4978 100.454 36.3617C98.5393 36.0943 97.2073 35.0181 96.6546 33.1055C96.476 32.4784 96.3817 31.8298 96.3742 31.1772C96.3437 28.6196 96.3554 26.0613 96.3643 23.5033C96.3738 20.7902 98.1989 18.7691 100.878 18.5663C102.091 18.4744 103.314 18.494 104.532 18.4844C106.095 18.4722 107.658 18.4798 109.222 18.4839C109.399 18.4817 109.576 18.5002 109.749 18.5391C109.87 18.5595 109.98 18.6238 110.058 18.72C110.135 18.8162 110.175 18.9377 110.171 19.0618C110.173 19.1775 110.175 19.2932 110.175 19.409C110.175 24.7951 110.175 30.1811 110.175 35.5671C110.175 36.3807 110.094 36.4598 109.271 36.4603C108.635 36.4606 108 36.464 107.365 36.4586C106.906 36.4548 106.751 36.3006 106.738 35.8314C106.728 35.4645 106.736 35.0969 106.736 34.7805ZM106.734 26.4321C106.734 25.0058 106.734 23.5796 106.733 22.1534C106.732 21.6493 106.655 21.571 106.156 21.5699C104.797 21.5671 103.438 21.5629 102.079 21.5709C100.716 21.5787 99.8286 22.4069 99.8101 23.7852C99.7773 26.2645 99.7813 28.7448 99.809 31.2243C99.8229 32.4649 100.45 33.2013 101.671 33.3691C102.763 33.519 103.879 33.5654 104.962 33.2817C105.324 33.1732 105.658 32.9856 105.94 32.7323C106.582 32.1795 106.709 31.3865 106.726 30.5952C106.755 29.2078 106.734 27.8197 106.734 26.4321Z" fill="#4770FF"/>
<path d="M136.797 35.5319C136.405 35.5319 136.039 35.51 135.676 35.5374C135.203 35.5731 134.926 35.3417 134.78 34.9248C134.661 34.5865 134.575 34.2364 134.473 33.8917C133.688 31.2191 132.902 28.5464 132.116 25.8738C131.49 23.743 130.867 21.6116 130.246 19.4797C130.208 19.3569 130.18 19.2314 130.161 19.1042C130.113 18.7372 130.261 18.5094 130.625 18.4989C131.412 18.4758 132.2 18.48 132.987 18.5009C133.361 18.5109 133.581 18.7588 133.681 19.1163C133.98 20.1923 134.279 21.2683 134.577 22.3443C135.421 25.4015 136.263 28.4589 137.104 31.5166C137.217 31.9289 137.324 32.3428 137.434 32.7559L137.554 32.7541C137.593 32.642 137.641 32.5321 137.672 32.4177C138.293 30.1652 138.912 27.9124 139.531 25.6593C140.129 23.4801 140.725 21.3006 141.32 19.1208C141.429 18.7231 141.695 18.5036 142.091 18.4936C142.803 18.476 143.515 18.4671 144.226 18.4962C144.777 18.5189 144.959 18.769 144.816 19.3115C144.453 20.6892 144.066 22.0606 143.681 23.4327C143.014 25.8182 142.348 28.2045 141.668 30.5864C141.016 32.8695 140.379 35.1576 139.671 37.4232C139.302 38.6464 138.65 39.7629 137.769 40.6797C136.822 41.6539 135.643 42.0634 134.345 42.1542C133.535 42.2108 132.718 42.1711 131.905 42.1655C131.363 42.1619 131.219 42.0159 131.216 41.484C131.212 40.9184 131.211 40.3527 131.216 39.7871C131.222 39.2574 131.374 39.0985 131.899 39.0813C132.47 39.0627 133.043 39.0844 133.612 39.0412C135.213 38.9196 136.058 37.8898 136.562 36.4708C136.648 36.2291 136.72 35.9824 136.795 35.7369C136.802 35.6688 136.803 35.6001 136.797 35.5319Z" fill="#4770FF"/>
<path d="M120.833 29.7364C120.575 30.2759 120.314 30.8141 120.058 31.3552C119.337 32.8856 118.617 34.417 117.9 35.9495C117.732 36.3106 117.453 36.458 117.078 36.4586C116.176 36.4606 115.274 36.4639 114.371 36.4581C113.86 36.4548 113.754 36.2794 114.003 35.809C114.463 34.9365 114.941 34.0732 115.412 33.2068C116.428 31.3389 117.451 29.4745 118.451 27.5973C118.528 27.4516 118.504 27.1819 118.421 27.0286C117.532 25.3834 116.621 23.7497 115.716 22.1135C115.17 21.1272 114.621 20.1429 114.078 19.1549C113.879 18.7923 113.991 18.5215 114.4 18.5082C115.339 18.4774 116.28 18.4812 117.219 18.5062C117.599 18.5163 117.87 18.7502 118.037 19.1112C118.833 20.8333 119.633 22.5532 120.439 24.2708C120.566 24.5435 120.71 24.8085 120.846 25.0771L120.966 25.0793C121.179 24.5948 121.391 24.1103 121.603 23.6257C122.251 22.146 122.905 20.6688 123.545 19.1854C123.755 18.6983 124.115 18.4837 124.621 18.4833C125.409 18.482 126.197 18.4756 126.985 18.4851C127.591 18.4929 127.73 18.7158 127.447 19.2443C126.126 21.7054 124.811 24.1691 123.46 26.6131C123.19 27.1018 123.199 27.4733 123.469 27.9519C124.697 30.127 125.89 32.3221 127.095 34.5101C127.343 34.9589 127.602 35.4014 127.833 35.8588C128.046 36.2813 127.933 36.4557 127.465 36.4586C126.563 36.4641 125.66 36.4513 124.758 36.4641C124.334 36.4701 124.067 36.2804 123.89 35.9044C123.219 34.4781 122.544 33.0536 121.865 31.6307C121.564 30.9981 121.263 30.3658 120.96 29.734L120.833 29.7364Z" fill="#4770FF"/>
<path d="M91.3348 24.1282C91.3348 27.9325 91.3348 31.7368 91.3348 35.5411C91.3348 36.3721 91.2454 36.46 90.4095 36.4604C89.8122 36.4604 89.215 36.4634 88.6178 36.4592C88.0489 36.4552 87.9008 36.3055 87.9001 35.7196C87.8971 33.8045 87.8967 31.8895 87.8987 29.9745C87.8987 24.2167 87.8987 18.4589 87.8987 12.701C87.8987 11.8398 88.0404 11.6967 88.8948 11.6951C89.4412 11.6941 89.9877 11.6881 90.5339 11.6978C91.1265 11.7084 91.3335 11.9231 91.3338 12.5225C91.3356 16.3911 91.336 20.2597 91.3348 24.1282Z" fill="#4770FF"/>
<path d="M82.3377 27.5445C82.3377 30.2432 82.3377 32.9418 82.3377 35.6405C82.3377 36.4197 82.2957 36.4603 81.5126 36.4605C80.8773 36.4605 80.2421 36.4639 79.6069 36.459C79.1182 36.4552 78.9237 36.2567 78.9029 35.7555C78.8986 35.6529 78.9011 35.5499 78.9011 35.4469C78.9011 30.1523 78.9013 24.8578 78.9017 19.5632C78.899 19.3963 78.9048 19.2293 78.9192 19.063C78.9544 18.7209 79.1497 18.509 79.4875 18.5011C80.2491 18.4833 81.0119 18.4745 81.7732 18.4981C82.1664 18.5103 82.3357 18.7558 82.3363 19.2169C82.3391 21.3373 82.3396 23.4577 82.338 25.578C82.3378 26.2336 82.3377 26.8891 82.3377 27.5445Z" fill="#4770FF"/>
<path d="M82.3377 13.9931C82.3377 14.4946 82.3437 14.9956 82.3361 15.4967C82.3285 16.0153 82.1775 16.1687 81.6775 16.1719C80.9787 16.1765 80.2798 16.1778 79.5811 16.1713C79.1363 16.1671 78.9148 15.9656 78.9089 15.5173C78.8953 14.4894 78.895 13.4614 78.9078 12.4332C78.9126 12.0011 79.1228 11.7832 79.5414 11.7749C80.278 11.7604 81.0152 11.7617 81.7519 11.7739C82.1589 11.7805 82.324 11.955 82.3335 12.3739C82.3456 12.9134 82.3364 13.4533 82.3364 13.9931H82.3377Z" fill="#4770FF"/>
</g>
<defs>
<clipPath id="clip0">
<rect width="144.737" height="50" fill="white" transform="translate(0.125977)"/>
</clipPath>
</defs>
</svg>
