<svg width="160" height="42" viewBox="0 0 160 42" fill="none" xmlns="http://www.w3.org/2000/svg">
<g clip-path="url(#clip0)">
<path d="M66.0271 19.021C65.5956 17.3367 64.5077 16.1043 62.3806 16.1043C59.2415 16.1043 57.9288 18.8765 57.9288 21.6898C57.9288 24.503 59.2415 27.2768 62.3806 27.2768C64.6597 27.2768 65.9086 25.5727 66.1122 23.4365L68.6146 23.4365C68.4095 26.9481 65.9283 29.3704 62.3851 29.3704C57.9956 29.3704 55.3701 25.8785 55.3701 21.6882C55.3701 17.498 57.9865 14 62.376 14C65.6776 14.0198 68.2819 15.8486 68.5903 19.0119L66.0271 19.021Z" fill="white"/>
<path d="M70.1299 23.6951C70.1299 20.4497 72.0777 18.1096 75.4827 18.1096C78.8876 18.1096 80.8354 20.4497 80.8354 23.6951C80.8354 26.9405 78.8876 29.3034 75.4827 29.3034C72.0777 29.3034 70.1299 26.9618 70.1299 23.6951ZM78.4971 23.6951C78.4971 21.8693 77.5749 19.9583 75.4827 19.9583C73.3905 19.9583 72.4682 21.8678 72.4682 23.6951C72.4682 25.5225 73.3905 27.4548 75.4827 27.4548C77.5749 27.4548 78.4971 25.5438 78.4971 23.6951Z" fill="white"/>
<path d="M82.8447 14.35L85.1831 14.35L85.1831 16.5684L82.8447 16.5684L82.8447 14.35ZM82.8447 18.3972L85.1831 18.3972L85.1831 29.0159L82.8447 29.0159L82.8447 18.3972Z" fill="white"/>
<path d="M87.7266 18.3972L89.9418 18.3972L89.9418 19.9583L89.9829 19.9993C90.3187 19.4211 90.801 18.9417 91.3809 18.6097C91.9609 18.2776 92.618 18.1046 93.286 18.1081C95.5833 18.1081 97.0389 19.3405 97.0389 21.7217L97.0389 29.0143L94.7006 29.0143L94.7006 22.3394C94.6595 20.6764 94.0032 19.9583 92.6296 19.9583C91.0707 19.9583 90.0649 21.1892 90.0649 22.7502L90.0649 29.0158L87.7266 29.0158L87.7266 18.3972Z" fill="white"/>
<path d="M112.607 29.0159L110.966 29.0159L110.577 27.2905C109.209 28.8515 107.951 29.3643 106.17 29.3643C101.784 29.3673 99.1523 25.8678 99.1523 21.6821C99.1523 17.4964 101.784 14 106.167 14C109.358 14 112.053 15.7041 112.442 19.0119L109.94 19.0119C109.694 17.0811 108.013 16.0951 106.167 16.0951C103.028 16.0951 101.716 18.8673 101.716 21.6806C101.716 24.4939 103.028 27.2676 106.167 27.2676C108.791 27.3087 110.227 25.7279 110.27 23.2417L106.372 23.2417L106.372 21.2926L112.602 21.2926L112.607 29.0159Z" fill="white"/>
<path d="M116.895 24.3113C116.895 25.9759 117.798 27.4548 119.745 27.4548C121.099 27.4548 121.92 26.8583 122.328 25.6883L124.545 25.6883C124.033 28.0086 122.064 29.3034 119.745 29.3034C116.424 29.3034 114.557 26.9816 114.557 23.7164C114.557 20.6962 116.532 18.1096 119.685 18.1096C123.027 18.1096 125.078 21.1283 124.69 24.3113L116.895 24.3113ZM122.351 22.7715C122.269 21.2926 121.263 19.9583 119.685 19.9583C118.063 19.9583 116.957 21.1892 116.895 22.7715L122.351 22.7715Z" fill="white"/>
<path d="M133.632 21.9499C133.447 20.6551 132.503 19.9583 131.212 19.9583C129.996 19.9583 128.299 20.5943 128.299 23.8184C128.299 25.5848 129.079 27.4548 131.109 27.4548C132.462 27.4548 133.406 26.551 133.632 25.031L135.971 25.031C135.539 27.7834 133.844 29.3034 131.109 29.3034C127.786 29.3034 125.961 26.9405 125.961 23.8184C125.961 20.614 127.705 18.1096 131.191 18.1096C133.652 18.1096 135.749 19.342 135.971 21.9499L133.632 21.9499Z" fill="white"/>
<path d="M137.945 14.35L140.284 14.35L140.284 22.6894L144.509 18.3972L147.381 18.3972L143.319 22.2984L147.77 29.0159L144.913 29.0159L141.672 23.8595L140.278 25.2151L140.278 29.0189L137.945 29.0189L137.945 14.35Z" fill="white"/>
<path d="M148.4 23.6951C148.4 20.4497 150.348 18.1096 153.753 18.1096C157.158 18.1096 159.108 20.4497 159.108 23.6951C159.108 26.9405 157.158 29.3034 153.753 29.3034C150.348 29.3034 148.4 26.9618 148.4 23.6951ZM156.769 23.6951C156.769 21.8693 155.845 19.9583 153.753 19.9583C151.661 19.9583 150.739 21.8678 150.739 23.6951C150.739 25.5225 151.661 27.4548 153.753 27.4548C155.845 27.4548 156.769 25.5438 156.769 23.6951Z" fill="white"/>
<path d="M42.3949 20.9043C42.4132 25.0572 41.2013 29.1221 38.9125 32.5852C36.6238 36.0483 33.3609 38.754 29.5366 40.3601C25.7122 41.9662 21.4982 42.4005 17.4273 41.6082C13.3564 40.816 9.61159 38.8326 6.66637 35.909C3.72114 32.9854 1.7078 29.2528 0.880959 25.1834C0.0541148 21.1139 0.450902 16.8903 2.02114 13.0466C3.59138 9.20299 6.26455 5.91195 9.7026 3.5897C13.1406 1.26745 17.1892 0.0182959 21.3362 0.000199632C26.8969 -0.0240656 32.2394 2.16466 36.1887 6.08492C40.1379 10.0052 42.3703 15.3359 42.3949 20.9043Z" fill="#8DC63F"/>
<path d="M40.8228 20.9121C40.8402 24.7529 39.7198 28.5126 37.6034 31.7157C35.4871 34.9188 32.4697 37.4215 28.9329 38.9074C25.3961 40.3932 21.4988 40.7954 17.7337 40.0631C13.9686 39.3308 10.505 37.4969 7.78076 34.7933C5.05652 32.0897 3.19406 28.6379 2.42889 24.8743C1.66373 21.1107 2.03023 17.2044 3.48205 13.6495C4.93387 10.0945 7.4058 7.05042 10.5852 4.9023C13.7647 2.75417 17.5088 1.59844 21.3442 1.58124C26.4869 1.55859 31.428 3.58238 35.0808 7.20751C38.7336 10.8326 40.799 15.7622 40.8228 20.9121Z" fill="#F9E988"/>
<path d="M21.7837 2.8395C23.0165 2.62039 24.2781 2.62039 25.5108 2.8395C26.7555 3.03686 27.9586 3.44052 29.0707 4.0339C30.1768 4.6425 31.1325 5.46869 32.0837 6.24314C33.0348 7.01759 33.9814 7.8103 34.8824 8.67757C35.8021 9.53132 36.6048 10.5034 37.2694 11.5685C37.9536 12.6251 38.5144 13.7569 38.9407 14.9417C39.7505 17.3244 40.0316 19.8912 39.6274 22.3393L39.5074 22.3393C39.1017 19.9125 38.5517 17.5998 37.6841 15.3996C37.2769 14.2917 36.7978 13.2117 36.2498 12.1664C35.6781 11.121 35.0481 10.1086 34.3628 9.13403C33.6658 8.14881 32.8116 7.28521 31.8345 6.57787C30.8499 5.87493 29.718 5.42 28.6225 4.98789C27.527 4.55578 26.4407 4.10845 25.2981 3.7798C24.1555 3.45115 22.9947 3.20467 21.7822 2.96579L21.7837 2.8395Z" fill="white"/>
<path d="M31.2636 14.0576C29.8566 13.6498 28.398 13.0717 26.9212 12.4874C26.8361 12.1162 26.5079 11.6536 25.8439 11.0891C24.8791 10.2508 23.0665 10.2721 21.5 10.6433C19.7709 10.2356 18.0631 10.091 16.4237 10.4912C3.01511 14.19 10.6181 23.2141 5.69531 32.2854C6.39575 33.7735 13.9456 42.4552 24.87 40.1258C24.87 40.1258 21.1338 31.1351 29.5649 26.8201C36.4037 23.3069 41.3447 16.807 31.2636 14.0576Z" fill="#8BC53F"/>
<path d="M32.9207 19.9626C32.9216 20.1236 32.8748 20.2813 32.7862 20.4156C32.6976 20.55 32.5713 20.6551 32.4231 20.7175C32.2749 20.7799 32.1115 20.797 31.9537 20.7664C31.7958 20.7359 31.6506 20.6592 31.5362 20.546C31.4219 20.4328 31.3437 20.2882 31.3114 20.1305C31.2792 19.9728 31.2944 19.809 31.3551 19.6599C31.4158 19.5108 31.5192 19.3831 31.6524 19.2929C31.7856 19.2027 31.9425 19.1541 32.1032 19.1532C32.3187 19.1524 32.5257 19.2371 32.6789 19.3888C32.8321 19.5406 32.919 19.7469 32.9207 19.9626Z" fill="white"/>
<path d="M21.5 10.6373C22.477 10.7073 26.0095 11.8545 26.9212 12.4814C26.1615 10.2752 23.6044 9.98154 21.5 10.6373Z" fill="#009345"/>
<path d="M22.4304 16.2167C22.4307 16.9595 22.211 17.6856 21.7991 18.3034C21.3873 18.9211 20.8017 19.4026 20.1166 19.6871C19.4314 19.9715 18.6774 20.0461 17.9499 19.9014C17.2224 19.7567 16.5541 19.3991 16.0295 18.874C15.5049 18.3489 15.1476 17.6798 15.0028 16.9514C14.858 16.2229 14.9322 15.4678 15.216 14.7816C15.4997 14.0953 15.9804 13.5088 16.5971 13.0961C17.2137 12.6834 17.9388 12.4631 18.6805 12.4631C19.1729 12.4629 19.6605 12.5599 20.1154 12.7484C20.5704 12.937 20.9837 13.2134 21.332 13.562C21.6802 13.9106 21.9564 14.3244 22.1449 14.7799C22.3334 15.2354 22.4304 15.7237 22.4304 16.2167Z" fill="white"/>
<path d="M21.3183 16.2501C21.3183 16.7725 21.1636 17.2832 20.8738 17.7176C20.5839 18.1519 20.172 18.4905 19.69 18.6904C19.208 18.8903 18.6777 18.9426 18.166 18.8407C17.6544 18.7388 17.1844 18.4872 16.8155 18.1178C16.4466 17.7484 16.1954 17.2778 16.0937 16.7654C15.9919 16.253 16.0441 15.722 16.2437 15.2393C16.4434 14.7567 16.7815 14.3441 17.2152 14.0539C17.649 13.7637 18.1589 13.6088 18.6806 13.6088C19.3802 13.6088 20.0511 13.887 20.5457 14.3824C21.0404 14.8777 21.3183 15.5496 21.3183 16.2501Z" fill="#58595B"/>
<path d="M35.9569 21.6181C32.9181 23.7619 29.463 25.3885 24.5615 25.3885C22.2672 25.3885 21.8023 22.954 20.2859 24.1438C19.5034 24.7616 16.7442 26.1431 14.5548 26.0381C12.3654 25.9332 8.81607 24.6475 7.82695 19.9673C7.43494 24.6475 7.23439 28.0952 5.47949 32.0466C8.97408 37.6504 17.3064 41.973 24.8699 40.1106C24.057 34.4278 29.0163 28.8621 31.8105 26.0138C32.8741 24.935 34.8948 23.1746 35.9569 21.6151L35.9569 21.6181Z" fill="#8BC53F"/>
<path d="M35.8392 21.7581C34.8957 22.6193 33.7728 23.2568 32.6302 23.8198C31.4737 24.3697 30.2681 24.8093 29.0293 25.1328C27.7895 25.4539 26.4965 25.6958 25.1868 25.5771C23.8771 25.4584 22.5385 25.0126 21.6709 24.0297L21.7119 23.9826C22.7755 24.6733 24.0032 24.9168 25.2247 24.9518C26.463 24.9895 27.7015 24.8874 28.9169 24.6475C30.1446 24.3901 31.3456 24.0182 32.5041 23.5368C33.6634 23.0575 34.8106 22.5021 35.7982 21.7109L35.8392 21.7581Z" fill="#58595B"/>
</g>
<defs>
<clipPath id="clip0">
<rect width="158.667" height="42" fill="white" transform="translate(0.458984)"/>
</clipPath>
</defs>
</svg>
