<svg width="234" height="40" viewBox="0 0 234 40" fill="none" xmlns="http://www.w3.org/2000/svg">
<g clip-path="url(#clip0)">
<path d="M18.3027 0.0937767C18.084 0.125027 17.3809 0.234402 16.7402 0.328152C15.3184 0.531277 12.7715 1.3594 11.4434 2.01565C5.49023 5.03128 1.45898 10.7032 0.568359 17.3438C0.287109 19.4063 0.287109 20.5938 0.568359 22.6563C1.45898 29.2969 5.49023 34.9688 11.4434 37.9844C12.6777 38.6094 15.2402 39.4375 16.7402 39.7032C18.3965 40 21.9746 39.9688 23.6621 39.6407C27.1309 38.9532 30.7559 37.1407 33.0371 34.9532C33.8652 34.1407 33.9277 34.0469 33.9277 33.3594C33.9277 32.7344 33.8496 32.5469 33.3965 32.0938C32.6465 31.3438 31.8652 31.3594 30.9277 32.1094C28.5059 34.0469 26.7246 35.0469 24.5215 35.6875C19.0371 37.2657 13.3184 35.9063 9.14648 32C8.52148 31.4063 8.14648 30.9375 8.19336 30.7969C8.22461 30.6563 10.0996 27.5938 12.3496 23.9844L16.4277 17.4375V20.7969C16.4277 24.5157 16.5684 25.6875 17.1621 26.6875C17.584 27.4219 18.4746 27.9532 19.3027 27.9688C20.0059 27.9688 21.0527 27.3907 21.6777 26.6719C21.9746 26.3125 23.4434 24.0625 24.9121 21.6719L27.5996 17.3282L27.6934 20.1875C27.7871 23.2969 27.9277 23.9844 28.8027 25.3594C30.9746 28.7813 36.0371 28.6563 38.3809 25.1094C39.2246 23.8282 39.5684 22.6563 39.6621 20.7032C40.0215 13.2188 35.7559 5.7969 29.0996 2.2969C27.584 1.50003 25.3809 0.718777 23.709 0.375027C22.584 0.156277 19.0215 -0.0312233 18.3027 0.0937767ZM21.8184 3.76565C25.3652 4.20315 28.3809 5.62503 30.9434 8.0469C33.5996 10.5625 35.2715 13.6407 35.8809 17.1719C36.1465 18.6719 36.1934 21.0625 35.959 21.8907C35.2715 24.3438 32.6934 25.0469 31.6152 23.0782C31.3965 22.6563 31.334 21.9688 31.2715 18.9844C31.1777 15.7188 31.1465 15.3282 30.8184 14.6094C29.9746 12.7032 28.6152 12.1875 26.8809 13.0938C25.7559 13.6875 25.0996 14.5469 22.3652 18.9688L20.0996 22.6563L20.0215 17.9219C19.9434 13.4844 19.9277 13.1563 19.5996 12.4688C19.1934 11.5938 18.4902 11.0938 17.6309 11.0938C16.9121 11.0938 16.3496 11.375 15.709 12.0625C15.334 12.4532 9.24023 22.0782 6.09961 27.25L5.81836 27.7188L5.33398 26.6407C5.06836 26.0313 4.66211 24.875 4.44336 24.0625C4.06836 22.7344 4.02148 22.2969 4.02148 20C4.02148 17.7188 4.06836 17.25 4.44336 15.9063C5.25586 12.875 6.77148 10.2813 8.97461 8.1719C11.0059 6.2344 13.2871 4.9219 15.8027 4.2344C17.959 3.64065 19.6934 3.50003 21.8184 3.76565Z" fill="white"/>
<path d="M60.6459 11.7188C57.0834 12.2813 54.0053 15.1563 53.1303 18.7501C52.8334 19.9532 52.8803 22.2188 53.2084 23.3594C54.8646 29.0001 60.849 31.7032 65.974 29.1407C68.5678 27.8282 69.3646 26.4376 68.1146 25.3907C67.5209 24.8907 66.7865 24.8907 66.099 25.3907C64.6303 26.4532 63.4271 26.8907 61.9584 26.8907C59.349 26.8907 57.3646 25.2969 56.6459 22.5938C56.0365 20.3126 56.849 17.6251 58.5834 16.2032C60.2396 14.8126 62.6146 14.6095 64.7396 15.6563C66.2865 16.422 66.3646 16.4376 66.974 16.172C68.0834 15.7188 68.3021 14.172 67.349 13.3751C66.7553 12.8751 65.1615 12.1251 64.2396 11.9063C63.1459 11.6563 61.599 11.5782 60.6459 11.7188Z" fill="white"/>
<path d="M85.8644 11.7813C84.8331 12.2345 84.3644 13.3907 84.7706 14.4532C85.3644 16.0001 87.4269 16.2501 88.38 14.8907C89.5206 13.2657 87.6612 10.9845 85.8644 11.7813Z" fill="white"/>
<path d="M194.631 11.7187C192.459 12.1093 190.209 13.4062 188.974 15.0156C185.99 18.8906 186.256 24.0625 189.631 27.4218C190.896 28.6875 192.146 29.4062 193.865 29.8437C195.381 30.2343 196.521 30.2343 198.021 29.8593C199.865 29.3906 201.99 28.1562 202.474 27.2968C203.053 26.2656 202.318 25 201.162 25C200.693 25 200.349 25.1406 199.709 25.625C198.553 26.5 197.381 26.8906 196.037 26.9062C193.834 26.9062 192.068 25.7968 191.068 23.7656C190.599 22.8125 190.568 22.6406 190.568 21.0937C190.568 19.0937 190.943 17.9531 191.959 16.7812C192.928 15.6875 194.099 15.125 195.646 15.0312C196.99 14.9531 197.506 15.0781 199.162 15.875C200.396 16.4531 200.881 16.4531 201.49 15.8281C202.365 14.9531 202.084 13.7656 200.771 12.9687C199.131 11.9531 196.443 11.4062 194.631 11.7187Z" fill="white"/>
<path d="M106.615 12.0625C106.475 12.2031 106.428 14.2656 106.428 20.3594C106.428 29.4219 106.412 29.2656 107.49 29.7812C107.99 30.0156 108.131 30.0156 108.678 29.8281C109.006 29.7031 109.443 29.4062 109.615 29.1719C109.928 28.75 109.943 28.4844 110.022 24.4844L110.1 20.25L112.178 22.5156C114.209 24.7187 114.787 25.1875 115.35 25.0469C115.506 25 116.6 23.9062 117.787 22.6094L119.943 20.2656L120.022 24.5C120.1 28.4844 120.115 28.75 120.428 29.1719C120.6 29.4062 121.037 29.7031 121.365 29.8281C121.912 30.0156 122.053 30.0156 122.553 29.7812C123.631 29.2656 123.615 29.4219 123.615 20.3437C123.615 11.5625 123.631 11.7187 122.803 11.9375C122.6 11.9844 121.272 13.3437 119.787 15.0312C116.022 19.2812 115.334 20 115.006 20C114.818 20 113.381 18.5 111.1 15.9375C107.443 11.8437 107.131 11.5469 106.615 12.0625Z" fill="white"/>
<path d="M152.428 12.1719C152.162 12.3438 151.865 12.7032 151.756 12.9844C151.646 13.3282 151.584 15.8125 151.584 20.9688C151.584 29.3594 151.568 29.2657 152.646 29.7813C153.146 30.0157 153.287 30.0157 153.834 29.8282C154.928 29.4375 155.084 29.0469 155.178 26.5469L155.256 24.3594L156.975 26.3594C160.24 30.1719 160.397 30.2813 161.506 29.75C162.397 29.3282 162.772 28.2657 162.334 27.4532C162.24 27.2657 161.459 26.2813 160.615 25.2813C159.772 24.2813 159.084 23.4063 159.084 23.3438C159.084 23.2969 159.772 22.5 160.631 21.5782C162.397 19.6719 162.584 19.375 162.443 18.7344C162.209 17.6875 161.162 17 160.303 17.3282C160.084 17.4063 158.834 18.6407 157.553 20.0625L155.193 22.6407L155.147 17.8438C155.1 12.6563 155.084 12.6407 154.225 12.125C153.662 11.7969 153.021 11.8125 152.428 12.1719Z" fill="white"/>
<path d="M179.585 12.0782C178.835 12.5001 178.694 12.9219 178.631 15.0313L178.585 17.0313H178.038C176.881 17.0313 175.991 17.9688 176.178 18.9844C176.319 19.7188 176.897 20.1876 177.819 20.2813L178.585 20.3438L178.663 23.5001C178.71 25.9219 178.803 26.8594 179.022 27.5626C179.569 29.3907 181.038 30.2501 183.381 30.1251C184.319 30.0782 184.6 30.0001 184.913 29.7188C185.381 29.2813 185.538 28.6094 185.319 27.9844C185.1 27.3594 184.647 27.0938 183.647 27.0001C182.303 26.8751 182.303 26.8594 182.241 23.3594L182.178 20.3126H183.069C184.491 20.3126 185.21 19.7657 185.21 18.6719C185.21 17.6094 184.428 17.0313 182.991 17.0313H182.241L182.178 15.0313C182.147 13.4688 182.069 12.9688 181.85 12.6407C181.366 11.9219 180.335 11.6719 179.585 12.0782Z" fill="white"/>
<path d="M75.1312 17.1875C72.8969 17.5625 70.8656 19.3907 70.1 21.7032C69.6781 23 69.8187 24.9375 70.4437 26.2657C71.35 28.2188 73.2719 29.6719 75.3812 30.0313C79.7718 30.75 83.6312 26.3282 82.4593 21.9375C81.8031 19.4844 79.8656 17.6407 77.4437 17.2032C76.4281 17.0157 76.2093 17.0157 75.1312 17.1875ZM77.6625 20.7969C77.975 20.9688 78.4125 21.3594 78.6156 21.6719C78.9593 22.1719 79.0062 22.4063 79.0062 23.5938C79.0062 24.8125 78.9593 25.0157 78.5843 25.5938C77.85 26.6875 76.9125 27.0938 75.725 26.8438C74.3031 26.5313 73.4125 25.2969 73.3969 23.5938C73.3812 22.3282 73.85 21.4063 74.7875 20.8438C75.6 20.3594 76.85 20.3282 77.6625 20.7969Z" fill="white"/>
<path d="M96.6152 17.3125C96.1621 17.4844 95.4746 17.8438 95.0996 18.1094C94.584 18.4688 94.3965 18.5469 94.3965 18.375C94.3965 18.25 94.2246 17.9531 94.0215 17.7188C93.7402 17.3906 93.5215 17.2812 93.0684 17.2812C92.6152 17.2812 92.3965 17.3906 92.1152 17.7188L91.7402 18.1406V23.4062C91.7402 28.3281 91.7559 28.7031 92.0371 29.1562C92.6309 30.1406 94.1777 30.1875 94.8496 29.25C95.1152 28.875 95.1465 28.4687 95.209 25.5469C95.2715 21.8594 95.3965 21.3438 96.4121 20.6719C97.3965 20.0156 98.959 20.3125 99.5527 21.2812C99.834 21.75 99.8652 22.0625 99.8652 24.9219C99.8652 26.6406 99.9434 28.2969 100.021 28.6094C100.334 29.7187 101.428 30.2344 102.428 29.7656C103.412 29.2969 103.49 28.9062 103.428 24.7187C103.381 21.5156 103.334 20.9219 103.068 20.3125C102.162 18.1562 100.928 17.2656 98.5371 17.0938C97.709 17.0469 97.2402 17.0938 96.6152 17.3125Z" fill="white"/>
<path d="M130.694 17.2031C128.24 17.6719 126.428 19.6562 125.944 22.3437C125.475 25.0156 126.678 27.9687 128.803 29.3125C130.694 30.5 133.615 30.3125 135.24 28.8906C135.803 28.3906 135.959 28.3125 135.959 28.5469C135.959 29.0625 136.537 29.8125 137.037 29.9219C137.678 30.0625 138.381 29.6719 138.6 29.0469C138.709 28.7187 138.772 26.8125 138.772 23.5937C138.772 20.375 138.709 18.4688 138.6 18.1406C138.381 17.5156 137.678 17.125 137.037 17.2656C136.537 17.375 135.959 18.125 135.959 18.625C135.959 19.0156 135.865 18.9844 135.069 18.2812C134.6 17.875 134.006 17.5469 133.334 17.3438C132.272 17.0156 131.756 16.9844 130.694 17.2031ZM133.381 20.6094C134.162 20.9687 134.444 21.2812 134.881 22.2656C135.412 23.4687 135.131 25.0312 134.178 26.0625C133.334 27 131.85 27.2031 130.819 26.5156C129.99 25.9687 129.397 24.75 129.397 23.6094C129.412 21.1875 131.397 19.6875 133.381 20.6094Z" fill="white"/>
<path d="M147.131 17.2187C146.787 17.3125 146.1 17.6562 145.615 17.9844C145.037 18.3594 144.709 18.5 144.709 18.3594C144.709 18.2344 144.537 17.9531 144.334 17.7187C143.85 17.1406 143.021 17.125 142.443 17.6562L142.053 18.0156V23.4062C142.053 28.5781 142.068 28.7969 142.381 29.2344C142.818 29.8594 143.693 30.1094 144.428 29.7969C145.365 29.4062 145.443 29.0781 145.521 25.3906C145.568 22.4375 145.6 22.0469 145.881 21.5625C146.318 20.8281 146.975 20.4844 148.225 20.3281C149.146 20.2187 149.35 20.1406 149.74 19.7031C150.334 19.0469 150.334 18.2969 149.74 17.6406C149.381 17.2344 149.162 17.1406 148.521 17.0937C148.1 17.0625 147.475 17.125 147.131 17.2187Z" fill="white"/>
<path d="M167.974 17.1876C164.724 17.7345 162.771 20.922 163.286 24.797C163.599 27.0626 164.693 28.6407 166.536 29.4688C170.177 31.1095 175.661 29.422 174.161 27.1251C173.708 26.4376 173.13 26.3282 172.021 26.7188C170.677 27.2032 168.927 27.2345 168.083 26.7813C167.364 26.4063 166.958 25.9063 166.817 25.1876L166.708 24.6876H170.567H174.427L174.88 24.2345C175.411 23.6876 175.474 22.9532 175.099 21.5157C174.786 20.297 174.396 19.5626 173.63 18.7813C172.286 17.3907 170.208 16.8126 167.974 17.1876ZM170.802 20.7813C171.396 21.0938 171.896 21.7501 171.896 22.2657C171.896 22.4688 171.552 22.5001 169.411 22.5001C167.927 22.5001 166.88 22.4376 166.817 22.3438C166.771 22.2657 166.849 21.9376 166.989 21.6251C167.505 20.547 169.489 20.1095 170.802 20.7813Z" fill="white"/>
<path d="M208.615 17.2031C205.459 17.8281 203.334 21.2031 203.928 24.6719C204.381 27.4062 206.068 29.375 208.396 29.9531C209.287 30.1719 209.6 30.1875 210.537 30.0312C211.896 29.7969 212.771 29.4062 213.396 28.7812L213.881 28.2969L214.068 28.9219C214.443 30.1875 216.021 30.3125 216.521 29.125C216.693 28.7187 216.74 27.5 216.74 23.5937C216.74 19.6875 216.693 18.4687 216.521 18.0625C216.021 16.875 214.443 17 214.068 18.25L213.881 18.875L213.084 18.2656C212.24 17.6094 210.631 17.0156 209.803 17.0469C209.537 17.0625 209.006 17.125 208.615 17.2031ZM211.35 20.6094C213.256 21.4687 213.771 24.2344 212.334 25.875C210.537 27.9219 207.662 26.8125 207.412 23.9375C207.303 22.8125 207.537 22.0469 208.193 21.2969C209.068 20.3125 210.178 20.0625 211.35 20.6094Z" fill="white"/>
<path d="M225.412 17.2344C224.475 17.4844 223.834 17.8126 223.162 18.3751C222.709 18.7501 222.678 18.7657 222.678 18.4532C222.678 18.2813 222.506 17.9532 222.303 17.7188C222.021 17.3907 221.803 17.2813 221.35 17.2813C220.896 17.2813 220.678 17.3907 220.396 17.7188L220.021 18.1407V26.1407C220.021 33.7501 220.037 34.1719 220.318 34.6251C220.928 35.6251 222.459 35.6563 223.146 34.6876C223.428 34.2969 223.459 34.0001 223.459 31.7344C223.459 30.3438 223.521 29.2188 223.584 29.2188C223.646 29.2188 223.975 29.3594 224.303 29.5313C225.209 29.9844 226.49 30.2032 227.631 30.0782C230.053 29.8282 231.912 28.0313 232.678 25.2813C232.896 24.4376 232.818 22.1563 232.537 21.2032C232.053 19.6719 230.225 17.7969 228.74 17.3594C227.803 17.0782 226.256 17.0157 225.412 17.2344ZM227.475 20.5469C228.678 21.0469 229.271 22.0313 229.287 23.5157C229.287 25.5001 228.146 26.9063 226.506 26.9063C224.787 26.9063 223.6 25.5626 223.6 23.5938C223.584 22.1407 224.162 21.1876 225.412 20.6094C226.178 20.2501 226.725 20.2344 227.475 20.5469Z" fill="white"/>
<path d="M86.2715 17.2812C84.8809 17.7656 84.8652 17.8437 84.8652 23.5937C84.8652 29.0781 84.8965 29.2969 85.9277 29.7812C86.4278 30.0156 86.5684 30.0156 87.1153 29.8281C87.4434 29.7031 87.8809 29.4062 88.0528 29.1719C88.3653 28.75 88.3809 28.5156 88.4278 23.9219C88.4747 18.7344 88.4122 18.1719 87.6778 17.6406C87.2403 17.3281 86.6153 17.1719 86.2715 17.2812Z" fill="white"/>
</g>
<defs>
<clipPath id="clip0">
<rect width="233.125" height="40" fill="white" transform="translate(0.333984)"/>
</clipPath>
</defs>
</svg>
