<svg width="114" height="50" viewBox="0 0 114 50" fill="none" xmlns="http://www.w3.org/2000/svg">
<path fill-rule="evenodd" clip-rule="evenodd" d="M55.6709 34.109V25.0668V16.0113L59.6569 16.0782C64.0844 16.1451 64.6194 16.2253 66.3583 17.068C67.8029 17.7636 69.3545 19.3152 70.1036 20.8534C71.3609 23.4082 71.3609 26.7255 70.1036 29.2803C69.3411 30.8185 67.8297 32.3434 66.3449 33.0657C64.4857 33.9619 64.2181 34.002 59.7238 34.0689L55.6709 34.109ZM66.278 22.5923C65.529 21.0273 64.2984 20.091 62.506 19.7031C62.0245 19.6095 61.2219 19.5158 60.727 19.5158H59.8175V25.0802V30.658L61.3289 30.5911C63.6831 30.4841 65.0073 29.8421 65.9169 28.344C66.9067 26.7121 67.0672 24.2375 66.278 22.5923ZM72.3906 34.0955V25.0667V16.038L80.0417 16.0647L87.6927 16.1048L89.6189 18.78C90.6756 20.2514 91.5985 21.4552 91.6788 21.4552C91.759 21.4552 92.6953 20.238 93.7654 18.7399L95.7049 16.038H103.343H110.98L112.157 17.8705L113.334 19.7163L111.154 19.7832L108.974 19.8501L108.934 26.9661L108.907 34.0955H106.7H104.493V26.9394V19.7832H102.62H100.761L100.721 17.9373L100.681 16.1048L99.9317 17.108C99.2763 18.0042 96.0527 22.4584 94.6884 24.3846L94.1801 25.1069L97.3769 29.5611L100.587 34.0286L98.233 34.0688C96.9355 34.0821 95.8119 34.0821 95.7317 34.042C95.6514 34.0153 94.7151 32.7847 93.6584 31.2999C91.8526 28.7853 91.7055 28.6247 91.5049 28.8521C91.2775 29.0929 88.3749 33.1057 87.9736 33.721L87.7462 34.0955H80.0684H72.3906ZM84.4448 18.4981C83.8197 17.6303 83.359 16.9907 83.2251 16.8004C82.9844 16.4526 82.7302 16.1717 82.6633 16.1717C82.6098 16.1717 82.5563 16.9208 82.5563 17.8437V19.5157L79.5869 19.5425L76.604 19.5826V21.3215V23.0603L79.0518 23.1005L81.4863 23.1272V24.8661V26.605H79.0117H76.5372V28.6114V30.6178H79.5467H82.5563V32.3031C82.5563 33.5337 82.5965 33.9751 82.7169 33.935C82.7971 33.9083 83.4927 33.0121 84.2685 31.942C88.0137 26.7521 89.0036 25.3476 89.0704 25.1871C89.0972 25.0935 87.9067 23.3145 86.4086 21.2278C85.6999 20.2406 85.0061 19.2774 84.4448 18.4981Z" fill="white"/>
<path d="M21.668 0.0669518C21.6278 0.10708 19.6749 1.08353 17.3341 2.24724C14.9933 3.41095 12.8933 4.45427 12.6659 4.57466L12.2646 4.78867L15.7959 6.54092C17.7488 7.50399 19.4342 8.29318 19.5412 8.29318C19.6616 8.29318 19.9425 8.17279 20.1832 8.03903C20.4106 7.8919 20.9189 7.63775 21.2934 7.47724L21.989 7.18297L23.1794 7.77151L24.3833 8.34668L27.9814 6.5543L31.5929 4.74854L31.0846 4.4944C29.9343 3.89248 21.9087 7.15256e-05 21.8285 7.15256e-05C21.775 7.15256e-05 21.7081 0.026824 21.668 0.0669518Z" fill="#05A6CC"/>
<path d="M15.9168 43.512C13.9371 44.4751 12.332 45.291 12.332 45.3311C12.332 45.3713 12.8269 45.6522 13.4422 45.9464C14.0442 46.2273 16.1576 47.2706 18.1372 48.2605C20.1169 49.2369 21.8424 50.0261 21.9627 49.9993C22.2704 49.9458 31.4597 45.4381 31.4597 45.3445C31.4597 45.3044 29.8546 44.4751 27.9017 43.4986L24.3437 41.7464L23.1398 42.3483L21.936 42.9502L20.906 42.4553C20.3442 42.1878 19.7958 41.9203 19.6888 41.8534C19.5551 41.7999 18.2308 42.375 15.9168 43.512Z" fill="#05A6CC"/>
<path d="M3.66466 8.96205L0.160156 10.6876V19.0609V27.4209L1.60476 26.712C2.39394 26.3107 4.01244 25.5215 5.21627 24.9463L7.38318 23.8896V19.1679C7.38318 16.5596 7.43669 14.4462 7.50357 14.4462C7.57045 14.4462 9.75073 15.4895 12.3457 16.7602L17.0808 19.0877L20.6655 17.3488C22.6318 16.3857 24.2369 15.5698 24.2369 15.5163C24.2369 15.4628 22.6318 14.6468 20.6655 13.6704C18.6859 12.7073 14.9272 10.8614 12.3055 9.57735C9.67048 8.27988 7.43669 7.22318 7.34305 7.22318C7.24942 7.22318 5.5908 7.99898 3.66466 8.96205Z" fill="#05A6CC"/>
<path d="M32.8377 8.96191C30.8981 9.91161 29.3198 10.7142 29.3198 10.7409C29.3198 10.7677 30.8848 11.5702 32.7975 12.5199C34.7103 13.4562 36.2753 14.2722 36.2753 14.3123C36.2753 14.3658 34.4829 15.2754 32.3026 16.3588C30.109 17.4289 25.6146 19.6493 22.2974 21.2812C18.9935 22.9131 13.603 25.5615 10.3259 27.18C7.04878 28.7851 3.42389 30.5641 2.26018 31.1259L0.160156 32.1425V35.7807V39.419L3.77167 41.1713L7.38318 42.9369L11.0214 41.1579L14.6731 39.3655L11.1017 37.6133C9.12206 36.6502 7.51694 35.8342 7.51694 35.7807C7.51694 35.7406 9.36283 34.7909 11.6234 33.6807C20.0235 29.5743 22.5917 28.3036 29.3867 24.9596C33.2122 23.0602 38.0142 20.706 40.0607 19.7028L43.7658 17.8837V14.2855V10.6874L40.2078 8.94854C38.2549 7.99884 36.5829 7.22303 36.5027 7.23641C36.409 7.23641 34.7638 8.01221 32.8377 8.96191Z" fill="#05A6CC"/>
<path d="M39.926 24.5184L36.4081 26.2706L36.3814 30.9924L36.3412 35.7275L31.6195 33.3733C29.0246 32.0892 26.8443 31.0325 26.7774 31.0325C26.7105 31.0325 25.0519 31.8351 23.099 32.7981L19.541 34.5771L24.5303 37.0517C27.2723 38.416 31.0845 40.302 32.9972 41.2517L36.475 42.9639L40.0196 41.2116C41.9591 40.2485 43.6044 39.4059 43.6713 39.339C43.805 39.2052 43.6445 22.7394 43.5108 22.7528C43.4706 22.7528 41.8521 23.5553 39.926 24.5184Z" fill="#05A6CC"/>
</svg>
