<svg width="200" height="60" viewBox="0 0 200 60" fill="none" xmlns="http://www.w3.org/2000/svg">
<path d="M63.8017 15.6664H57.1349V42.3336H63.8017V32.3334H71.802V25.6666H63.8017V15.6664ZM74.4683 15.6664H81.1351V42.3329H74.4683V15.6664ZM150.468 15.6664H157.135V42.3329H150.468V15.6664ZM167.801 35.6668V42.3336H159.801V35.6668H167.801ZM100.468 15C97.6994 15 94.9926 15.8211 92.6904 17.3594C90.3881 18.8978 88.5937 21.0843 87.534 23.6424C86.4744 26.2006 86.1972 29.0155 86.7374 31.7313C87.2775 34.447 88.6109 36.9416 90.5688 38.8995C92.5268 40.8574 95.0213 42.1908 97.7371 42.731C100.453 43.2712 103.268 42.9939 105.826 41.9343C108.384 40.8747 110.571 39.0803 112.109 36.778C113.647 34.4757 114.468 31.7689 114.468 29C114.468 25.287 112.993 21.726 110.368 19.1005C107.742 16.475 104.181 15 100.468 15V15ZM100.468 36.3332C99.0179 36.3333 97.6001 35.9034 96.394 35.0977C95.188 34.292 94.248 33.1467 93.6928 31.8068C93.1377 30.4668 92.9924 28.9923 93.2753 27.5698C93.5581 26.1472 94.2565 24.8405 95.282 23.8149C96.3076 22.7893 97.6142 22.0908 99.0367 21.8078C100.459 21.5247 101.934 21.6699 103.274 22.2249C104.614 22.7799 105.759 23.7199 106.565 24.9258C107.371 26.1318 107.801 27.5496 107.801 29C107.801 29.9631 107.611 30.9167 107.243 31.8064C106.874 32.6962 106.334 33.5046 105.653 34.1856C104.972 34.8666 104.163 35.4067 103.273 35.7752C102.384 36.1437 101.43 36.3333 100.467 36.3332H100.468ZM42.668 15.6664H49.3348V42.3329H42.668V15.6664Z" fill="white"/>
<path d="M35.9998 23.6668C38.2088 23.6668 39.9996 21.8761 39.9996 19.667C39.9996 17.458 38.2088 15.6672 35.9998 15.6672C33.7908 15.6672 32 17.458 32 19.667C32 21.8761 33.7908 23.6668 35.9998 23.6668Z" fill="#217CB6"/>
<path d="M131.799 15.6665H119.801V32.9999H126.467V22.3333H131.801C132.676 22.3333 133.543 22.5057 134.352 22.8408C135.161 23.1758 135.896 23.6669 136.515 24.286C137.134 24.905 137.625 25.64 137.96 26.4488C138.295 27.2577 138.468 28.1246 138.468 29.0001C138.468 29.8756 138.295 30.7425 137.96 31.5514C137.625 32.3602 137.134 33.0952 136.515 33.7142C135.896 34.3333 135.161 34.8244 134.352 35.1594C133.543 35.4945 132.676 35.6669 131.801 35.6669H126.467V42.3337H131.801C135.337 42.3337 138.729 40.9289 141.229 38.4284C143.73 35.9278 145.134 32.5364 145.134 29.0001C145.134 25.4638 143.73 22.0724 141.229 19.5718C138.729 17.0713 135.337 15.6665 131.801 15.6665H131.799Z" fill="white"/>
</svg>
