<svg width="308" height="488" viewBox="0 0 308 488" fill="none" xmlns="http://www.w3.org/2000/svg">
<rect opacity="0.2" width="286" height="160" rx="12" fill="#232B35"/>
<rect x="12" y="12" width="286" height="160" rx="12" fill="#232B35"/>
<path fill-rule="evenodd" clip-rule="evenodd" d="M93.7184 70.4293L93.973 71.9716C94.1737 73.4064 94.2668 74.8542 94.2512 76.3028C94.2496 79.5043 93.864 82.6939 93.1028 85.8032C92.0735 90.0274 90.2806 94.027 87.8128 97.6042C84.9612 101.712 80.8381 105.753 74.8279 109L74.0927 109.397L73.3574 109C67.3473 105.753 63.2259 101.712 60.3726 97.6042C57.9049 94.027 56.112 90.0273 55.0825 85.8032C54.3215 82.6944 53.936 79.5054 53.9341 76.3045C53.9186 74.8559 54.0116 73.4081 54.2124 71.9733L54.467 70.431C54.4888 70.3053 54.4854 70.1764 54.4572 70.0519C54.429 69.9274 54.3765 69.8098 54.3027 69.7057C54.2289 69.6017 54.1353 69.5133 54.0272 69.4456C53.9192 69.378 53.7988 69.3324 53.6731 69.3116C53.5474 69.2907 53.4188 69.295 53.2947 69.3242C53.1707 69.3534 53.0536 69.4068 52.9503 69.4815C52.8469 69.5562 52.7594 69.6507 52.6926 69.7594C52.6259 69.8682 52.5813 69.9891 52.5615 70.1151L52.3068 71.6574C52.0878 73.1965 51.9858 74.75 52.0016 76.3045C52.0028 79.663 52.4071 83.0092 53.2056 86.2711C54.2927 90.7255 56.1851 94.9427 58.7891 98.714C61.7992 103.054 66.1652 107.321 72.4485 110.708L73.6424 111.351C73.7831 111.427 73.9404 111.467 74.1003 111.467C74.2601 111.467 74.4175 111.427 74.5581 111.351L75.7504 110.708C82.0269 107.319 86.3946 103.054 89.4097 98.714C92.0124 94.943 93.9037 90.7263 94.9899 86.2728C95.7885 83.0109 96.1927 79.6647 96.1939 76.3062C96.2097 74.7517 96.1077 73.1982 95.8887 71.6591L95.634 70.1168C95.6142 69.9908 95.5696 69.8699 95.5029 69.7611C95.4361 69.6524 95.3486 69.5579 95.2452 69.4832C95.1419 69.4085 95.0248 69.355 94.9008 69.3259C94.7767 69.2967 94.6481 69.2924 94.5224 69.3133C94.3967 69.3341 94.2763 69.3797 94.1683 69.4473C94.0602 69.5149 93.9666 69.6034 93.8928 69.7074C93.819 69.8115 93.7665 69.9291 93.7383 70.0536C93.7101 70.1781 93.7067 70.3069 93.7285 70.4327L93.7184 70.4293Z" fill="white"/>
<path fill-rule="evenodd" clip-rule="evenodd" d="M93.7184 70.4293L93.973 71.9716C94.1737 73.4064 94.2668 74.8542 94.2512 76.3028C94.2496 79.5043 93.864 82.6939 93.1028 85.8032C92.0735 90.0274 90.2806 94.027 87.8128 97.6042C84.9612 101.712 80.8381 105.753 74.8279 109L74.0927 109.397L73.3574 109C67.3473 105.753 63.2259 101.712 60.3726 97.6042C57.9049 94.027 56.112 90.0273 55.0825 85.8032C54.3215 82.6944 53.936 79.5054 53.9341 76.3045C53.9186 74.8559 54.0116 73.4081 54.2124 71.9733L54.467 70.431C54.4888 70.3053 54.4854 70.1764 54.4572 70.0519C54.429 69.9274 54.3765 69.8098 54.3027 69.7057C54.2289 69.6017 54.1353 69.5133 54.0272 69.4456C53.9192 69.378 53.7988 69.3324 53.6731 69.3116C53.5474 69.2907 53.4188 69.295 53.2947 69.3242C53.1707 69.3534 53.0536 69.4068 52.9503 69.4815C52.8469 69.5562 52.7594 69.6507 52.6926 69.7594C52.6259 69.8682 52.5813 69.9891 52.5615 70.1151L52.3068 71.6574C52.0878 73.1965 51.9858 74.75 52.0016 76.3045C52.0028 79.663 52.4071 83.0092 53.2056 86.2711C54.2927 90.7255 56.1851 94.9427 58.7891 98.714C61.7992 103.054 66.1652 107.321 72.4485 110.708L73.6424 111.351C73.7831 111.427 73.9404 111.467 74.1003 111.467C74.2601 111.467 74.4175 111.427 74.5581 111.351L75.7504 110.708C82.0269 107.319 86.3946 103.054 89.4097 98.714C92.0124 94.943 93.9037 90.7263 94.9899 86.2728C95.7885 83.0109 96.1927 79.6647 96.1939 76.3062C96.2097 74.7517 96.1077 73.1982 95.8887 71.6591L95.634 70.1168C95.6142 69.9908 95.5696 69.8699 95.5029 69.7611C95.4361 69.6524 95.3486 69.5579 95.2452 69.4832C95.1419 69.4085 95.0248 69.355 94.9008 69.3259C94.7767 69.2967 94.6481 69.2924 94.5224 69.3133C94.3967 69.3341 94.2763 69.3797 94.1683 69.4473C94.0602 69.5149 93.9666 69.6034 93.8928 69.7074C93.819 69.8115 93.7665 69.9291 93.7383 70.0536C93.7101 70.1781 93.7067 70.3069 93.7285 70.4327L93.7184 70.4293Z" fill="url(#paint0_linear)"/>
<path fill-rule="evenodd" clip-rule="evenodd" d="M59.7449 69.3786L74.0956 64.9866L88.7668 69.4732C89.0124 69.5468 89.2772 69.5199 89.503 69.3984C89.7289 69.2769 89.8975 69.0707 89.972 68.825C90.0465 68.5793 90.0207 68.314 89.9004 68.0873C89.7801 67.8605 89.5751 67.6907 89.3301 67.615L74.3773 63.0423C74.1937 62.9859 73.9976 62.9859 73.814 63.0423L59.1799 67.5171C59.0576 67.5537 58.9438 67.6141 58.8449 67.695C58.746 67.7758 58.664 67.8754 58.6036 67.988C58.5432 68.1007 58.5056 68.2242 58.493 68.3514C58.4804 68.4786 58.493 68.6071 58.5301 68.7295C58.5672 68.8518 58.628 68.9656 58.7091 69.0643C58.7902 69.1631 58.89 69.2448 59.0027 69.3048C59.1154 69.3648 59.2389 69.4019 59.3659 69.414C59.493 69.4261 59.6212 69.4129 59.7432 69.3752L59.7449 69.3786Z" fill="white"/>
<path fill-rule="evenodd" clip-rule="evenodd" d="M59.7449 69.3786L74.0956 64.9866L88.7668 69.4732C89.0124 69.5468 89.2772 69.5199 89.503 69.3984C89.7289 69.2769 89.8975 69.0707 89.972 68.825C90.0465 68.5793 90.0207 68.314 89.9004 68.0873C89.7801 67.8605 89.5751 67.6907 89.3301 67.615L74.3773 63.0423C74.1937 62.9859 73.9976 62.9859 73.814 63.0423L59.1799 67.5171C59.0576 67.5537 58.9438 67.6141 58.8449 67.695C58.746 67.7758 58.664 67.8754 58.6036 67.988C58.5432 68.1007 58.5056 68.2242 58.493 68.3514C58.4804 68.4786 58.493 68.6071 58.5301 68.7295C58.5672 68.8518 58.628 68.9656 58.7091 69.0643C58.7902 69.1631 58.89 69.2448 59.0027 69.3048C59.1154 69.3648 59.2389 69.4019 59.3659 69.414C59.493 69.4261 59.6212 69.4129 59.7432 69.3752L59.7449 69.3786Z" fill="url(#paint1_linear)"/>
<path fill-rule="evenodd" clip-rule="evenodd" d="M52.6583 70.7127L73.2317 110.937C73.3119 111.094 73.4335 111.226 73.5834 111.319C73.7334 111.412 73.9058 111.462 74.082 111.463C74.2583 111.465 74.4316 111.418 74.5831 111.328C74.7346 111.238 74.8586 111.108 74.9416 110.952L87.488 87.4464L87.5065 87.4092L95.5369 70.6857C95.6458 70.4549 95.6593 70.1904 95.5745 69.9497C95.4897 69.709 95.3135 69.5115 95.0842 69.4002C94.8549 69.2889 94.591 69.2728 94.3499 69.3554C94.1088 69.4379 93.91 69.6125 93.7966 69.8411L85.7797 86.5511L74.1204 108.41L54.3767 69.8275C54.3198 69.713 54.2407 69.6109 54.1441 69.5271C54.0476 69.4434 53.9354 69.3797 53.814 69.3397C53.6927 69.2997 53.5646 69.2842 53.4373 69.2942C53.3099 69.3041 53.1858 69.3393 53.0721 69.3976C52.9585 69.456 52.8575 69.5363 52.775 69.634C52.6925 69.7318 52.6303 69.8449 52.5918 69.9669C52.5533 70.0889 52.5393 70.2174 52.5507 70.3448C52.5622 70.4722 52.5987 70.5961 52.6583 70.7093V70.7127Z" fill="white"/>
<path fill-rule="evenodd" clip-rule="evenodd" d="M52.6583 70.7127L73.2317 110.937C73.3119 111.094 73.4335 111.226 73.5834 111.319C73.7334 111.412 73.9058 111.462 74.082 111.463C74.2583 111.465 74.4316 111.418 74.5831 111.328C74.7346 111.238 74.8586 111.108 74.9416 110.952L87.488 87.4464L87.5065 87.4092L95.5369 70.6857C95.6458 70.4549 95.6593 70.1904 95.5745 69.9497C95.4897 69.709 95.3135 69.5115 95.0842 69.4002C94.8549 69.2889 94.591 69.2728 94.3499 69.3554C94.1088 69.4379 93.91 69.6125 93.7966 69.8411L85.7797 86.5511L74.1204 108.41L54.3767 69.8275C54.3198 69.713 54.2407 69.6109 54.1441 69.5271C54.0476 69.4434 53.9354 69.3797 53.814 69.3397C53.6927 69.2997 53.5646 69.2842 53.4373 69.2942C53.3099 69.3041 53.1858 69.3393 53.0721 69.3976C52.9585 69.456 52.8575 69.5363 52.775 69.634C52.6925 69.7318 52.6303 69.8449 52.5918 69.9669C52.5533 70.0889 52.5393 70.2174 52.5507 70.3448C52.5622 70.4722 52.5987 70.5961 52.6583 70.7093V70.7127Z" fill="url(#paint2_linear)"/>
<path fill-rule="evenodd" clip-rule="evenodd" d="M62.5064 88.7132H85.3851C85.6411 88.7132 85.8867 88.6113 86.0677 88.43C86.2488 88.2486 86.3505 88.0026 86.3505 87.7461C86.3505 87.4897 86.2488 87.2437 86.0677 87.0623C85.8867 86.8809 85.6411 86.7791 85.3851 86.7791H62.5064C62.2504 86.7791 62.0048 86.8809 61.8238 87.0623C61.6427 87.2437 61.541 87.4897 61.541 87.7461C61.541 88.0026 61.6427 88.2486 61.8238 88.43C62.0048 88.6113 62.2504 88.7132 62.5064 88.7132Z" fill="white"/>
<path fill-rule="evenodd" clip-rule="evenodd" d="M62.5064 88.7132H85.3851C85.6411 88.7132 85.8867 88.6113 86.0677 88.43C86.2488 88.2486 86.3505 88.0026 86.3505 87.7461C86.3505 87.4897 86.2488 87.2437 86.0677 87.0623C85.8867 86.8809 85.6411 86.7791 85.3851 86.7791H62.5064C62.2504 86.7791 62.0048 86.8809 61.8238 87.0623C61.6427 87.2437 61.541 87.4897 61.541 87.7461C61.541 88.0026 61.6427 88.2486 61.8238 88.43C62.0048 88.6113 62.2504 88.7132 62.5064 88.7132Z" fill="url(#paint3_linear)"/>
<path fill-rule="evenodd" clip-rule="evenodd" d="M128.936 80.8455H113.983C113.724 80.8469 113.477 80.9487 113.294 81.129C113.112 81.3093 113.008 81.5534 113.007 81.8083V93.6492C113.009 93.904 113.112 94.1479 113.295 94.328C113.477 94.5082 113.725 94.6102 113.983 94.612H128.936V96.6177H113.983C113.588 96.6195 113.197 96.5442 112.833 96.396C112.468 96.2479 112.136 96.0299 111.857 95.7547C111.578 95.4794 111.357 95.1524 111.207 94.7924C111.057 94.4325 110.981 94.0468 110.982 93.6575V81.8167C110.981 81.4274 111.057 81.0417 111.207 80.6818C111.357 80.3218 111.578 79.9948 111.857 79.7195C112.136 79.4443 112.468 79.2263 112.833 79.0782C113.197 78.9301 113.588 78.8547 113.983 78.8565H128.936V80.8455ZM157.013 78.8464V80.8522H142.613V86.7142H154.187V88.7367H142.611V94.6086H157.012V96.6144H140.578V78.8464H157.013Z" fill="white"/>
<path fill-rule="evenodd" clip-rule="evenodd" d="M128.936 80.8455H113.983C113.724 80.8469 113.477 80.9487 113.294 81.129C113.112 81.3093 113.008 81.5534 113.007 81.8083V93.6492C113.009 93.904 113.112 94.1479 113.295 94.328C113.477 94.5082 113.725 94.6102 113.983 94.612H128.936V96.6177H113.983C113.588 96.6195 113.197 96.5442 112.833 96.396C112.468 96.2479 112.136 96.0299 111.857 95.7547C111.578 95.4794 111.357 95.1524 111.207 94.7924C111.057 94.4325 110.981 94.0468 110.982 93.6575V81.8167C110.981 81.4274 111.057 81.0417 111.207 80.6818C111.357 80.3218 111.578 79.9948 111.857 79.7195C112.136 79.4443 112.468 79.2263 112.833 79.0782C113.197 78.9301 113.588 78.8547 113.983 78.8565H128.936V80.8455ZM157.013 78.8464V80.8522H142.613V86.7142H154.187V88.7367H142.611V94.6086H157.012V96.6144H140.578V78.8464H157.013Z" fill="url(#paint4_linear)"/>
<path d="M186.666 81.8318V87.0368C186.668 87.426 186.591 87.8117 186.441 88.1715C186.291 88.5313 186.07 88.8583 185.791 89.1335C185.512 89.4087 185.18 89.6267 184.816 89.7749C184.451 89.9231 184.06 89.9986 183.666 89.9971H180.916L186.566 96.6078H183.891L178.265 89.9971H171.657C171.331 89.9806 171.005 89.9477 170.681 89.8984V96.6078H168.648V78.8716H183.65C184.045 78.8701 184.436 78.9456 184.8 79.0938C185.165 79.242 185.497 79.46 185.775 79.7352C186.054 80.0104 186.275 80.3373 186.426 80.6972C186.576 81.057 186.652 81.4426 186.651 81.8318H186.666ZM171.664 87.9746H183.666C183.791 87.9761 183.915 87.9529 184.031 87.9064C184.147 87.8598 184.253 87.7908 184.341 87.7034C184.43 87.616 184.5 87.512 184.547 87.3975C184.594 87.2831 184.618 87.1604 184.616 87.0368V81.8318C184.618 81.7064 184.595 81.5819 184.548 81.4654C184.501 81.3489 184.431 81.2428 184.342 81.1532C184.255 81.0614 184.15 80.9887 184.034 80.9397C183.917 80.8908 183.791 80.8667 183.664 80.869H171.662C171.404 80.8704 171.157 80.9722 170.974 81.1525C170.791 81.3328 170.688 81.5769 170.687 81.8318V87.0368C170.684 87.162 170.708 87.2864 170.758 87.4016C170.808 87.5169 170.881 87.6204 170.975 87.7054C171.066 87.7933 171.173 87.8623 171.292 87.9086C171.41 87.9548 171.537 87.9772 171.664 87.9746Z" fill="white"/>
<path d="M186.666 81.8318V87.0368C186.668 87.426 186.591 87.8117 186.441 88.1715C186.291 88.5313 186.07 88.8583 185.791 89.1335C185.512 89.4087 185.18 89.6267 184.816 89.7749C184.451 89.9231 184.06 89.9986 183.666 89.9971H180.916L186.566 96.6078H183.891L178.265 89.9971H171.657C171.331 89.9806 171.005 89.9477 170.681 89.8984V96.6078H168.648V78.8716H183.65C184.045 78.8701 184.436 78.9456 184.8 79.0938C185.165 79.242 185.497 79.46 185.775 79.7352C186.054 80.0104 186.275 80.3373 186.426 80.6972C186.576 81.057 186.652 81.4426 186.651 81.8318H186.666ZM171.664 87.9746H183.666C183.791 87.9761 183.915 87.9529 184.031 87.9064C184.147 87.8598 184.253 87.7908 184.341 87.7034C184.43 87.616 184.5 87.512 184.547 87.3975C184.594 87.2831 184.618 87.1604 184.616 87.0368V81.8318C184.618 81.7064 184.595 81.5819 184.548 81.4654C184.501 81.3489 184.431 81.2428 184.342 81.1532C184.255 81.0614 184.15 80.9887 184.034 80.9397C183.917 80.8908 183.791 80.8667 183.664 80.869H171.662C171.404 80.8704 171.157 80.9722 170.974 81.1525C170.791 81.3328 170.688 81.5769 170.687 81.8318V87.0368C170.684 87.162 170.708 87.2864 170.758 87.4016C170.808 87.5169 170.881 87.6204 170.975 87.7054C171.066 87.7933 171.173 87.8623 171.292 87.9086C171.41 87.9548 171.537 87.9772 171.664 87.9746Z" fill="url(#paint5_linear)"/>
<path fill-rule="evenodd" clip-rule="evenodd" d="M197.418 78.8462H215.414V80.852H207.451V96.6158H205.418V80.852H197.418V78.8462ZM226.321 96.6075V78.8462H228.354V96.6075H226.321ZM255.374 78.8462H257.975L250.449 87.7268L258 96.6075H255.374L248.674 88.7381H242.873V96.6075H240.826V78.8462H242.876V86.7139H248.677L255.374 78.8462Z" fill="white"/>
<path fill-rule="evenodd" clip-rule="evenodd" d="M197.418 78.8462H215.414V80.852H207.451V96.6158H205.418V80.852H197.418V78.8462ZM226.321 96.6075V78.8462H228.354V96.6075H226.321ZM255.374 78.8462H257.975L250.449 87.7268L258 96.6075H255.374L248.674 88.7381H242.873V96.6075H240.826V78.8462H242.876V86.7139H248.677L255.374 78.8462Z" fill="url(#paint6_linear)"/>
<rect x="22" y="318" width="286" height="160" rx="12" fill="#2A2A2A"/>
<mask id="mask0" mask-type="alpha" maskUnits="userSpaceOnUse" x="12" y="328" width="286" height="160">
<rect x="12" y="328" width="286" height="160" rx="12" fill="white"/>
</mask>
<g mask="url(#mask0)">
<rect x="12" y="328" width="286" height="160" rx="12" fill="white"/>
<rect x="12" y="482" width="286" height="12" fill="#4770FF"/>
<path d="M12 482H219V494H12V482Z" fill="#00C98D"/>
</g>
<rect x="231" y="343" width="48" height="48" rx="12" fill="#F5EFF2"/>
<path fill-rule="evenodd" clip-rule="evenodd" d="M244.421 373.158L239 361H242.355L246.379 370.027L250.408 361H253.763L248.342 373.158H244.421ZM266.554 373.158L272 361H268.629L264.583 370.027L260.541 361H256.604L251.158 373.158H254.528L258.575 364.131L262.617 373.158H266.554Z" fill="#00C98D"/>
<path d="M35.496 360.656L38.216 353.232H39.768L36.328 362H34.632L31.192 353.232H32.76L35.496 360.656ZM40.6568 357.584C40.6568 356.688 40.8381 355.904 41.2008 355.232C41.5634 354.549 42.0594 354.021 42.6888 353.648C43.3288 353.275 44.0381 353.088 44.8168 353.088C45.5848 353.088 46.2514 353.253 46.8168 353.584C47.3821 353.915 47.8034 354.331 48.0808 354.832V353.232H49.5528V362H48.0808V360.368C47.7928 360.88 47.3608 361.307 46.7848 361.648C46.2194 361.979 45.5581 362.144 44.8008 362.144C44.0221 362.144 43.3181 361.952 42.6888 361.568C42.0594 361.184 41.5634 360.645 41.2008 359.952C40.8381 359.259 40.6568 358.469 40.6568 357.584ZM48.0808 357.6C48.0808 356.939 47.9474 356.363 47.6808 355.872C47.4141 355.381 47.0514 355.008 46.5928 354.752C46.1448 354.485 45.6488 354.352 45.1048 354.352C44.5608 354.352 44.0648 354.48 43.6168 354.736C43.1688 354.992 42.8114 355.365 42.5448 355.856C42.2781 356.347 42.1448 356.923 42.1448 357.584C42.1448 358.256 42.2781 358.843 42.5448 359.344C42.8114 359.835 43.1688 360.213 43.6168 360.48C44.0648 360.736 44.5608 360.864 45.1048 360.864C45.6488 360.864 46.1448 360.736 46.5928 360.48C47.0514 360.213 47.4141 359.835 47.6808 359.344C47.9474 358.843 48.0808 358.261 48.0808 357.6ZM53.4693 350.16V362H52.0133V350.16H53.4693ZM63.7268 353.232V362H62.2708V360.704C61.9934 361.152 61.6041 361.504 61.1028 361.76C60.6121 362.005 60.0681 362.128 59.4708 362.128C58.7881 362.128 58.1748 361.989 57.6308 361.712C57.0868 361.424 56.6548 360.997 56.3348 360.432C56.0254 359.867 55.8708 359.179 55.8708 358.368V353.232H57.3108V358.176C57.3108 359.04 57.5294 359.707 57.9668 360.176C58.4041 360.635 59.0014 360.864 59.7588 360.864C60.5374 360.864 61.1508 360.624 61.5988 360.144C62.0468 359.664 62.2708 358.965 62.2708 358.048V353.232H63.7268ZM74.1851 357.28C74.1851 357.557 74.1691 357.851 74.1371 358.16H67.1291C67.1825 359.024 67.4758 359.701 68.0091 360.192C68.5531 360.672 69.2091 360.912 69.9771 360.912C70.6065 360.912 71.1291 360.768 71.5451 360.48C71.9718 360.181 72.2705 359.787 72.4411 359.296H74.0091C73.7745 360.139 73.3051 360.827 72.6011 361.36C71.8971 361.883 71.0225 362.144 69.9771 362.144C69.1451 362.144 68.3985 361.957 67.7371 361.584C67.0865 361.211 66.5745 360.683 66.2011 360C65.8278 359.307 65.6411 358.507 65.6411 357.6C65.6411 356.693 65.8225 355.899 66.1851 355.216C66.5478 354.533 67.0545 354.011 67.7051 353.648C68.3665 353.275 69.1238 353.088 69.9771 353.088C70.8091 353.088 71.5451 353.269 72.1851 353.632C72.8251 353.995 73.3158 354.496 73.6571 355.136C74.0091 355.765 74.1851 356.48 74.1851 357.28ZM72.6811 356.976C72.6811 356.421 72.5585 355.947 72.3131 355.552C72.0678 355.147 71.7318 354.843 71.3051 354.64C70.8891 354.427 70.4251 354.32 69.9131 354.32C69.1771 354.32 68.5478 354.555 68.0251 355.024C67.5131 355.493 67.2198 356.144 67.1451 356.976H72.6811ZM80.379 353.072C81.4457 353.072 82.3097 353.397 82.971 354.048C83.6323 354.688 83.963 355.616 83.963 356.832V362H82.523V357.04C82.523 356.165 82.3043 355.499 81.867 355.04C81.4297 354.571 80.8323 354.336 80.075 354.336C79.307 354.336 78.6937 354.576 78.235 355.056C77.787 355.536 77.563 356.235 77.563 357.152V362H76.107V353.232H77.563V354.48C77.851 354.032 78.2403 353.685 78.731 353.44C79.2323 353.195 79.7817 353.072 80.379 353.072ZM94.3414 357.28C94.3414 357.557 94.3254 357.851 94.2934 358.16H87.2854C87.3387 359.024 87.632 359.701 88.1654 360.192C88.7094 360.672 89.3654 360.912 90.1334 360.912C90.7627 360.912 91.2854 360.768 91.7014 360.48C92.128 360.181 92.4267 359.787 92.5974 359.296H94.1654C93.9307 360.139 93.4614 360.827 92.7574 361.36C92.0534 361.883 91.1787 362.144 90.1334 362.144C89.3014 362.144 88.5547 361.957 87.8934 361.584C87.2427 361.211 86.7307 360.683 86.3574 360C85.984 359.307 85.7974 358.507 85.7974 357.6C85.7974 356.693 85.9787 355.899 86.3414 355.216C86.704 354.533 87.2107 354.011 87.8614 353.648C88.5227 353.275 89.28 353.088 90.1334 353.088C90.9654 353.088 91.7014 353.269 92.3414 353.632C92.9814 353.995 93.472 354.496 93.8134 355.136C94.1654 355.765 94.3414 356.48 94.3414 357.28ZM92.8374 356.976C92.8374 356.421 92.7147 355.947 92.4694 355.552C92.224 355.147 91.888 354.843 91.4614 354.64C91.0454 354.427 90.5814 354.32 90.0694 354.32C89.3334 354.32 88.704 354.555 88.1814 355.024C87.6694 355.493 87.376 356.144 87.3014 356.976H92.8374ZM98.0393 354.432V359.6C98.0393 360.027 98.1299 360.331 98.3113 360.512C98.4926 360.683 98.8073 360.768 99.2552 360.768H100.327V362H99.0153C98.2046 362 97.5966 361.813 97.1913 361.44C96.7859 361.067 96.5833 360.453 96.5833 359.6V354.432H95.4473V353.232H96.5833V351.024H98.0393V353.232H100.327V354.432H98.0393ZM113.771 353.232L111.035 362H109.531L107.419 355.04L105.307 362H103.803L101.051 353.232H102.539L104.555 360.592L106.731 353.232H108.219L110.347 360.608L112.331 353.232H113.771ZM119.04 362.144C118.219 362.144 117.472 361.957 116.8 361.584C116.139 361.211 115.616 360.683 115.232 360C114.859 359.307 114.672 358.507 114.672 357.6C114.672 356.704 114.864 355.915 115.248 355.232C115.643 354.539 116.176 354.011 116.848 353.648C117.52 353.275 118.272 353.088 119.104 353.088C119.936 353.088 120.688 353.275 121.36 353.648C122.032 354.011 122.56 354.533 122.944 355.216C123.339 355.899 123.536 356.693 123.536 357.6C123.536 358.507 123.334 359.307 122.928 360C122.534 360.683 121.995 361.211 121.312 361.584C120.63 361.957 119.872 362.144 119.04 362.144ZM119.04 360.864C119.563 360.864 120.054 360.741 120.512 360.496C120.971 360.251 121.339 359.883 121.616 359.392C121.904 358.901 122.048 358.304 122.048 357.6C122.048 356.896 121.91 356.299 121.632 355.808C121.355 355.317 120.992 354.955 120.544 354.72C120.096 354.475 119.611 354.352 119.088 354.352C118.555 354.352 118.064 354.475 117.616 354.72C117.179 354.955 116.827 355.317 116.56 355.808C116.294 356.299 116.16 356.896 116.16 357.6C116.16 358.315 116.288 358.917 116.544 359.408C116.811 359.899 117.163 360.267 117.6 360.512C118.038 360.747 118.518 360.864 119.04 360.864ZM126.907 354.656C127.163 354.155 127.525 353.765 127.995 353.488C128.475 353.211 129.056 353.072 129.739 353.072V354.576H129.355C127.723 354.576 126.907 355.461 126.907 357.232V362H125.451V353.232H126.907V354.656ZM136.316 362L132.876 358.128V362H131.42V350.16H132.876V357.12L136.252 353.232H138.284L134.156 357.6L138.3 362H136.316ZM141.11 350.16V362H139.654V350.16H141.11ZM144.343 351.808C144.066 351.808 143.831 351.712 143.639 351.52C143.447 351.328 143.351 351.093 143.351 350.816C143.351 350.539 143.447 350.304 143.639 350.112C143.831 349.92 144.066 349.824 144.343 349.824C144.61 349.824 144.834 349.92 145.015 350.112C145.207 350.304 145.303 350.539 145.303 350.816C145.303 351.093 145.207 351.328 145.015 351.52C144.834 351.712 144.61 351.808 144.343 351.808ZM145.047 353.232V362H143.591V353.232H145.047ZM150.793 360.656L153.513 353.232H155.065L151.625 362H149.929L146.489 353.232H148.057L150.793 360.656ZM164.498 357.28C164.498 357.557 164.482 357.851 164.45 358.16H157.442C157.495 359.024 157.788 359.701 158.322 360.192C158.866 360.672 159.522 360.912 160.29 360.912C160.919 360.912 161.442 360.768 161.858 360.48C162.284 360.181 162.583 359.787 162.754 359.296H164.322C164.087 360.139 163.618 360.827 162.914 361.36C162.21 361.883 161.335 362.144 160.29 362.144C159.458 362.144 158.711 361.957 158.05 361.584C157.399 361.211 156.887 360.683 156.514 360C156.14 359.307 155.954 358.507 155.954 357.6C155.954 356.693 156.135 355.899 156.498 355.216C156.86 354.533 157.367 354.011 158.018 353.648C158.679 353.275 159.436 353.088 160.29 353.088C161.122 353.088 161.858 353.269 162.498 353.632C163.138 353.995 163.628 354.496 163.97 355.136C164.322 355.765 164.498 356.48 164.498 357.28ZM162.994 356.976C162.994 356.421 162.871 355.947 162.626 355.552C162.38 355.147 162.044 354.843 161.618 354.64C161.202 354.427 160.738 354.32 160.226 354.32C159.49 354.32 158.86 354.555 158.338 355.024C157.826 355.493 157.532 356.144 157.458 356.976H162.994ZM166.004 360.832C167.358 359.744 168.42 358.853 169.188 358.16C169.956 357.456 170.601 356.725 171.124 355.968C171.657 355.2 171.924 354.448 171.924 353.712C171.924 353.019 171.753 352.475 171.412 352.08C171.081 351.675 170.542 351.472 169.796 351.472C169.07 351.472 168.505 351.701 168.1 352.16C167.705 352.608 167.492 353.211 167.46 353.968H166.052C166.094 352.773 166.457 351.851 167.14 351.2C167.822 350.549 168.702 350.224 169.78 350.224C170.878 350.224 171.748 350.528 172.388 351.136C173.038 351.744 173.364 352.581 173.364 353.648C173.364 354.533 173.097 355.397 172.564 356.24C172.041 357.072 171.444 357.808 170.772 358.448C170.1 359.077 169.241 359.813 168.196 360.656H173.7V361.872H166.004V360.832ZM175.383 356.096C175.383 354.261 175.681 352.832 176.279 351.808C176.876 350.773 177.921 350.256 179.415 350.256C180.897 350.256 181.937 350.773 182.535 351.808C183.132 352.832 183.431 354.261 183.431 356.096C183.431 357.963 183.132 359.413 182.535 360.448C181.937 361.483 180.897 362 179.415 362C177.921 362 176.876 361.483 176.279 360.448C175.681 359.413 175.383 357.963 175.383 356.096ZM181.991 356.096C181.991 355.168 181.927 354.384 181.799 353.744C181.681 353.093 181.431 352.571 181.047 352.176C180.673 351.781 180.129 351.584 179.415 351.584C178.689 351.584 178.135 351.781 177.751 352.176C177.377 352.571 177.127 353.093 176.999 353.744C176.881 354.384 176.823 355.168 176.823 356.096C176.823 357.056 176.881 357.861 176.999 358.512C177.127 359.163 177.377 359.685 177.751 360.08C178.135 360.475 178.689 360.672 179.415 360.672C180.129 360.672 180.673 360.475 181.047 360.08C181.431 359.685 181.681 359.163 181.799 358.512C181.927 357.861 181.991 357.056 181.991 356.096ZM185.254 360.832C186.608 359.744 187.67 358.853 188.438 358.16C189.206 357.456 189.851 356.725 190.374 355.968C190.907 355.2 191.174 354.448 191.174 353.712C191.174 353.019 191.003 352.475 190.662 352.08C190.331 351.675 189.792 351.472 189.046 351.472C188.32 351.472 187.755 351.701 187.35 352.16C186.955 352.608 186.742 353.211 186.71 353.968H185.302C185.344 352.773 185.707 351.851 186.39 351.2C187.072 350.549 187.952 350.224 189.03 350.224C190.128 350.224 190.998 350.528 191.638 351.136C192.288 351.744 192.614 352.581 192.614 353.648C192.614 354.533 192.347 355.397 191.814 356.24C191.291 357.072 190.694 357.808 190.022 358.448C189.35 359.077 188.491 359.813 187.446 360.656H192.95V361.872H185.254V360.832ZM194.249 351.76V350.432H197.257V362H195.785V351.76H194.249ZM205.438 346.928L201.054 364.72H199.614L203.982 346.928H205.438ZM40.072 374.768V376.96H37.096V386H34.36V376.96H31.384V374.768H40.072ZM45.5091 386.128C44.6345 386.128 43.8451 385.941 43.1411 385.568C42.4478 385.195 41.8985 384.661 41.4931 383.968C41.0985 383.275 40.9011 382.464 40.9011 381.536C40.9011 380.619 41.1038 379.813 41.5091 379.12C41.9145 378.416 42.4691 377.877 43.1731 377.504C43.8771 377.131 44.6665 376.944 45.5411 376.944C46.4158 376.944 47.2051 377.131 47.9091 377.504C48.6131 377.877 49.1678 378.416 49.5731 379.12C49.9785 379.813 50.1811 380.619 50.1811 381.536C50.1811 382.453 49.9731 383.264 49.5571 383.968C49.1518 384.661 48.5918 385.195 47.8771 385.568C47.1731 385.941 46.3838 386.128 45.5091 386.128ZM45.5091 383.76C46.0318 383.76 46.4745 383.568 46.8371 383.184C47.2105 382.8 47.3971 382.251 47.3971 381.536C47.3971 380.821 47.2158 380.272 46.8531 379.888C46.5011 379.504 46.0638 379.312 45.5411 379.312C45.0078 379.312 44.5651 379.504 44.2131 379.888C43.8611 380.261 43.6851 380.811 43.6851 381.536C43.6851 382.251 43.8558 382.8 44.1971 383.184C44.5491 383.568 44.9865 383.76 45.5091 383.76ZM57.0886 386L54.3686 382.256V386H51.6326V374.16H54.3686V380.704L57.0726 377.072H60.4486L56.7366 381.552L60.4806 386H57.0886ZM69.9392 381.392C69.9392 381.648 69.9233 381.915 69.8913 382.192H63.6993C63.7419 382.747 63.9179 383.173 64.2273 383.472C64.5473 383.76 64.9366 383.904 65.3953 383.904C66.0779 383.904 66.5526 383.616 66.8193 383.04H69.7313C69.5819 383.627 69.3099 384.155 68.9153 384.624C68.5313 385.093 68.0459 385.461 67.4593 385.728C66.8726 385.995 66.2166 386.128 65.4913 386.128C64.6166 386.128 63.8379 385.941 63.1553 385.568C62.4726 385.195 61.9393 384.661 61.5553 383.968C61.1713 383.275 60.9793 382.464 60.9793 381.536C60.9793 380.608 61.1659 379.797 61.5393 379.104C61.9233 378.411 62.4566 377.877 63.1393 377.504C63.8219 377.131 64.6059 376.944 65.4913 376.944C66.3553 376.944 67.1233 377.125 67.7953 377.488C68.4673 377.851 68.9899 378.368 69.3633 379.04C69.7473 379.712 69.9392 380.496 69.9392 381.392ZM67.1393 380.672C67.1393 380.203 66.9793 379.829 66.6593 379.552C66.3393 379.275 65.9393 379.136 65.4593 379.136C65.0006 379.136 64.6113 379.269 64.2913 379.536C63.9819 379.803 63.7899 380.181 63.7153 380.672H67.1393ZM76.8226 376.976C77.868 376.976 78.7 377.317 79.3186 378C79.948 378.672 80.2626 379.6 80.2626 380.784V386H77.5426V381.152C77.5426 380.555 77.388 380.091 77.0786 379.76C76.7693 379.429 76.3533 379.264 75.8306 379.264C75.308 379.264 74.892 379.429 74.5826 379.76C74.2733 380.091 74.1186 380.555 74.1186 381.152V386H71.3826V377.072H74.1186V378.256C74.396 377.861 74.7693 377.552 75.2386 377.328C75.708 377.093 76.236 376.976 76.8226 376.976ZM89.0439 379.248V381.52H82.0039V379.248H89.0439ZM90.9811 380.368C90.9811 379.259 91.2211 378.272 91.7011 377.408C92.1811 376.533 92.8478 375.856 93.7011 375.376C94.5651 374.885 95.5411 374.64 96.6291 374.64C97.9625 374.64 99.1038 374.992 100.053 375.696C101.002 376.4 101.637 377.36 101.957 378.576H98.9491C98.7251 378.107 98.4051 377.749 97.9891 377.504C97.5838 377.259 97.1198 377.136 96.5971 377.136C95.7545 377.136 95.0718 377.429 94.5491 378.016C94.0265 378.603 93.7651 379.387 93.7651 380.368C93.7651 381.349 94.0265 382.133 94.5491 382.72C95.0718 383.307 95.7545 383.6 96.5971 383.6C97.1198 383.6 97.5838 383.477 97.9891 383.232C98.4051 382.987 98.7251 382.629 98.9491 382.16H101.957C101.637 383.376 101.002 384.336 100.053 385.04C99.1038 385.733 97.9625 386.08 96.6291 386.08C95.5411 386.08 94.5651 385.84 93.7011 385.36C92.8478 384.869 92.1811 384.192 91.7011 383.328C91.2211 382.464 90.9811 381.477 90.9811 380.368ZM107.697 386.128C106.822 386.128 106.033 385.941 105.329 385.568C104.635 385.195 104.086 384.661 103.681 383.968C103.286 383.275 103.089 382.464 103.089 381.536C103.089 380.619 103.291 379.813 103.697 379.12C104.102 378.416 104.657 377.877 105.361 377.504C106.065 377.131 106.854 376.944 107.729 376.944C108.603 376.944 109.393 377.131 110.097 377.504C110.801 377.877 111.355 378.416 111.761 379.12C112.166 379.813 112.369 380.619 112.369 381.536C112.369 382.453 112.161 383.264 111.745 383.968C111.339 384.661 110.779 385.195 110.065 385.568C109.361 385.941 108.571 386.128 107.697 386.128ZM107.697 383.76C108.219 383.76 108.662 383.568 109.025 383.184C109.398 382.8 109.585 382.251 109.585 381.536C109.585 380.821 109.403 380.272 109.041 379.888C108.689 379.504 108.251 379.312 107.729 379.312C107.195 379.312 106.753 379.504 106.401 379.888C106.049 380.261 105.873 380.811 105.873 381.536C105.873 382.251 106.043 382.8 106.385 383.184C106.737 383.568 107.174 383.76 107.697 383.76ZM119.26 376.976C120.305 376.976 121.137 377.317 121.756 378C122.385 378.672 122.7 379.6 122.7 380.784V386H119.98V381.152C119.98 380.555 119.825 380.091 119.516 379.76C119.207 379.429 118.791 379.264 118.268 379.264C117.745 379.264 117.329 379.429 117.02 379.76C116.711 380.091 116.556 380.555 116.556 381.152V386H113.82V377.072H116.556V378.256C116.833 377.861 117.207 377.552 117.676 377.328C118.145 377.093 118.673 376.976 119.26 376.976ZM129.577 383.68V386H128.185C127.193 386 126.42 385.76 125.865 385.28C125.311 384.789 125.033 383.995 125.033 382.896V379.344H123.945V377.072H125.033V374.896H127.769V377.072H129.561V379.344H127.769V382.928C127.769 383.195 127.833 383.387 127.961 383.504C128.089 383.621 128.303 383.68 128.601 383.68H129.577ZM133.837 378.56C134.157 378.069 134.557 377.685 135.037 377.408C135.517 377.12 136.051 376.976 136.637 376.976V379.872H135.885C135.203 379.872 134.691 380.021 134.349 380.32C134.008 380.608 133.837 381.12 133.837 381.856V386H131.101V377.072H133.837V378.56ZM137.401 381.52C137.401 380.603 137.572 379.797 137.913 379.104C138.265 378.411 138.74 377.877 139.337 377.504C139.934 377.131 140.601 376.944 141.337 376.944C141.966 376.944 142.516 377.072 142.985 377.328C143.465 377.584 143.833 377.92 144.089 378.336V377.072H146.825V386H144.089V384.736C143.822 385.152 143.449 385.488 142.969 385.744C142.5 386 141.95 386.128 141.321 386.128C140.596 386.128 139.934 385.941 139.337 385.568C138.74 385.184 138.265 384.645 137.913 383.952C137.572 383.248 137.401 382.437 137.401 381.52ZM144.089 381.536C144.089 380.853 143.897 380.315 143.513 379.92C143.14 379.525 142.681 379.328 142.137 379.328C141.593 379.328 141.129 379.525 140.745 379.92C140.372 380.304 140.185 380.837 140.185 381.52C140.185 382.203 140.372 382.747 140.745 383.152C141.129 383.547 141.593 383.744 142.137 383.744C142.681 383.744 143.14 383.547 143.513 383.152C143.897 382.757 144.089 382.219 144.089 381.536ZM148.261 381.536C148.261 380.608 148.447 379.797 148.821 379.104C149.205 378.411 149.733 377.877 150.405 377.504C151.087 377.131 151.866 376.944 152.741 376.944C153.861 376.944 154.794 377.237 155.541 377.824C156.298 378.411 156.794 379.237 157.029 380.304H154.117C153.871 379.621 153.397 379.28 152.693 379.28C152.191 379.28 151.791 379.477 151.493 379.872C151.194 380.256 151.045 380.811 151.045 381.536C151.045 382.261 151.194 382.821 151.493 383.216C151.791 383.6 152.191 383.792 152.693 383.792C153.397 383.792 153.871 383.451 154.117 382.768H157.029C156.794 383.813 156.298 384.635 155.541 385.232C154.783 385.829 153.85 386.128 152.741 386.128C151.866 386.128 151.087 385.941 150.405 385.568C149.733 385.195 149.205 384.661 148.821 383.968C148.447 383.275 148.261 382.464 148.261 381.536ZM163.468 383.68V386H162.076C161.084 386 160.311 385.76 159.756 385.28C159.201 384.789 158.924 383.995 158.924 382.896V379.344H157.836V377.072H158.924V374.896H161.66V377.072H163.452V379.344H161.66V382.928C161.66 383.195 161.724 383.387 161.852 383.504C161.98 383.621 162.193 383.68 162.492 383.68H163.468Z" fill="black"/>
<path d="M255 439C248.37 439 243 444.506 243 451.304C242.999 453.887 243.791 456.405 245.263 458.5C246.736 460.595 248.815 462.162 251.206 462.978C251.806 463.085 252.03 462.716 252.03 462.392C252.03 462.1 252.014 461.132 252.014 460.101C249 460.671 248.22 459.348 247.98 458.655C247.844 458.301 247.26 457.21 246.75 456.917C246.33 456.687 245.73 456.117 246.734 456.102C247.68 456.086 248.354 456.994 248.58 457.363C249.66 459.224 251.386 458.701 252.074 458.379C252.18 457.579 252.494 457.041 252.84 456.734C250.17 456.426 247.38 455.364 247.38 450.658C247.38 449.319 247.844 448.213 248.61 447.351C248.49 447.043 248.07 445.782 248.73 444.09C248.73 444.09 249.734 443.768 252.03 445.352C253.007 445.074 254.016 444.935 255.03 444.937C256.05 444.937 257.07 445.074 258.03 445.351C260.324 443.752 261.33 444.091 261.33 444.091C261.99 445.783 261.57 447.044 261.45 447.352C262.214 448.213 262.68 449.304 262.68 450.658C262.68 455.38 259.876 456.426 257.206 456.734C257.64 457.117 258.016 457.856 258.016 459.01C258.016 460.655 258 461.977 258 462.393C258 462.716 258.226 463.1 258.826 462.976C261.208 462.152 263.278 460.582 264.744 458.488C266.21 456.394 266.999 453.882 267 451.304C267 444.506 261.63 439 255 439Z" fill="#B3B3B3"/>
<circle cx="53" cy="172" r="8" fill="#00C98D" stroke="#121212" stroke-width="4"/>
<line x1="53.5" y1="190" x2="53.5" y2="310" stroke="#D0D0D0" stroke-dasharray="4 4"/>
<circle cx="53" cy="250" r="30" fill="#121212"/>
<path opacity="0.3" fill-rule="evenodd" clip-rule="evenodd" d="M37 236.513L52.2628 233.652C52.75 233.56 53.25 233.56 53.7372 233.652L69 236.513V255.079C69 260.948 65.9767 266.403 61 269.513L54.06 273.851C53.4115 274.256 52.5885 274.256 51.94 273.851L45 269.513C40.0233 266.403 37 260.948 37 255.079V236.513Z" fill="url(#paint7_linear)"/>
<path fill-rule="evenodd" clip-rule="evenodd" d="M51.3516 258.013C50.8724 258.013 50.3932 257.822 50.0099 257.438L46.1766 253.605C45.4099 252.838 45.4099 251.688 46.1766 250.922C46.9432 250.155 48.1891 250.155 48.8599 250.922L51.3516 253.413L57.6766 247.088C58.4432 246.322 59.5932 246.322 60.3599 247.088C61.1266 247.855 61.1266 249.005 60.3599 249.772L52.6932 257.438C52.3099 257.822 51.8307 258.013 51.3516 258.013Z" fill="url(#paint8_linear)"/>
<circle cx="53" cy="328" r="8" fill="#00C98D" stroke="#121212" stroke-width="4"/>
<defs>
<linearGradient id="paint0_linear" x1="74.0977" y1="69.2986" x2="74.0977" y2="111.467" gradientUnits="userSpaceOnUse">
<stop stop-color="white"/>
<stop offset="1" stop-color="white" stop-opacity="0"/>
</linearGradient>
<linearGradient id="paint1_linear" x1="74.251" y1="63" x2="74.251" y2="69.5139" gradientUnits="userSpaceOnUse">
<stop stop-color="white"/>
<stop offset="1" stop-color="white" stop-opacity="0"/>
</linearGradient>
<linearGradient id="paint2_linear" x1="74.0882" y1="69.2913" x2="74.0882" y2="111.464" gradientUnits="userSpaceOnUse">
<stop stop-color="white"/>
<stop offset="1" stop-color="white" stop-opacity="0"/>
</linearGradient>
<linearGradient id="paint3_linear" x1="73.9458" y1="86.7791" x2="73.9458" y2="88.7132" gradientUnits="userSpaceOnUse">
<stop stop-color="white"/>
<stop offset="1" stop-color="white" stop-opacity="0"/>
</linearGradient>
<linearGradient id="paint4_linear" x1="133.998" y1="78.8464" x2="133.998" y2="96.6178" gradientUnits="userSpaceOnUse">
<stop stop-color="white"/>
<stop offset="1" stop-color="white" stop-opacity="0"/>
</linearGradient>
<linearGradient id="paint5_linear" x1="177.657" y1="78.8716" x2="177.657" y2="96.6078" gradientUnits="userSpaceOnUse">
<stop stop-color="white"/>
<stop offset="1" stop-color="white" stop-opacity="0"/>
</linearGradient>
<linearGradient id="paint6_linear" x1="227.709" y1="78.8462" x2="227.709" y2="96.6158" gradientUnits="userSpaceOnUse">
<stop stop-color="white"/>
<stop offset="1" stop-color="white" stop-opacity="0"/>
</linearGradient>
<linearGradient id="paint7_linear" x1="53" y1="233.583" x2="53" y2="274.155" gradientUnits="userSpaceOnUse">
<stop stop-color="#00C98D"/>
<stop offset="1" stop-color="#4770FF"/>
</linearGradient>
<linearGradient id="paint8_linear" x1="53.2682" y1="246.513" x2="53.2682" y2="258.013" gradientUnits="userSpaceOnUse">
<stop stop-color="#00C98D"/>
<stop offset="1" stop-color="#4770FF"/>
</linearGradient>
</defs>
</svg>
