<svg width="633" height="246" viewBox="0 0 633 246" fill="none" xmlns="http://www.w3.org/2000/svg">
<rect opacity="0.2" y="74" width="286" height="160" rx="12" fill="#232B35"/>
<rect x="12" y="86" width="286" height="160" rx="12" fill="#232B35"/>
<path fill-rule="evenodd" clip-rule="evenodd" d="M93.7184 144.43L93.973 145.972C94.1737 147.407 94.2668 148.854 94.2512 150.303C94.2496 153.504 93.864 156.694 93.1028 159.803C92.0735 164.028 90.2806 168.027 87.8128 171.604C84.9612 175.713 80.8381 179.753 74.8279 183L74.0927 183.397L73.3574 183C67.3473 179.753 63.2259 175.713 60.3726 171.604C57.9049 168.027 56.112 164.028 55.0825 159.803C54.3215 156.695 53.936 153.506 53.9341 150.305C53.9186 148.856 54.0116 147.408 54.2124 145.974L54.467 144.431C54.4888 144.306 54.4854 144.177 54.4572 144.052C54.429 143.928 54.3765 143.81 54.3027 143.706C54.2289 143.602 54.1353 143.514 54.0272 143.446C53.9192 143.378 53.7988 143.333 53.6731 143.312C53.5474 143.291 53.4188 143.295 53.2947 143.324C53.1707 143.354 53.0536 143.407 52.9503 143.482C52.8469 143.556 52.7594 143.651 52.6926 143.76C52.6259 143.868 52.5813 143.989 52.5615 144.115L52.3068 145.658C52.0878 147.197 51.9858 148.75 52.0016 150.305C52.0028 153.663 52.4071 157.009 53.2056 160.271C54.2927 164.726 56.1851 168.943 58.7891 172.714C61.7992 177.054 66.1652 181.321 72.4485 184.708L73.6424 185.352C73.7831 185.428 73.9404 185.468 74.1003 185.468C74.2601 185.468 74.4175 185.428 74.5581 185.352L75.7504 184.708C82.0269 181.319 86.3946 177.054 89.4097 172.714C92.0124 168.943 93.9037 164.727 94.9899 160.273C95.7885 157.011 96.1927 153.665 96.1939 150.306C96.2097 148.752 96.1077 147.198 95.8887 145.659L95.634 144.117C95.6142 143.991 95.5696 143.87 95.5029 143.761C95.4361 143.653 95.3486 143.558 95.2452 143.483C95.1419 143.409 95.0248 143.355 94.9008 143.326C94.7767 143.297 94.6481 143.293 94.5224 143.313C94.3967 143.334 94.2763 143.38 94.1683 143.448C94.0602 143.515 93.9666 143.604 93.8928 143.708C93.819 143.812 93.7665 143.929 93.7383 144.054C93.7101 144.178 93.7067 144.307 93.7285 144.433L93.7184 144.43Z" fill="white"/>
<path fill-rule="evenodd" clip-rule="evenodd" d="M93.7184 144.43L93.973 145.972C94.1737 147.407 94.2668 148.854 94.2512 150.303C94.2496 153.504 93.864 156.694 93.1028 159.803C92.0735 164.028 90.2806 168.027 87.8128 171.604C84.9612 175.713 80.8381 179.753 74.8279 183L74.0927 183.397L73.3574 183C67.3473 179.753 63.2259 175.713 60.3726 171.604C57.9049 168.027 56.112 164.028 55.0825 159.803C54.3215 156.695 53.936 153.506 53.9341 150.305C53.9186 148.856 54.0116 147.408 54.2124 145.974L54.467 144.431C54.4888 144.306 54.4854 144.177 54.4572 144.052C54.429 143.928 54.3765 143.81 54.3027 143.706C54.2289 143.602 54.1353 143.514 54.0272 143.446C53.9192 143.378 53.7988 143.333 53.6731 143.312C53.5474 143.291 53.4188 143.295 53.2947 143.324C53.1707 143.354 53.0536 143.407 52.9503 143.482C52.8469 143.556 52.7594 143.651 52.6926 143.76C52.6259 143.868 52.5813 143.989 52.5615 144.115L52.3068 145.658C52.0878 147.197 51.9858 148.75 52.0016 150.305C52.0028 153.663 52.4071 157.009 53.2056 160.271C54.2927 164.726 56.1851 168.943 58.7891 172.714C61.7992 177.054 66.1652 181.321 72.4485 184.708L73.6424 185.352C73.7831 185.428 73.9404 185.468 74.1003 185.468C74.2601 185.468 74.4175 185.428 74.5581 185.352L75.7504 184.708C82.0269 181.319 86.3946 177.054 89.4097 172.714C92.0124 168.943 93.9037 164.727 94.9899 160.273C95.7885 157.011 96.1927 153.665 96.1939 150.306C96.2097 148.752 96.1077 147.198 95.8887 145.659L95.634 144.117C95.6142 143.991 95.5696 143.87 95.5029 143.761C95.4361 143.653 95.3486 143.558 95.2452 143.483C95.1419 143.409 95.0248 143.355 94.9008 143.326C94.7767 143.297 94.6481 143.293 94.5224 143.313C94.3967 143.334 94.2763 143.38 94.1683 143.448C94.0602 143.515 93.9666 143.604 93.8928 143.708C93.819 143.812 93.7665 143.929 93.7383 144.054C93.7101 144.178 93.7067 144.307 93.7285 144.433L93.7184 144.43Z" fill="url(#paint0_linear)"/>
<path fill-rule="evenodd" clip-rule="evenodd" d="M59.7449 143.379L74.0956 138.987L88.7668 143.473C89.0124 143.547 89.2772 143.52 89.503 143.398C89.7289 143.277 89.8975 143.071 89.972 142.825C90.0465 142.579 90.0207 142.314 89.9004 142.087C89.7801 141.86 89.5751 141.691 89.3301 141.615L74.3773 137.042C74.1937 136.986 73.9976 136.986 73.814 137.042L59.1799 141.517C59.0576 141.554 58.9438 141.614 58.8449 141.695C58.746 141.776 58.664 141.875 58.6036 141.988C58.5432 142.101 58.5056 142.224 58.493 142.351C58.4804 142.479 58.493 142.607 58.5301 142.729C58.5672 142.852 58.628 142.966 58.7091 143.064C58.7902 143.163 58.89 143.245 59.0027 143.305C59.1154 143.365 59.2389 143.402 59.3659 143.414C59.493 143.426 59.6212 143.413 59.7432 143.375L59.7449 143.379Z" fill="white"/>
<path fill-rule="evenodd" clip-rule="evenodd" d="M59.7449 143.379L74.0956 138.987L88.7668 143.473C89.0124 143.547 89.2772 143.52 89.503 143.398C89.7289 143.277 89.8975 143.071 89.972 142.825C90.0465 142.579 90.0207 142.314 89.9004 142.087C89.7801 141.86 89.5751 141.691 89.3301 141.615L74.3773 137.042C74.1937 136.986 73.9976 136.986 73.814 137.042L59.1799 141.517C59.0576 141.554 58.9438 141.614 58.8449 141.695C58.746 141.776 58.664 141.875 58.6036 141.988C58.5432 142.101 58.5056 142.224 58.493 142.351C58.4804 142.479 58.493 142.607 58.5301 142.729C58.5672 142.852 58.628 142.966 58.7091 143.064C58.7902 143.163 58.89 143.245 59.0027 143.305C59.1154 143.365 59.2389 143.402 59.3659 143.414C59.493 143.426 59.6212 143.413 59.7432 143.375L59.7449 143.379Z" fill="url(#paint1_linear)"/>
<path fill-rule="evenodd" clip-rule="evenodd" d="M52.6583 144.713L73.2317 184.937C73.3119 185.094 73.4335 185.227 73.5834 185.319C73.7334 185.412 73.9058 185.462 74.082 185.464C74.2583 185.465 74.4316 185.418 74.5831 185.328C74.7346 185.238 74.8586 185.108 74.9416 184.952L87.488 161.447L87.5065 161.409L95.5369 144.686C95.6458 144.455 95.6593 144.191 95.5745 143.95C95.4897 143.709 95.3135 143.512 95.0842 143.4C94.8549 143.289 94.591 143.273 94.3499 143.356C94.1088 143.438 93.91 143.613 93.7966 143.841L85.7797 160.551L74.1204 182.41L54.3767 143.828C54.3198 143.713 54.2407 143.611 54.1441 143.527C54.0476 143.444 53.9354 143.38 53.814 143.34C53.6927 143.3 53.5646 143.284 53.4373 143.294C53.3099 143.304 53.1858 143.34 53.0721 143.398C52.9585 143.456 52.8575 143.537 52.775 143.634C52.6925 143.732 52.6303 143.845 52.5918 143.967C52.5533 144.089 52.5393 144.218 52.5507 144.345C52.5622 144.472 52.5987 144.596 52.6583 144.71V144.713Z" fill="white"/>
<path fill-rule="evenodd" clip-rule="evenodd" d="M52.6583 144.713L73.2317 184.937C73.3119 185.094 73.4335 185.227 73.5834 185.319C73.7334 185.412 73.9058 185.462 74.082 185.464C74.2583 185.465 74.4316 185.418 74.5831 185.328C74.7346 185.238 74.8586 185.108 74.9416 184.952L87.488 161.447L87.5065 161.409L95.5369 144.686C95.6458 144.455 95.6593 144.191 95.5745 143.95C95.4897 143.709 95.3135 143.512 95.0842 143.4C94.8549 143.289 94.591 143.273 94.3499 143.356C94.1088 143.438 93.91 143.613 93.7966 143.841L85.7797 160.551L74.1204 182.41L54.3767 143.828C54.3198 143.713 54.2407 143.611 54.1441 143.527C54.0476 143.444 53.9354 143.38 53.814 143.34C53.6927 143.3 53.5646 143.284 53.4373 143.294C53.3099 143.304 53.1858 143.34 53.0721 143.398C52.9585 143.456 52.8575 143.537 52.775 143.634C52.6925 143.732 52.6303 143.845 52.5918 143.967C52.5533 144.089 52.5393 144.218 52.5507 144.345C52.5622 144.472 52.5987 144.596 52.6583 144.71V144.713Z" fill="url(#paint2_linear)"/>
<path fill-rule="evenodd" clip-rule="evenodd" d="M62.5064 162.713H85.3851C85.6411 162.713 85.8867 162.612 86.0677 162.43C86.2488 162.249 86.3505 162.003 86.3505 161.746C86.3505 161.49 86.2488 161.244 86.0677 161.063C85.8867 160.881 85.6411 160.779 85.3851 160.779H62.5064C62.2504 160.779 62.0048 160.881 61.8238 161.063C61.6427 161.244 61.541 161.49 61.541 161.746C61.541 162.003 61.6427 162.249 61.8238 162.43C62.0048 162.612 62.2504 162.713 62.5064 162.713Z" fill="white"/>
<path fill-rule="evenodd" clip-rule="evenodd" d="M62.5064 162.713H85.3851C85.6411 162.713 85.8867 162.612 86.0677 162.43C86.2488 162.249 86.3505 162.003 86.3505 161.746C86.3505 161.49 86.2488 161.244 86.0677 161.063C85.8867 160.881 85.6411 160.779 85.3851 160.779H62.5064C62.2504 160.779 62.0048 160.881 61.8238 161.063C61.6427 161.244 61.541 161.49 61.541 161.746C61.541 162.003 61.6427 162.249 61.8238 162.43C62.0048 162.612 62.2504 162.713 62.5064 162.713Z" fill="url(#paint3_linear)"/>
<path fill-rule="evenodd" clip-rule="evenodd" d="M128.936 154.845H113.983C113.724 154.847 113.477 154.948 113.294 155.129C113.112 155.309 113.008 155.553 113.007 155.808V167.649C113.009 167.904 113.112 168.148 113.295 168.328C113.477 168.508 113.725 168.61 113.983 168.612H128.936V170.618H113.983C113.588 170.619 113.197 170.544 112.833 170.396C112.468 170.248 112.136 170.03 111.857 169.754C111.578 169.479 111.357 169.152 111.207 168.792C111.057 168.432 110.981 168.047 110.982 167.657V155.816C110.981 155.427 111.057 155.041 111.207 154.682C111.357 154.322 111.578 153.995 111.857 153.719C112.136 153.444 112.468 153.226 112.833 153.078C113.197 152.93 113.588 152.854 113.983 152.856H128.936V154.845ZM157.013 152.846V154.852H142.613V160.714H154.187V162.736H142.611V168.608H157.012V170.614H140.578V152.846H157.013Z" fill="white"/>
<path fill-rule="evenodd" clip-rule="evenodd" d="M128.936 154.845H113.983C113.724 154.847 113.477 154.948 113.294 155.129C113.112 155.309 113.008 155.553 113.007 155.808V167.649C113.009 167.904 113.112 168.148 113.295 168.328C113.477 168.508 113.725 168.61 113.983 168.612H128.936V170.618H113.983C113.588 170.619 113.197 170.544 112.833 170.396C112.468 170.248 112.136 170.03 111.857 169.754C111.578 169.479 111.357 169.152 111.207 168.792C111.057 168.432 110.981 168.047 110.982 167.657V155.816C110.981 155.427 111.057 155.041 111.207 154.682C111.357 154.322 111.578 153.995 111.857 153.719C112.136 153.444 112.468 153.226 112.833 153.078C113.197 152.93 113.588 152.854 113.983 152.856H128.936V154.845ZM157.013 152.846V154.852H142.613V160.714H154.187V162.736H142.611V168.608H157.012V170.614H140.578V152.846H157.013Z" fill="url(#paint4_linear)"/>
<path d="M186.666 155.832V161.037C186.668 161.426 186.591 161.812 186.441 162.172C186.291 162.531 186.07 162.858 185.791 163.133C185.512 163.409 185.18 163.627 184.816 163.775C184.451 163.923 184.06 163.999 183.666 163.997H180.916L186.566 170.608H183.891L178.265 163.997H171.657C171.331 163.981 171.005 163.948 170.681 163.898V170.608H168.648V152.872H183.65C184.045 152.87 184.436 152.946 184.8 153.094C185.165 153.242 185.497 153.46 185.775 153.735C186.054 154.01 186.275 154.337 186.426 154.697C186.576 155.057 186.652 155.443 186.651 155.832H186.666ZM171.664 161.975H183.666C183.791 161.976 183.915 161.953 184.031 161.906C184.147 161.86 184.253 161.791 184.341 161.703C184.43 161.616 184.5 161.512 184.547 161.398C184.594 161.283 184.618 161.16 184.616 161.037V155.832C184.618 155.706 184.595 155.582 184.548 155.465C184.501 155.349 184.431 155.243 184.342 155.153C184.255 155.061 184.15 154.989 184.034 154.94C183.917 154.891 183.791 154.867 183.664 154.869H171.662C171.404 154.87 171.157 154.972 170.974 155.152C170.791 155.333 170.688 155.577 170.687 155.832V161.037C170.684 161.162 170.708 161.286 170.758 161.402C170.808 161.517 170.881 161.62 170.975 161.705C171.066 161.793 171.173 161.862 171.292 161.909C171.41 161.955 171.537 161.977 171.664 161.975Z" fill="white"/>
<path d="M186.666 155.832V161.037C186.668 161.426 186.591 161.812 186.441 162.172C186.291 162.531 186.07 162.858 185.791 163.133C185.512 163.409 185.18 163.627 184.816 163.775C184.451 163.923 184.06 163.999 183.666 163.997H180.916L186.566 170.608H183.891L178.265 163.997H171.657C171.331 163.981 171.005 163.948 170.681 163.898V170.608H168.648V152.872H183.65C184.045 152.87 184.436 152.946 184.8 153.094C185.165 153.242 185.497 153.46 185.775 153.735C186.054 154.01 186.275 154.337 186.426 154.697C186.576 155.057 186.652 155.443 186.651 155.832H186.666ZM171.664 161.975H183.666C183.791 161.976 183.915 161.953 184.031 161.906C184.147 161.86 184.253 161.791 184.341 161.703C184.43 161.616 184.5 161.512 184.547 161.398C184.594 161.283 184.618 161.16 184.616 161.037V155.832C184.618 155.706 184.595 155.582 184.548 155.465C184.501 155.349 184.431 155.243 184.342 155.153C184.255 155.061 184.15 154.989 184.034 154.94C183.917 154.891 183.791 154.867 183.664 154.869H171.662C171.404 154.87 171.157 154.972 170.974 155.152C170.791 155.333 170.688 155.577 170.687 155.832V161.037C170.684 161.162 170.708 161.286 170.758 161.402C170.808 161.517 170.881 161.62 170.975 161.705C171.066 161.793 171.173 161.862 171.292 161.909C171.41 161.955 171.537 161.977 171.664 161.975Z" fill="url(#paint5_linear)"/>
<path fill-rule="evenodd" clip-rule="evenodd" d="M197.418 152.846H215.414V154.852H207.451V170.616H205.418V154.852H197.418V152.846ZM226.321 170.607V152.846H228.354V170.607H226.321ZM255.374 152.846H257.975L250.449 161.727L258 170.607H255.374L248.674 162.738H242.873V170.607H240.826V152.846H242.876V160.714H248.677L255.374 152.846Z" fill="white"/>
<path fill-rule="evenodd" clip-rule="evenodd" d="M197.418 152.846H215.414V154.852H207.451V170.616H205.418V154.852H197.418V152.846ZM226.321 170.607V152.846H228.354V170.607H226.321ZM255.374 152.846H257.975L250.449 161.727L258 170.607H255.374L248.674 162.738H242.873V170.607H240.826V152.846H242.876V160.714H248.677L255.374 152.846Z" fill="url(#paint6_linear)"/>
<rect x="347" y="76" width="286" height="160" rx="12" fill="#2A2A2A"/>
<mask id="mask0" mask-type="alpha" maskUnits="userSpaceOnUse" x="337" y="86" width="286" height="160">
<rect x="337" y="86" width="286" height="160" rx="12" fill="white"/>
</mask>
<g mask="url(#mask0)">
<rect x="337" y="86" width="286" height="160" rx="12" fill="white"/>
<rect x="337" y="240" width="286" height="12" fill="#4770FF"/>
<path d="M337 240H544V252H337V240Z" fill="#00C98D"/>
</g>
<rect x="556" y="101" width="48" height="48" rx="12" fill="#F5EFF2"/>
<path fill-rule="evenodd" clip-rule="evenodd" d="M569.421 131.158L564 119H567.355L571.379 128.027L575.408 119H578.763L573.342 131.158H569.421ZM591.554 131.158L597 119H593.629L589.583 128.027L585.541 119H581.604L576.158 131.158H579.528L583.575 122.131L587.617 131.158H591.554Z" fill="#00C98D"/>
<path d="M360.496 118.656L363.216 111.232H364.768L361.328 120H359.632L356.192 111.232H357.76L360.496 118.656ZM365.657 115.584C365.657 114.688 365.838 113.904 366.201 113.232C366.563 112.549 367.059 112.021 367.689 111.648C368.329 111.275 369.038 111.088 369.817 111.088C370.585 111.088 371.251 111.253 371.817 111.584C372.382 111.915 372.803 112.331 373.081 112.832V111.232H374.553V120H373.081V118.368C372.793 118.88 372.361 119.307 371.785 119.648C371.219 119.979 370.558 120.144 369.801 120.144C369.022 120.144 368.318 119.952 367.689 119.568C367.059 119.184 366.563 118.645 366.201 117.952C365.838 117.259 365.657 116.469 365.657 115.584ZM373.081 115.6C373.081 114.939 372.947 114.363 372.681 113.872C372.414 113.381 372.051 113.008 371.593 112.752C371.145 112.485 370.649 112.352 370.105 112.352C369.561 112.352 369.065 112.48 368.617 112.736C368.169 112.992 367.811 113.365 367.545 113.856C367.278 114.347 367.145 114.923 367.145 115.584C367.145 116.256 367.278 116.843 367.545 117.344C367.811 117.835 368.169 118.213 368.617 118.48C369.065 118.736 369.561 118.864 370.105 118.864C370.649 118.864 371.145 118.736 371.593 118.48C372.051 118.213 372.414 117.835 372.681 117.344C372.947 116.843 373.081 116.261 373.081 115.6ZM378.469 108.16V120H377.013V108.16H378.469ZM388.727 111.232V120H387.271V118.704C386.993 119.152 386.604 119.504 386.103 119.76C385.612 120.005 385.068 120.128 384.471 120.128C383.788 120.128 383.175 119.989 382.631 119.712C382.087 119.424 381.655 118.997 381.335 118.432C381.025 117.867 380.871 117.179 380.871 116.368V111.232H382.311V116.176C382.311 117.04 382.529 117.707 382.967 118.176C383.404 118.635 384.001 118.864 384.759 118.864C385.537 118.864 386.151 118.624 386.599 118.144C387.047 117.664 387.271 116.965 387.271 116.048V111.232H388.727ZM399.185 115.28C399.185 115.557 399.169 115.851 399.137 116.16H392.129C392.182 117.024 392.476 117.701 393.009 118.192C393.553 118.672 394.209 118.912 394.977 118.912C395.606 118.912 396.129 118.768 396.545 118.48C396.972 118.181 397.27 117.787 397.441 117.296H399.009C398.774 118.139 398.305 118.827 397.601 119.36C396.897 119.883 396.022 120.144 394.977 120.144C394.145 120.144 393.398 119.957 392.737 119.584C392.086 119.211 391.574 118.683 391.201 118C390.828 117.307 390.641 116.507 390.641 115.6C390.641 114.693 390.822 113.899 391.185 113.216C391.548 112.533 392.054 112.011 392.705 111.648C393.366 111.275 394.124 111.088 394.977 111.088C395.809 111.088 396.545 111.269 397.185 111.632C397.825 111.995 398.316 112.496 398.657 113.136C399.009 113.765 399.185 114.48 399.185 115.28ZM397.681 114.976C397.681 114.421 397.558 113.947 397.313 113.552C397.068 113.147 396.732 112.843 396.305 112.64C395.889 112.427 395.425 112.32 394.913 112.32C394.177 112.32 393.548 112.555 393.025 113.024C392.513 113.493 392.22 114.144 392.145 114.976H397.681ZM405.379 111.072C406.446 111.072 407.31 111.397 407.971 112.048C408.632 112.688 408.963 113.616 408.963 114.832V120H407.523V115.04C407.523 114.165 407.304 113.499 406.867 113.04C406.43 112.571 405.832 112.336 405.075 112.336C404.307 112.336 403.694 112.576 403.235 113.056C402.787 113.536 402.563 114.235 402.563 115.152V120H401.107V111.232H402.563V112.48C402.851 112.032 403.24 111.685 403.731 111.44C404.232 111.195 404.782 111.072 405.379 111.072ZM419.341 115.28C419.341 115.557 419.325 115.851 419.293 116.16H412.285C412.339 117.024 412.632 117.701 413.165 118.192C413.709 118.672 414.365 118.912 415.133 118.912C415.763 118.912 416.285 118.768 416.701 118.48C417.128 118.181 417.427 117.787 417.597 117.296H419.165C418.931 118.139 418.461 118.827 417.757 119.36C417.053 119.883 416.179 120.144 415.133 120.144C414.301 120.144 413.555 119.957 412.893 119.584C412.243 119.211 411.731 118.683 411.357 118C410.984 117.307 410.797 116.507 410.797 115.6C410.797 114.693 410.979 113.899 411.341 113.216C411.704 112.533 412.211 112.011 412.861 111.648C413.523 111.275 414.28 111.088 415.133 111.088C415.965 111.088 416.701 111.269 417.341 111.632C417.981 111.995 418.472 112.496 418.813 113.136C419.165 113.765 419.341 114.48 419.341 115.28ZM417.837 114.976C417.837 114.421 417.715 113.947 417.469 113.552C417.224 113.147 416.888 112.843 416.461 112.64C416.045 112.427 415.581 112.32 415.069 112.32C414.333 112.32 413.704 112.555 413.181 113.024C412.669 113.493 412.376 114.144 412.301 114.976H417.837ZM423.039 112.432V117.6C423.039 118.027 423.13 118.331 423.311 118.512C423.493 118.683 423.807 118.768 424.255 118.768H425.327V120H424.015C423.205 120 422.597 119.813 422.191 119.44C421.786 119.067 421.583 118.453 421.583 117.6V112.432H420.447V111.232H421.583V109.024H423.039V111.232H425.327V112.432H423.039ZM438.771 111.232L436.035 120H434.531L432.419 113.04L430.307 120H428.803L426.051 111.232H427.539L429.555 118.592L431.731 111.232H433.219L435.347 118.608L437.331 111.232H438.771ZM444.04 120.144C443.219 120.144 442.472 119.957 441.8 119.584C441.139 119.211 440.616 118.683 440.232 118C439.859 117.307 439.672 116.507 439.672 115.6C439.672 114.704 439.864 113.915 440.248 113.232C440.643 112.539 441.176 112.011 441.848 111.648C442.52 111.275 443.272 111.088 444.104 111.088C444.936 111.088 445.688 111.275 446.36 111.648C447.032 112.011 447.56 112.533 447.944 113.216C448.339 113.899 448.536 114.693 448.536 115.6C448.536 116.507 448.334 117.307 447.928 118C447.534 118.683 446.995 119.211 446.312 119.584C445.63 119.957 444.872 120.144 444.04 120.144ZM444.04 118.864C444.563 118.864 445.054 118.741 445.512 118.496C445.971 118.251 446.339 117.883 446.616 117.392C446.904 116.901 447.048 116.304 447.048 115.6C447.048 114.896 446.91 114.299 446.632 113.808C446.355 113.317 445.992 112.955 445.544 112.72C445.096 112.475 444.611 112.352 444.088 112.352C443.555 112.352 443.064 112.475 442.616 112.72C442.179 112.955 441.827 113.317 441.56 113.808C441.294 114.299 441.16 114.896 441.16 115.6C441.16 116.315 441.288 116.917 441.544 117.408C441.811 117.899 442.163 118.267 442.6 118.512C443.038 118.747 443.518 118.864 444.04 118.864ZM451.907 112.656C452.163 112.155 452.525 111.765 452.995 111.488C453.475 111.211 454.056 111.072 454.739 111.072V112.576H454.355C452.723 112.576 451.907 113.461 451.907 115.232V120H450.451V111.232H451.907V112.656ZM461.316 120L457.876 116.128V120H456.42V108.16H457.876V115.12L461.252 111.232H463.284L459.156 115.6L463.3 120H461.316ZM466.11 108.16V120H464.654V108.16H466.11ZM469.343 109.808C469.066 109.808 468.831 109.712 468.639 109.52C468.447 109.328 468.351 109.093 468.351 108.816C468.351 108.539 468.447 108.304 468.639 108.112C468.831 107.92 469.066 107.824 469.343 107.824C469.61 107.824 469.834 107.92 470.015 108.112C470.207 108.304 470.303 108.539 470.303 108.816C470.303 109.093 470.207 109.328 470.015 109.52C469.834 109.712 469.61 109.808 469.343 109.808ZM470.047 111.232V120H468.591V111.232H470.047ZM475.793 118.656L478.513 111.232H480.065L476.625 120H474.929L471.489 111.232H473.057L475.793 118.656ZM489.498 115.28C489.498 115.557 489.482 115.851 489.45 116.16H482.442C482.495 117.024 482.788 117.701 483.322 118.192C483.866 118.672 484.522 118.912 485.29 118.912C485.919 118.912 486.442 118.768 486.858 118.48C487.284 118.181 487.583 117.787 487.754 117.296H489.322C489.087 118.139 488.618 118.827 487.914 119.36C487.21 119.883 486.335 120.144 485.29 120.144C484.458 120.144 483.711 119.957 483.05 119.584C482.399 119.211 481.887 118.683 481.514 118C481.14 117.307 480.954 116.507 480.954 115.6C480.954 114.693 481.135 113.899 481.498 113.216C481.86 112.533 482.367 112.011 483.018 111.648C483.679 111.275 484.436 111.088 485.29 111.088C486.122 111.088 486.858 111.269 487.498 111.632C488.138 111.995 488.628 112.496 488.97 113.136C489.322 113.765 489.498 114.48 489.498 115.28ZM487.994 114.976C487.994 114.421 487.871 113.947 487.626 113.552C487.38 113.147 487.044 112.843 486.618 112.64C486.202 112.427 485.738 112.32 485.226 112.32C484.49 112.32 483.86 112.555 483.338 113.024C482.826 113.493 482.532 114.144 482.458 114.976H487.994ZM491.004 118.832C492.358 117.744 493.42 116.853 494.188 116.16C494.956 115.456 495.601 114.725 496.124 113.968C496.657 113.2 496.924 112.448 496.924 111.712C496.924 111.019 496.753 110.475 496.412 110.08C496.081 109.675 495.542 109.472 494.796 109.472C494.07 109.472 493.505 109.701 493.1 110.16C492.705 110.608 492.492 111.211 492.46 111.968H491.052C491.094 110.773 491.457 109.851 492.14 109.2C492.822 108.549 493.702 108.224 494.78 108.224C495.878 108.224 496.748 108.528 497.388 109.136C498.038 109.744 498.364 110.581 498.364 111.648C498.364 112.533 498.097 113.397 497.564 114.24C497.041 115.072 496.444 115.808 495.772 116.448C495.1 117.077 494.241 117.813 493.196 118.656H498.7V119.872H491.004V118.832ZM500.383 114.096C500.383 112.261 500.681 110.832 501.279 109.808C501.876 108.773 502.921 108.256 504.415 108.256C505.897 108.256 506.937 108.773 507.535 109.808C508.132 110.832 508.431 112.261 508.431 114.096C508.431 115.963 508.132 117.413 507.535 118.448C506.937 119.483 505.897 120 504.415 120C502.921 120 501.876 119.483 501.279 118.448C500.681 117.413 500.383 115.963 500.383 114.096ZM506.991 114.096C506.991 113.168 506.927 112.384 506.799 111.744C506.681 111.093 506.431 110.571 506.047 110.176C505.673 109.781 505.129 109.584 504.415 109.584C503.689 109.584 503.135 109.781 502.751 110.176C502.377 110.571 502.127 111.093 501.999 111.744C501.881 112.384 501.823 113.168 501.823 114.096C501.823 115.056 501.881 115.861 501.999 116.512C502.127 117.163 502.377 117.685 502.751 118.08C503.135 118.475 503.689 118.672 504.415 118.672C505.129 118.672 505.673 118.475 506.047 118.08C506.431 117.685 506.681 117.163 506.799 116.512C506.927 115.861 506.991 115.056 506.991 114.096ZM510.254 118.832C511.608 117.744 512.67 116.853 513.438 116.16C514.206 115.456 514.851 114.725 515.374 113.968C515.907 113.2 516.174 112.448 516.174 111.712C516.174 111.019 516.003 110.475 515.662 110.08C515.331 109.675 514.792 109.472 514.046 109.472C513.32 109.472 512.755 109.701 512.35 110.16C511.955 110.608 511.742 111.211 511.71 111.968H510.302C510.344 110.773 510.707 109.851 511.39 109.2C512.072 108.549 512.952 108.224 514.03 108.224C515.128 108.224 515.998 108.528 516.638 109.136C517.288 109.744 517.614 110.581 517.614 111.648C517.614 112.533 517.347 113.397 516.814 114.24C516.291 115.072 515.694 115.808 515.022 116.448C514.35 117.077 513.491 117.813 512.446 118.656H517.95V119.872H510.254V118.832ZM519.249 109.76V108.432H522.257V120H520.785V109.76H519.249ZM530.438 104.928L526.054 122.72H524.614L528.982 104.928H530.438ZM365.072 132.768V134.96H362.096V144H359.36V134.96H356.384V132.768H365.072ZM370.509 144.128C369.634 144.128 368.845 143.941 368.141 143.568C367.448 143.195 366.898 142.661 366.493 141.968C366.098 141.275 365.901 140.464 365.901 139.536C365.901 138.619 366.104 137.813 366.509 137.12C366.914 136.416 367.469 135.877 368.173 135.504C368.877 135.131 369.666 134.944 370.541 134.944C371.416 134.944 372.205 135.131 372.909 135.504C373.613 135.877 374.168 136.416 374.573 137.12C374.978 137.813 375.181 138.619 375.181 139.536C375.181 140.453 374.973 141.264 374.557 141.968C374.152 142.661 373.592 143.195 372.877 143.568C372.173 143.941 371.384 144.128 370.509 144.128ZM370.509 141.76C371.032 141.76 371.474 141.568 371.837 141.184C372.21 140.8 372.397 140.251 372.397 139.536C372.397 138.821 372.216 138.272 371.853 137.888C371.501 137.504 371.064 137.312 370.541 137.312C370.008 137.312 369.565 137.504 369.213 137.888C368.861 138.261 368.685 138.811 368.685 139.536C368.685 140.251 368.856 140.8 369.197 141.184C369.549 141.568 369.986 141.76 370.509 141.76ZM382.089 144L379.369 140.256V144H376.633V132.16H379.369V138.704L382.073 135.072H385.449L381.737 139.552L385.481 144H382.089ZM394.939 139.392C394.939 139.648 394.923 139.915 394.891 140.192H388.699C388.742 140.747 388.918 141.173 389.227 141.472C389.547 141.76 389.937 141.904 390.395 141.904C391.078 141.904 391.553 141.616 391.819 141.04H394.731C394.582 141.627 394.31 142.155 393.915 142.624C393.531 143.093 393.046 143.461 392.459 143.728C391.873 143.995 391.217 144.128 390.491 144.128C389.617 144.128 388.838 143.941 388.155 143.568C387.473 143.195 386.939 142.661 386.555 141.968C386.171 141.275 385.979 140.464 385.979 139.536C385.979 138.608 386.166 137.797 386.539 137.104C386.923 136.411 387.457 135.877 388.139 135.504C388.822 135.131 389.606 134.944 390.491 134.944C391.355 134.944 392.123 135.125 392.795 135.488C393.467 135.851 393.99 136.368 394.363 137.04C394.747 137.712 394.939 138.496 394.939 139.392ZM392.139 138.672C392.139 138.203 391.979 137.829 391.659 137.552C391.339 137.275 390.939 137.136 390.459 137.136C390.001 137.136 389.611 137.269 389.291 137.536C388.982 137.803 388.79 138.181 388.715 138.672H392.139ZM401.823 134.976C402.868 134.976 403.7 135.317 404.319 136C404.948 136.672 405.263 137.6 405.263 138.784V144H402.543V139.152C402.543 138.555 402.388 138.091 402.079 137.76C401.769 137.429 401.353 137.264 400.831 137.264C400.308 137.264 399.892 137.429 399.583 137.76C399.273 138.091 399.119 138.555 399.119 139.152V144H396.383V135.072H399.119V136.256C399.396 135.861 399.769 135.552 400.239 135.328C400.708 135.093 401.236 134.976 401.823 134.976ZM414.044 137.248V139.52H407.004V137.248H414.044ZM415.981 138.368C415.981 137.259 416.221 136.272 416.701 135.408C417.181 134.533 417.848 133.856 418.701 133.376C419.565 132.885 420.541 132.64 421.629 132.64C422.962 132.64 424.104 132.992 425.053 133.696C426.002 134.4 426.637 135.36 426.957 136.576H423.949C423.725 136.107 423.405 135.749 422.989 135.504C422.584 135.259 422.12 135.136 421.597 135.136C420.754 135.136 420.072 135.429 419.549 136.016C419.026 136.603 418.765 137.387 418.765 138.368C418.765 139.349 419.026 140.133 419.549 140.72C420.072 141.307 420.754 141.6 421.597 141.6C422.12 141.6 422.584 141.477 422.989 141.232C423.405 140.987 423.725 140.629 423.949 140.16H426.957C426.637 141.376 426.002 142.336 425.053 143.04C424.104 143.733 422.962 144.08 421.629 144.08C420.541 144.08 419.565 143.84 418.701 143.36C417.848 142.869 417.181 142.192 416.701 141.328C416.221 140.464 415.981 139.477 415.981 138.368ZM432.697 144.128C431.822 144.128 431.033 143.941 430.329 143.568C429.635 143.195 429.086 142.661 428.681 141.968C428.286 141.275 428.089 140.464 428.089 139.536C428.089 138.619 428.291 137.813 428.697 137.12C429.102 136.416 429.657 135.877 430.361 135.504C431.065 135.131 431.854 134.944 432.729 134.944C433.603 134.944 434.393 135.131 435.097 135.504C435.801 135.877 436.355 136.416 436.761 137.12C437.166 137.813 437.369 138.619 437.369 139.536C437.369 140.453 437.161 141.264 436.745 141.968C436.339 142.661 435.779 143.195 435.065 143.568C434.361 143.941 433.571 144.128 432.697 144.128ZM432.697 141.76C433.219 141.76 433.662 141.568 434.025 141.184C434.398 140.8 434.585 140.251 434.585 139.536C434.585 138.821 434.403 138.272 434.041 137.888C433.689 137.504 433.251 137.312 432.729 137.312C432.195 137.312 431.753 137.504 431.401 137.888C431.049 138.261 430.873 138.811 430.873 139.536C430.873 140.251 431.043 140.8 431.385 141.184C431.737 141.568 432.174 141.76 432.697 141.76ZM444.26 134.976C445.305 134.976 446.137 135.317 446.756 136C447.385 136.672 447.7 137.6 447.7 138.784V144H444.98V139.152C444.98 138.555 444.825 138.091 444.516 137.76C444.207 137.429 443.791 137.264 443.268 137.264C442.745 137.264 442.329 137.429 442.02 137.76C441.711 138.091 441.556 138.555 441.556 139.152V144H438.82V135.072H441.556V136.256C441.833 135.861 442.207 135.552 442.676 135.328C443.145 135.093 443.673 134.976 444.26 134.976ZM454.577 141.68V144H453.185C452.193 144 451.42 143.76 450.865 143.28C450.311 142.789 450.033 141.995 450.033 140.896V137.344H448.945V135.072H450.033V132.896H452.769V135.072H454.561V137.344H452.769V140.928C452.769 141.195 452.833 141.387 452.961 141.504C453.089 141.621 453.303 141.68 453.601 141.68H454.577ZM458.837 136.56C459.157 136.069 459.557 135.685 460.037 135.408C460.517 135.12 461.051 134.976 461.637 134.976V137.872H460.885C460.203 137.872 459.691 138.021 459.349 138.32C459.008 138.608 458.837 139.12 458.837 139.856V144H456.101V135.072H458.837V136.56ZM462.401 139.52C462.401 138.603 462.572 137.797 462.913 137.104C463.265 136.411 463.74 135.877 464.337 135.504C464.934 135.131 465.601 134.944 466.337 134.944C466.966 134.944 467.516 135.072 467.985 135.328C468.465 135.584 468.833 135.92 469.089 136.336V135.072H471.825V144H469.089V142.736C468.822 143.152 468.449 143.488 467.969 143.744C467.5 144 466.95 144.128 466.321 144.128C465.596 144.128 464.934 143.941 464.337 143.568C463.74 143.184 463.265 142.645 462.913 141.952C462.572 141.248 462.401 140.437 462.401 139.52ZM469.089 139.536C469.089 138.853 468.897 138.315 468.513 137.92C468.14 137.525 467.681 137.328 467.137 137.328C466.593 137.328 466.129 137.525 465.745 137.92C465.372 138.304 465.185 138.837 465.185 139.52C465.185 140.203 465.372 140.747 465.745 141.152C466.129 141.547 466.593 141.744 467.137 141.744C467.681 141.744 468.14 141.547 468.513 141.152C468.897 140.757 469.089 140.219 469.089 139.536ZM473.261 139.536C473.261 138.608 473.447 137.797 473.821 137.104C474.205 136.411 474.733 135.877 475.405 135.504C476.087 135.131 476.866 134.944 477.741 134.944C478.861 134.944 479.794 135.237 480.541 135.824C481.298 136.411 481.794 137.237 482.029 138.304H479.117C478.871 137.621 478.397 137.28 477.693 137.28C477.191 137.28 476.791 137.477 476.493 137.872C476.194 138.256 476.045 138.811 476.045 139.536C476.045 140.261 476.194 140.821 476.493 141.216C476.791 141.6 477.191 141.792 477.693 141.792C478.397 141.792 478.871 141.451 479.117 140.768H482.029C481.794 141.813 481.298 142.635 480.541 143.232C479.783 143.829 478.85 144.128 477.741 144.128C476.866 144.128 476.087 143.941 475.405 143.568C474.733 143.195 474.205 142.661 473.821 141.968C473.447 141.275 473.261 140.464 473.261 139.536ZM488.468 141.68V144H487.076C486.084 144 485.311 143.76 484.756 143.28C484.201 142.789 483.924 141.995 483.924 140.896V137.344H482.836V135.072H483.924V132.896H486.66V135.072H488.452V137.344H486.66V140.928C486.66 141.195 486.724 141.387 486.852 141.504C486.98 141.621 487.193 141.68 487.492 141.68H488.468Z" fill="black"/>
<path d="M580 197C573.37 197 568 202.506 568 209.304C567.999 211.887 568.791 214.405 570.263 216.5C571.736 218.595 573.815 220.162 576.206 220.978C576.806 221.085 577.03 220.716 577.03 220.392C577.03 220.1 577.014 219.132 577.014 218.101C574 218.671 573.22 217.348 572.98 216.655C572.844 216.301 572.26 215.21 571.75 214.917C571.33 214.687 570.73 214.117 571.734 214.102C572.68 214.086 573.354 214.994 573.58 215.363C574.66 217.224 576.386 216.701 577.074 216.379C577.18 215.579 577.494 215.041 577.84 214.734C575.17 214.426 572.38 213.364 572.38 208.658C572.38 207.319 572.844 206.213 573.61 205.351C573.49 205.043 573.07 203.782 573.73 202.09C573.73 202.09 574.734 201.768 577.03 203.352C578.007 203.074 579.016 202.935 580.03 202.937C581.05 202.937 582.07 203.074 583.03 203.351C585.324 201.752 586.33 202.091 586.33 202.091C586.99 203.783 586.57 205.044 586.45 205.352C587.214 206.213 587.68 207.304 587.68 208.658C587.68 213.38 584.876 214.426 582.206 214.734C582.64 215.117 583.016 215.856 583.016 217.01C583.016 218.655 583 219.977 583 220.393C583 220.716 583.226 221.1 583.826 220.976C586.208 220.152 588.278 218.582 589.744 216.488C591.21 214.394 591.999 211.882 592 209.304C592 202.506 586.63 197 580 197Z" fill="#B3B3B3"/>
<path d="M155.5 86V63.5C155.5 50.2452 166.245 39.5 179.5 39.5H456.5C469.755 39.5 480.5 50.2452 480.5 63.5V86" stroke="#D0D0D0" stroke-dasharray="4 4"/>
<circle cx="320" cy="30" r="30" fill="#121212"/>
<g clip-path="url(#clip0)">
<path opacity="0.3" fill-rule="evenodd" clip-rule="evenodd" d="M304 25.9303L319.263 23.0685C319.75 22.9772 320.25 22.9772 320.737 23.0685L336 25.9303V44.4963C336 50.3651 332.977 55.8199 328 58.9303L321.06 63.2678C320.411 63.6731 319.589 63.6731 318.94 63.2678L312 58.9303C307.023 55.8199 304 50.3651 304 44.4963V25.9303Z" fill="url(#paint7_linear)"/>
<path fill-rule="evenodd" clip-rule="evenodd" d="M317.75 48.5C317.271 48.5 316.792 48.3083 316.408 47.925L312.575 44.0917C311.808 43.325 311.808 42.175 312.575 41.4083C313.342 40.6417 314.587 40.6417 315.258 41.4083L317.75 43.9L324.075 37.575C324.842 36.8083 325.992 36.8083 326.758 37.575C327.525 38.3417 327.525 39.4917 326.758 40.2583L319.092 47.925C318.708 48.3083 318.229 48.5 317.75 48.5Z" fill="url(#paint8_linear)"/>
</g>
<circle cx="480" cy="86" r="8" fill="#00C98D" stroke="#2A2A2A" stroke-width="4"/>
<circle cx="155" cy="86" r="8" fill="#00C98D" stroke="#151719" stroke-width="4"/>
<defs>
<linearGradient id="paint0_linear" x1="74.0977" y1="143.299" x2="74.0977" y2="185.468" gradientUnits="userSpaceOnUse">
<stop stop-color="white"/>
<stop offset="1" stop-color="white" stop-opacity="0"/>
</linearGradient>
<linearGradient id="paint1_linear" x1="74.251" y1="137" x2="74.251" y2="143.514" gradientUnits="userSpaceOnUse">
<stop stop-color="white"/>
<stop offset="1" stop-color="white" stop-opacity="0"/>
</linearGradient>
<linearGradient id="paint2_linear" x1="74.0882" y1="143.292" x2="74.0882" y2="185.464" gradientUnits="userSpaceOnUse">
<stop stop-color="white"/>
<stop offset="1" stop-color="white" stop-opacity="0"/>
</linearGradient>
<linearGradient id="paint3_linear" x1="73.9458" y1="160.779" x2="73.9458" y2="162.713" gradientUnits="userSpaceOnUse">
<stop stop-color="white"/>
<stop offset="1" stop-color="white" stop-opacity="0"/>
</linearGradient>
<linearGradient id="paint4_linear" x1="133.998" y1="152.846" x2="133.998" y2="170.618" gradientUnits="userSpaceOnUse">
<stop stop-color="white"/>
<stop offset="1" stop-color="white" stop-opacity="0"/>
</linearGradient>
<linearGradient id="paint5_linear" x1="177.657" y1="152.872" x2="177.657" y2="170.608" gradientUnits="userSpaceOnUse">
<stop stop-color="white"/>
<stop offset="1" stop-color="white" stop-opacity="0"/>
</linearGradient>
<linearGradient id="paint6_linear" x1="227.709" y1="152.846" x2="227.709" y2="170.616" gradientUnits="userSpaceOnUse">
<stop stop-color="white"/>
<stop offset="1" stop-color="white" stop-opacity="0"/>
</linearGradient>
<linearGradient id="paint7_linear" x1="320" y1="23" x2="320" y2="63.5718" gradientUnits="userSpaceOnUse">
<stop stop-color="#00C98D"/>
<stop offset="1" stop-color="#4770FF"/>
</linearGradient>
<linearGradient id="paint8_linear" x1="319.667" y1="37" x2="319.667" y2="48.5" gradientUnits="userSpaceOnUse">
<stop stop-color="#00C98D"/>
<stop offset="1" stop-color="#4770FF"/>
</linearGradient>
<clipPath id="clip0">
<rect width="48" height="48" fill="white" transform="translate(296 18.5132)"/>
</clipPath>
</defs>
</svg>
