<svg width="911" height="172" viewBox="0 0 911 172" fill="none" xmlns="http://www.w3.org/2000/svg">
<rect opacity="0.2" width="286" height="160" rx="12" fill="#232B35"/>
<rect x="12" y="12" width="286" height="160" rx="12" fill="#232B35"/>
<path fill-rule="evenodd" clip-rule="evenodd" d="M93.7184 70.4293L93.973 71.9716C94.1737 73.4064 94.2668 74.8542 94.2512 76.3028C94.2496 79.5043 93.864 82.6939 93.1028 85.8032C92.0735 90.0274 90.2806 94.027 87.8128 97.6042C84.9612 101.712 80.8381 105.753 74.8279 109L74.0927 109.397L73.3574 109C67.3473 105.753 63.2259 101.712 60.3726 97.6042C57.9049 94.027 56.112 90.0273 55.0825 85.8032C54.3215 82.6944 53.936 79.5054 53.9341 76.3045C53.9186 74.8559 54.0116 73.4081 54.2124 71.9733L54.467 70.431C54.4888 70.3053 54.4854 70.1764 54.4572 70.0519C54.429 69.9274 54.3765 69.8098 54.3027 69.7057C54.2289 69.6017 54.1353 69.5133 54.0272 69.4456C53.9192 69.378 53.7988 69.3324 53.6731 69.3116C53.5474 69.2907 53.4188 69.295 53.2947 69.3242C53.1707 69.3534 53.0536 69.4068 52.9503 69.4815C52.8469 69.5562 52.7594 69.6507 52.6926 69.7594C52.6259 69.8682 52.5813 69.9891 52.5615 70.1151L52.3068 71.6574C52.0878 73.1965 51.9858 74.75 52.0016 76.3045C52.0028 79.663 52.4071 83.0092 53.2056 86.2711C54.2927 90.7255 56.1851 94.9427 58.7891 98.714C61.7992 103.054 66.1652 107.321 72.4485 110.708L73.6424 111.351C73.7831 111.427 73.9404 111.467 74.1003 111.467C74.2601 111.467 74.4175 111.427 74.5581 111.351L75.7504 110.708C82.0269 107.319 86.3946 103.054 89.4097 98.714C92.0124 94.943 93.9037 90.7263 94.9899 86.2728C95.7885 83.0109 96.1927 79.6647 96.1939 76.3062C96.2097 74.7517 96.1077 73.1982 95.8887 71.6591L95.634 70.1168C95.6142 69.9908 95.5696 69.8699 95.5029 69.7611C95.4361 69.6524 95.3486 69.5579 95.2452 69.4832C95.1419 69.4085 95.0248 69.355 94.9008 69.3259C94.7767 69.2967 94.6481 69.2924 94.5224 69.3133C94.3967 69.3341 94.2763 69.3797 94.1683 69.4473C94.0602 69.5149 93.9666 69.6034 93.8928 69.7074C93.819 69.8115 93.7665 69.9291 93.7383 70.0536C93.7101 70.1781 93.7067 70.3069 93.7285 70.4327L93.7184 70.4293Z" fill="white"/>
<path fill-rule="evenodd" clip-rule="evenodd" d="M93.7184 70.4293L93.973 71.9716C94.1737 73.4064 94.2668 74.8542 94.2512 76.3028C94.2496 79.5043 93.864 82.6939 93.1028 85.8032C92.0735 90.0274 90.2806 94.027 87.8128 97.6042C84.9612 101.712 80.8381 105.753 74.8279 109L74.0927 109.397L73.3574 109C67.3473 105.753 63.2259 101.712 60.3726 97.6042C57.9049 94.027 56.112 90.0273 55.0825 85.8032C54.3215 82.6944 53.936 79.5054 53.9341 76.3045C53.9186 74.8559 54.0116 73.4081 54.2124 71.9733L54.467 70.431C54.4888 70.3053 54.4854 70.1764 54.4572 70.0519C54.429 69.9274 54.3765 69.8098 54.3027 69.7057C54.2289 69.6017 54.1353 69.5133 54.0272 69.4456C53.9192 69.378 53.7988 69.3324 53.6731 69.3116C53.5474 69.2907 53.4188 69.295 53.2947 69.3242C53.1707 69.3534 53.0536 69.4068 52.9503 69.4815C52.8469 69.5562 52.7594 69.6507 52.6926 69.7594C52.6259 69.8682 52.5813 69.9891 52.5615 70.1151L52.3068 71.6574C52.0878 73.1965 51.9858 74.75 52.0016 76.3045C52.0028 79.663 52.4071 83.0092 53.2056 86.2711C54.2927 90.7255 56.1851 94.9427 58.7891 98.714C61.7992 103.054 66.1652 107.321 72.4485 110.708L73.6424 111.351C73.7831 111.427 73.9404 111.467 74.1003 111.467C74.2601 111.467 74.4175 111.427 74.5581 111.351L75.7504 110.708C82.0269 107.319 86.3946 103.054 89.4097 98.714C92.0124 94.943 93.9037 90.7263 94.9899 86.2728C95.7885 83.0109 96.1927 79.6647 96.1939 76.3062C96.2097 74.7517 96.1077 73.1982 95.8887 71.6591L95.634 70.1168C95.6142 69.9908 95.5696 69.8699 95.5029 69.7611C95.4361 69.6524 95.3486 69.5579 95.2452 69.4832C95.1419 69.4085 95.0248 69.355 94.9008 69.3259C94.7767 69.2967 94.6481 69.2924 94.5224 69.3133C94.3967 69.3341 94.2763 69.3797 94.1683 69.4473C94.0602 69.5149 93.9666 69.6034 93.8928 69.7074C93.819 69.8115 93.7665 69.9291 93.7383 70.0536C93.7101 70.1781 93.7067 70.3069 93.7285 70.4327L93.7184 70.4293Z" fill="url(#paint0_linear)"/>
<path fill-rule="evenodd" clip-rule="evenodd" d="M59.7449 69.3786L74.0956 64.9866L88.7668 69.4732C89.0124 69.5468 89.2772 69.5199 89.503 69.3984C89.7289 69.2769 89.8975 69.0707 89.972 68.825C90.0465 68.5793 90.0207 68.314 89.9004 68.0873C89.7801 67.8605 89.5751 67.6907 89.3301 67.615L74.3773 63.0423C74.1937 62.9859 73.9976 62.9859 73.814 63.0423L59.1799 67.5171C59.0576 67.5537 58.9438 67.6141 58.8449 67.695C58.746 67.7758 58.664 67.8754 58.6036 67.988C58.5432 68.1007 58.5056 68.2242 58.493 68.3514C58.4804 68.4786 58.493 68.6071 58.5301 68.7295C58.5672 68.8518 58.628 68.9656 58.7091 69.0643C58.7902 69.1631 58.89 69.2448 59.0027 69.3048C59.1154 69.3648 59.2389 69.4019 59.3659 69.414C59.493 69.4261 59.6212 69.4129 59.7432 69.3752L59.7449 69.3786Z" fill="white"/>
<path fill-rule="evenodd" clip-rule="evenodd" d="M59.7449 69.3786L74.0956 64.9866L88.7668 69.4732C89.0124 69.5468 89.2772 69.5199 89.503 69.3984C89.7289 69.2769 89.8975 69.0707 89.972 68.825C90.0465 68.5793 90.0207 68.314 89.9004 68.0873C89.7801 67.8605 89.5751 67.6907 89.3301 67.615L74.3773 63.0423C74.1937 62.9859 73.9976 62.9859 73.814 63.0423L59.1799 67.5171C59.0576 67.5537 58.9438 67.6141 58.8449 67.695C58.746 67.7758 58.664 67.8754 58.6036 67.988C58.5432 68.1007 58.5056 68.2242 58.493 68.3514C58.4804 68.4786 58.493 68.6071 58.5301 68.7295C58.5672 68.8518 58.628 68.9656 58.7091 69.0643C58.7902 69.1631 58.89 69.2448 59.0027 69.3048C59.1154 69.3648 59.2389 69.4019 59.3659 69.414C59.493 69.4261 59.6212 69.4129 59.7432 69.3752L59.7449 69.3786Z" fill="url(#paint1_linear)"/>
<path fill-rule="evenodd" clip-rule="evenodd" d="M52.6583 70.7127L73.2317 110.937C73.3119 111.094 73.4335 111.226 73.5834 111.319C73.7334 111.412 73.9058 111.462 74.082 111.463C74.2583 111.465 74.4316 111.418 74.5831 111.328C74.7346 111.238 74.8586 111.108 74.9416 110.952L87.488 87.4464L87.5065 87.4092L95.5369 70.6857C95.6458 70.4549 95.6593 70.1904 95.5745 69.9497C95.4897 69.709 95.3135 69.5115 95.0842 69.4002C94.8549 69.2889 94.591 69.2728 94.3499 69.3554C94.1088 69.4379 93.91 69.6125 93.7966 69.8411L85.7797 86.5511L74.1204 108.41L54.3767 69.8275C54.3198 69.713 54.2407 69.6109 54.1441 69.5271C54.0476 69.4434 53.9354 69.3797 53.814 69.3397C53.6927 69.2997 53.5646 69.2842 53.4373 69.2942C53.3099 69.3041 53.1858 69.3393 53.0721 69.3976C52.9585 69.456 52.8575 69.5363 52.775 69.634C52.6925 69.7318 52.6303 69.8449 52.5918 69.9669C52.5533 70.0889 52.5393 70.2174 52.5507 70.3448C52.5622 70.4722 52.5987 70.5961 52.6583 70.7093V70.7127Z" fill="white"/>
<path fill-rule="evenodd" clip-rule="evenodd" d="M52.6583 70.7127L73.2317 110.937C73.3119 111.094 73.4335 111.226 73.5834 111.319C73.7334 111.412 73.9058 111.462 74.082 111.463C74.2583 111.465 74.4316 111.418 74.5831 111.328C74.7346 111.238 74.8586 111.108 74.9416 110.952L87.488 87.4464L87.5065 87.4092L95.5369 70.6857C95.6458 70.4549 95.6593 70.1904 95.5745 69.9497C95.4897 69.709 95.3135 69.5115 95.0842 69.4002C94.8549 69.2889 94.591 69.2728 94.3499 69.3554C94.1088 69.4379 93.91 69.6125 93.7966 69.8411L85.7797 86.5511L74.1204 108.41L54.3767 69.8275C54.3198 69.713 54.2407 69.6109 54.1441 69.5271C54.0476 69.4434 53.9354 69.3797 53.814 69.3397C53.6927 69.2997 53.5646 69.2842 53.4373 69.2942C53.3099 69.3041 53.1858 69.3393 53.0721 69.3976C52.9585 69.456 52.8575 69.5363 52.775 69.634C52.6925 69.7318 52.6303 69.8449 52.5918 69.9669C52.5533 70.0889 52.5393 70.2174 52.5507 70.3448C52.5622 70.4722 52.5987 70.5961 52.6583 70.7093V70.7127Z" fill="url(#paint2_linear)"/>
<path fill-rule="evenodd" clip-rule="evenodd" d="M62.5064 88.7132H85.3851C85.6411 88.7132 85.8867 88.6113 86.0677 88.43C86.2488 88.2486 86.3505 88.0026 86.3505 87.7461C86.3505 87.4897 86.2488 87.2437 86.0677 87.0623C85.8867 86.8809 85.6411 86.7791 85.3851 86.7791H62.5064C62.2504 86.7791 62.0048 86.8809 61.8238 87.0623C61.6427 87.2437 61.541 87.4897 61.541 87.7461C61.541 88.0026 61.6427 88.2486 61.8238 88.43C62.0048 88.6113 62.2504 88.7132 62.5064 88.7132Z" fill="white"/>
<path fill-rule="evenodd" clip-rule="evenodd" d="M62.5064 88.7132H85.3851C85.6411 88.7132 85.8867 88.6113 86.0677 88.43C86.2488 88.2486 86.3505 88.0026 86.3505 87.7461C86.3505 87.4897 86.2488 87.2437 86.0677 87.0623C85.8867 86.8809 85.6411 86.7791 85.3851 86.7791H62.5064C62.2504 86.7791 62.0048 86.8809 61.8238 87.0623C61.6427 87.2437 61.541 87.4897 61.541 87.7461C61.541 88.0026 61.6427 88.2486 61.8238 88.43C62.0048 88.6113 62.2504 88.7132 62.5064 88.7132Z" fill="url(#paint3_linear)"/>
<path fill-rule="evenodd" clip-rule="evenodd" d="M128.936 80.8455H113.983C113.724 80.8469 113.477 80.9487 113.294 81.129C113.112 81.3093 113.008 81.5534 113.007 81.8083V93.6492C113.009 93.904 113.112 94.1479 113.295 94.328C113.477 94.5082 113.725 94.6102 113.983 94.612H128.936V96.6177H113.983C113.588 96.6195 113.197 96.5442 112.833 96.396C112.468 96.2479 112.136 96.0299 111.857 95.7547C111.578 95.4794 111.357 95.1524 111.207 94.7924C111.057 94.4325 110.981 94.0468 110.982 93.6575V81.8167C110.981 81.4274 111.057 81.0417 111.207 80.6818C111.357 80.3218 111.578 79.9948 111.857 79.7195C112.136 79.4443 112.468 79.2263 112.833 79.0782C113.197 78.9301 113.588 78.8547 113.983 78.8565H128.936V80.8455ZM157.013 78.8464V80.8522H142.613V86.7142H154.187V88.7367H142.611V94.6086H157.012V96.6144H140.578V78.8464H157.013Z" fill="white"/>
<path fill-rule="evenodd" clip-rule="evenodd" d="M128.936 80.8455H113.983C113.724 80.8469 113.477 80.9487 113.294 81.129C113.112 81.3093 113.008 81.5534 113.007 81.8083V93.6492C113.009 93.904 113.112 94.1479 113.295 94.328C113.477 94.5082 113.725 94.6102 113.983 94.612H128.936V96.6177H113.983C113.588 96.6195 113.197 96.5442 112.833 96.396C112.468 96.2479 112.136 96.0299 111.857 95.7547C111.578 95.4794 111.357 95.1524 111.207 94.7924C111.057 94.4325 110.981 94.0468 110.982 93.6575V81.8167C110.981 81.4274 111.057 81.0417 111.207 80.6818C111.357 80.3218 111.578 79.9948 111.857 79.7195C112.136 79.4443 112.468 79.2263 112.833 79.0782C113.197 78.9301 113.588 78.8547 113.983 78.8565H128.936V80.8455ZM157.013 78.8464V80.8522H142.613V86.7142H154.187V88.7367H142.611V94.6086H157.012V96.6144H140.578V78.8464H157.013Z" fill="url(#paint4_linear)"/>
<path d="M186.666 81.8318V87.0368C186.668 87.426 186.591 87.8117 186.441 88.1715C186.291 88.5313 186.07 88.8583 185.791 89.1335C185.512 89.4087 185.18 89.6267 184.816 89.7749C184.451 89.9231 184.06 89.9986 183.666 89.9971H180.916L186.566 96.6078H183.891L178.265 89.9971H171.657C171.331 89.9806 171.005 89.9477 170.681 89.8984V96.6078H168.648V78.8716H183.65C184.045 78.8701 184.436 78.9456 184.8 79.0938C185.165 79.242 185.497 79.46 185.775 79.7352C186.054 80.0104 186.275 80.3373 186.426 80.6972C186.576 81.057 186.652 81.4426 186.651 81.8318H186.666ZM171.664 87.9746H183.666C183.791 87.9761 183.915 87.9529 184.031 87.9064C184.147 87.8598 184.253 87.7908 184.341 87.7034C184.43 87.616 184.5 87.512 184.547 87.3975C184.594 87.2831 184.618 87.1604 184.616 87.0368V81.8318C184.618 81.7064 184.595 81.5819 184.548 81.4654C184.501 81.3489 184.431 81.2428 184.342 81.1532C184.255 81.0614 184.15 80.9887 184.034 80.9397C183.917 80.8908 183.791 80.8667 183.664 80.869H171.662C171.404 80.8704 171.157 80.9722 170.974 81.1525C170.791 81.3328 170.688 81.5769 170.687 81.8318V87.0368C170.684 87.162 170.708 87.2864 170.758 87.4016C170.808 87.5169 170.881 87.6204 170.975 87.7054C171.066 87.7933 171.173 87.8623 171.292 87.9086C171.41 87.9548 171.537 87.9772 171.664 87.9746Z" fill="white"/>
<path d="M186.666 81.8318V87.0368C186.668 87.426 186.591 87.8117 186.441 88.1715C186.291 88.5313 186.07 88.8583 185.791 89.1335C185.512 89.4087 185.18 89.6267 184.816 89.7749C184.451 89.9231 184.06 89.9986 183.666 89.9971H180.916L186.566 96.6078H183.891L178.265 89.9971H171.657C171.331 89.9806 171.005 89.9477 170.681 89.8984V96.6078H168.648V78.8716H183.65C184.045 78.8701 184.436 78.9456 184.8 79.0938C185.165 79.242 185.497 79.46 185.775 79.7352C186.054 80.0104 186.275 80.3373 186.426 80.6972C186.576 81.057 186.652 81.4426 186.651 81.8318H186.666ZM171.664 87.9746H183.666C183.791 87.9761 183.915 87.9529 184.031 87.9064C184.147 87.8598 184.253 87.7908 184.341 87.7034C184.43 87.616 184.5 87.512 184.547 87.3975C184.594 87.2831 184.618 87.1604 184.616 87.0368V81.8318C184.618 81.7064 184.595 81.5819 184.548 81.4654C184.501 81.3489 184.431 81.2428 184.342 81.1532C184.255 81.0614 184.15 80.9887 184.034 80.9397C183.917 80.8908 183.791 80.8667 183.664 80.869H171.662C171.404 80.8704 171.157 80.9722 170.974 81.1525C170.791 81.3328 170.688 81.5769 170.687 81.8318V87.0368C170.684 87.162 170.708 87.2864 170.758 87.4016C170.808 87.5169 170.881 87.6204 170.975 87.7054C171.066 87.7933 171.173 87.8623 171.292 87.9086C171.41 87.9548 171.537 87.9772 171.664 87.9746Z" fill="url(#paint5_linear)"/>
<path fill-rule="evenodd" clip-rule="evenodd" d="M197.418 78.8462H215.414V80.852H207.451V96.6158H205.418V80.852H197.418V78.8462ZM226.321 96.6075V78.8462H228.354V96.6075H226.321ZM255.374 78.8462H257.975L250.449 87.7268L258 96.6075H255.374L248.674 88.7381H242.873V96.6075H240.826V78.8462H242.876V86.7139H248.677L255.374 78.8462Z" fill="white"/>
<path fill-rule="evenodd" clip-rule="evenodd" d="M197.418 78.8462H215.414V80.852H207.451V96.6158H205.418V80.852H197.418V78.8462ZM226.321 96.6075V78.8462H228.354V96.6075H226.321ZM255.374 78.8462H257.975L250.449 87.7268L258 96.6075H255.374L248.674 88.7381H242.873V96.6075H240.826V78.8462H242.876V86.7139H248.677L255.374 78.8462Z" fill="url(#paint6_linear)"/>
<rect x="625" y="2" width="286" height="160" rx="12" fill="#2A2A2A"/>
<mask id="mask0" mask-type="alpha" maskUnits="userSpaceOnUse" x="615" y="12" width="286" height="160">
<rect x="615" y="12" width="286" height="160" rx="12" fill="white"/>
</mask>
<g mask="url(#mask0)">
<rect x="615" y="12" width="286" height="160" rx="12" fill="white"/>
<rect x="615" y="166" width="286" height="12" fill="#4770FF"/>
<path d="M615 166H822V178H615V166Z" fill="#00C98D"/>
</g>
<rect x="834" y="27" width="48" height="48" rx="12" fill="#F5EFF2"/>
<path fill-rule="evenodd" clip-rule="evenodd" d="M847.421 57.1578L842 45H845.355L849.379 54.0265L853.408 45H856.763L851.342 57.1578H847.421ZM869.554 57.1578L875 45H871.629L867.583 54.0265L863.541 45H859.604L854.158 57.1578H857.528L861.575 48.1313L865.617 57.1578H869.554Z" fill="#00C98D"/>
<path d="M638.496 44.656L641.216 37.232H642.768L639.328 46H637.632L634.192 37.232H635.76L638.496 44.656ZM643.657 41.584C643.657 40.688 643.838 39.904 644.201 39.232C644.563 38.5493 645.059 38.0213 645.689 37.648C646.329 37.2747 647.038 37.088 647.817 37.088C648.585 37.088 649.251 37.2533 649.817 37.584C650.382 37.9147 650.803 38.3307 651.081 38.832V37.232H652.553V46H651.081V44.368C650.793 44.88 650.361 45.3067 649.785 45.648C649.219 45.9787 648.558 46.144 647.801 46.144C647.022 46.144 646.318 45.952 645.689 45.568C645.059 45.184 644.563 44.6453 644.201 43.952C643.838 43.2587 643.657 42.4693 643.657 41.584ZM651.081 41.6C651.081 40.9387 650.947 40.3627 650.681 39.872C650.414 39.3813 650.051 39.008 649.593 38.752C649.145 38.4853 648.649 38.352 648.105 38.352C647.561 38.352 647.065 38.48 646.617 38.736C646.169 38.992 645.811 39.3653 645.545 39.856C645.278 40.3467 645.145 40.9227 645.145 41.584C645.145 42.256 645.278 42.8427 645.545 43.344C645.811 43.8347 646.169 44.2133 646.617 44.48C647.065 44.736 647.561 44.864 648.105 44.864C648.649 44.864 649.145 44.736 649.593 44.48C650.051 44.2133 650.414 43.8347 650.681 43.344C650.947 42.8427 651.081 42.2613 651.081 41.6ZM656.469 34.16V46H655.013V34.16H656.469ZM666.727 37.232V46H665.271V44.704C664.993 45.152 664.604 45.504 664.103 45.76C663.612 46.0053 663.068 46.128 662.471 46.128C661.788 46.128 661.175 45.9893 660.631 45.712C660.087 45.424 659.655 44.9973 659.335 44.432C659.025 43.8667 658.871 43.1787 658.871 42.368V37.232H660.311V42.176C660.311 43.04 660.529 43.7067 660.967 44.176C661.404 44.6347 662.001 44.864 662.759 44.864C663.537 44.864 664.151 44.624 664.599 44.144C665.047 43.664 665.271 42.9653 665.271 42.048V37.232H666.727ZM677.185 41.28C677.185 41.5573 677.169 41.8507 677.137 42.16H670.129C670.182 43.024 670.476 43.7013 671.009 44.192C671.553 44.672 672.209 44.912 672.977 44.912C673.606 44.912 674.129 44.768 674.545 44.48C674.972 44.1813 675.27 43.7867 675.441 43.296H677.009C676.774 44.1387 676.305 44.8267 675.601 45.36C674.897 45.8827 674.022 46.144 672.977 46.144C672.145 46.144 671.398 45.9573 670.737 45.584C670.086 45.2107 669.574 44.6827 669.201 44C668.828 43.3067 668.641 42.5067 668.641 41.6C668.641 40.6933 668.822 39.8987 669.185 39.216C669.548 38.5333 670.054 38.0107 670.705 37.648C671.366 37.2747 672.124 37.088 672.977 37.088C673.809 37.088 674.545 37.2693 675.185 37.632C675.825 37.9947 676.316 38.496 676.657 39.136C677.009 39.7653 677.185 40.48 677.185 41.28ZM675.681 40.976C675.681 40.4213 675.558 39.9467 675.313 39.552C675.068 39.1467 674.732 38.8427 674.305 38.64C673.889 38.4267 673.425 38.32 672.913 38.32C672.177 38.32 671.548 38.5547 671.025 39.024C670.513 39.4933 670.22 40.144 670.145 40.976H675.681ZM683.379 37.072C684.446 37.072 685.31 37.3973 685.971 38.048C686.632 38.688 686.963 39.616 686.963 40.832V46H685.523V41.04C685.523 40.1653 685.304 39.4987 684.867 39.04C684.43 38.5707 683.832 38.336 683.075 38.336C682.307 38.336 681.694 38.576 681.235 39.056C680.787 39.536 680.563 40.2347 680.563 41.152V46H679.107V37.232H680.563V38.48C680.851 38.032 681.24 37.6853 681.731 37.44C682.232 37.1947 682.782 37.072 683.379 37.072ZM697.341 41.28C697.341 41.5573 697.325 41.8507 697.293 42.16H690.285C690.339 43.024 690.632 43.7013 691.165 44.192C691.709 44.672 692.365 44.912 693.133 44.912C693.763 44.912 694.285 44.768 694.701 44.48C695.128 44.1813 695.427 43.7867 695.597 43.296H697.165C696.931 44.1387 696.461 44.8267 695.757 45.36C695.053 45.8827 694.179 46.144 693.133 46.144C692.301 46.144 691.555 45.9573 690.893 45.584C690.243 45.2107 689.731 44.6827 689.357 44C688.984 43.3067 688.797 42.5067 688.797 41.6C688.797 40.6933 688.979 39.8987 689.341 39.216C689.704 38.5333 690.211 38.0107 690.861 37.648C691.523 37.2747 692.28 37.088 693.133 37.088C693.965 37.088 694.701 37.2693 695.341 37.632C695.981 37.9947 696.472 38.496 696.813 39.136C697.165 39.7653 697.341 40.48 697.341 41.28ZM695.837 40.976C695.837 40.4213 695.715 39.9467 695.469 39.552C695.224 39.1467 694.888 38.8427 694.461 38.64C694.045 38.4267 693.581 38.32 693.069 38.32C692.333 38.32 691.704 38.5547 691.181 39.024C690.669 39.4933 690.376 40.144 690.301 40.976H695.837ZM701.039 38.432V43.6C701.039 44.0267 701.13 44.3307 701.311 44.512C701.493 44.6827 701.807 44.768 702.255 44.768H703.327V46H702.015C701.205 46 700.597 45.8133 700.191 45.44C699.786 45.0667 699.583 44.4533 699.583 43.6V38.432H698.447V37.232H699.583V35.024H701.039V37.232H703.327V38.432H701.039ZM716.771 37.232L714.035 46H712.531L710.419 39.04L708.307 46H706.803L704.051 37.232H705.539L707.555 44.592L709.731 37.232H711.219L713.347 44.608L715.331 37.232H716.771ZM722.04 46.144C721.219 46.144 720.472 45.9573 719.8 45.584C719.139 45.2107 718.616 44.6827 718.232 44C717.859 43.3067 717.672 42.5067 717.672 41.6C717.672 40.704 717.864 39.9147 718.248 39.232C718.643 38.5387 719.176 38.0107 719.848 37.648C720.52 37.2747 721.272 37.088 722.104 37.088C722.936 37.088 723.688 37.2747 724.36 37.648C725.032 38.0107 725.56 38.5333 725.944 39.216C726.339 39.8987 726.536 40.6933 726.536 41.6C726.536 42.5067 726.334 43.3067 725.928 44C725.534 44.6827 724.995 45.2107 724.312 45.584C723.63 45.9573 722.872 46.144 722.04 46.144ZM722.04 44.864C722.563 44.864 723.054 44.7413 723.512 44.496C723.971 44.2507 724.339 43.8827 724.616 43.392C724.904 42.9013 725.048 42.304 725.048 41.6C725.048 40.896 724.91 40.2987 724.632 39.808C724.355 39.3173 723.992 38.9547 723.544 38.72C723.096 38.4747 722.611 38.352 722.088 38.352C721.555 38.352 721.064 38.4747 720.616 38.72C720.179 38.9547 719.827 39.3173 719.56 39.808C719.294 40.2987 719.16 40.896 719.16 41.6C719.16 42.3147 719.288 42.9173 719.544 43.408C719.811 43.8987 720.163 44.2667 720.6 44.512C721.038 44.7467 721.518 44.864 722.04 44.864ZM729.907 38.656C730.163 38.1547 730.525 37.7653 730.995 37.488C731.475 37.2107 732.056 37.072 732.739 37.072V38.576H732.355C730.723 38.576 729.907 39.4613 729.907 41.232V46H728.451V37.232H729.907V38.656ZM739.316 46L735.876 42.128V46H734.42V34.16H735.876V41.12L739.252 37.232H741.284L737.156 41.6L741.3 46H739.316ZM744.11 34.16V46H742.654V34.16H744.11ZM747.343 35.808C747.066 35.808 746.831 35.712 746.639 35.52C746.447 35.328 746.351 35.0933 746.351 34.816C746.351 34.5387 746.447 34.304 746.639 34.112C746.831 33.92 747.066 33.824 747.343 33.824C747.61 33.824 747.834 33.92 748.015 34.112C748.207 34.304 748.303 34.5387 748.303 34.816C748.303 35.0933 748.207 35.328 748.015 35.52C747.834 35.712 747.61 35.808 747.343 35.808ZM748.047 37.232V46H746.591V37.232H748.047ZM753.793 44.656L756.513 37.232H758.065L754.625 46H752.929L749.489 37.232H751.057L753.793 44.656ZM767.498 41.28C767.498 41.5573 767.482 41.8507 767.45 42.16H760.442C760.495 43.024 760.788 43.7013 761.322 44.192C761.866 44.672 762.522 44.912 763.29 44.912C763.919 44.912 764.442 44.768 764.858 44.48C765.284 44.1813 765.583 43.7867 765.754 43.296H767.322C767.087 44.1387 766.618 44.8267 765.914 45.36C765.21 45.8827 764.335 46.144 763.29 46.144C762.458 46.144 761.711 45.9573 761.05 45.584C760.399 45.2107 759.887 44.6827 759.514 44C759.14 43.3067 758.954 42.5067 758.954 41.6C758.954 40.6933 759.135 39.8987 759.498 39.216C759.86 38.5333 760.367 38.0107 761.018 37.648C761.679 37.2747 762.436 37.088 763.29 37.088C764.122 37.088 764.858 37.2693 765.498 37.632C766.138 37.9947 766.628 38.496 766.97 39.136C767.322 39.7653 767.498 40.48 767.498 41.28ZM765.994 40.976C765.994 40.4213 765.871 39.9467 765.626 39.552C765.38 39.1467 765.044 38.8427 764.618 38.64C764.202 38.4267 763.738 38.32 763.226 38.32C762.49 38.32 761.86 38.5547 761.338 39.024C760.826 39.4933 760.532 40.144 760.458 40.976H765.994ZM769.004 44.832C770.358 43.744 771.42 42.8533 772.188 42.16C772.956 41.456 773.601 40.7253 774.124 39.968C774.657 39.2 774.924 38.448 774.924 37.712C774.924 37.0187 774.753 36.4747 774.412 36.08C774.081 35.6747 773.542 35.472 772.796 35.472C772.07 35.472 771.505 35.7013 771.1 36.16C770.705 36.608 770.492 37.2107 770.46 37.968H769.052C769.094 36.7733 769.457 35.8507 770.14 35.2C770.822 34.5493 771.702 34.224 772.78 34.224C773.878 34.224 774.748 34.528 775.388 35.136C776.038 35.744 776.364 36.5813 776.364 37.648C776.364 38.5333 776.097 39.3973 775.564 40.24C775.041 41.072 774.444 41.808 773.772 42.448C773.1 43.0773 772.241 43.8133 771.196 44.656H776.7V45.872H769.004V44.832ZM778.383 40.096C778.383 38.2613 778.681 36.832 779.279 35.808C779.876 34.7733 780.921 34.256 782.415 34.256C783.897 34.256 784.937 34.7733 785.535 35.808C786.132 36.832 786.431 38.2613 786.431 40.096C786.431 41.9627 786.132 43.4133 785.535 44.448C784.937 45.4827 783.897 46 782.415 46C780.921 46 779.876 45.4827 779.279 44.448C778.681 43.4133 778.383 41.9627 778.383 40.096ZM784.991 40.096C784.991 39.168 784.927 38.384 784.799 37.744C784.681 37.0933 784.431 36.5707 784.047 36.176C783.673 35.7813 783.129 35.584 782.415 35.584C781.689 35.584 781.135 35.7813 780.751 36.176C780.377 36.5707 780.127 37.0933 779.999 37.744C779.881 38.384 779.823 39.168 779.823 40.096C779.823 41.056 779.881 41.8613 779.999 42.512C780.127 43.1627 780.377 43.6853 780.751 44.08C781.135 44.4747 781.689 44.672 782.415 44.672C783.129 44.672 783.673 44.4747 784.047 44.08C784.431 43.6853 784.681 43.1627 784.799 42.512C784.927 41.8613 784.991 41.056 784.991 40.096ZM788.254 44.832C789.608 43.744 790.67 42.8533 791.438 42.16C792.206 41.456 792.851 40.7253 793.374 39.968C793.907 39.2 794.174 38.448 794.174 37.712C794.174 37.0187 794.003 36.4747 793.662 36.08C793.331 35.6747 792.792 35.472 792.046 35.472C791.32 35.472 790.755 35.7013 790.35 36.16C789.955 36.608 789.742 37.2107 789.71 37.968H788.302C788.344 36.7733 788.707 35.8507 789.39 35.2C790.072 34.5493 790.952 34.224 792.03 34.224C793.128 34.224 793.998 34.528 794.638 35.136C795.288 35.744 795.614 36.5813 795.614 37.648C795.614 38.5333 795.347 39.3973 794.814 40.24C794.291 41.072 793.694 41.808 793.022 42.448C792.35 43.0773 791.491 43.8133 790.446 44.656H795.95V45.872H788.254V44.832ZM797.249 35.76V34.432H800.257V46H798.785V35.76H797.249ZM808.438 30.928L804.054 48.72H802.614L806.982 30.928H808.438ZM643.072 58.768V60.96H640.096V70H637.36V60.96H634.384V58.768H643.072ZM648.509 70.128C647.634 70.128 646.845 69.9413 646.141 69.568C645.448 69.1947 644.898 68.6613 644.493 67.968C644.098 67.2747 643.901 66.464 643.901 65.536C643.901 64.6187 644.104 63.8133 644.509 63.12C644.914 62.416 645.469 61.8773 646.173 61.504C646.877 61.1307 647.666 60.944 648.541 60.944C649.416 60.944 650.205 61.1307 650.909 61.504C651.613 61.8773 652.168 62.416 652.573 63.12C652.978 63.8133 653.181 64.6187 653.181 65.536C653.181 66.4533 652.973 67.264 652.557 67.968C652.152 68.6613 651.592 69.1947 650.877 69.568C650.173 69.9413 649.384 70.128 648.509 70.128ZM648.509 67.76C649.032 67.76 649.474 67.568 649.837 67.184C650.21 66.8 650.397 66.2507 650.397 65.536C650.397 64.8213 650.216 64.272 649.853 63.888C649.501 63.504 649.064 63.312 648.541 63.312C648.008 63.312 647.565 63.504 647.213 63.888C646.861 64.2613 646.685 64.8107 646.685 65.536C646.685 66.2507 646.856 66.8 647.197 67.184C647.549 67.568 647.986 67.76 648.509 67.76ZM660.089 70L657.369 66.256V70H654.633V58.16H657.369V64.704L660.073 61.072H663.449L659.737 65.552L663.481 70H660.089ZM672.939 65.392C672.939 65.648 672.923 65.9147 672.891 66.192H666.699C666.742 66.7467 666.918 67.1733 667.227 67.472C667.547 67.76 667.937 67.904 668.395 67.904C669.078 67.904 669.553 67.616 669.819 67.04H672.731C672.582 67.6267 672.31 68.1547 671.915 68.624C671.531 69.0933 671.046 69.4613 670.459 69.728C669.873 69.9947 669.217 70.128 668.491 70.128C667.617 70.128 666.838 69.9413 666.155 69.568C665.473 69.1947 664.939 68.6613 664.555 67.968C664.171 67.2747 663.979 66.464 663.979 65.536C663.979 64.608 664.166 63.7973 664.539 63.104C664.923 62.4107 665.457 61.8773 666.139 61.504C666.822 61.1307 667.606 60.944 668.491 60.944C669.355 60.944 670.123 61.1253 670.795 61.488C671.467 61.8507 671.99 62.368 672.363 63.04C672.747 63.712 672.939 64.496 672.939 65.392ZM670.139 64.672C670.139 64.2027 669.979 63.8293 669.659 63.552C669.339 63.2747 668.939 63.136 668.459 63.136C668.001 63.136 667.611 63.2693 667.291 63.536C666.982 63.8027 666.79 64.1813 666.715 64.672H670.139ZM679.823 60.976C680.868 60.976 681.7 61.3173 682.319 62C682.948 62.672 683.263 63.6 683.263 64.784V70H680.543V65.152C680.543 64.5547 680.388 64.0907 680.079 63.76C679.769 63.4293 679.353 63.264 678.831 63.264C678.308 63.264 677.892 63.4293 677.583 63.76C677.273 64.0907 677.119 64.5547 677.119 65.152V70H674.383V61.072H677.119V62.256C677.396 61.8613 677.769 61.552 678.239 61.328C678.708 61.0933 679.236 60.976 679.823 60.976ZM692.044 63.248V65.52H685.004V63.248H692.044ZM693.981 64.368C693.981 63.2587 694.221 62.272 694.701 61.408C695.181 60.5333 695.848 59.856 696.701 59.376C697.565 58.8853 698.541 58.64 699.629 58.64C700.962 58.64 702.104 58.992 703.053 59.696C704.002 60.4 704.637 61.36 704.957 62.576H701.949C701.725 62.1067 701.405 61.7493 700.989 61.504C700.584 61.2587 700.12 61.136 699.597 61.136C698.754 61.136 698.072 61.4293 697.549 62.016C697.026 62.6027 696.765 63.3867 696.765 64.368C696.765 65.3493 697.026 66.1333 697.549 66.72C698.072 67.3067 698.754 67.6 699.597 67.6C700.12 67.6 700.584 67.4773 700.989 67.232C701.405 66.9867 701.725 66.6293 701.949 66.16H704.957C704.637 67.376 704.002 68.336 703.053 69.04C702.104 69.7333 700.962 70.08 699.629 70.08C698.541 70.08 697.565 69.84 696.701 69.36C695.848 68.8693 695.181 68.192 694.701 67.328C694.221 66.464 693.981 65.4773 693.981 64.368ZM710.697 70.128C709.822 70.128 709.033 69.9413 708.329 69.568C707.635 69.1947 707.086 68.6613 706.681 67.968C706.286 67.2747 706.089 66.464 706.089 65.536C706.089 64.6187 706.291 63.8133 706.697 63.12C707.102 62.416 707.657 61.8773 708.361 61.504C709.065 61.1307 709.854 60.944 710.729 60.944C711.603 60.944 712.393 61.1307 713.097 61.504C713.801 61.8773 714.355 62.416 714.761 63.12C715.166 63.8133 715.369 64.6187 715.369 65.536C715.369 66.4533 715.161 67.264 714.745 67.968C714.339 68.6613 713.779 69.1947 713.065 69.568C712.361 69.9413 711.571 70.128 710.697 70.128ZM710.697 67.76C711.219 67.76 711.662 67.568 712.025 67.184C712.398 66.8 712.585 66.2507 712.585 65.536C712.585 64.8213 712.403 64.272 712.041 63.888C711.689 63.504 711.251 63.312 710.729 63.312C710.195 63.312 709.753 63.504 709.401 63.888C709.049 64.2613 708.873 64.8107 708.873 65.536C708.873 66.2507 709.043 66.8 709.385 67.184C709.737 67.568 710.174 67.76 710.697 67.76ZM722.26 60.976C723.305 60.976 724.137 61.3173 724.756 62C725.385 62.672 725.7 63.6 725.7 64.784V70H722.98V65.152C722.98 64.5547 722.825 64.0907 722.516 63.76C722.207 63.4293 721.791 63.264 721.268 63.264C720.745 63.264 720.329 63.4293 720.02 63.76C719.711 64.0907 719.556 64.5547 719.556 65.152V70H716.82V61.072H719.556V62.256C719.833 61.8613 720.207 61.552 720.676 61.328C721.145 61.0933 721.673 60.976 722.26 60.976ZM732.577 67.68V70H731.185C730.193 70 729.42 69.76 728.865 69.28C728.311 68.7893 728.033 67.9947 728.033 66.896V63.344H726.945V61.072H728.033V58.896H730.769V61.072H732.561V63.344H730.769V66.928C730.769 67.1947 730.833 67.3867 730.961 67.504C731.089 67.6213 731.303 67.68 731.601 67.68H732.577ZM736.837 62.56C737.157 62.0693 737.557 61.6853 738.037 61.408C738.517 61.12 739.051 60.976 739.637 60.976V63.872H738.885C738.203 63.872 737.691 64.0213 737.349 64.32C737.008 64.608 736.837 65.12 736.837 65.856V70H734.101V61.072H736.837V62.56ZM740.401 65.52C740.401 64.6027 740.572 63.7973 740.913 63.104C741.265 62.4107 741.74 61.8773 742.337 61.504C742.934 61.1307 743.601 60.944 744.337 60.944C744.966 60.944 745.516 61.072 745.985 61.328C746.465 61.584 746.833 61.92 747.089 62.336V61.072H749.825V70H747.089V68.736C746.822 69.152 746.449 69.488 745.969 69.744C745.5 70 744.95 70.128 744.321 70.128C743.596 70.128 742.934 69.9413 742.337 69.568C741.74 69.184 741.265 68.6453 740.913 67.952C740.572 67.248 740.401 66.4373 740.401 65.52ZM747.089 65.536C747.089 64.8533 746.897 64.3147 746.513 63.92C746.14 63.5253 745.681 63.328 745.137 63.328C744.593 63.328 744.129 63.5253 743.745 63.92C743.372 64.304 743.185 64.8373 743.185 65.52C743.185 66.2027 743.372 66.7467 743.745 67.152C744.129 67.5467 744.593 67.744 745.137 67.744C745.681 67.744 746.14 67.5467 746.513 67.152C746.897 66.7573 747.089 66.2187 747.089 65.536ZM751.261 65.536C751.261 64.608 751.447 63.7973 751.821 63.104C752.205 62.4107 752.733 61.8773 753.405 61.504C754.087 61.1307 754.866 60.944 755.741 60.944C756.861 60.944 757.794 61.2373 758.541 61.824C759.298 62.4107 759.794 63.2373 760.029 64.304H757.117C756.871 63.6213 756.397 63.28 755.693 63.28C755.191 63.28 754.791 63.4773 754.493 63.872C754.194 64.256 754.045 64.8107 754.045 65.536C754.045 66.2613 754.194 66.8213 754.493 67.216C754.791 67.6 755.191 67.792 755.693 67.792C756.397 67.792 756.871 67.4507 757.117 66.768H760.029C759.794 67.8133 759.298 68.6347 758.541 69.232C757.783 69.8293 756.85 70.128 755.741 70.128C754.866 70.128 754.087 69.9413 753.405 69.568C752.733 69.1947 752.205 68.6613 751.821 67.968C751.447 67.2747 751.261 66.464 751.261 65.536ZM766.468 67.68V70H765.076C764.084 70 763.311 69.76 762.756 69.28C762.201 68.7893 761.924 67.9947 761.924 66.896V63.344H760.836V61.072H761.924V58.896H764.66V61.072H766.452V63.344H764.66V66.928C764.66 67.1947 764.724 67.3867 764.852 67.504C764.98 67.6213 765.193 67.68 765.492 67.68H766.468Z" fill="black"/>
<path d="M858 123C851.37 123 846 128.506 846 135.304C845.999 137.887 846.791 140.405 848.263 142.5C849.736 144.595 851.815 146.162 854.206 146.978C854.806 147.085 855.03 146.716 855.03 146.392C855.03 146.1 855.014 145.132 855.014 144.101C852 144.671 851.22 143.348 850.98 142.655C850.844 142.301 850.26 141.21 849.75 140.917C849.33 140.687 848.73 140.117 849.734 140.102C850.68 140.086 851.354 140.994 851.58 141.363C852.66 143.224 854.386 142.701 855.074 142.379C855.18 141.579 855.494 141.041 855.84 140.734C853.17 140.426 850.38 139.364 850.38 134.658C850.38 133.319 850.844 132.213 851.61 131.351C851.49 131.043 851.07 129.782 851.73 128.09C851.73 128.09 852.734 127.768 855.03 129.352C856.007 129.074 857.016 128.935 858.03 128.937C859.05 128.937 860.07 129.074 861.03 129.351C863.324 127.752 864.33 128.091 864.33 128.091C864.99 129.783 864.57 131.044 864.45 131.352C865.214 132.213 865.68 133.304 865.68 134.658C865.68 139.38 862.876 140.426 860.206 140.734C860.64 141.117 861.016 141.856 861.016 143.01C861.016 144.655 861 145.977 861 146.393C861 146.716 861.226 147.1 861.826 146.976C864.208 146.152 866.278 144.582 867.744 142.488C869.21 140.394 869.999 137.882 870 135.304C870 128.506 864.63 123 858 123Z" fill="#B3B3B3"/>
<circle cx="299" cy="87" r="8" fill="#00C98D" stroke="#121212" stroke-width="4"/>
<line x1="317" y1="86.5" x2="597" y2="86.5" stroke="#D0D0D0" stroke-dasharray="4 4"/>
<circle cx="457" cy="87" r="30" fill="#121212"/>
<path opacity="0.3" fill-rule="evenodd" clip-rule="evenodd" d="M441 73.5133L456.263 70.6515C456.75 70.5602 457.25 70.5602 457.737 70.6515L473 73.5133V92.0793C473 97.9481 469.977 103.403 465 106.513L458.06 110.851C457.411 111.256 456.589 111.256 455.94 110.851L449 106.513C444.023 103.403 441 97.9481 441 92.0793V73.5133Z" fill="url(#paint7_linear)"/>
<path fill-rule="evenodd" clip-rule="evenodd" d="M455.352 95.0132C454.872 95.0132 454.393 94.8215 454.01 94.4382L450.177 90.6049C449.41 89.8382 449.41 88.6882 450.177 87.9215C450.943 87.1548 452.189 87.1548 452.86 87.9215L455.352 90.4132L461.677 84.0882C462.443 83.3215 463.593 83.3215 464.36 84.0882C465.127 84.8549 465.127 86.0048 464.36 86.7715L456.693 94.4382C456.31 94.8215 455.831 95.0132 455.352 95.0132Z" fill="url(#paint8_linear)"/>
<circle cx="615" cy="87" r="8" fill="#00C98D" stroke="#121212" stroke-width="4"/>
<defs>
<linearGradient id="paint0_linear" x1="74.0977" y1="69.2986" x2="74.0977" y2="111.467" gradientUnits="userSpaceOnUse">
<stop stop-color="white"/>
<stop offset="1" stop-color="white" stop-opacity="0"/>
</linearGradient>
<linearGradient id="paint1_linear" x1="74.251" y1="63" x2="74.251" y2="69.5139" gradientUnits="userSpaceOnUse">
<stop stop-color="white"/>
<stop offset="1" stop-color="white" stop-opacity="0"/>
</linearGradient>
<linearGradient id="paint2_linear" x1="74.0882" y1="69.2913" x2="74.0882" y2="111.464" gradientUnits="userSpaceOnUse">
<stop stop-color="white"/>
<stop offset="1" stop-color="white" stop-opacity="0"/>
</linearGradient>
<linearGradient id="paint3_linear" x1="73.9458" y1="86.7791" x2="73.9458" y2="88.7132" gradientUnits="userSpaceOnUse">
<stop stop-color="white"/>
<stop offset="1" stop-color="white" stop-opacity="0"/>
</linearGradient>
<linearGradient id="paint4_linear" x1="133.998" y1="78.8464" x2="133.998" y2="96.6178" gradientUnits="userSpaceOnUse">
<stop stop-color="white"/>
<stop offset="1" stop-color="white" stop-opacity="0"/>
</linearGradient>
<linearGradient id="paint5_linear" x1="177.657" y1="78.8716" x2="177.657" y2="96.6078" gradientUnits="userSpaceOnUse">
<stop stop-color="white"/>
<stop offset="1" stop-color="white" stop-opacity="0"/>
</linearGradient>
<linearGradient id="paint6_linear" x1="227.709" y1="78.8462" x2="227.709" y2="96.6158" gradientUnits="userSpaceOnUse">
<stop stop-color="white"/>
<stop offset="1" stop-color="white" stop-opacity="0"/>
</linearGradient>
<linearGradient id="paint7_linear" x1="457" y1="70.583" x2="457" y2="111.155" gradientUnits="userSpaceOnUse">
<stop stop-color="#00C98D"/>
<stop offset="1" stop-color="#4770FF"/>
</linearGradient>
<linearGradient id="paint8_linear" x1="457.268" y1="83.5132" x2="457.268" y2="95.0132" gradientUnits="userSpaceOnUse">
<stop stop-color="#00C98D"/>
<stop offset="1" stop-color="#4770FF"/>
</linearGradient>
</defs>
</svg>
