<svg width="911" height="172" viewBox="0 0 911 172" fill="none" xmlns="http://www.w3.org/2000/svg" xmlns:xlink="http://www.w3.org/1999/xlink">
<rect opacity="0.2" width="286" height="160" rx="12" fill="#232B35"/>
<mask id="mask0" mask-type="alpha" maskUnits="userSpaceOnUse" x="12" y="12" width="286" height="160">
<rect x="12" y="12" width="286" height="160" rx="12" fill="#041B46"/>
</mask>
<g mask="url(#mask0)">
<rect x="12" y="12" width="286" height="160" rx="12" fill="#041B46"/>
<rect x="-9" y="-15" width="324" height="213" fill="url(#pattern0)"/>
</g>
<path d="M120.044 76.5543C119.066 77.0923 117.794 78.4127 117.109 79.6353C115.936 81.6404 115.887 82.2273 115.887 88.8784C115.887 95.3339 115.985 96.1652 117.012 98.0725C118.528 100.909 121.511 102.327 125.228 101.936C129.678 101.496 131.634 99.393 132.123 94.4536L132.417 91.8127H129.971H127.526L127.184 93.8667C126.695 97.0455 125.668 98.2682 123.809 98.0725C121.462 97.828 120.973 96.312 120.973 89.1718C120.973 81.7871 121.658 79.5864 123.858 79.5864C125.619 79.5864 126.45 80.5156 126.841 82.912C127.135 84.7215 127.135 84.7215 129.58 84.7215H132.025L131.879 82.5207C131.683 79.7331 130.509 77.728 128.358 76.6032C126.157 75.3806 122.244 75.3806 120.044 76.5543Z" fill="white"/>
<path d="M55 88.8784V101.594H57.4453H59.8905V95.9697V90.3456H63.0693H66.2482V95.9697V101.594H68.6934H71.1387V88.8784V76.1631H68.6934H66.2482V81.0536V85.993L63.2161 85.8463L60.135 85.6996L59.9883 80.9069L59.8416 76.1631H57.4453H55V88.8784Z" fill="white"/>
<path d="M80.9202 76.3587C80.9202 76.4565 79.5019 81.9828 77.7413 88.5361C75.9807 95.1382 74.5625 100.762 74.5625 101.056C74.5625 101.447 75.3939 101.594 77.1056 101.496L79.6975 101.349L80.1866 98.9039L80.7245 96.4587L84.1968 96.312L87.6691 96.1652L87.9625 98.0236C88.5983 101.643 88.5983 101.594 91.4837 101.594C94.0756 101.594 94.1735 101.545 93.8311 100.469C93.6355 99.882 92.1194 94.209 90.4567 87.9003L87.4245 76.4076L84.1968 76.2609C82.3873 76.1631 80.9202 76.212 80.9202 76.3587ZM85.5172 86.5798L86.6421 91.8127H84.2946C82.9742 91.8127 81.8983 91.666 81.8983 91.4704C81.8983 90.6879 84.0501 81.0536 84.1968 81.2003C84.2946 81.2981 84.8815 83.7434 85.5172 86.5798Z" fill="white"/>
<path d="M97.0586 88.8784V101.594H104.394H111.73V99.393V97.1923H107.084H102.438V93.7689V90.3456H106.595H110.752V88.3894V86.4332H106.595H102.438V83.4989V80.5646H106.84H111.241V78.3638V76.1631H104.15H97.0586V88.8784Z" fill="white"/>
<path d="M136.182 88.8784V101.594H138.871H141.561V95.9697V90.3456H144.496H147.43V95.9697V101.594H149.875H152.32V88.8784V76.1631H149.875H147.43V81.0536V85.9441H144.496H141.561V81.0536V76.1631H138.871H136.182V88.8784Z" fill="white"/>
<path d="M158.189 88.8784V101.594H160.635H163.08V88.8784V76.1631H160.635H158.189V88.8784Z" fill="white"/>
<path d="M177.263 88.2427C175.306 94.8937 173.595 100.665 173.448 100.958C173.35 101.349 173.692 101.594 174.475 101.594C175.257 101.594 175.844 101.251 175.991 100.713C176.138 100.273 176.578 98.6105 177.018 97.0456L177.849 94.2091L182.3 94.3558L186.799 94.5025L187.777 98.0726C188.609 101.105 188.902 101.594 189.831 101.594C190.467 101.594 190.956 101.447 190.956 101.203C190.956 101.007 189.342 95.3339 187.386 88.6339L183.767 76.4076L182.3 76.2609L180.882 76.1142L177.263 88.2427ZM184.354 85.3573C185.332 88.9762 186.017 92.0083 185.919 92.1062C185.772 92.2529 184.06 92.3018 182.055 92.204L178.387 92.0573L180.05 85.9441C181.909 78.9996 182.104 78.4127 182.349 78.6573C182.446 78.7551 183.327 81.7872 184.354 85.3573Z" fill="white"/>
<path d="M194.965 86.7754C195.161 98.1703 195.356 99.3929 197.704 100.909C199.562 102.132 204.061 102.327 206.115 101.251C209.245 99.6374 209.539 98.317 209.539 86.5309V76.163H208.316H207.094V86.7265V97.29L205.675 98.7083C203.768 100.567 200.931 100.664 198.926 98.9528L197.557 97.7791L197.41 86.971L197.264 76.163H196.041H194.818L194.965 86.7754Z" fill="white"/>
<path d="M214.432 88.9272V101.691L219.518 101.496C225.484 101.3 226.707 100.713 228.565 96.9965C229.543 94.9914 229.739 93.9644 229.739 89.4651C229.788 78.8038 227.489 76.1629 218.246 76.1629H214.432V88.9272ZM224.702 79.3418C226.609 81.0535 227.294 83.0586 227.538 87.7045C227.685 90.9323 227.538 92.8396 226.951 94.8936C225.875 98.5615 224.31 99.6374 219.958 99.6374H216.877V88.8294V78.0213L220.251 78.217C222.746 78.3637 223.919 78.6571 224.702 79.3418Z" fill="white"/>
<path d="M234.971 88.8784V101.594H236.193H237.416V88.8784V76.1631H236.193H234.971V88.8784Z" fill="white"/>
<path d="M240.84 77.1412C240.84 78.0215 241.182 78.1193 244.019 78.1193H247.198V89.8565V101.594H248.42H249.643V89.8565V78.1193H252.822C255.658 78.1193 256 78.0215 256 77.1412C256 76.212 255.658 76.1631 248.42 76.1631C241.182 76.1631 240.84 76.212 240.84 77.1412Z" fill="white"/>
<rect x="625" y="2" width="286" height="160" rx="12" fill="#2A2A2A"/>
<mask id="mask1" mask-type="alpha" maskUnits="userSpaceOnUse" x="615" y="12" width="286" height="160">
<rect x="615" y="12" width="286" height="160" rx="12" fill="white"/>
</mask>
<g mask="url(#mask1)">
<rect x="615" y="12" width="286" height="160" rx="12" fill="white"/>
<rect x="615" y="166" width="286" height="12" fill="#4770FF"/>
<path d="M615 166H822V178H615V166Z" fill="#00C98D"/>
</g>
<rect x="834" y="27" width="48" height="48" rx="12" fill="#F5EFF2"/>
<path fill-rule="evenodd" clip-rule="evenodd" d="M847.421 57.1578L842 45H845.355L849.379 54.0265L853.408 45H856.763L851.342 57.1578H847.421ZM869.554 57.1578L875 45H871.629L867.583 54.0265L863.541 45H859.604L854.158 57.1578H857.528L861.575 48.1313L865.617 57.1578H869.554Z" fill="#00C98D"/>
<path d="M638.496 44.656L641.216 37.232H642.768L639.328 46H637.632L634.192 37.232H635.76L638.496 44.656ZM643.657 41.584C643.657 40.688 643.838 39.904 644.201 39.232C644.563 38.5493 645.059 38.0213 645.689 37.648C646.329 37.2747 647.038 37.088 647.817 37.088C648.585 37.088 649.251 37.2533 649.817 37.584C650.382 37.9147 650.803 38.3307 651.081 38.832V37.232H652.553V46H651.081V44.368C650.793 44.88 650.361 45.3067 649.785 45.648C649.219 45.9787 648.558 46.144 647.801 46.144C647.022 46.144 646.318 45.952 645.689 45.568C645.059 45.184 644.563 44.6453 644.201 43.952C643.838 43.2587 643.657 42.4693 643.657 41.584ZM651.081 41.6C651.081 40.9387 650.947 40.3627 650.681 39.872C650.414 39.3813 650.051 39.008 649.593 38.752C649.145 38.4853 648.649 38.352 648.105 38.352C647.561 38.352 647.065 38.48 646.617 38.736C646.169 38.992 645.811 39.3653 645.545 39.856C645.278 40.3467 645.145 40.9227 645.145 41.584C645.145 42.256 645.278 42.8427 645.545 43.344C645.811 43.8347 646.169 44.2133 646.617 44.48C647.065 44.736 647.561 44.864 648.105 44.864C648.649 44.864 649.145 44.736 649.593 44.48C650.051 44.2133 650.414 43.8347 650.681 43.344C650.947 42.8427 651.081 42.2613 651.081 41.6ZM656.469 34.16V46H655.013V34.16H656.469ZM666.727 37.232V46H665.271V44.704C664.993 45.152 664.604 45.504 664.103 45.76C663.612 46.0053 663.068 46.128 662.471 46.128C661.788 46.128 661.175 45.9893 660.631 45.712C660.087 45.424 659.655 44.9973 659.335 44.432C659.025 43.8667 658.871 43.1787 658.871 42.368V37.232H660.311V42.176C660.311 43.04 660.529 43.7067 660.967 44.176C661.404 44.6347 662.001 44.864 662.759 44.864C663.537 44.864 664.151 44.624 664.599 44.144C665.047 43.664 665.271 42.9653 665.271 42.048V37.232H666.727ZM677.185 41.28C677.185 41.5573 677.169 41.8507 677.137 42.16H670.129C670.182 43.024 670.476 43.7013 671.009 44.192C671.553 44.672 672.209 44.912 672.977 44.912C673.606 44.912 674.129 44.768 674.545 44.48C674.972 44.1813 675.27 43.7867 675.441 43.296H677.009C676.774 44.1387 676.305 44.8267 675.601 45.36C674.897 45.8827 674.022 46.144 672.977 46.144C672.145 46.144 671.398 45.9573 670.737 45.584C670.086 45.2107 669.574 44.6827 669.201 44C668.828 43.3067 668.641 42.5067 668.641 41.6C668.641 40.6933 668.822 39.8987 669.185 39.216C669.548 38.5333 670.054 38.0107 670.705 37.648C671.366 37.2747 672.124 37.088 672.977 37.088C673.809 37.088 674.545 37.2693 675.185 37.632C675.825 37.9947 676.316 38.496 676.657 39.136C677.009 39.7653 677.185 40.48 677.185 41.28ZM675.681 40.976C675.681 40.4213 675.558 39.9467 675.313 39.552C675.068 39.1467 674.732 38.8427 674.305 38.64C673.889 38.4267 673.425 38.32 672.913 38.32C672.177 38.32 671.548 38.5547 671.025 39.024C670.513 39.4933 670.22 40.144 670.145 40.976H675.681ZM683.379 37.072C684.446 37.072 685.31 37.3973 685.971 38.048C686.632 38.688 686.963 39.616 686.963 40.832V46H685.523V41.04C685.523 40.1653 685.304 39.4987 684.867 39.04C684.43 38.5707 683.832 38.336 683.075 38.336C682.307 38.336 681.694 38.576 681.235 39.056C680.787 39.536 680.563 40.2347 680.563 41.152V46H679.107V37.232H680.563V38.48C680.851 38.032 681.24 37.6853 681.731 37.44C682.232 37.1947 682.782 37.072 683.379 37.072ZM697.341 41.28C697.341 41.5573 697.325 41.8507 697.293 42.16H690.285C690.339 43.024 690.632 43.7013 691.165 44.192C691.709 44.672 692.365 44.912 693.133 44.912C693.763 44.912 694.285 44.768 694.701 44.48C695.128 44.1813 695.427 43.7867 695.597 43.296H697.165C696.931 44.1387 696.461 44.8267 695.757 45.36C695.053 45.8827 694.179 46.144 693.133 46.144C692.301 46.144 691.555 45.9573 690.893 45.584C690.243 45.2107 689.731 44.6827 689.357 44C688.984 43.3067 688.797 42.5067 688.797 41.6C688.797 40.6933 688.979 39.8987 689.341 39.216C689.704 38.5333 690.211 38.0107 690.861 37.648C691.523 37.2747 692.28 37.088 693.133 37.088C693.965 37.088 694.701 37.2693 695.341 37.632C695.981 37.9947 696.472 38.496 696.813 39.136C697.165 39.7653 697.341 40.48 697.341 41.28ZM695.837 40.976C695.837 40.4213 695.715 39.9467 695.469 39.552C695.224 39.1467 694.888 38.8427 694.461 38.64C694.045 38.4267 693.581 38.32 693.069 38.32C692.333 38.32 691.704 38.5547 691.181 39.024C690.669 39.4933 690.376 40.144 690.301 40.976H695.837ZM701.039 38.432V43.6C701.039 44.0267 701.13 44.3307 701.311 44.512C701.493 44.6827 701.807 44.768 702.255 44.768H703.327V46H702.015C701.205 46 700.597 45.8133 700.191 45.44C699.786 45.0667 699.583 44.4533 699.583 43.6V38.432H698.447V37.232H699.583V35.024H701.039V37.232H703.327V38.432H701.039ZM716.771 37.232L714.035 46H712.531L710.419 39.04L708.307 46H706.803L704.051 37.232H705.539L707.555 44.592L709.731 37.232H711.219L713.347 44.608L715.331 37.232H716.771ZM722.04 46.144C721.219 46.144 720.472 45.9573 719.8 45.584C719.139 45.2107 718.616 44.6827 718.232 44C717.859 43.3067 717.672 42.5067 717.672 41.6C717.672 40.704 717.864 39.9147 718.248 39.232C718.643 38.5387 719.176 38.0107 719.848 37.648C720.52 37.2747 721.272 37.088 722.104 37.088C722.936 37.088 723.688 37.2747 724.36 37.648C725.032 38.0107 725.56 38.5333 725.944 39.216C726.339 39.8987 726.536 40.6933 726.536 41.6C726.536 42.5067 726.334 43.3067 725.928 44C725.534 44.6827 724.995 45.2107 724.312 45.584C723.63 45.9573 722.872 46.144 722.04 46.144ZM722.04 44.864C722.563 44.864 723.054 44.7413 723.512 44.496C723.971 44.2507 724.339 43.8827 724.616 43.392C724.904 42.9013 725.048 42.304 725.048 41.6C725.048 40.896 724.91 40.2987 724.632 39.808C724.355 39.3173 723.992 38.9547 723.544 38.72C723.096 38.4747 722.611 38.352 722.088 38.352C721.555 38.352 721.064 38.4747 720.616 38.72C720.179 38.9547 719.827 39.3173 719.56 39.808C719.294 40.2987 719.16 40.896 719.16 41.6C719.16 42.3147 719.288 42.9173 719.544 43.408C719.811 43.8987 720.163 44.2667 720.6 44.512C721.038 44.7467 721.518 44.864 722.04 44.864ZM729.907 38.656C730.163 38.1547 730.525 37.7653 730.995 37.488C731.475 37.2107 732.056 37.072 732.739 37.072V38.576H732.355C730.723 38.576 729.907 39.4613 729.907 41.232V46H728.451V37.232H729.907V38.656ZM739.316 46L735.876 42.128V46H734.42V34.16H735.876V41.12L739.252 37.232H741.284L737.156 41.6L741.3 46H739.316ZM744.11 34.16V46H742.654V34.16H744.11ZM747.343 35.808C747.066 35.808 746.831 35.712 746.639 35.52C746.447 35.328 746.351 35.0933 746.351 34.816C746.351 34.5387 746.447 34.304 746.639 34.112C746.831 33.92 747.066 33.824 747.343 33.824C747.61 33.824 747.834 33.92 748.015 34.112C748.207 34.304 748.303 34.5387 748.303 34.816C748.303 35.0933 748.207 35.328 748.015 35.52C747.834 35.712 747.61 35.808 747.343 35.808ZM748.047 37.232V46H746.591V37.232H748.047ZM753.793 44.656L756.513 37.232H758.065L754.625 46H752.929L749.489 37.232H751.057L753.793 44.656ZM767.498 41.28C767.498 41.5573 767.482 41.8507 767.45 42.16H760.442C760.495 43.024 760.788 43.7013 761.322 44.192C761.866 44.672 762.522 44.912 763.29 44.912C763.919 44.912 764.442 44.768 764.858 44.48C765.284 44.1813 765.583 43.7867 765.754 43.296H767.322C767.087 44.1387 766.618 44.8267 765.914 45.36C765.21 45.8827 764.335 46.144 763.29 46.144C762.458 46.144 761.711 45.9573 761.05 45.584C760.399 45.2107 759.887 44.6827 759.514 44C759.14 43.3067 758.954 42.5067 758.954 41.6C758.954 40.6933 759.135 39.8987 759.498 39.216C759.86 38.5333 760.367 38.0107 761.018 37.648C761.679 37.2747 762.436 37.088 763.29 37.088C764.122 37.088 764.858 37.2693 765.498 37.632C766.138 37.9947 766.628 38.496 766.97 39.136C767.322 39.7653 767.498 40.48 767.498 41.28ZM765.994 40.976C765.994 40.4213 765.871 39.9467 765.626 39.552C765.38 39.1467 765.044 38.8427 764.618 38.64C764.202 38.4267 763.738 38.32 763.226 38.32C762.49 38.32 761.86 38.5547 761.338 39.024C760.826 39.4933 760.532 40.144 760.458 40.976H765.994ZM769.004 44.832C770.358 43.744 771.42 42.8533 772.188 42.16C772.956 41.456 773.601 40.7253 774.124 39.968C774.657 39.2 774.924 38.448 774.924 37.712C774.924 37.0187 774.753 36.4747 774.412 36.08C774.081 35.6747 773.542 35.472 772.796 35.472C772.07 35.472 771.505 35.7013 771.1 36.16C770.705 36.608 770.492 37.2107 770.46 37.968H769.052C769.094 36.7733 769.457 35.8507 770.14 35.2C770.822 34.5493 771.702 34.224 772.78 34.224C773.878 34.224 774.748 34.528 775.388 35.136C776.038 35.744 776.364 36.5813 776.364 37.648C776.364 38.5333 776.097 39.3973 775.564 40.24C775.041 41.072 774.444 41.808 773.772 42.448C773.1 43.0773 772.241 43.8133 771.196 44.656H776.7V45.872H769.004V44.832ZM778.383 40.096C778.383 38.2613 778.681 36.832 779.279 35.808C779.876 34.7733 780.921 34.256 782.415 34.256C783.897 34.256 784.937 34.7733 785.535 35.808C786.132 36.832 786.431 38.2613 786.431 40.096C786.431 41.9627 786.132 43.4133 785.535 44.448C784.937 45.4827 783.897 46 782.415 46C780.921 46 779.876 45.4827 779.279 44.448C778.681 43.4133 778.383 41.9627 778.383 40.096ZM784.991 40.096C784.991 39.168 784.927 38.384 784.799 37.744C784.681 37.0933 784.431 36.5707 784.047 36.176C783.673 35.7813 783.129 35.584 782.415 35.584C781.689 35.584 781.135 35.7813 780.751 36.176C780.377 36.5707 780.127 37.0933 779.999 37.744C779.881 38.384 779.823 39.168 779.823 40.096C779.823 41.056 779.881 41.8613 779.999 42.512C780.127 43.1627 780.377 43.6853 780.751 44.08C781.135 44.4747 781.689 44.672 782.415 44.672C783.129 44.672 783.673 44.4747 784.047 44.08C784.431 43.6853 784.681 43.1627 784.799 42.512C784.927 41.8613 784.991 41.056 784.991 40.096ZM788.254 44.832C789.608 43.744 790.67 42.8533 791.438 42.16C792.206 41.456 792.851 40.7253 793.374 39.968C793.907 39.2 794.174 38.448 794.174 37.712C794.174 37.0187 794.003 36.4747 793.662 36.08C793.331 35.6747 792.792 35.472 792.046 35.472C791.32 35.472 790.755 35.7013 790.35 36.16C789.955 36.608 789.742 37.2107 789.71 37.968H788.302C788.344 36.7733 788.707 35.8507 789.39 35.2C790.072 34.5493 790.952 34.224 792.03 34.224C793.128 34.224 793.998 34.528 794.638 35.136C795.288 35.744 795.614 36.5813 795.614 37.648C795.614 38.5333 795.347 39.3973 794.814 40.24C794.291 41.072 793.694 41.808 793.022 42.448C792.35 43.0773 791.491 43.8133 790.446 44.656H795.95V45.872H788.254V44.832ZM797.249 35.76V34.432H800.257V46H798.785V35.76H797.249ZM808.438 30.928L804.054 48.72H802.614L806.982 30.928H808.438ZM637.728 62.336C637.984 61.92 638.352 61.584 638.832 61.328C639.312 61.072 639.861 60.944 640.48 60.944C641.216 60.944 641.883 61.1307 642.48 61.504C643.077 61.8773 643.547 62.4107 643.888 63.104C644.24 63.7973 644.416 64.6027 644.416 65.52C644.416 66.4373 644.24 67.248 643.888 67.952C643.547 68.6453 643.077 69.184 642.48 69.568C641.883 69.9413 641.216 70.128 640.48 70.128C639.851 70.128 639.301 70.0053 638.832 69.76C638.363 69.504 637.995 69.168 637.728 68.752V70H634.992V58.16H637.728V62.336ZM641.632 65.52C641.632 64.8373 641.44 64.304 641.056 63.92C640.683 63.5253 640.219 63.328 639.664 63.328C639.12 63.328 638.656 63.5253 638.272 63.92C637.899 64.3147 637.712 64.8533 637.712 65.536C637.712 66.2187 637.899 66.7573 638.272 67.152C638.656 67.5467 639.12 67.744 639.664 67.744C640.208 67.744 640.672 67.5467 641.056 67.152C641.44 66.7467 641.632 66.2027 641.632 65.52ZM654.667 61.072V70H651.931V68.784C651.654 69.1787 651.275 69.4987 650.795 69.744C650.326 69.9787 649.803 70.096 649.227 70.096C648.545 70.096 647.942 69.9467 647.419 69.648C646.897 69.3387 646.491 68.896 646.203 68.32C645.915 67.744 645.771 67.0667 645.771 66.288V61.072H648.491V65.92C648.491 66.5173 648.646 66.9813 648.955 67.312C649.265 67.6427 649.681 67.808 650.203 67.808C650.737 67.808 651.158 67.6427 651.467 67.312C651.777 66.9813 651.931 66.5173 651.931 65.92V61.072H654.667ZM659.369 62.56C659.689 62.0693 660.089 61.6853 660.569 61.408C661.049 61.12 661.582 60.976 662.169 60.976V63.872H661.417C660.734 63.872 660.222 64.0213 659.881 64.32C659.539 64.608 659.369 65.12 659.369 65.856V70H656.633V61.072H659.369V62.56ZM668.916 60.976C669.962 60.976 670.794 61.3173 671.412 62C672.042 62.672 672.356 63.6 672.356 64.784V70H669.636V65.152C669.636 64.5547 669.482 64.0907 669.172 63.76C668.863 63.4293 668.447 63.264 667.924 63.264C667.402 63.264 666.986 63.4293 666.676 63.76C666.367 64.0907 666.212 64.5547 666.212 65.152V70H663.476V61.072H666.212V62.256C666.49 61.8613 666.863 61.552 667.332 61.328C667.802 61.0933 668.33 60.976 668.916 60.976ZM681.138 63.248V65.52H674.098V63.248H681.138ZM682.995 65.536C682.995 64.608 683.182 63.7973 683.555 63.104C683.939 62.4107 684.467 61.8773 685.139 61.504C685.822 61.1307 686.6 60.944 687.475 60.944C688.595 60.944 689.528 61.2373 690.275 61.824C691.032 62.4107 691.528 63.2373 691.763 64.304H688.851C688.606 63.6213 688.131 63.28 687.427 63.28C686.926 63.28 686.526 63.4773 686.227 63.872C685.928 64.256 685.779 64.8107 685.779 65.536C685.779 66.2613 685.928 66.8213 686.227 67.216C686.526 67.6 686.926 67.792 687.427 67.792C688.131 67.792 688.606 67.4507 688.851 66.768H691.763C691.528 67.8133 691.032 68.6347 690.275 69.232C689.518 69.8293 688.584 70.128 687.475 70.128C686.6 70.128 685.822 69.9413 685.139 69.568C684.467 69.1947 683.939 68.6613 683.555 67.968C683.182 67.2747 682.995 66.464 682.995 65.536ZM697.29 70.128C696.416 70.128 695.626 69.9413 694.922 69.568C694.229 69.1947 693.68 68.6613 693.274 67.968C692.88 67.2747 692.682 66.464 692.682 65.536C692.682 64.6187 692.885 63.8133 693.29 63.12C693.696 62.416 694.25 61.8773 694.954 61.504C695.658 61.1307 696.448 60.944 697.322 60.944C698.197 60.944 698.986 61.1307 699.69 61.504C700.394 61.8773 700.949 62.416 701.354 63.12C701.76 63.8133 701.962 64.6187 701.962 65.536C701.962 66.4533 701.754 67.264 701.338 67.968C700.933 68.6613 700.373 69.1947 699.658 69.568C698.954 69.9413 698.165 70.128 697.29 70.128ZM697.29 67.76C697.813 67.76 698.256 67.568 698.618 67.184C698.992 66.8 699.178 66.2507 699.178 65.536C699.178 64.8213 698.997 64.272 698.634 63.888C698.282 63.504 697.845 63.312 697.322 63.312C696.789 63.312 696.346 63.504 695.994 63.888C695.642 64.2613 695.466 64.8107 695.466 65.536C695.466 66.2507 695.637 66.8 695.978 67.184C696.33 67.568 696.768 67.76 697.29 67.76ZM708.854 60.976C709.899 60.976 710.731 61.3173 711.35 62C711.979 62.672 712.294 63.6 712.294 64.784V70H709.574V65.152C709.574 64.5547 709.419 64.0907 709.11 63.76C708.801 63.4293 708.385 63.264 707.862 63.264C707.339 63.264 706.923 63.4293 706.614 63.76C706.305 64.0907 706.15 64.5547 706.15 65.152V70H703.414V61.072H706.15V62.256C706.427 61.8613 706.801 61.552 707.27 61.328C707.739 61.0933 708.267 60.976 708.854 60.976ZM719.171 67.68V70H717.779C716.787 70 716.014 69.76 715.459 69.28C714.904 68.7893 714.627 67.9947 714.627 66.896V63.344H713.539V61.072H714.627V58.896H717.363V61.072H719.155V63.344H717.363V66.928C717.363 67.1947 717.427 67.3867 717.555 67.504C717.683 67.6213 717.896 67.68 718.195 67.68H719.171ZM723.431 62.56C723.751 62.0693 724.151 61.6853 724.631 61.408C725.111 61.12 725.644 60.976 726.231 60.976V63.872H725.479C724.796 63.872 724.284 64.0213 723.943 64.32C723.602 64.608 723.431 65.12 723.431 65.856V70H720.695V61.072H723.431V62.56ZM726.995 65.52C726.995 64.6027 727.166 63.7973 727.507 63.104C727.859 62.4107 728.334 61.8773 728.931 61.504C729.528 61.1307 730.195 60.944 730.931 60.944C731.56 60.944 732.11 61.072 732.579 61.328C733.059 61.584 733.427 61.92 733.683 62.336V61.072H736.419V70H733.683V68.736C733.416 69.152 733.043 69.488 732.563 69.744C732.094 70 731.544 70.128 730.915 70.128C730.19 70.128 729.528 69.9413 728.931 69.568C728.334 69.184 727.859 68.6453 727.507 67.952C727.166 67.248 726.995 66.4373 726.995 65.52ZM733.683 65.536C733.683 64.8533 733.491 64.3147 733.107 63.92C732.734 63.5253 732.275 63.328 731.731 63.328C731.187 63.328 730.723 63.5253 730.339 63.92C729.966 64.304 729.779 64.8373 729.779 65.52C729.779 66.2027 729.966 66.7467 730.339 67.152C730.723 67.5467 731.187 67.744 731.731 67.744C732.275 67.744 732.734 67.5467 733.107 67.152C733.491 66.7573 733.683 66.2187 733.683 65.536ZM737.854 65.536C737.854 64.608 738.041 63.7973 738.414 63.104C738.798 62.4107 739.326 61.8773 739.998 61.504C740.681 61.1307 741.46 60.944 742.334 60.944C743.454 60.944 744.388 61.2373 745.134 61.824C745.892 62.4107 746.388 63.2373 746.622 64.304H743.71C743.465 63.6213 742.99 63.28 742.286 63.28C741.785 63.28 741.385 63.4773 741.086 63.872C740.788 64.256 740.638 64.8107 740.638 65.536C740.638 66.2613 740.788 66.8213 741.086 67.216C741.385 67.6 741.785 67.792 742.286 67.792C742.99 67.792 743.465 67.4507 743.71 66.768H746.622C746.388 67.8133 745.892 68.6347 745.134 69.232C744.377 69.8293 743.444 70.128 742.334 70.128C741.46 70.128 740.681 69.9413 739.998 69.568C739.326 69.1947 738.798 68.6613 738.414 67.968C738.041 67.2747 737.854 66.464 737.854 65.536ZM753.062 67.68V70H751.67C750.678 70 749.904 69.76 749.35 69.28C748.795 68.7893 748.518 67.9947 748.518 66.896V63.344H747.43V61.072H748.518V58.896H751.254V61.072H753.046V63.344H751.254V66.928C751.254 67.1947 751.318 67.3867 751.446 67.504C751.574 67.6213 751.787 67.68 752.086 67.68H753.062Z" fill="black"/>
<path d="M858 123C851.37 123 846 128.506 846 135.304C845.999 137.887 846.791 140.405 848.263 142.5C849.736 144.595 851.815 146.162 854.206 146.978C854.806 147.085 855.03 146.716 855.03 146.392C855.03 146.1 855.014 145.132 855.014 144.101C852 144.671 851.22 143.348 850.98 142.655C850.844 142.301 850.26 141.21 849.75 140.917C849.33 140.687 848.73 140.117 849.734 140.102C850.68 140.086 851.354 140.994 851.58 141.363C852.66 143.224 854.386 142.701 855.074 142.379C855.18 141.579 855.494 141.041 855.84 140.734C853.17 140.426 850.38 139.364 850.38 134.658C850.38 133.319 850.844 132.213 851.61 131.351C851.49 131.043 851.07 129.782 851.73 128.09C851.73 128.09 852.734 127.768 855.03 129.352C856.007 129.074 857.016 128.935 858.03 128.937C859.05 128.937 860.07 129.074 861.03 129.351C863.324 127.752 864.33 128.091 864.33 128.091C864.99 129.783 864.57 131.044 864.45 131.352C865.214 132.213 865.68 133.304 865.68 134.658C865.68 139.38 862.876 140.426 860.206 140.734C860.64 141.117 861.016 141.856 861.016 143.01C861.016 144.655 861 145.977 861 146.393C861 146.716 861.226 147.1 861.826 146.976C864.208 146.152 866.278 144.582 867.744 142.488C869.21 140.394 869.999 137.882 870 135.304C870 128.506 864.63 123 858 123Z" fill="#B3B3B3"/>
<circle cx="299" cy="87" r="8" fill="#00C98D" stroke="#121212" stroke-width="4"/>
<line x1="317" y1="86.5" x2="597" y2="86.5" stroke="#D0D0D0" stroke-dasharray="4 4"/>
<circle cx="457" cy="87" r="30" fill="#121212"/>
<path opacity="0.3" fill-rule="evenodd" clip-rule="evenodd" d="M441 73.5133L456.263 70.6515C456.75 70.5602 457.25 70.5602 457.737 70.6515L473 73.5133V92.0793C473 97.9481 469.977 103.403 465 106.513L458.06 110.851C457.411 111.256 456.589 111.256 455.94 110.851L449 106.513C444.023 103.403 441 97.9481 441 92.0793V73.5133Z" fill="url(#paint0_linear)"/>
<path fill-rule="evenodd" clip-rule="evenodd" d="M455.352 95.0132C454.872 95.0132 454.393 94.8215 454.01 94.4382L450.177 90.6049C449.41 89.8382 449.41 88.6882 450.177 87.9215C450.943 87.1548 452.189 87.1548 452.86 87.9215L455.352 90.4132L461.677 84.0882C462.443 83.3215 463.593 83.3215 464.36 84.0882C465.127 84.8549 465.127 86.0048 464.36 86.7715L456.693 94.4382C456.31 94.8215 455.831 95.0132 455.352 95.0132Z" fill="url(#paint1_linear)"/>
<circle cx="615" cy="87" r="8" fill="#00C98D" stroke="#121212" stroke-width="4"/>
<defs>
<pattern id="pattern0" patternContentUnits="objectBoundingBox" width="1" height="1">
<use xlink:href="#image0" transform="translate(0 -0.000684357) scale(0.000522466 0.000794737)"/>
</pattern>
<linearGradient id="paint0_linear" x1="457" y1="70.583" x2="457" y2="111.155" gradientUnits="userSpaceOnUse">
<stop stop-color="#00C98D"/>
<stop offset="1" stop-color="#4770FF"/>
</linearGradient>
<linearGradient id="paint1_linear" x1="457.268" y1="83.5132" x2="457.268" y2="95.0132" gradientUnits="userSpaceOnUse">
<stop stop-color="#00C98D"/>
<stop offset="1" stop-color="#4770FF"/>
</linearGradient>
</defs>
</svg>
