<svg width="194" height="113" viewBox="0 0 194 113" fill="none" xmlns="http://www.w3.org/2000/svg">
<rect x="17.5996" width="182" height="68" rx="8" transform="rotate(15 17.5996 0)" fill="#01FF00"/>
<path d="M29.2139 28.6959L32.3918 29.5474L32.0585 30.7915L27.339 29.5269L29.8573 20.1285L31.3989 20.5416L29.2139 28.6959ZM41.224 29.0587C41.1491 29.3382 41.0634 29.5858 40.967 29.8015L35.2738 28.276C35.1595 28.8831 35.2523 29.4201 35.5523 29.887C35.8524 30.3539 36.2909 30.6646 36.8679 30.8192C37.6973 31.0415 38.3763 30.8514 38.9049 30.249L40.5682 30.6947C40.1592 31.3195 39.5981 31.773 38.8847 32.0553C38.1827 32.3311 37.3945 32.3518 36.52 32.1174C35.8078 31.9266 35.21 31.5973 34.7266 31.1296C34.2546 30.6553 33.9336 30.0862 33.7637 29.4222C33.6052 28.7517 33.6286 28.0333 33.8339 27.267C34.0392 26.5006 34.3725 25.8701 34.8336 25.3752C35.3061 24.8738 35.8642 24.5402 36.5077 24.3744C37.1602 24.2111 37.8515 24.2272 38.5818 24.4229C39.285 24.6113 39.8705 24.9325 40.3383 25.3863C40.8061 25.8402 41.1184 26.3877 41.2751 27.0288C41.4343 27.6608 41.4172 28.3375 41.224 29.0587ZM39.7452 28.1407C39.8884 27.5703 39.8075 27.0607 39.5026 26.6118C39.1978 26.1629 38.7523 25.86 38.1663 25.703C37.6344 25.5604 37.1332 25.6097 36.6628 25.8509C36.1948 26.083 35.8474 26.4779 35.6207 27.0355L39.7452 28.1407ZM42.1874 29.4763C42.3879 28.728 42.7187 28.1064 43.1798 27.6116C43.6499 27.1192 44.1932 26.7864 44.8097 26.6134C45.4376 26.4338 46.076 26.431 46.7251 26.6049C47.3111 26.7619 47.7891 27.0156 48.159 27.3659C48.5404 27.7097 48.8159 28.0879 48.9855 28.5005L49.2754 27.4187L50.8306 27.8354L48.834 35.2865L47.2789 34.8698L47.576 33.7609C47.2204 34.0425 46.7857 34.2401 46.2722 34.3537C45.7586 34.4673 45.2133 34.4468 44.6363 34.2922C43.9963 34.1207 43.4537 33.8014 43.0088 33.3343C42.5663 32.8582 42.2658 32.2849 42.1072 31.6144C41.9602 30.9372 41.9869 30.2245 42.1874 29.4763ZM48.279 31.1375C48.4167 30.6236 48.4281 30.1484 48.3131 29.7118C48.2072 29.2776 48.0096 28.9154 47.7201 28.6253C47.4307 28.3351 47.0876 28.1369 46.691 28.0306C46.2943 27.9243 45.8981 27.9245 45.5024 28.031C45.1091 28.1285 44.7535 28.3376 44.4357 28.6583C44.1293 28.9724 43.9072 29.3863 43.7695 29.9002C43.6319 30.4141 43.6147 30.8926 43.7182 31.3358C43.8307 31.7815 44.0305 32.1539 44.3175 32.453C44.616 32.7456 44.959 32.9438 45.3467 33.0476C45.7433 33.1539 46.1395 33.1538 46.5353 33.0473C46.931 32.9407 47.2833 32.7259 47.5921 32.4028C47.9123 32.0731 48.1413 31.6514 48.279 31.1375ZM54.1072 29.8728C54.434 29.5546 54.81 29.3413 55.2352 29.233C55.6718 29.1181 56.1471 29.1295 56.6609 29.2672L56.2334 30.8629L55.8412 30.7578C55.2372 30.596 54.7363 30.626 54.3387 30.848C53.95 31.0724 53.6542 31.5632 53.4513 32.3205L52.4005 36.2422L50.8589 35.8291L52.8554 28.3779L54.397 28.791L54.1072 29.8728ZM61.8374 30.6542C62.4234 30.8112 62.9136 31.073 63.3082 31.4396C63.7118 31.8087 63.9803 32.2671 64.1137 32.815C64.2471 33.3628 64.2232 33.9748 64.042 34.651L62.8644 39.046L61.3363 38.6365L62.4524 34.4714C62.6311 33.8043 62.6008 33.2502 62.3615 32.8093C62.1245 32.3593 61.7176 32.057 61.1406 31.9024C60.5636 31.7478 60.0555 31.8049 59.6163 32.0737C59.1885 32.3359 58.8853 32.8006 58.7065 33.4677L57.5905 37.6328L56.0488 37.2197L58.0454 29.7686L59.587 30.1817L59.3587 31.0336C59.6933 30.7947 60.0773 30.6416 60.5109 30.5742C60.9535 30.5091 61.3956 30.5358 61.8374 30.6542ZM79.3926 35.3581C79.9786 35.5151 80.4689 35.7769 80.8634 36.1436C81.267 36.5126 81.5355 36.971 81.6689 37.5189C81.8114 38.0692 81.792 38.6824 81.6108 39.3585L80.4332 43.7535L78.9051 43.344L80.0211 39.179C80.1999 38.5118 80.1696 37.9578 79.9302 37.5168C79.6933 37.0668 79.2863 36.7645 78.7093 36.6099C78.1324 36.4553 77.6243 36.5124 77.1851 36.7812C76.7573 37.0435 76.454 37.5081 76.2753 38.1753L75.1592 42.3403L73.6311 41.9309L74.7472 37.7658C74.9259 37.0987 74.8956 36.5446 74.6563 36.1037C74.4193 35.6537 74.0124 35.3514 73.4354 35.1968C72.8584 35.0422 72.3503 35.0993 71.9111 35.3681C71.4833 35.6303 71.1801 36.095 71.0013 36.7621L69.8853 40.9272L68.3437 40.5141L70.3402 33.063L71.8818 33.476L71.6535 34.328C71.9881 34.0891 72.3721 33.936 72.8057 33.8685C73.2392 33.8011 73.6769 33.8266 74.1187 33.945C74.7137 34.1044 75.2117 34.3731 75.6129 34.7512C76.0141 35.1292 76.2768 35.591 76.4012 36.1364C76.7474 35.746 77.1944 35.4841 77.7423 35.3507C78.2926 35.2083 78.8427 35.2108 79.3926 35.3581ZM85.5942 45.2668C84.891 45.0784 84.2977 44.7503 83.8143 44.2826C83.3333 43.8059 83.0078 43.2355 82.8379 42.5716C82.6704 41.8986 82.6892 41.179 82.8946 40.4127C83.0975 39.6554 83.4442 39.0285 83.9348 38.5319C84.4254 38.0352 85.0015 37.7065 85.663 37.5455C86.3245 37.3846 87.0114 37.3996 87.7236 37.5904C88.4358 37.7812 89.0381 38.1117 89.5306 38.5818C90.023 39.052 90.3575 39.6247 90.534 40.3001C90.7106 40.9755 90.6974 41.6918 90.4945 42.4491C90.2916 43.2064 89.9403 43.8321 89.4407 44.3263C88.9411 44.8205 88.3503 45.1502 87.6684 45.3153C86.9978 45.4738 86.3064 45.4577 85.5942 45.2668ZM85.953 43.9281C86.3496 44.0344 86.7446 44.0387 87.1379 43.9412C87.5403 43.8461 87.9003 43.6382 88.2182 43.3175C88.536 42.9969 88.7674 42.5661 88.9123 42.0252C89.0572 41.4842 89.0756 41.0012 88.9672 40.576C88.8613 40.1418 88.6625 39.7841 88.3706 39.503C88.0788 39.2219 87.7345 39.0282 87.3378 38.9219C86.9412 38.8156 86.5462 38.8112 86.1529 38.9088C85.7686 39.0087 85.4265 39.2214 85.1267 39.5469C84.8293 39.8634 84.6082 40.2921 84.4632 40.833C84.2483 41.6354 84.2844 42.3118 84.5717 42.8623C84.8705 43.4061 85.3309 43.7614 85.953 43.9281ZM94.2667 40.6336C94.5935 40.3153 94.9695 40.102 95.3947 39.9937C95.8313 39.8788 96.3066 39.8902 96.8204 40.0279L96.3929 41.6236L96.0007 41.5185C95.3967 41.3567 94.8958 41.3867 94.4982 41.6087C94.1095 41.8331 93.8137 42.3239 93.6108 43.0812L92.56 47.0029L91.0184 46.5898L93.0149 39.1386L94.5565 39.5517L94.2667 40.6336ZM104.085 45.9022C104.01 46.1816 103.924 46.4292 103.828 46.6449L98.1345 45.1195C98.0201 45.7266 98.1129 46.2635 98.413 46.7304C98.713 47.1973 99.1516 47.5081 99.7285 47.6627C100.558 47.8849 101.237 47.6949 101.766 47.0925L103.429 47.5382C103.02 48.1629 102.459 48.6165 101.745 48.8988C101.043 49.1745 100.255 49.1952 99.3807 48.9609C98.6685 48.7701 98.0707 48.4408 97.5872 47.9731C97.1153 47.4987 96.7943 46.9296 96.6243 46.2657C96.4658 45.5951 96.4892 44.8767 96.6946 44.1104C96.8999 43.3441 97.2331 42.7135 97.6942 42.2187C98.1668 41.7172 98.7248 41.3836 99.3683 41.2179C100.021 41.0545 100.712 41.0707 101.442 41.2663C102.146 41.4548 102.731 41.7759 103.199 42.2298C103.667 42.6837 103.979 43.2311 104.136 43.8722C104.295 44.5043 104.278 45.1809 104.085 45.9022ZM102.606 44.9841C102.749 44.4138 102.668 43.9041 102.363 43.4553C102.058 43.0064 101.613 42.7034 101.027 42.5464C100.495 42.4039 99.9939 42.4532 99.5235 42.6943C99.0554 42.9264 98.7081 43.3213 98.4813 43.879L102.606 44.9841ZM111.267 52.1458C110.564 51.9573 109.97 51.6293 109.487 51.1616C109.006 50.6848 108.68 50.1145 108.51 49.4505C108.343 48.7776 108.362 48.0579 108.567 47.2916C108.77 46.5344 109.117 45.9074 109.607 45.4108C110.098 44.9142 110.674 44.5854 111.335 44.4245C111.997 44.2635 112.684 44.2785 113.396 44.4693C114.108 44.6602 114.711 44.9906 115.203 45.4608C115.695 45.9309 116.03 46.5037 116.207 47.179C116.383 47.8544 116.37 48.5707 116.167 49.328C115.964 50.0853 115.613 50.7111 115.113 51.2053C114.614 51.6995 114.023 52.0291 113.341 52.1942C112.67 52.3528 111.979 52.3366 111.267 52.1458ZM111.625 50.807C112.022 50.9133 112.417 50.9177 112.81 50.8201C113.213 50.725 113.573 50.5171 113.891 50.1965C114.208 49.8758 114.44 49.445 114.585 48.9041C114.73 48.3632 114.748 47.8801 114.64 47.4549C114.534 47.0207 114.335 46.6631 114.043 46.3819C113.751 46.1008 113.407 45.9071 113.01 45.8008C112.614 45.6946 112.219 45.6902 111.825 45.7877C111.441 45.8876 111.099 46.1004 110.799 46.4259C110.502 46.7423 110.281 47.171 110.136 47.712C109.921 48.5143 109.957 49.1907 110.244 49.7412C110.543 50.285 111.003 50.6403 111.625 50.807ZM122.479 46.9032C123.065 47.0602 123.556 47.322 123.95 47.6886C124.354 48.0576 124.622 48.5161 124.756 49.064C124.889 49.6118 124.865 50.2238 124.684 50.9L123.506 55.2949L121.978 54.8855L123.094 50.7204C123.273 50.0533 123.243 49.4992 123.003 49.0583C122.767 48.6083 122.36 48.306 121.783 48.1514C121.206 47.9968 120.698 48.0539 120.258 48.3227C119.831 48.5849 119.527 49.0496 119.349 49.7167L118.232 53.8818L116.691 53.4687L118.687 46.0176L120.229 46.4306L120.001 47.2826C120.335 47.0437 120.719 46.8906 121.153 46.8231C121.595 46.7581 122.038 46.7848 122.479 46.9032Z" fill="#121212"/>
<path d="M142.103 53.0936L134.197 57.6581L133.447 56.3593L141.352 51.7945L135.857 50.3222L136.246 48.8733L144.214 51.0085L142.079 58.9774L140.63 58.5892L142.103 53.0936Z" fill="#121212"/>
<path d="M26.2737 42.6801L27.3933 41.2053L38.425 43.7176L34.2099 59.4484L22.6131 56.341L26.2737 42.6801Z" fill="white"/>
<path d="M23.7366 45.5499L25.1517 44.598L38.6412 49.5436L36.9773 55.7531L22.2946 50.9315L23.7366 45.5499Z" fill="white"/>
<path d="M26.9571 39.7917L26.177 42.703L25.3796 42.497L24.5778 42.2937L24.1272 43.9334L23.6791 45.5777L22.8732 45.3617L22.0673 45.1458L21.4127 47.6168L20.7606 50.0924L21.5566 50.3173L22.3501 50.5376L21.9119 52.1729L21.4737 53.8083L22.2797 54.0242L23.0856 54.2402L22.3055 57.1514L21.5255 60.0627L27.167 61.5743L32.8085 63.0859L33.5885 60.1747L34.3686 57.2634L35.1745 57.4794L35.9804 57.6953L36.4186 56.06L36.8568 54.4247L37.6627 54.6406L38.4687 54.8566L38.6902 54.0299L38.9117 53.2032L39.7176 53.4192L40.5235 53.6351L40.745 52.8085L40.9665 51.9818L40.1606 51.7659L39.3547 51.5499L39.5762 50.7233L39.7977 49.8966L38.9917 49.6807L38.1858 49.4647L38.6288 47.8114L39.0718 46.1581L38.2659 45.9422L37.46 45.7262L38.24 42.815L39.0201 39.9037L33.3786 38.3921L27.7371 36.8805L26.9571 39.7917ZM30.3529 46.4606L29.2502 50.5759L30.0561 50.7919L30.862 51.0078L31.9647 46.8925L33.0674 42.7772L33.8733 42.9932L34.6793 43.2091L34.4578 44.0358L34.2363 44.8624L35.8481 45.2943L37.46 45.7262L37.017 47.3795L36.574 49.0328L37.3799 49.2488L38.1858 49.4647L37.5213 51.9447L36.8568 54.4247L36.0509 54.2087L35.245 53.9928L34.8068 55.6281L34.3686 57.2634L32.7653 56.8415L31.1576 56.4223L30.9285 57.2354L30.7019 58.0529L28.2841 57.4051L25.8663 56.7573L26.0878 55.9306L26.3093 55.104L24.6975 54.6721L23.0856 54.2402L23.5238 52.6048L23.962 50.9695L23.1685 50.7492L22.3725 50.5243L23.0245 48.0487L23.6791 45.5777L24.4851 45.7936L25.291 46.0096L25.734 44.3563L26.177 42.703L27.7888 43.1349L29.4007 43.5668L29.6222 42.7401L29.8437 41.9134L30.6496 42.1294L31.4556 42.3453L30.3529 46.4606Z" fill="#121212"/>
<path d="M47.381 54.5277L46.1003 59.4677L46.7437 59.6832C48.0439 60.1177 47.9823 60.1873 48.5709 57.9906C48.8509 56.9458 49.118 56.0555 49.1519 56.0359C49.1858 56.0163 50.5342 56.3776 52.1256 56.847L55.0181 57.6939L54.5644 59.654L54.1108 61.6141L54.9786 61.8466L55.8464 62.0791L57.1564 57.1901L58.4664 52.301L57.5986 52.0685L56.7308 51.836L56.1436 53.7603L55.5565 55.6847L52.5659 54.8833L49.5753 54.082L50.0823 52.1362L50.5894 50.1904L49.6256 49.8891L48.6751 49.5913L47.381 54.5277Z" fill="#121212"/>
<path d="M59.4016 57.745L58.1208 62.685L58.9219 62.8997L59.7229 63.1143L60.2762 61.2096L60.8295 59.3049L61.1992 59.2604C61.4174 59.2471 62.7232 59.5539 64.2683 59.9823L66.9411 60.7415L66.4356 62.7882L65.9265 64.8483L66.7809 65.0773C67.2482 65.2025 67.6765 65.2598 67.7309 65.2169C67.8263 65.1277 68.7242 61.9371 69.8163 57.808L70.4382 55.4335L65.5651 54.1278L60.6921 52.8221L59.4016 57.745ZM67.7127 57.8616L67.4435 58.8662L64.4555 58.1087C61.8716 57.445 61.4783 57.3109 61.4582 57.1189C61.4335 56.9974 61.5796 56.5054 61.7587 56.0509L62.0854 55.2053L65.0288 56.0227L67.9819 56.857L67.7127 57.8616Z" fill="#121212"/>
<path d="M72.5045 56.0876C72.4465 56.1438 71.8446 58.337 71.1411 60.9623L69.8562 65.7576L70.2522 65.9355C70.4684 66.0365 72.6677 66.6402 75.1278 67.285L79.6111 68.4432L79.9132 67.4761L80.2116 66.5225L76.2598 65.4636L72.3213 64.4083L73.1627 61.3748L74.0175 58.345L77.7655 59.3636C79.8349 59.9181 81.6079 60.3501 81.7024 60.318C81.8236 60.293 81.9498 59.9823 82.0594 59.4661L82.2312 58.6651L77.4089 57.3299C74.7557 56.6047 72.5456 56.0412 72.5045 56.0876Z" fill="#121212"/>
<path d="M83.1641 64.1122L81.8834 69.0521L82.4601 69.2497C83.6766 69.6762 83.6391 69.7092 84.1785 67.6428C84.4953 66.407 84.7041 65.7881 84.8396 65.7096C84.9751 65.6311 85.7443 65.751 86.8899 66.0149L88.7369 66.438L89.0031 65.6049L89.2656 64.7852L87.3298 64.2665C86.2083 63.966 85.3815 63.687 85.3497 63.5923C85.3276 63.5146 85.5316 62.5931 85.8079 61.5617L86.3104 59.6864L85.3758 59.436L84.4546 59.1892L83.1641 64.1122Z" fill="#121212"/>
<path d="M92.1039 62.1433C91.9244 62.813 91.9204 63.0417 92.0627 63.1516C92.3241 63.3508 93.6931 63.6889 93.7387 63.5719C93.7531 63.5184 93.8741 63.1201 94.0059 62.6817L94.2346 61.8816L93.2841 61.5838L92.3336 61.286L92.1039 62.1433Z" fill="#121212"/>
<path d="M96.3837 62.5149C96.3293 62.5578 95.714 64.7473 95.0106 67.3727C93.9051 71.4982 93.7595 72.1483 93.9152 72.2618C94.1668 72.4441 103.072 74.8302 103.368 74.7946C103.546 74.7705 103.657 74.5705 103.85 73.8472L104.098 72.923L100.093 71.8498L96.0741 70.773L96.3941 69.7389L96.7106 68.7183L98.6644 69.17L100.605 69.6182L100.807 68.8109L101.009 68.0037L99.1176 67.4251L97.213 66.843L97.4529 65.7875C97.6569 64.8659 97.7159 64.7525 97.9295 64.8098C98.0666 64.8322 99.8023 65.2972 101.805 65.8338C104.679 66.5896 105.474 66.7738 105.633 66.6587C105.739 66.5864 105.9 66.1989 105.981 65.7899L106.131 65.0692L101.309 63.734C98.642 63.0052 96.4417 62.4587 96.3837 62.5149Z" fill="#121212"/>
<path d="M106.928 70.4797L105.647 75.4197L106.581 75.6701L107.516 75.9205L107.955 74.3873C108.195 73.547 108.456 72.6264 108.531 72.3451L108.681 71.8397L110.646 72.4093L112.598 72.9754L112.396 73.9978L112.193 75.0203L113.023 75.2859C113.47 75.4343 113.855 75.4943 113.882 75.4443C114.131 74.6781 114.499 73.7289 114.575 73.6057C114.644 73.5093 114.966 73.538 115.553 73.6954L116.421 73.9279L117.193 71.0481L117.964 68.1682L113.091 66.8625L108.218 65.5568L106.928 70.4797ZM115.538 69.5855C115.561 69.606 115.462 70.082 115.329 70.6348L115.103 71.6367L112.112 70.8354L109.122 70.034L109.388 68.9857C109.539 68.4231 109.708 67.9516 109.782 67.9427C109.944 67.9285 115.499 69.5176 115.538 69.5855Z" fill="#121212"/>
<path d="M118.948 73.7005L117.667 78.6404L118.468 78.8551L119.269 79.0697L120.384 75.1764C120.999 73.0439 121.55 71.2536 121.618 71.2143C121.716 71.1688 126.713 72.4362 127.416 72.6963C127.493 72.7312 127.166 74.1653 126.48 76.7237L125.411 80.7153L126.375 81.0166L127.325 81.3144L128.657 76.345L129.985 71.3889L125.112 70.0832L120.239 68.7775L118.948 73.7005Z" fill="#121212"/>
<path d="M132.052 72.0435C131.994 72.0998 131.383 74.276 130.673 76.8709C129.683 80.5107 129.418 81.66 129.53 81.7761C129.708 81.9673 138.813 84.4071 139.063 84.3304C139.218 84.2858 139.546 83.1678 140.517 79.4369L141.779 74.6211L136.957 73.2859C134.303 72.5606 132.093 71.9971 132.052 72.0435ZM138.647 78.9932L137.877 81.974L134.854 81.1351L131.82 80.2793L132.547 77.4593C132.95 75.9019 133.323 74.566 133.374 74.4794C133.464 74.3598 134.138 74.5119 136.441 75.1576L139.407 75.9955L138.647 78.9932Z" fill="#121212"/>
<path d="M143.963 75.2781C143.945 75.345 143.349 77.5685 142.646 80.1939L141.348 84.9856L146.194 86.2842L151.04 87.5828L152.401 82.6643L153.745 77.7556L148.872 76.4498C145.708 75.602 143.985 75.1977 143.963 75.2781ZM151.195 79.5845C150.713 81.5946 150.363 83.0082 150.088 83.9824L149.758 85.1576L146.754 84.3527L143.737 83.5442L144.571 80.5376L145.392 77.5273L148.336 78.3447L151.289 79.1791L151.195 79.5845Z" fill="#121212"/>
<path d="M155.904 78.5062C155.838 78.5893 155.229 80.8092 154.543 83.4247L153.309 88.1906L154.177 88.4231L155.044 88.6556L156.126 84.7248C156.738 82.5486 157.286 80.7716 157.363 80.7493C157.441 80.727 158.796 81.0615 160.378 81.514L163.251 82.3269L162.212 86.3123L161.186 90.3012L162.12 90.5516L163.055 90.802L164.365 85.913L165.675 81.0239L160.839 79.6852C157.041 78.6388 155.98 78.383 155.904 78.5062Z" fill="#121212"/>
<path d="M89.7962 62.9749C89.731 63.0579 89.6064 63.4696 89.529 63.8652L89.3752 64.5992L90.3098 64.8496L91.2444 65.1L91.4064 64.6553C91.5013 64.408 91.5992 63.9892 91.6104 63.7338L91.6488 63.2703L90.781 63.0378C90.1802 62.8768 89.8855 62.8552 89.7962 62.9749Z" fill="#121212"/>
<path d="M88.7587 66.8459C88.69 66.9424 88.5582 67.3808 88.47 67.8166L88.2983 68.6176L89.2622 68.9189L90.2127 69.2167L89.965 70.1409C89.6779 71.2125 89.7303 71.284 90.9534 71.5256L91.6184 71.6607L91.8562 70.7195L92.0941 69.7783L91.157 69.4841L90.2332 69.1935L90.4515 68.2183L90.6699 67.2432L89.7728 66.9597C89.0991 66.7505 88.848 66.7263 88.7587 66.8459Z" fill="#121212"/>
<path d="M113.874 76.5762L113.652 77.5647L114.453 77.7793L115.254 77.994L115.557 77.0269L115.855 76.0732L114.974 75.8371L114.093 75.601L113.874 76.5762Z" fill="#121212"/>
</svg>
