<svg xmlns="http://www.w3.org/2000/svg" width="48" height="48" fill="none" viewBox="0 0 48 48"><g filter="url(#filter0_i)"><path fill="url(#paint0_linear)" d="M24 48a24 24 0 100-48 24 24 0 000 48z"/></g><path fill="#3EB7F5" d="M19.6 35c-.78 0-.65-.3-.91-1.03l-2.29-7.53L34 16"/><path fill="url(#paint1_linear)" d="M19.6 35c.6 0 .86-.27 1.2-.6l3.2-3.11-4-2.4"/><g filter="url(#filter1_d)"><path fill="url(#paint2_linear)" d="M20 28.88l9.68 7.15c1.1.6 1.9.3 2.18-1.03l3.93-18.55c.4-1.62-.61-2.35-1.67-1.87L11 23.5c-1.58.63-1.57 1.5-.29 1.9l5.94 1.85 13.73-8.66c.65-.4 1.25-.18.76.25"/></g><defs><linearGradient id="paint0_linear" x1="43.5" x2="8" y1="8" y2="39.5" gradientUnits="userSpaceOnUse"><stop stop-color="#48BFFC"/><stop offset="1" stop-color="#0C93D4"/></linearGradient><linearGradient id="paint1_linear" x1="21.8" x2="21.8" y1="28.88" y2="35" gradientUnits="userSpaceOnUse"><stop stop-color="#ECF7FE"/><stop offset="1" stop-color="#81D2FA"/></linearGradient><linearGradient id="paint2_linear" x1="33" x2="19.57" y1="14" y2="70.52" gradientUnits="userSpaceOnUse"><stop stop-color="#F7FBFE"/><stop offset="1" stop-color="#81D2FA"/></linearGradient><filter id="filter0_i" width="48" height="48" x="0" y="0" color-interpolation-filters="sRGB" filterUnits="userSpaceOnUse"><feFlood flood-opacity="0" result="BackgroundImageFix"/><feBlend in="SourceGraphic" in2="BackgroundImageFix" result="shape"/><feColorMatrix in="SourceAlpha" result="hardAlpha" values="0 0 0 0 0 0 0 0 0 0 0 0 0 0 0 0 0 0 127 0"/><feOffset dx="1" dy="1"/><feComposite in2="hardAlpha" k2="-1" k3="1" operator="arithmetic"/><feColorMatrix values="0 0 0 0 0.0953125 0 0 0 0 0.544643 0 0 0 0 0.7625 0 0 0 1 0"/><feBlend in2="shape" result="effect1_innerShadow"/></filter><filter id="filter1_d" width="34.1" height="29.89" x="5.78" y="14.44" color-interpolation-filters="sRGB" filterUnits="userSpaceOnUse"><feFlood flood-opacity="0" result="BackgroundImageFix"/><feColorMatrix in="SourceAlpha" values="0 0 0 0 0 0 0 0 0 0 0 0 0 0 0 0 0 0 127 0"/><feOffset dy="4"/><feGaussianBlur stdDeviation="2"/><feColorMatrix values="0 0 0 0 0 0 0 0 0 0 0 0 0 0 0 0 0 0 0.11 0"/><feBlend in2="BackgroundImageFix" result="effect1_dropShadow"/><feBlend in="SourceGraphic" in2="effect1_dropShadow" result="shape"/></filter></defs></svg>