<svg width="165" height="33" viewBox="0 0 165 33" fill="none" xmlns="http://www.w3.org/2000/svg">
<path d="M9.9656 13.8669L16.3848 7.4585L22.8074 13.8703L26.5425 10.1413L16.3848 0L6.23047 10.1379L9.9656 13.8669Z" fill="white"/>
<path d="M7.32784 16.4994L3.59277 12.7705L-0.142477 16.4996L3.59259 20.2285L7.32784 16.4994Z" fill="white"/>
<path d="M9.96522 19.1331L16.3844 25.5415L22.8067 19.13L26.544 22.8569L26.5421 22.859L16.3844 33L6.22983 22.8624L6.22461 22.8572L9.96522 19.1331Z" fill="white"/>
<path d="M29.1769 20.2302L32.9121 16.5011L29.177 12.7722L25.4418 16.5013L29.1769 20.2302Z" fill="white"/>
<path d="M20.1725 16.498H20.1741L16.3838 12.714L13.5828 15.5104H13.5826L13.2609 15.8318L12.597 16.4946L12.5918 16.4998L12.597 16.5053L16.3838 20.2859L20.1741 16.5019L20.1759 16.4998L20.1725 16.498Z" fill="white"/>
<path d="M38.7354 7.99622H46.8591C48.8753 7.99622 50.4 8.51281 51.4333 9.54599C52.2329 10.3462 52.6326 11.3379 52.6326 12.5209V12.571C52.6326 13.0709 52.5708 13.5127 52.4462 13.8958C52.322 14.2795 52.1559 14.6248 51.9484 14.9332C51.7414 15.2418 51.5006 15.5126 51.227 15.7456C50.9532 15.9791 50.659 16.1793 50.3438 16.3456C51.3573 16.7292 52.1552 17.2497 52.7368 17.9081C53.3182 18.5668 53.6093 19.4793 53.6093 20.6456V20.6954C53.6093 21.4956 53.4553 22.1954 53.147 22.7957C52.8386 23.3954 52.3969 23.8956 51.8218 24.2956C51.2466 24.6957 50.555 24.9955 49.7468 25.1956C48.9385 25.3955 48.0428 25.4954 47.0598 25.4954H38.7354V7.99622ZM46.0469 15.0708C46.8985 15.0708 47.5747 14.9254 48.0751 14.6334C48.5759 14.3418 48.8262 13.8708 48.8262 13.221V13.171C48.8262 12.5879 48.609 12.1422 48.1751 11.8336C47.741 11.5253 47.1149 11.371 46.2973 11.371H42.4911V15.0708H46.0469ZM47.0737 22.1209C47.925 22.1209 48.5923 21.9671 49.0769 21.6585C49.5609 21.3501 49.8032 20.8708 49.8032 20.2208V20.171C49.8032 19.5877 49.5776 19.1253 49.127 18.7834C48.6761 18.4422 47.9501 18.2712 46.9484 18.2712H42.4911V22.1211H47.0737V22.1209Z" fill="white"/>
<path d="M58.4473 7.99622H62.3038V25.4959H58.4473V7.99622Z" fill="white"/>
<path d="M68.1445 7.99622H71.6998L79.9133 18.7711V7.99622H83.7195V25.4959H80.4394L71.9504 14.3712V25.4959H68.1445V7.99622Z" fill="white"/>
<path d="M95.3947 7.87134H98.9502L106.463 25.4959H102.431L100.828 21.5711H93.4163L91.8138 25.4959H87.8818L95.3947 7.87134ZM99.4512 18.1708L97.1222 12.4961L94.7939 18.1708H99.4512Z" fill="white"/>
<path d="M110.625 7.99622H114.181L122.394 18.7711V7.99622H126.2V25.4959H122.92L114.431 14.3712V25.4959H110.625V7.99622Z" fill="white"/>
<path d="M140.079 25.7956C138.793 25.7956 137.599 25.5621 136.497 25.0958C135.395 24.6295 134.444 23.9917 133.643 23.1832C132.841 22.3749 132.215 21.4207 131.765 20.3208C131.314 19.2207 131.089 18.0457 131.089 16.7957V16.7459C131.089 15.4958 131.314 14.3253 131.765 13.2335C132.215 12.1419 132.841 11.1835 133.643 10.3586C134.444 9.53369 135.404 8.88339 136.522 8.4085C137.64 7.93361 138.877 7.69617 140.229 7.69617C141.046 7.69617 141.793 7.76315 142.469 7.89608C143.145 8.02979 143.759 8.21276 144.31 8.44603C144.861 8.67956 145.37 8.96288 145.838 9.29598C146.304 9.6296 146.739 9.99606 147.139 10.3961L144.686 13.221C144.001 12.6046 143.304 12.1208 142.595 11.771C141.885 11.4212 141.088 11.2461 140.203 11.2461C139.469 11.2461 138.788 11.3879 138.163 11.6712C137.537 11.9545 136.998 12.346 136.547 12.8459C136.097 13.3458 135.746 13.9252 135.495 14.5833C135.246 15.242 135.121 15.946 135.121 16.6958V16.7456C135.121 17.4955 135.246 18.2042 135.495 18.8704C135.746 19.5373 136.092 20.1204 136.535 20.6203C136.977 21.1202 137.511 21.5164 138.137 21.808C138.764 22.1 139.452 22.2454 140.203 22.2454C141.205 22.2454 142.052 22.0622 142.745 21.6954C143.437 21.3292 144.126 20.8291 144.811 20.1955L147.265 22.6705C146.814 23.154 146.346 23.5874 145.863 23.9703C145.378 24.354 144.848 24.6829 144.272 24.9582C143.696 25.2329 143.066 25.4416 142.382 25.5829C141.697 25.7244 140.929 25.7956 140.079 25.7956Z" fill="white"/>
<path d="M151.804 7.99622H165V11.4213H155.61V14.9712H163.874V18.396H155.61V22.0711H165.126V25.4959H151.804V7.99622Z" fill="white"/>
</svg>
