<svg width="168" height="55" viewBox="0 0 168 55" fill="none" xmlns="http://www.w3.org/2000/svg">
<path d="M57.5903 26.6647C57.5457 25.4436 57.7498 24.226 58.1903 23.0852C58.6309 21.9443 59.2989 20.9039 60.154 20.0262C61.0091 19.1485 62.0337 18.4517 63.1665 17.9777C64.2993 17.5036 65.5167 17.2622 66.7457 17.2677C71.3764 17.2677 74.1172 19.9693 74.9442 23.1408L72.0381 24.1157C71.7823 22.9334 71.1064 21.8822 70.1344 21.1551C69.1623 20.428 67.9592 20.0738 66.7457 20.1572C63.7451 20.1572 60.7445 22.3303 60.7445 26.7234C60.7445 31.1165 63.6742 33.2074 66.7811 33.2074C68.0012 33.2426 69.198 32.8693 70.1792 32.1471C71.1604 31.4249 71.8691 30.396 72.1917 29.2254L75.015 30.1417C74.5317 31.9289 73.4477 33.4978 71.9434 34.5876C70.439 35.6774 68.6047 36.2225 66.7457 36.1321C65.5056 36.1552 64.2742 35.9234 63.1285 35.451C61.9829 34.9785 60.9478 34.2759 60.0882 33.3869C59.2286 32.498 58.563 31.442 58.1331 30.2852C57.7033 29.1284 57.5185 27.8959 57.5903 26.6647Z" fill="white"/>
<path d="M80.6146 35.6976H77.6377V17.2206H80.6146V24.4681C81.0482 23.9583 81.5923 23.5529 82.2061 23.2823C82.8201 23.0117 83.4876 22.883 84.1586 22.9059C87.2419 22.9059 88.7304 25.1024 88.7304 27.8394V35.6976H85.8361V28.3444C85.8904 27.9868 85.8629 27.6214 85.7557 27.2757C85.6484 26.9301 85.4643 26.6129 85.217 26.3476C84.9695 26.0825 84.6652 25.8761 84.3265 25.7439C83.9879 25.6117 83.6236 25.557 83.2608 25.5841C82.9008 25.5844 82.5448 25.659 82.2152 25.8033C81.8858 25.9476 81.59 26.1584 81.3468 26.4224C81.1035 26.6863 80.9182 26.9976 80.8023 27.3367C80.6863 27.6756 80.6426 28.0347 80.6737 28.3914L80.6146 35.6976Z" fill="white"/>
<path d="M95.3809 28.5794L98.5823 28.086C99.3029 27.992 99.5037 27.6279 99.5037 27.1932C99.5037 26.1478 98.7949 25.3021 97.141 25.3021C96.8222 25.2748 96.501 25.3124 96.1971 25.4122C95.8931 25.5121 95.6127 25.6723 95.373 25.8833C95.1332 26.0942 94.9392 26.3513 94.8024 26.6391C94.6657 26.9269 94.5891 27.2393 94.5776 27.5573L91.8605 26.9465C92.0849 24.797 94.0459 22.8823 97.1174 22.8823C100.969 22.8823 102.433 25.0554 102.433 27.5808V33.7477C102.427 34.4165 102.478 35.0846 102.587 35.7445H99.8109C99.7156 35.2216 99.676 34.69 99.6927 34.1588C99.278 34.7908 98.7047 35.3042 98.0293 35.6482C97.3537 35.9923 96.5997 36.1551 95.8415 36.1204C95.3131 36.1636 94.7811 36.0998 94.2781 35.9329C93.7752 35.7659 93.3114 35.4992 92.915 35.149C92.5185 34.7986 92.1976 34.3721 91.9717 33.8951C91.7458 33.418 91.6196 32.9003 91.6006 32.3734C91.6006 30.1063 93.2426 28.8848 95.3809 28.5794ZM99.5037 30.5761V30.0124L96.2433 30.4939C95.8001 30.509 95.3799 30.6932 95.0699 31.008C94.7597 31.323 94.5834 31.7446 94.5776 32.1854C94.5813 32.413 94.6325 32.6373 94.7279 32.8441C94.8233 33.051 94.961 33.2358 95.1319 33.3871C95.3029 33.5383 95.5037 33.6527 95.7213 33.7228C95.9391 33.793 96.169 33.8174 96.3969 33.7946C96.827 33.8383 97.2616 33.7839 97.6675 33.6355C98.0734 33.4873 98.4401 33.2489 98.7396 32.9387C99.0391 32.6285 99.2635 32.2545 99.3959 31.8451C99.5283 31.4358 99.5651 31.0018 99.5037 30.5761Z" fill="white"/>
<path d="M107.49 16.9622C107.748 16.9591 108.004 17.0069 108.243 17.103C108.482 17.199 108.7 17.3412 108.883 17.5216C109.067 17.7019 109.213 17.9165 109.312 18.1533C109.412 18.3899 109.463 18.6439 109.463 18.9004C109.463 19.4113 109.259 19.9013 108.895 20.2625C108.532 20.6239 108.039 20.8268 107.525 20.8268C107.011 20.8268 106.519 20.6239 106.155 20.2625C105.792 19.9013 105.588 19.4113 105.588 18.9004C105.588 18.3944 105.787 17.9084 106.142 17.5462C106.497 17.1842 106.981 16.9745 107.49 16.9622ZM106.037 35.7563V23.2701H108.978V35.6976L106.037 35.7563Z" fill="white"/>
<path d="M115.807 35.6977H112.83V23.2702H115.736V24.9263C116.113 24.2905 116.656 23.7674 117.306 23.4119C117.957 23.0563 118.692 22.8816 119.434 22.9059C122.482 22.9059 123.946 25.1025 123.946 27.8394V35.6977H120.97V28.3445C120.97 26.8175 120.273 25.5841 118.406 25.5841C118.034 25.5863 117.668 25.6668 117.329 25.82C116.992 25.9731 116.69 26.1957 116.444 26.4729C116.199 26.7503 116.015 27.0762 115.905 27.4291C115.796 27.7819 115.762 28.154 115.807 28.5207V35.6977Z" fill="white"/>
<path d="M127.573 35.6976V17.2206H130.55V35.6976H127.573Z" fill="white"/>
<path d="M135.866 16.9623C136.383 16.9623 136.879 17.1665 137.244 17.53C137.61 17.8934 137.815 18.3864 137.815 18.9005C137.812 19.2804 137.697 19.6512 137.484 19.9662C137.27 20.2813 136.967 20.5263 136.614 20.6707C136.26 20.815 135.872 20.8522 135.497 20.7775C135.122 20.7027 134.778 20.5195 134.508 20.2507C134.238 19.9821 134.053 19.64 133.978 19.2673C133.903 18.8947 133.941 18.5085 134.086 18.1569C134.231 17.8054 134.477 17.5044 134.794 17.2919C135.111 17.0793 135.484 16.9646 135.866 16.9623ZM134.401 35.7563V23.2701H137.354V35.6976L134.401 35.7563Z" fill="white"/>
<path d="M144.183 35.6976H141.206V23.2701H144.1V24.9263C144.479 24.2921 145.022 23.7704 145.672 23.4151C146.322 23.0598 147.057 22.8841 147.798 22.9058C150.857 22.9058 152.322 25.1024 152.322 27.8393V35.6976H149.345V28.3444C149.4 27.9868 149.372 27.6214 149.265 27.2757C149.158 26.9301 148.973 26.6128 148.726 26.3476C148.478 26.0825 148.175 25.8761 147.835 25.7438C147.497 25.6117 147.132 25.557 146.769 25.5841C146.399 25.5861 146.032 25.6664 145.695 25.8197C145.357 25.9731 145.056 26.1958 144.811 26.4734C144.567 26.7509 144.385 27.0769 144.276 27.4299C144.168 27.7828 144.136 28.1545 144.183 28.5207V35.6976Z" fill="white"/>
<path d="M162.505 28.5207L167.75 35.6976H164.1L160.426 30.5762L158.89 32.1855V35.7093H155.937V17.2206H158.89V28.2974L163.687 23.2701H167.645L162.505 28.5207Z" fill="white"/>
<path d="M22.3154 12.2285L35.192 19.5816V34.3467L22.3509 41.7469L9.47433 34.4055V19.6404L22.3154 12.2285ZM22.3154 1.375L17.5901 4.10013L4.72535 11.512L0 14.2372V19.6639V34.4172V39.8439L4.72535 42.5457L17.6019 49.8988L22.3273 52.6003L27.0527 49.8752L39.8938 42.4634L44.6192 39.75V34.3233V19.5581V14.1314L39.8938 11.4298L27.0172 4.07664L22.2919 1.375H22.3154Z" fill="white"/>
</svg>
