<svg width="169" height="54" viewBox="0 0 169 54" fill="none" xmlns="http://www.w3.org/2000/svg">
<path fill-rule="evenodd" clip-rule="evenodd" d="M57.2378 46.1883C56.5126 46.1914 55.8117 46.4505 55.2589 46.9199L49.7636 42.1901L53.9851 29.138C54.0317 29.138 54.0762 29.1529 54.1249 29.1529C54.6961 29.1529 55.2439 28.926 55.6478 28.5221C56.0516 28.1182 56.2786 27.5704 56.2786 26.9992C56.2786 26.428 56.0516 25.8802 55.6478 25.4764C55.2439 25.0725 54.6961 24.8456 54.1249 24.8456C54.0762 24.8456 54.0317 24.8562 53.9841 24.8593L50.2994 13.4611C50.6939 13.2129 50.9972 12.8433 51.1636 12.4079C51.33 11.9725 51.3504 11.4949 51.2219 11.0468C51.0934 10.5988 50.8229 10.2045 50.4511 9.92349C50.0792 9.64244 49.6262 9.48976 49.1601 9.4884C48.6575 9.49101 48.1722 9.67229 47.791 9.99982L38.0742 2.94591C38.1862 2.67339 38.2407 2.38068 38.2343 2.08611C38.228 1.79153 38.1608 1.50147 38.0371 1.23405C37.9134 0.966633 37.7358 0.727615 37.5155 0.532025C37.2951 0.336435 37.0367 0.188475 36.7565 0.0973865C36.4763 0.00629805 36.1803 -0.0259512 35.887 0.00267785C35.5938 0.0313069 35.3096 0.120201 35.0523 0.263765C34.795 0.407329 34.5701 0.602476 34.3918 0.836993C34.2134 1.07151 34.0854 1.34032 34.0157 1.62662H22.2511C22.1806 1.34133 22.0521 1.07364 21.8736 0.840224C21.6951 0.606805 21.4703 0.412686 21.2135 0.269969C20.9566 0.127251 20.673 0.0389993 20.3805 0.0107237C20.088 -0.0175518 19.7928 0.0147562 19.5134 0.105626C19.2339 0.196496 18.9761 0.343976 18.7562 0.538875C18.5363 0.733775 18.3588 0.971906 18.235 1.23841C18.1112 1.50492 18.0436 1.79407 18.0365 2.08785C18.0294 2.38163 18.0829 2.67373 18.1937 2.94591L8.47584 9.99982C8.09435 9.67205 7.60866 9.49076 7.10571 9.4884C6.63978 9.49022 6.18703 9.64325 5.81553 9.92446C5.44403 10.2057 5.17387 10.5999 5.04564 11.0478C4.91742 11.4958 4.93809 11.9732 5.10452 12.4084C5.27095 12.8436 5.57413 13.213 5.96853 13.4611L2.30077 24.8053C2.24783 24.8053 2.19487 24.7894 2.14193 24.7894C1.57074 24.7894 1.02298 25.0164 0.619091 25.4203C0.215203 25.8241 -0.0117188 26.3719 -0.0117188 26.9431C-0.0117188 27.5143 0.215203 28.0621 0.619091 28.466C1.02298 28.8698 1.57074 29.0967 2.14193 29.0967C2.18322 29.0967 2.22346 29.0872 2.26581 29.084L5.9717 40.5373C5.5773 40.7854 5.27411 41.1548 5.10769 41.59C4.94126 42.0252 4.92059 42.5027 5.04881 42.9506C5.17703 43.3986 5.4472 43.7928 5.8187 44.074C6.19019 44.3552 6.64295 44.5082 7.10888 44.51C7.60009 44.5086 8.07537 44.3355 8.45254 44.0209L18.1937 51.0578C18.0837 51.3301 18.031 51.6221 18.0387 51.9156C18.0465 52.2091 18.1146 52.4979 18.2389 52.764C18.3631 53.0301 18.5408 53.2677 18.7609 53.4621C18.981 53.6565 19.2388 53.8035 19.5181 53.8939C19.7975 53.9843 20.0925 54.0162 20.3848 53.9877C20.677 53.9591 20.9603 53.8707 21.2168 53.7279C21.4734 53.5851 21.6979 53.391 21.8762 53.1577C22.0545 52.9244 22.1828 52.6569 22.2532 52.3718H34.0189C34.1445 52.8802 34.4524 53.3248 34.884 53.6213C35.3157 53.9177 35.8412 54.0454 36.3608 53.9801C36.8804 53.9148 37.3579 53.6611 37.7028 53.267C38.0477 52.873 38.236 52.3661 38.232 51.8424C38.2307 51.5723 38.1789 51.3047 38.0795 51.0536L49.1336 43.0224L54.5791 47.7119C54.2314 48.3009 54.0883 48.9883 54.1721 49.6671C54.2559 50.3459 54.5619 50.978 55.0424 51.4647C55.5229 51.9514 56.151 52.2656 56.8286 52.3581C57.5063 52.4507 58.1955 52.3165 58.7889 51.9764C59.3824 51.6363 59.8466 51.1095 60.1093 50.478C60.3721 49.8465 60.4186 49.1459 60.2415 48.4852C60.0645 47.8246 59.6739 47.2411 59.1306 46.8256C58.5873 46.4101 57.9218 46.186 57.2378 46.1883ZM49.5084 14.413L52.9898 25.1802C52.5235 25.4756 52.189 25.9394 52.056 26.4751H50.2676C50.1865 26.1112 50.0119 25.7748 49.761 25.4991C49.5102 25.2233 49.1917 25.0178 48.8371 24.9027L49.5084 14.413ZM48.5089 13.6835L47.7942 24.8286C47.7444 24.8382 47.6946 24.8519 47.6449 24.8646L43.2169 16.4544C43.4397 16.2541 43.618 16.0092 43.7402 15.7356C43.8625 15.462 43.9258 15.1658 43.9263 14.8661C43.9237 14.7464 43.9113 14.6271 43.8892 14.5093L44.4652 14.2605L47.4712 12.9518C47.7348 13.2954 48.0967 13.5507 48.5089 13.6835ZM36.4976 24.8879C36.1685 24.8195 35.8274 24.8363 35.5065 24.9366L29.6015 14.6565C29.8202 14.4514 29.9936 14.2029 30.1108 13.927L39.6656 15.1182C39.7279 15.6651 40.0001 16.1666 40.4248 16.5169L36.4976 24.8879ZM41.3767 16.9775C41.5107 17.0036 41.6468 17.0174 41.7833 17.0188C41.956 17.0166 42.1277 16.9931 42.2947 16.9489L46.7279 25.3676C46.4085 25.6636 46.1869 26.0499 46.0926 26.4751H38.1599C38.0541 26.0512 37.8205 25.6701 37.4908 25.3835L41.3767 16.9775ZM34.6002 25.4586C34.3165 25.7373 34.1156 26.0891 34.02 26.4751H22.2501C22.156 26.0879 21.9549 25.7349 21.6698 25.4565L27.5812 15.1669C27.9422 15.2742 28.3267 15.2742 28.6877 15.1669L34.6002 25.4586ZM20.7614 24.9366C20.5742 24.8797 20.3799 24.8494 20.1843 24.8466C20.0456 24.8469 19.9073 24.8607 19.7714 24.8879L15.8473 16.5232C16.2729 16.1721 16.5464 15.6703 16.6108 15.1224L26.1465 13.8846C26.2596 14.1698 26.4313 14.4281 26.6505 14.6427L20.7614 24.9366ZM18.8301 25.3443C18.4762 25.6348 18.2249 26.0311 18.1132 26.4751H10.2377C10.1342 26.0606 9.90884 25.6867 9.59075 25.4015L13.9923 16.9542C14.1553 16.9956 14.3228 17.0173 14.491 17.0188C14.6297 17.0175 14.7679 17.0034 14.9039 16.9764L18.8301 25.3443ZM10.2377 27.5286H18.1048C18.2168 27.973 18.4684 28.3698 18.8227 28.6605L14.8933 37.0379C14.7595 37.0108 14.6234 36.9967 14.4868 36.9956C14.3174 36.9976 14.1489 37.02 13.9849 37.0623L9.58442 28.6044C9.9051 28.3194 10.1327 27.9446 10.2377 27.5286ZM19.7671 29.1169C19.9032 29.1435 20.0414 29.1574 20.1801 29.1582C20.3772 29.1555 20.5729 29.1249 20.7614 29.0671L26.6431 39.307C26.4221 39.5236 26.2505 39.7855 26.1402 40.0746L16.6108 38.8856C16.5449 38.3395 16.2706 37.8399 15.8452 37.4911L19.7671 29.1169ZM21.673 28.5462C21.9562 28.267 22.1563 27.9148 22.2511 27.5286H34.0157C34.1114 27.9147 34.3118 28.2668 34.5949 28.5462L28.7152 38.7882C28.3365 38.6666 27.9293 38.6666 27.5505 38.7882L21.673 28.5462ZM35.5065 29.0671C35.6949 29.1252 35.8907 29.1559 36.0878 29.1582C36.2258 29.1574 36.3633 29.1436 36.4986 29.1169L40.429 37.4943C40.0057 37.8424 39.733 38.3404 39.6677 38.8845L30.1267 40.0746C30.0167 39.7853 29.8451 39.5233 29.6237 39.307L35.5065 29.0671ZM37.4421 28.6605C37.7957 28.3694 38.0469 27.9728 38.1589 27.5286H46.1255C46.2371 27.9265 46.4614 28.2835 46.7714 28.5568L42.2904 37.058C42.1248 37.0146 41.9545 36.9915 41.7833 36.9892C41.6445 36.9902 41.5062 37.0048 41.3703 37.0326L37.4421 28.6605ZM37.4569 3.79829L47.1758 10.8522C47.0736 11.1048 47.0208 11.3748 47.0202 11.6473C47.0221 11.7628 47.0338 11.8779 47.0551 11.9914L43.4668 13.5521C43.234 13.2391 42.9177 12.9981 42.5542 12.8567C42.1907 12.7153 41.7947 12.6793 41.4116 12.7528L37.6316 4.32134L37.4198 3.83532C37.4283 3.81944 37.4442 3.811 37.4569 3.79406V3.79829ZM35.2905 4.15192C35.5435 4.25586 35.8144 4.30947 36.0878 4.30971C36.214 4.30782 36.3397 4.29506 36.4637 4.27158L37.0376 5.55168L40.4597 13.1869C40.1655 13.4183 39.937 13.7228 39.7969 14.0699L30.2506 12.8301C30.2016 12.4358 30.044 12.063 29.7952 11.7532L35.2905 4.15192ZM22.2511 2.68121H34.0168C34.0945 2.98786 34.2392 3.27352 34.4403 3.51769L28.8857 11.0883C28.3876 10.8934 27.8336 10.898 27.3388 11.101L21.8223 3.52405C22.0265 3.27716 22.173 2.98774 22.2511 2.67698V2.68121ZM20.1811 4.30971C20.4543 4.30946 20.7247 4.25585 20.9773 4.15192L26.4695 11.7522C26.2216 12.0607 26.0643 12.432 26.0153 12.8248L16.4752 14.0773C16.3367 13.7275 16.108 13.4207 15.8124 13.1879L19.8021 4.27051C19.9272 4.29317 20.054 4.30485 20.1811 4.30544V4.30971ZM18.8099 3.79829L18.8544 3.83639L14.8648 12.7528C14.7415 12.7296 14.6164 12.7172 14.491 12.7157C14.1623 12.7157 13.838 12.7922 13.544 12.9392C13.2499 13.0863 12.9941 13.2997 12.7969 13.5627L9.20853 11.9978C9.2289 11.8831 9.24024 11.767 9.24242 11.6505C9.24151 11.3782 9.18941 11.1084 9.08887 10.8553L18.8099 3.79829ZM8.7956 12.9571L12.3829 14.522C12.3626 14.6368 12.3509 14.7529 12.3479 14.8693C12.3488 15.1715 12.4134 15.47 12.5375 15.7455C12.6615 16.021 12.8423 16.2672 13.0679 16.4681L8.66535 24.9155C8.62512 24.9059 8.5849 24.8964 8.54466 24.889L7.77064 13.6792C8.17747 13.5455 8.53464 13.2924 8.7956 12.9529V12.9571ZM6.77535 39.6214L3.26854 28.7696C3.72366 28.4854 4.056 28.0412 4.20028 27.5244H6.10088C6.18878 27.8747 6.36392 28.197 6.60997 28.4614C6.85602 28.7258 7.16498 28.9236 7.50807 29.0364L6.77535 39.6214ZM6.10088 26.4751H4.23418C4.11223 25.9216 3.77609 25.4389 3.29924 25.1325L6.77428 14.377L7.507 24.9652C7.16338 25.0772 6.8537 25.2744 6.6069 25.5385C6.36009 25.8025 6.18419 26.1247 6.09558 26.4751H6.10088ZM7.77594 40.3192L8.54993 29.1147C8.59016 29.1084 8.62935 29.0999 8.66958 29.0904L12.7736 36.9786L13.0711 37.5493C12.8458 37.75 12.6654 37.9959 12.5417 38.271C12.418 38.5462 12.3538 38.8443 12.3532 39.146C12.3564 39.2586 12.3678 39.3708 12.3871 39.4817L8.7871 41.0329C8.52664 40.6994 8.1728 40.4509 7.77064 40.3192H7.77594ZM18.8121 50.2076L9.08887 43.1844C9.19782 42.922 9.2536 42.6405 9.25299 42.3564C9.25076 42.241 9.23981 42.126 9.22019 42.0123L12.8032 40.4526C13.0352 40.7689 13.3521 41.013 13.7172 41.1563C14.0823 41.2997 14.4806 41.3366 14.8658 41.2626L18.8587 50.1674L18.8121 50.2076ZM20.9826 49.8507C20.7298 49.7477 20.4595 49.6945 20.1864 49.694C20.0603 49.6961 19.9346 49.7085 19.8105 49.7311L18.9508 47.8136L15.8177 40.8254C16.1186 40.5894 16.3501 40.2767 16.4879 39.92L18.8004 40.208L26.0248 41.1081C26.0731 41.5152 26.2386 41.8996 26.5012 42.2145L25.5674 43.5063L20.9826 49.8507ZM34.0221 51.3215H22.2511C22.1723 51.0101 22.0243 50.7206 21.8181 50.4744L27.3377 42.8424C27.8465 43.0516 28.4172 43.0516 28.926 42.8424L34.4456 50.4744C34.2404 50.7206 34.0938 51.0103 34.0168 51.3215H34.0221ZM36.469 49.7332C36.3449 49.7106 36.2192 49.6982 36.0931 49.6962C35.8197 49.6966 35.549 49.7498 35.2958 49.8529L33.0352 46.7283L29.7772 42.2209C30.0398 41.9057 30.206 41.5216 30.2558 41.1144L37.5871 40.1996L39.7948 39.9253C39.9277 40.2638 40.1441 40.5632 40.4237 40.7957L36.6035 49.4315L36.469 49.7332ZM37.4664 50.2086L37.4209 50.1716L37.5554 49.8656L41.4127 41.2637C41.5365 41.2877 41.6623 41.3005 41.7885 41.3018C42.1131 41.3005 42.4332 41.2249 42.724 41.0808C43.0149 40.9368 43.269 40.728 43.4668 40.4706L48.1108 42.4739L37.4664 50.2086ZM43.8967 39.4923C43.917 39.3786 43.9287 39.2636 43.9316 39.1482C43.9303 38.8482 43.8661 38.5519 43.7432 38.2784C43.6202 38.0048 43.4413 37.7601 43.2179 37.5599L45.6924 32.8619L47.7042 29.0438L47.7942 29.0639L48.5936 41.54L43.8967 39.4923ZM48.835 28.9877C49.1699 28.8781 49.4727 28.6876 49.7165 28.4331C49.9602 28.1786 50.1375 27.868 50.2327 27.5286H52.056C52.1905 28.0634 52.5247 28.5264 52.9898 28.8225L49.5084 39.5897L48.835 28.9877ZM98.4515 37.6764H88.9072C87.755 37.688 86.6123 37.4653 85.5487 37.022C84.5413 36.602 83.6304 35.9805 82.872 35.1956C82.1057 34.3934 81.5055 33.4478 81.1059 32.413C80.2576 30.1426 80.2576 27.6422 81.1059 25.3718C81.5058 24.3375 82.106 23.3922 82.872 22.5903C83.6304 21.8054 84.5413 21.1838 85.5487 20.7638C87.6945 19.8924 90.0957 19.8924 92.2415 20.7638C93.2481 21.1827 94.1583 21.8032 94.9161 22.5871C95.6836 23.3877 96.2849 24.3323 96.6854 25.3665C97.1181 26.487 97.3338 27.6797 97.3207 28.8808C97.3376 30.3213 97.0017 31.7441 96.3423 33.025C95.6721 34.293 94.6548 35.344 93.4094 36.0553V36.1051H98.4515V37.6774V37.6764ZM82.261 28.8882C82.2556 29.8252 82.4106 30.7564 82.7195 31.6411C83.0112 32.4821 83.4544 33.2626 84.0271 33.944C84.6018 34.6159 85.3133 35.1574 86.1141 35.5323C86.9895 35.9218 87.9369 36.1231 88.8951 36.1231C89.8532 36.1231 90.8007 35.9218 91.6761 35.5323C92.4788 35.1556 93.1934 34.6145 93.7736 33.944C94.3544 33.2643 94.8055 32.4837 95.1045 31.6411C95.7342 29.8627 95.7342 27.9221 95.1045 26.1437C94.8055 25.3008 94.3544 24.5199 93.7736 23.8397C93.1721 23.1403 92.4238 22.5822 91.5819 22.2052C90.74 21.8282 89.8253 21.6415 88.903 21.6585C87.9395 21.6427 86.9848 21.8443 86.1098 22.2483C85.3089 22.6228 84.5973 23.1643 84.0229 23.8365C83.4502 24.5184 83.0071 25.2992 82.7153 26.1405C82.4063 27.0242 82.2509 27.9542 82.2557 28.8903L82.261 28.8882ZM113.808 37.6764H112.113V22.0916H106.517V20.5404H119.384V22.0884H113.799V37.6711L113.808 37.6764ZM135.98 38.1105C134.912 38.1526 133.85 37.9243 132.893 37.4466C132.136 37.0408 131.484 36.4653 130.987 35.7652C130.521 35.097 130.189 34.3448 130.009 33.5502C129.835 32.8083 129.745 32.0493 129.739 31.2874V20.5404H131.433V31.0895C131.431 31.7698 131.51 32.448 131.668 33.1097C131.812 33.7334 132.071 34.3246 132.433 34.8525C132.797 35.369 133.278 35.7918 133.836 36.086C134.508 36.3972 135.24 36.5583 135.981 36.5583C136.722 36.5583 137.453 36.3972 138.126 36.086C138.684 35.7914 139.164 35.3687 139.528 34.8525C139.889 34.3243 140.15 33.7332 140.295 33.1097C140.453 32.4479 140.532 31.7698 140.53 31.0895V20.5404H142.224V31.2822C142.218 32.0442 142.126 32.803 141.952 33.5449C141.773 34.34 141.44 35.0924 140.973 35.7599C140.473 36.463 139.816 37.0389 139.053 37.4413C138.099 37.9182 137.041 38.1476 135.975 38.1084L135.98 38.1105ZM167.469 20.5341L160.126 24.4654L153.243 20.5341L151.897 21.4055V37.6774H153.591V22.7936H153.64L166.648 30.7464V37.6743H168.352V21.7559L167.469 20.5341ZM162.048 25.8186L166.666 23.2774L166.656 28.6277L162.048 25.8186Z" fill="white"/>
</svg>
