<svg width="36" height="36" viewBox="0 0 36 36" fill="none" xmlns="http://www.w3.org/2000/svg">
<rect width="36" height="36" rx="12" fill="url(#paint0_linear)"/>
<path d="M16.6248 16.1611C17.1176 17.0326 16.0155 17.3027 15.4982 17.3524C14.7145 17.429 14.5522 16.9752 14.7053 16.4051C14.7556 16.201 14.8671 16.0174 15.0247 15.8792C15.1824 15.7409 15.3785 15.6547 15.5866 15.6323C15.7916 15.6134 15.9978 15.653 16.1815 15.7465C16.3651 15.8401 16.5188 15.9838 16.6248 16.1611Z" fill="white"/>
<path d="M19.7013 14.5486C19.1285 18.9498 26.8505 18.034 26.7036 21.5369C27.4653 20.5422 27.7928 17.8396 25.5504 16.4485C23.5524 15.2082 20.9489 15.8869 19.7013 14.5486Z" fill="white"/>
<path d="M24.1494 12.8888C24.0991 12.8421 24.0473 12.7962 23.9971 12.7503C24.0481 12.797 24.0991 12.846 24.1494 12.8888Z" fill="white"/>
<path d="M25.9434 16.0972L25.9389 16.0903C25.8692 15.9602 25.7897 15.8357 25.7012 15.7177C25.4409 15.3634 25.0675 15.1094 24.6433 14.9984C24.3608 14.9252 24.0721 14.8796 23.7809 14.8622C23.4862 14.8408 23.1853 14.8285 22.8814 14.8125C22.272 14.7788 21.6482 14.716 21.0388 14.5416C20.8865 14.498 20.7342 14.4505 20.5872 14.3931C20.511 14.3656 20.4402 14.3358 20.3648 14.3036C20.2894 14.2715 20.2124 14.2347 20.1362 14.1957C19.8497 14.0381 19.5843 13.8445 19.3464 13.6196C18.8772 13.1811 18.5086 12.6837 18.1391 12.2017C17.7909 11.7178 17.417 11.2529 17.0194 10.8091C16.627 10.3743 16.1633 10.0104 15.6484 9.73326C15.1151 9.46347 14.536 9.29733 13.9414 9.24355C14.5583 9.17626 15.1823 9.25272 15.7649 9.46698C16.3528 9.69626 16.8903 10.0392 17.3469 10.4762C17.645 10.7571 17.9249 11.0569 18.1848 11.3738C20.1195 10.9912 21.6886 11.3309 22.8943 11.9905L22.9218 12.0043C23.3056 12.2134 23.6652 12.4643 23.9942 12.7526C24.0468 12.7985 24.0986 12.8444 24.1466 12.8911C24.4034 13.1282 24.6424 13.3839 24.8618 13.6563L24.8785 13.6785C25.5908 14.5844 25.9427 15.5263 25.9434 16.0972Z" fill="white"/>
<path d="M25.9436 16.0977L25.9385 16.0872L25.9436 16.0977Z" fill="white"/>
<path d="M14.0399 9.81046C14.5335 9.88239 15.037 10.0798 15.3614 10.4563C15.6859 10.8327 15.8055 11.3224 15.8992 11.7884C15.9753 12.1496 16.0355 12.5176 16.1772 12.8597C16.2457 13.0265 16.3463 13.1726 16.4301 13.3302C16.4994 13.4611 16.6258 13.5789 16.6746 13.7189C16.6833 13.7391 16.6866 13.7611 16.684 13.7829C16.6815 13.8047 16.6733 13.8254 16.6601 13.8429C16.488 14.0342 16.0234 13.8215 15.8482 13.7358C15.5453 13.585 15.2741 13.3772 15.0492 13.1237C14.3461 12.3393 13.9828 11.2107 14.0049 10.1831C14.0097 10.0583 14.0214 9.93393 14.0399 9.81046Z" fill="white"/>
<path d="M22.295 18.6546C21.2286 21.6441 26.0654 23.6497 24.2533 26.689C26.1127 25.9177 26.9954 23.5877 26.2239 21.739C25.549 20.1162 23.5534 19.5247 22.295 18.6546Z" fill="white"/>
<path d="M15.5625 22.5C15.853 22.2799 16.1708 22.0986 16.5078 21.9605C16.8486 21.8235 17.2023 21.7209 17.5634 21.6545C18.2802 21.5175 18.9894 21.4838 19.585 21.2428C19.8793 21.1273 20.1501 20.9588 20.384 20.7454C20.6105 20.5341 20.7838 20.2718 20.8898 19.9802C20.9984 19.6725 21.0425 19.3456 21.0193 19.0199C20.9924 18.6701 20.9135 18.3264 20.7854 18C21.0509 18.2774 21.2443 18.6163 21.3483 18.9866C21.4523 19.357 21.4638 19.7474 21.3819 20.1233C21.2887 20.5213 21.0875 20.8854 20.8007 21.1754C20.5168 21.4564 20.1744 21.6706 19.7983 21.8029C19.4393 21.9293 19.0649 22.0066 18.6854 22.0324C18.3198 22.0631 17.9664 22.0714 17.6191 22.0921C16.9169 22.1217 16.2232 22.2592 15.5625 22.5Z" fill="white"/>
<path d="M22.7209 27.8192C22.6135 27.9049 22.5061 27.996 22.388 28.0756C22.2692 28.1542 22.1447 28.2238 22.0156 28.2837C21.7466 28.4155 21.451 28.4828 21.1518 28.4804C20.3413 28.4651 19.7685 27.859 19.4335 27.1742C19.2049 26.7075 19.0473 26.2032 18.7761 25.7586C18.3883 25.1228 17.7249 24.6109 16.948 24.7057C16.6311 24.7455 16.3341 24.8886 16.1581 25.1649C15.695 25.8865 16.36 26.8972 17.2078 26.7541C17.2798 26.7431 17.3504 26.7236 17.418 26.6959C17.4853 26.6672 17.5481 26.6288 17.6046 26.582C17.723 26.4829 17.8123 26.3533 17.8628 26.2071C17.9185 26.0546 17.9309 25.8895 17.8986 25.7303C17.8638 25.564 17.766 25.4177 17.6259 25.3225C17.7889 25.3991 17.9158 25.5363 17.9801 25.7051C18.0468 25.8787 18.0639 26.0677 18.0296 26.2506C17.9963 26.4412 17.9127 26.6194 17.7874 26.7664C17.7209 26.842 17.6439 26.9077 17.5589 26.9615C17.4746 27.0147 17.3843 27.0576 17.29 27.0893C17.0987 27.155 16.895 27.1761 16.6944 27.1513C16.4126 27.111 16.1469 26.9952 15.9251 26.8161C15.663 26.6079 15.468 26.3356 15.2311 26.1014C14.9596 25.8152 14.6392 25.5801 14.2851 25.4074C14.041 25.2997 13.7854 25.2201 13.5234 25.1702C13.3916 25.1427 13.2584 25.1228 13.125 25.106C13.0641 25.0999 12.7655 25.0332 12.7236 25.0722C13.1356 24.6913 13.5848 24.3529 14.0642 24.0622C14.5565 23.7688 15.0851 23.5417 15.6364 23.3866C16.2079 23.225 16.8057 23.179 17.3951 23.2512C17.6985 23.2878 17.9957 23.365 18.2786 23.4807C18.5752 23.5998 18.8489 23.7696 19.0876 23.9827C19.3238 24.2062 19.5147 24.4736 19.6497 24.7701C19.7716 25.0475 19.8626 25.3378 19.9209 25.6355C20.0946 26.5253 20.0306 27.9049 21.1906 28.1085C21.2511 28.1203 21.3121 28.1289 21.3735 28.1345L21.5631 28.1391C21.6935 28.1298 21.8231 28.1111 21.9508 28.0832C22.2155 28.0207 22.4734 27.9322 22.7209 27.8192Z" fill="white"/>
<path d="M15.9806 26.8494L15.9502 26.8255L15.9806 26.8494Z" fill="white"/>
<path d="M14.9384 14.2898C14.8962 14.4529 14.8224 14.606 14.7213 14.7405C14.5333 14.9858 14.2842 15.177 13.9993 15.2953C13.743 15.4062 13.4716 15.4778 13.1942 15.508C13.134 15.5156 13.0715 15.5202 13.0114 15.5248C12.8356 15.5315 12.6667 15.5945 12.5292 15.7047C12.3917 15.8149 12.293 15.9663 12.2474 16.1369C12.2265 16.2218 12.211 16.308 12.2009 16.3948C12.1735 16.6197 12.1689 16.8539 12.1446 17.137C12.0849 17.6188 11.9461 18.0873 11.734 18.5235C11.4583 19.1065 11.149 19.5763 11.2206 20.2482C11.2678 20.6843 11.4903 20.9766 11.7858 21.2781C12.319 21.826 13.5126 22.0708 13.246 23.4206C13.0853 24.2263 11.7553 25.0718 9.88613 25.3672C10.072 25.3388 9.64771 24.6203 9.62106 24.5744C9.42073 24.2592 9.20137 23.9623 9.04217 23.6203C8.72987 22.9569 8.58515 22.1894 8.71312 21.4625C8.84794 20.6973 9.41159 20.1112 9.88004 19.5266C10.4376 18.8311 11.0226 17.9198 11.1521 17.0169C11.1825 16.7981 11.2039 16.5241 11.2526 16.2517C11.2991 15.9499 11.3932 15.6575 11.5314 15.3855C11.6257 15.2071 11.7499 15.0464 11.8985 14.9104C11.976 14.8382 12.0271 14.7419 12.0437 14.637C12.0603 14.5321 12.0413 14.4247 11.9899 14.3319L9.01018 8.94815L13.2901 14.2538C13.3389 14.3153 13.4005 14.3653 13.4706 14.4001C13.5407 14.435 13.6176 14.454 13.6958 14.4556C13.7741 14.4573 13.8516 14.4417 13.9232 14.4099C13.9947 14.378 14.0584 14.3308 14.1098 14.2714C14.164 14.2079 14.1947 14.1275 14.1968 14.0439C14.1988 13.9603 14.1722 13.8785 14.1212 13.8124C13.8417 13.4535 13.5461 13.0877 13.2597 12.7281L12.1826 11.389L10.021 8.71554L7.07324 5L10.2982 8.47605L12.5993 11.0317L13.7472 12.3126C14.128 12.7434 14.5089 13.1604 14.8897 13.6134L14.9522 13.6899L14.9659 13.8085C14.9844 13.9693 14.9752 14.1322 14.9384 14.2898Z" fill="white"/>
<path d="M15.9258 26.8126C15.719 26.6522 15.535 26.4639 15.3789 26.2533C15.5464 26.4538 15.7292 26.6409 15.9258 26.8126Z" fill="white"/>
<defs>
<linearGradient id="paint0_linear" x1="5.36442e-07" y1="36" x2="43.1019" y2="22.2302" gradientUnits="userSpaceOnUse">
<stop stop-color="#CA1EEA"/>
<stop offset="1" stop-color="#F219A1"/>
</linearGradient>
</defs>
</svg>
