<svg width="164" height="28" viewBox="0 0 164 28" fill="none" xmlns="http://www.w3.org/2000/svg">
<g clip-path="url(#clip0)">
<path d="M13.0627 0.06563C12.9096 0.0875053 12.4174 0.164066 11.9689 0.229692C10.9736 0.37188 9.19082 0.951567 8.26113 1.41094C4.09395 3.52188 1.27207 7.49219 0.648633 12.1406C0.451758 13.5844 0.451758 14.4156 0.648633 15.8594C1.27207 20.5078 4.09395 24.4781 8.26113 26.5891C9.1252 27.0266 10.9189 27.6063 11.9689 27.7922C13.1283 28 15.633 27.9781 16.8143 27.7484C19.2424 27.2672 21.7799 25.9984 23.3768 24.4672C23.9564 23.8984 24.0002 23.8328 24.0002 23.3516C24.0002 22.9141 23.9455 22.7828 23.6283 22.4656C23.1033 21.9406 22.5564 21.9516 21.9002 22.4766C20.2049 23.8328 18.958 24.5328 17.4158 24.9813C13.5768 26.0859 9.57363 25.1344 6.65332 22.4C6.21582 21.9844 5.95332 21.6563 5.98613 21.5578C6.00801 21.4594 7.32051 19.3156 8.89551 16.7891L11.7502 12.2063V14.5578C11.7502 17.1609 11.8486 17.9813 12.2643 18.6813C12.5596 19.1953 13.183 19.5672 13.7627 19.5781C14.2549 19.5781 14.9877 19.1734 15.4252 18.6703C15.633 18.4188 16.6611 16.8438 17.6893 15.1703L19.5705 12.1297L19.6361 14.1313C19.7018 16.3078 19.8002 16.7891 20.4127 17.7516C21.933 20.1469 25.4768 20.0594 27.1174 17.5766C27.708 16.6797 27.9486 15.8594 28.0143 14.4922C28.2658 9.25313 25.2799 4.05782 20.6205 1.60782C19.5596 1.05 18.0174 0.50313 16.8471 0.262505C16.0596 0.109379 13.5658 -0.0218697 13.0627 0.06563ZM15.5236 2.63594C18.0064 2.94219 20.1174 3.93751 21.9111 5.63282C23.7705 7.39375 24.9408 9.54844 25.3674 12.0203C25.5533 13.0703 25.5861 14.7438 25.4221 15.3234C24.9408 17.0406 23.1361 17.5328 22.3814 16.1547C22.2283 15.8594 22.1846 15.3781 22.1408 13.2891C22.0752 11.0031 22.0533 10.7297 21.8236 10.2266C21.233 8.89219 20.2814 8.53126 19.0674 9.16563C18.2799 9.58125 17.8205 10.1828 15.9064 13.2781L14.3205 15.8594L14.2658 12.5453C14.2111 9.43907 14.2002 9.20938 13.9705 8.72813C13.6861 8.11563 13.1939 7.76563 12.5924 7.76563C12.0893 7.76563 11.6955 7.96251 11.2471 8.44376C10.9846 8.71719 6.71895 15.4547 4.52051 19.075L4.32363 19.4031L3.98457 18.6484C3.79863 18.2219 3.51426 17.4125 3.36113 16.8438C3.09863 15.9141 3.06582 15.6078 3.06582 14C3.06582 12.4031 3.09863 12.075 3.36113 11.1344C3.92988 9.0125 4.99082 7.19688 6.53301 5.72032C7.95488 4.36407 9.55176 3.44532 11.3127 2.96407C12.8221 2.54844 14.0361 2.45 15.5236 2.63594Z" fill="white"/>
<path d="M42.703 8.20313C40.2093 8.59688 38.0546 10.6094 37.4421 13.125C37.2343 13.9672 37.2671 15.5531 37.4968 16.3516C38.6561 20.3 42.8452 22.1922 46.4327 20.3984C48.2483 19.4797 48.8061 18.5063 47.9311 17.7734C47.5155 17.4234 47.0014 17.4234 46.5202 17.7734C45.4921 18.5172 44.6499 18.8234 43.6218 18.8234C41.7952 18.8234 40.4061 17.7078 39.903 15.8156C39.4764 14.2188 40.0452 12.3375 41.2593 11.3422C42.4186 10.3688 44.0811 10.2266 45.5686 10.9594C46.6514 11.4953 46.7061 11.5063 47.1327 11.3203C47.9093 11.0031 48.0624 9.92032 47.3952 9.36251C46.9796 9.01251 45.8639 8.48751 45.2186 8.33438C44.453 8.15938 43.3702 8.10469 42.703 8.20313Z" fill="white"/>
<path d="M60.3558 8.24688C59.634 8.56407 59.3059 9.37345 59.5902 10.1172C60.0058 11.2 61.4496 11.375 62.1168 10.4234C62.9152 9.28595 61.6137 7.68907 60.3558 8.24688Z" fill="white"/>
<path d="M136.493 8.20312C134.972 8.47656 133.397 9.38438 132.533 10.5109C130.444 13.2234 130.63 16.8438 132.993 19.1953C133.879 20.0813 134.754 20.5844 135.957 20.8906C137.018 21.1641 137.816 21.1641 138.866 20.9016C140.157 20.5734 141.644 19.7094 141.983 19.1078C142.388 18.3859 141.874 17.5 141.065 17.5C140.736 17.5 140.496 17.5984 140.047 17.9375C139.238 18.55 138.418 18.8234 137.477 18.8344C135.935 18.8344 134.699 18.0578 133.999 16.6359C133.671 15.9688 133.649 15.8484 133.649 14.7656C133.649 13.3656 133.911 12.5672 134.622 11.7469C135.301 10.9813 136.121 10.5875 137.204 10.5219C138.144 10.4672 138.505 10.5547 139.665 11.1125C140.529 11.5172 140.868 11.5172 141.294 11.0797C141.907 10.4672 141.71 9.63594 140.791 9.07812C139.643 8.36719 137.761 7.98438 136.493 8.20312Z" fill="white"/>
<path d="M74.8813 8.44375C74.7828 8.54218 74.75 9.98593 74.75 14.2516C74.75 20.5953 74.7391 20.4859 75.4938 20.8469C75.8438 21.0109 75.9422 21.0109 76.325 20.8797C76.5547 20.7922 76.861 20.5844 76.9813 20.4203C77.2 20.125 77.211 19.9391 77.2656 17.1391L77.3203 14.175L78.775 15.7609C80.1969 17.3031 80.6016 17.6312 80.9953 17.5328C81.1047 17.5 81.8703 16.7344 82.7016 15.8266L84.211 14.1859L84.2657 17.15C84.3203 19.9391 84.3313 20.125 84.55 20.4203C84.6703 20.5844 84.9766 20.7922 85.2063 20.8797C85.5891 21.0109 85.6875 21.0109 86.0375 20.8469C86.7922 20.4859 86.7813 20.5953 86.7813 14.2406C86.7813 8.09375 86.7922 8.20312 86.2125 8.35625C86.0703 8.38906 85.1407 9.34062 84.1016 10.5219C81.4656 13.4969 80.9844 14 80.7547 14C80.6235 14 79.6172 12.95 78.0203 11.1562C75.4609 8.29062 75.2422 8.08281 74.8813 8.44375Z" fill="white"/>
<path d="M106.95 8.52032C106.764 8.64064 106.556 8.8922 106.48 9.08907C106.403 9.3297 106.359 11.0688 106.359 14.6781C106.359 20.5516 106.348 20.4859 107.103 20.8469C107.453 21.0109 107.552 21.0109 107.934 20.8797C108.7 20.6063 108.809 20.3328 108.875 18.5828L108.93 17.0516L110.133 18.4516C112.419 21.1203 112.528 21.1969 113.305 20.825C113.928 20.5297 114.191 19.7859 113.884 19.2172C113.819 19.0859 113.272 18.3969 112.681 17.6969C112.091 16.9969 111.609 16.3844 111.609 16.3406C111.609 16.3078 112.091 15.75 112.692 15.1047C113.928 13.7703 114.059 13.5625 113.961 13.1141C113.797 12.3813 113.064 11.9 112.463 12.1297C112.309 12.1844 111.434 13.0484 110.538 14.0438L108.886 15.8484L108.853 12.4906C108.82 8.85939 108.809 8.84845 108.208 8.48751C107.814 8.25782 107.366 8.26876 106.95 8.52032Z" fill="white"/>
<path d="M125.959 8.45469C125.434 8.75 125.336 9.04532 125.292 10.5219L125.259 11.9219H124.877C124.067 11.9219 123.444 12.5781 123.575 13.2891C123.674 13.8031 124.078 14.1313 124.724 14.1969L125.259 14.2406L125.314 16.45C125.347 18.1453 125.413 18.8016 125.566 19.2938C125.949 20.5734 126.977 21.175 128.617 21.0875C129.274 21.0547 129.47 21 129.689 20.8031C130.017 20.4969 130.127 20.0266 129.974 19.5891C129.82 19.1516 129.503 18.9656 128.803 18.9C127.863 18.8125 127.863 18.8016 127.819 16.3516L127.775 14.2188H128.399C129.394 14.2188 129.897 13.8359 129.897 13.0703C129.897 12.3266 129.35 11.9219 128.344 11.9219H127.819L127.775 10.5219C127.753 9.42813 127.699 9.07813 127.545 8.84844C127.206 8.34532 126.484 8.17032 125.959 8.45469Z" fill="white"/>
<path d="M52.8423 12.0313C51.2783 12.2938 49.8564 13.5734 49.3205 15.1922C49.0252 16.1 49.1236 17.4563 49.5611 18.3859C50.1955 19.7531 51.5408 20.7703 53.0173 21.0219C56.0908 21.525 58.7923 18.4297 57.972 15.3563C57.5126 13.6391 56.1564 12.3484 54.4611 12.0422C53.7501 11.9109 53.597 11.9109 52.8423 12.0313ZM54.6142 14.5578C54.833 14.6781 55.1392 14.9516 55.2814 15.1703C55.522 15.5203 55.5548 15.6844 55.5548 16.5156C55.5548 17.3688 55.522 17.5109 55.2595 17.9156C54.7455 18.6813 54.0892 18.9656 53.258 18.7906C52.2627 18.5719 51.6392 17.7078 51.6283 16.5156C51.6173 15.6297 51.9455 14.9844 52.6017 14.5906C53.1705 14.2516 54.0455 14.2297 54.6142 14.5578Z" fill="white"/>
<path d="M67.8813 12.1188C67.5641 12.2391 67.0828 12.4906 66.8203 12.6766C66.4594 12.9281 66.3281 12.9828 66.3281 12.8625C66.3281 12.775 66.2078 12.5672 66.0656 12.4031C65.8688 12.1734 65.7156 12.0969 65.3984 12.0969C65.0813 12.0969 64.9281 12.1734 64.7313 12.4031L64.4688 12.6984V16.3844C64.4688 19.8297 64.4797 20.0922 64.6766 20.4094C65.0922 21.0984 66.175 21.1313 66.6453 20.475C66.8313 20.2125 66.8531 19.9281 66.8969 17.8828C66.9406 15.3016 67.0281 14.9406 67.7391 14.4703C68.4281 14.0109 69.5219 14.2188 69.9375 14.8969C70.1344 15.225 70.1563 15.4438 70.1563 17.4453C70.1563 18.6484 70.2109 19.8078 70.2656 20.0266C70.4844 20.8031 71.25 21.1641 71.95 20.8359C72.6391 20.5078 72.6938 20.2344 72.65 17.3031C72.6172 15.0609 72.5844 14.6453 72.3984 14.2188C71.7641 12.7094 70.9 12.0859 69.2266 11.9656C68.6469 11.9328 68.3188 11.9656 67.8813 12.1188Z" fill="white"/>
<path d="M91.7364 12.0422C90.0192 12.3703 88.7504 13.7594 88.4113 15.6406C88.0832 17.5109 88.9254 19.5781 90.4129 20.5187C91.7364 21.35 93.7817 21.2187 94.9192 20.2234C95.3129 19.8734 95.4223 19.8187 95.4223 19.9828C95.4223 20.3437 95.827 20.8687 96.177 20.9453C96.6254 21.0437 97.1176 20.7703 97.2707 20.3328C97.3473 20.1031 97.3911 18.7687 97.3911 16.5156C97.3911 14.2625 97.3473 12.9281 97.2707 12.6984C97.1176 12.2609 96.6254 11.9875 96.177 12.0859C95.827 12.1625 95.4223 12.6875 95.4223 13.0375C95.4223 13.3109 95.3567 13.2891 94.7989 12.7969C94.4707 12.5125 94.0551 12.2828 93.5848 12.1406C92.841 11.9109 92.4801 11.8891 91.7364 12.0422ZM93.6176 14.4266C94.1645 14.6781 94.3614 14.8969 94.6676 15.5859C95.0395 16.4281 94.8426 17.5219 94.1754 18.2437C93.5848 18.9 92.5457 19.0422 91.8239 18.5609C91.2442 18.1781 90.8285 17.325 90.8285 16.5266C90.8395 14.8312 92.2285 13.7812 93.6176 14.4266Z" fill="white"/>
<path d="M103.242 12.0531C103.002 12.1188 102.52 12.3594 102.181 12.5891C101.777 12.8516 101.547 12.95 101.547 12.8516C101.547 12.7641 101.427 12.5672 101.284 12.4031C100.945 11.9984 100.366 11.9875 99.9609 12.3594L99.6875 12.6109V16.3844C99.6875 20.0047 99.6984 20.1578 99.9172 20.4641C100.223 20.9016 100.836 21.0766 101.35 20.8578C102.006 20.5844 102.061 20.3547 102.116 17.7734C102.148 15.7063 102.17 15.4328 102.367 15.0938C102.673 14.5797 103.133 14.3391 104.008 14.2297C104.653 14.1531 104.795 14.0984 105.069 13.7922C105.484 13.3328 105.484 12.8078 105.069 12.3484C104.817 12.0641 104.664 11.9984 104.216 11.9656C103.92 11.9438 103.483 11.9875 103.242 12.0531Z" fill="white"/>
<path d="M117.833 12.0313C115.558 12.4141 114.191 14.6453 114.552 17.3578C114.77 18.9438 115.536 20.0484 116.827 20.6281C119.375 21.7766 123.214 20.5953 122.164 18.9875C121.847 18.5063 121.442 18.4297 120.666 18.7031C119.725 19.0422 118.5 19.0641 117.909 18.7469C117.406 18.4844 117.122 18.1344 117.024 17.6313L116.947 17.2813H119.649H122.35L122.667 16.9641C123.039 16.5813 123.083 16.0672 122.82 15.0609C122.602 14.2078 122.328 13.6938 121.792 13.1469C120.852 12.1734 119.397 11.7688 117.833 12.0313ZM119.813 14.5469C120.228 14.7656 120.578 15.225 120.578 15.5859C120.578 15.7281 120.338 15.75 118.839 15.75C117.8 15.75 117.067 15.7063 117.024 15.6406C116.991 15.5859 117.045 15.3563 117.144 15.1375C117.505 14.3828 118.894 14.0766 119.813 14.5469Z" fill="white"/>
<path d="M146.282 12.0422C144.072 12.4797 142.585 14.8422 143 17.2703C143.318 19.1844 144.499 20.5625 146.128 20.9672C146.752 21.1203 146.971 21.1313 147.627 21.0219C148.579 20.8578 149.191 20.5844 149.629 20.1469L149.968 19.8078L150.099 20.2453C150.361 21.1313 151.466 21.2188 151.816 20.3875C151.936 20.1031 151.969 19.25 151.969 16.5156C151.969 13.7813 151.936 12.9281 151.816 12.6438C151.466 11.8125 150.361 11.9 150.099 12.775L149.968 13.2125L149.41 12.7859C148.819 12.3266 147.693 11.9109 147.113 11.9328C146.927 11.9438 146.555 11.9875 146.282 12.0422ZM148.196 14.4266C149.53 15.0281 149.891 16.9641 148.885 18.1125C147.627 19.5453 145.614 18.7688 145.439 16.7563C145.363 15.9688 145.527 15.4328 145.986 14.9078C146.599 14.2188 147.375 14.0438 148.196 14.4266Z" fill="white"/>
<path d="M158.039 12.0641C157.383 12.2391 156.934 12.4688 156.464 12.8625C156.147 13.125 156.125 13.1359 156.125 12.9172C156.125 12.7969 156.005 12.5672 155.863 12.4031C155.666 12.1734 155.513 12.0969 155.195 12.0969C154.878 12.0969 154.725 12.1734 154.528 12.4031L154.266 12.6984V18.2984C154.266 23.625 154.277 23.9203 154.473 24.2375C154.9 24.9375 155.972 24.9594 156.453 24.2813C156.65 24.0078 156.672 23.8 156.672 22.2141C156.672 21.2406 156.716 20.4531 156.759 20.4531C156.803 20.4531 157.033 20.5516 157.263 20.6719C157.897 20.9891 158.794 21.1422 159.592 21.0547C161.288 20.8797 162.589 19.6219 163.125 17.6969C163.278 17.1063 163.223 15.5094 163.027 14.8422C162.688 13.7703 161.408 12.4578 160.369 12.1516C159.713 11.9547 158.63 11.9109 158.039 12.0641ZM159.483 14.3828C160.325 14.7328 160.741 15.4219 160.752 16.4609C160.752 17.85 159.953 18.8344 158.805 18.8344C157.602 18.8344 156.77 17.8938 156.77 16.5156C156.759 15.4984 157.164 14.8313 158.039 14.4266C158.575 14.175 158.958 14.1641 159.483 14.3828Z" fill="white"/>
<path d="M60.6406 12.0969C59.6672 12.4359 59.6562 12.4906 59.6562 16.5156C59.6562 20.3547 59.6781 20.5078 60.4 20.8469C60.75 21.0109 60.8485 21.0109 61.2313 20.8797C61.461 20.7922 61.7672 20.5844 61.8875 20.4203C62.1063 20.125 62.1172 19.9609 62.15 16.7453C62.1828 13.1141 62.1391 12.7203 61.625 12.3484C61.3188 12.1297 60.8813 12.0203 60.6406 12.0969Z" fill="white"/>
</g>
<defs>
<clipPath id="clip0">
<rect width="163.188" height="28" fill="white" transform="translate(0.484375)"/>
</clipPath>
</defs>
</svg>
