<svg width="112" height="30" viewBox="0 0 112 30" fill="none" xmlns="http://www.w3.org/2000/svg">
<path d="M44.9912 12.755C44.6829 11.5517 43.9057 10.6713 42.3861 10.6713C40.1436 10.6713 39.2058 12.6517 39.2058 14.6615C39.2058 16.6713 40.1436 18.6528 42.3861 18.6528C44.0143 18.6528 44.9065 17.4354 45.052 15.9093L46.8397 15.9093C46.6931 18.418 44.9206 20.1485 42.3894 20.1485C39.2536 20.1485 37.3779 17.6539 37.3779 14.6604C37.3779 11.6669 39.2471 9.16801 42.3829 9.16801C44.7415 9.18214 46.602 10.4887 46.8223 12.7484L44.9912 12.755Z" fill="white"/>
<path d="M47.9229 16.094C47.9229 13.7756 49.3144 12.1038 51.7468 12.1038C54.1793 12.1038 55.5708 13.7756 55.5708 16.094C55.5708 18.4125 54.1793 20.1006 51.7468 20.1006C49.3144 20.1006 47.9229 18.4277 47.9229 16.094ZM53.9003 16.094C53.9003 14.7897 53.2415 13.4245 51.7468 13.4245C50.2522 13.4245 49.5933 14.7886 49.5933 16.094C49.5933 17.3995 50.2522 18.7799 51.7468 18.7799C53.2415 18.7799 53.9003 17.4147 53.9003 16.094Z" fill="white"/>
<path d="M57.0059 9.41801L58.6764 9.41801L58.6764 11.0028L57.0059 11.0028L57.0059 9.41801ZM57.0059 12.3093L58.6764 12.3093L58.6764 19.8952L57.0059 19.8952L57.0059 12.3093Z" fill="white"/>
<path d="M60.4932 12.3093L62.0757 12.3093L62.0757 13.4245L62.105 13.4539C62.345 13.0408 62.6895 12.6983 63.1038 12.4611C63.5181 12.2239 63.9875 12.1003 64.4648 12.1028C66.106 12.1028 67.1458 12.9832 67.1458 14.6843L67.1458 19.8941L65.4753 19.8941L65.4753 15.1256C65.446 13.9376 64.9771 13.4245 63.9959 13.4245C62.8822 13.4245 62.1637 14.3039 62.1637 15.4191L62.1637 19.8952L60.4932 19.8952L60.4932 12.3093Z" fill="white"/>
<path d="M78.2639 19.8952L77.0916 19.8952L76.8137 18.6626C75.8368 19.7778 74.9381 20.1441 73.666 20.1441C70.5323 20.1463 68.6523 17.6463 68.6523 14.6561C68.6523 11.6658 70.5323 9.16801 73.6638 9.16801C75.9432 9.16801 77.8688 10.3854 78.1466 12.7484L76.3589 12.7484C76.1831 11.3691 74.9826 10.6648 73.6638 10.6648C71.4213 10.6648 70.4835 12.6452 70.4835 14.655C70.4835 16.6648 71.4213 18.6463 73.6638 18.6463C75.5383 18.6756 76.5641 17.5463 76.5945 15.7702L73.8103 15.7702L73.8103 14.3778L78.2606 14.3778L78.2639 19.8952Z" fill="white"/>
<path d="M81.3297 16.5343C81.3297 17.7234 81.9744 18.7799 83.366 18.7799C84.3331 18.7799 84.9192 18.3538 85.2112 17.518L86.7949 17.518C86.4291 19.1756 85.0223 20.1006 83.366 20.1006C80.9932 20.1006 79.6592 18.4419 79.6592 16.1093C79.6592 13.9517 81.0703 12.1038 83.3225 12.1038C85.7105 12.1038 87.1759 14.2604 86.898 16.5343L81.3297 16.5343ZM85.2275 15.4343C85.1689 14.3777 84.4503 13.4245 83.3225 13.4245C82.1644 13.4245 81.3742 14.3038 81.3297 15.4343L85.2275 15.4343Z" fill="white"/>
<path d="M93.286 14.8473C93.1536 13.9223 92.4795 13.4245 91.5569 13.4245C90.6886 13.4245 89.4761 13.8788 89.4761 16.1821C89.4761 17.444 90.033 18.7799 91.4831 18.7799C92.4502 18.7799 93.1243 18.1343 93.286 17.0484L94.9565 17.0484C94.6482 19.0147 93.4369 20.1006 91.4831 20.1006C89.1093 20.1006 87.8057 18.4125 87.8057 16.1821C87.8057 13.893 89.0517 12.1038 91.5417 12.1038C93.3001 12.1038 94.798 12.9843 94.9565 14.8473L93.286 14.8473Z" fill="white"/>
<path d="M96.3652 9.41801L98.0357 9.41801L98.0357 15.3756L101.054 12.3093L103.106 12.3093L100.204 15.0963L103.384 19.8952L101.343 19.8952L99.0278 16.2115L98.0314 17.18L98.0314 19.8974L96.3652 19.8974L96.3652 9.41801Z" fill="white"/>
<path d="M103.835 16.094C103.835 13.7756 105.227 12.1038 107.659 12.1038C110.091 12.1038 111.484 13.7756 111.484 16.094C111.484 18.4125 110.091 20.1006 107.659 20.1006C105.227 20.1006 103.835 18.4277 103.835 16.094ZM109.814 16.094C109.814 14.7897 109.154 13.4245 107.659 13.4245C106.164 13.4245 105.505 14.7886 105.505 16.094C105.505 17.3995 106.164 18.7799 107.659 18.7799C109.154 18.7799 109.814 17.4147 109.814 16.094Z" fill="white"/>
<path d="M30.6073 14.9338C30.6203 17.9006 29.7546 20.8045 28.1195 23.2785C26.4845 25.7525 24.1535 27.6854 21.4214 28.8328C18.6894 29.9802 15.6789 30.2905 12.7707 29.7245C9.86251 29.1585 7.18724 27.7416 5.0832 25.653C2.97917 23.5644 1.54086 20.8979 0.95017 17.9907C0.359482 15.0835 0.642943 12.0662 1.76471 9.32037C2.88647 6.57451 4.79615 4.22343 7.25226 2.56444C9.70836 0.905454 12.6006 0.0130704 15.5631 0.000142615C19.5356 -0.0171922 23.3523 1.54641 26.1736 4.347C28.9949 7.14759 30.5897 10.9558 30.6073 14.9338Z" fill="#8DC63F"/>
<path d="M29.4869 14.9394C29.4993 17.6831 28.699 20.369 27.1871 22.6573C25.6752 24.9456 23.5196 26.7335 20.9929 27.7949C18.4663 28.8564 15.6821 29.1437 12.9923 28.6206C10.3026 28.0974 7.82824 26.7873 5.88208 24.8559C3.93591 22.9245 2.60539 20.4585 2.05876 17.7699C1.51214 15.0812 1.77396 12.2906 2.81113 9.75097C3.84829 7.21132 5.61421 5.0367 7.88557 3.5021C10.1569 1.9675 12.8317 1.14186 15.5717 1.12957C19.2455 1.11339 22.7754 2.55916 25.385 5.14892C27.9945 7.73867 29.47 11.2603 29.4869 14.9394Z" fill="#F9E988"/>
<path d="M15.8829 2.02851C16.7636 1.87199 17.6649 1.87199 18.5455 2.02851C19.4347 2.1695 20.2942 2.45787 21.0887 2.88178C21.8789 3.31656 22.5616 3.90678 23.2411 4.46004C23.9206 5.0133 24.5968 5.5796 25.2405 6.19917C25.8975 6.80908 26.4709 7.50353 26.9457 8.26438C27.4345 9.01921 27.8351 9.82777 28.1397 10.6742C28.7182 12.3763 28.919 14.21 28.6303 15.9589L28.5445 15.9589C28.2547 14.2252 27.8618 12.5731 27.242 11.0013C26.9511 10.2099 26.6088 9.4383 26.2173 8.69156C25.8089 7.9447 25.3588 7.22146 24.8692 6.52525C24.3713 5.82142 23.7611 5.20448 23.0631 4.69917C22.3597 4.19699 21.5511 3.87199 20.7685 3.5633C19.9859 3.2546 19.2098 2.93504 18.3935 2.70025C17.5773 2.46547 16.748 2.28938 15.8818 2.11873L15.8829 2.02851Z" fill="white"/>
<path d="M22.6573 10.0427C21.6522 9.75136 20.6102 9.33831 19.5551 8.92092C19.4943 8.6557 19.2599 8.32527 18.7856 7.92201C18.0963 7.32309 16.8014 7.33831 15.6823 7.60353C14.4471 7.31222 13.227 7.20896 12.0559 7.49483C2.4769 10.1372 7.90841 16.584 4.3916 23.0644C4.89199 24.1274 10.2855 30.3296 18.0898 28.6655C18.0898 28.6655 15.4207 22.2427 21.4438 19.16C26.3293 16.6503 29.8592 12.0068 22.6573 10.0427Z" fill="#8BC53F"/>
<path d="M23.8391 14.2612C23.8398 14.3762 23.8064 14.4888 23.7431 14.5848C23.6798 14.6808 23.5895 14.7558 23.4837 14.8004C23.3778 14.845 23.2611 14.8572 23.1483 14.8354C23.0356 14.8136 22.9318 14.7588 22.8501 14.6779C22.7685 14.597 22.7126 14.4937 22.6895 14.3811C22.6665 14.2684 22.6773 14.1514 22.7207 14.0449C22.7641 13.9384 22.838 13.8471 22.9331 13.7827C23.0282 13.7183 23.1403 13.6835 23.2552 13.6829C23.4091 13.6823 23.557 13.7428 23.6664 13.8512C23.7759 13.9596 23.838 14.107 23.8391 14.2612Z" fill="white"/>
<path d="M15.6797 7.59913C16.3776 7.64913 18.9013 8.4687 19.5525 8.91652C19.0098 7.34044 17.183 7.13066 15.6797 7.59913Z" fill="#009345"/>
<path d="M16.346 11.585C16.3462 12.1156 16.1893 12.6344 15.8951 13.0757C15.6008 13.517 15.1825 13.861 14.693 14.0642C14.2036 14.2674 13.6649 14.3207 13.1452 14.2173C12.6255 14.1139 12.148 13.8585 11.7733 13.4834C11.3985 13.1083 11.1433 12.6303 11.0398 12.1099C10.9364 11.5895 10.9894 11.05 11.1921 10.5598C11.3948 10.0695 11.7382 9.6505 12.1787 9.35568C12.6193 9.06086 13.1373 8.9035 13.6671 8.9035C14.0189 8.90336 14.3672 8.97262 14.6922 9.10731C15.0172 9.24201 15.3125 9.4395 15.5613 9.68852C15.8101 9.93754 16.0074 10.2332 16.1421 10.5586C16.2767 10.884 16.346 11.2328 16.346 11.585Z" fill="white"/>
<path d="M15.5499 11.609C15.5499 11.9822 15.4394 12.347 15.2323 12.6573C15.0253 12.9676 14.731 13.2095 14.3867 13.3523C14.0423 13.4951 13.6635 13.5325 13.298 13.4597C12.9324 13.3868 12.5967 13.2071 12.3332 12.9432C12.0696 12.6793 11.8902 12.3431 11.8175 11.9771C11.7448 11.611 11.7821 11.2316 11.9247 10.8868C12.0673 10.5421 12.3088 10.2474 12.6187 10.04C12.9286 9.83267 13.2929 9.722 13.6656 9.722C14.1653 9.722 14.6446 9.9208 14.998 10.2747C15.3514 10.6285 15.5499 11.1085 15.5499 11.609Z" fill="#58595B"/>
<path d="M26.0061 15.4437C23.8353 16.9753 21.367 18.1372 17.8654 18.1372C16.2264 18.1372 15.8942 16.3981 14.811 17.2481C14.252 17.6894 12.2808 18.6763 10.7167 18.6013C9.15259 18.5263 6.61701 17.6079 5.91039 14.2644C5.63035 17.6079 5.48708 20.0709 4.2334 22.8937C6.7299 26.897 12.6824 29.985 18.0857 28.6546C17.505 24.5948 21.0479 20.6187 23.044 18.5839C23.8038 17.8133 25.2474 16.5557 26.0061 15.4416L26.0061 15.4437Z" fill="#8BC53F"/>
<path d="M25.9225 15.5437C25.2484 16.1589 24.4463 16.6144 23.63 17.0165C22.8038 17.4094 21.9425 17.7235 21.0575 17.9546C20.1718 18.1839 19.2481 18.3568 18.3125 18.272C17.3768 18.1872 16.4206 17.8687 15.8008 17.1665L15.8301 17.1329C16.5899 17.6263 17.4669 17.8002 18.3396 17.8252C19.2242 17.8522 20.109 17.7793 20.9772 17.6079C21.8543 17.424 22.7123 17.1583 23.5399 16.8144C24.3681 16.472 25.1876 16.0752 25.8931 15.51L25.9225 15.5437Z" fill="#58595B"/>
</svg>
