<svg width="36" height="36" viewBox="0 0 36 36" fill="none" xmlns="http://www.w3.org/2000/svg">
<rect opacity="0.1" width="36" height="36" rx="12" fill="#121313"/>
<path d="M21.8965 6.09023L6.55664 7.20117C6.55195 7.2015 6.54726 7.2019 6.54258 7.20234C6.53474 7.20336 6.52693 7.20453 6.51914 7.20586C6.50461 7.20767 6.49014 7.21002 6.47578 7.21289C6.4699 7.21436 6.46404 7.21592 6.4582 7.21758C6.45154 7.21902 6.44489 7.22059 6.43828 7.22226C6.42366 7.2264 6.40919 7.23109 6.39492 7.23633C6.38545 7.23999 6.37607 7.2439 6.3668 7.24804C6.36129 7.25031 6.35582 7.25265 6.35039 7.25508C6.31888 7.26962 6.28869 7.28687 6.26016 7.30664C6.25503 7.30969 6.24995 7.31281 6.24492 7.31601C6.23244 7.3253 6.22032 7.33508 6.20859 7.34531C6.20623 7.34763 6.20389 7.34998 6.20156 7.35234C6.1915 7.361 6.18173 7.36999 6.17227 7.37929C6.16626 7.3858 6.1604 7.39245 6.15469 7.39922C6.14576 7.40908 6.13716 7.41925 6.12891 7.42968C6.12573 7.43355 6.12261 7.43746 6.11953 7.4414C6.11047 7.45357 6.10187 7.46608 6.09375 7.4789C6.09136 7.48278 6.08902 7.48669 6.08672 7.49062C6.07882 7.50323 6.07139 7.51613 6.06445 7.52929C6.06164 7.53472 6.0589 7.54019 6.05625 7.5457C6.04983 7.55992 6.04397 7.57438 6.03867 7.58906C6.03788 7.59062 6.0371 7.59218 6.03633 7.59375C6.02424 7.62763 6.01521 7.66254 6.00938 7.69804C6.0081 7.70428 6.00693 7.71053 6.00586 7.71679C6.00365 7.73274 6.00209 7.74877 6.00117 7.76484C6.00117 7.76562 6.00117 7.7664 6.00117 7.76718C6.00048 7.77811 6.00009 7.78905 6 7.8V23.243C6 23.8583 6.18909 24.4601 6.54258 24.9644C6.55182 24.9777 6.56159 24.9906 6.57188 25.0031L10.2762 29.4609C10.3119 29.5253 10.3592 29.5825 10.4156 29.6297L10.65 29.9109C10.6798 29.9468 10.7136 29.979 10.7508 30.007C11.103 30.3488 11.5903 30.5505 12.116 30.5168L28.316 29.4715C29.2575 29.4106 30 28.6182 30 27.675V12.0797C30 11.5256 29.7393 11.0344 29.3426 10.7039C29.3145 10.6717 29.2831 10.6427 29.2488 10.6172L28.9582 10.4027C28.9219 10.3681 28.8813 10.3382 28.8375 10.3137L23.8945 6.66797C23.319 6.24329 22.6096 6.03849 21.8965 6.09023ZM21.9832 7.28672C22.4113 7.25566 22.8371 7.37907 23.182 7.63359L26.8605 10.3477L11.8453 11.3309C11.3283 11.3646 10.8226 11.1733 10.4555 10.807H10.4543L7.95234 8.3039L21.9832 7.28672ZM7.2 9.24843L9.60703 11.6555L10.2 12.2484V27.491L7.52344 24.2695C7.31396 23.9685 7.2 23.6108 7.2 23.243V9.24843ZM28.1613 11.4809C28.5161 11.4581 28.8 11.7247 28.8 12.0797V27.675C28.8 27.9966 28.5596 28.2531 28.2387 28.2738L12.0387 29.3191C11.8625 29.3304 11.7038 29.2701 11.5887 29.1633C11.5883 29.1629 11.5879 29.1625 11.5875 29.1621L11.5863 29.1609C11.5839 29.1586 11.5829 29.1551 11.5805 29.1527C11.5782 29.1496 11.5758 29.1465 11.5734 29.1434C11.4673 29.0361 11.4 28.8897 11.4 28.7203V13.125C11.4 12.8025 11.64 12.5469 11.9613 12.5262L28.1613 11.4809ZM26.0977 14.4L23.0531 14.5687C22.5887 14.6167 22.0477 14.9628 22.0477 15.525L23.3977 15.6375V22.0523L18.7289 14.8512L15.2297 15.048C14.5751 15.096 14.3965 15.5826 14.3965 16.2012H15.7465V25.5398C15.7465 25.5398 15.1151 25.7102 14.9039 25.7648C14.4551 25.8806 14.3965 26.2709 14.3965 26.5523C14.3965 26.5523 16.648 26.4393 17.6836 26.3613C18.859 26.2713 18.8977 25.4836 18.8977 25.4836L17.5477 25.2023V18.2824C17.5477 18.2824 20.9795 23.7962 22.0289 25.4168C22.5227 26.1782 22.8914 26.3273 23.5406 26.3273C24.0734 26.3273 24.5773 26.17 25.1965 25.8352V15.4184C25.1965 15.4184 25.3105 15.4123 25.6699 15.2965C26.0797 15.1639 26.0977 14.7936 26.0977 14.4Z" fill="black"/>
</svg>
