<svg width="36" height="36" viewBox="0 0 36 36" fill="none" xmlns="http://www.w3.org/2000/svg">
<rect width="36" height="36" rx="12" fill="white"/>
<path d="M9.5625 6.75H26.4375C27.1834 6.75 27.8988 7.04632 28.4262 7.57376C28.9537 8.10121 29.25 8.81658 29.25 9.5625V26.4375C29.25 27.1834 28.9537 27.8988 28.4262 28.4262C27.8988 28.9537 27.1834 29.25 26.4375 29.25H9.5625C8.81658 29.25 8.10121 28.9537 7.57376 28.4262C7.04632 27.8988 6.75 27.1834 6.75 26.4375V9.5625C6.75 8.81658 7.04632 8.10121 7.57376 7.57376C8.10121 7.04632 8.81658 6.75 9.5625 6.75ZM19.4625 11.025V18.225C19.4625 18.97 20.0675 19.575 20.8125 19.575H24.975C25.333 19.575 25.6764 19.4328 25.9296 19.1796C26.1828 18.9264 26.325 18.583 26.325 18.225V11.025C26.325 10.667 26.1828 10.3236 25.9296 10.0704C25.6764 9.81723 25.333 9.675 24.975 9.675H20.8125C20.4545 9.675 20.1111 9.81723 19.8579 10.0704C19.6047 10.3236 19.4625 10.667 19.4625 11.025ZM9.675 11.025V23.85C9.675 24.595 10.28 25.2 11.025 25.2H15.1875C15.5455 25.2 15.8889 25.0578 16.1421 24.8046C16.3953 24.5514 16.5375 24.208 16.5375 23.85V11.025C16.5375 10.667 16.3953 10.3236 16.1421 10.0704C15.8889 9.81723 15.5455 9.675 15.1875 9.675H11.025C10.667 9.675 10.3236 9.81723 10.0704 10.0704C9.81723 10.3236 9.675 10.667 9.675 11.025Z" fill="#1986C5"/>
</svg>
