<svg width="36" height="36" viewBox="0 0 36 36" fill="none" xmlns="http://www.w3.org/2000/svg">
<rect width="36" height="36" rx="12" fill="white"/>
<mask id="mask0" mask-type="alpha" maskUnits="userSpaceOnUse" x="9" y="6" width="19" height="24">
<path d="M20.6015 6H11.3287C10.4287 6 9.69238 6.73636 9.69238 7.63636V28.3636C9.69238 29.2636 10.4287 30 11.3287 30H25.5106C26.4106 30 27.1469 29.2636 27.1469 28.3636V12.5455L20.6015 6Z" fill="white"/>
</mask>
<g mask="url(#mask0)">
<path d="M20.6015 6H11.3287C10.4287 6 9.69238 6.73636 9.69238 7.63636V28.3636C9.69238 29.2636 10.4287 30 11.3287 30H25.5106C26.4106 30 27.1469 29.2636 27.1469 28.3636V12.5455L23.3287 9.81818L20.6015 6Z" fill="#0F9D58"/>
</g>
<mask id="mask1" mask-type="alpha" maskUnits="userSpaceOnUse" x="9" y="6" width="19" height="24">
<path d="M20.6015 6H11.3287C10.4287 6 9.69238 6.73636 9.69238 7.63636V28.3636C9.69238 29.2636 10.4287 30 11.3287 30H25.5106C26.4106 30 27.1469 29.2636 27.1469 28.3636V12.5455L20.6015 6Z" fill="white"/>
</mask>
<g mask="url(#mask1)">
<path d="M14.0557 17.7273V25.6364H22.7829V17.7273H14.0557ZM17.8738 24.5454H15.1466V23.1818H17.8738V24.5454ZM17.8738 22.3636H15.1466V21H17.8738V22.3636ZM17.8738 20.1818H15.1466V18.8182H17.8738V20.1818ZM21.692 24.5454H18.9648V23.1818H21.692V24.5454ZM21.692 22.3636H18.9648V21H21.692V22.3636ZM21.692 20.1818H18.9648V18.8182H21.692V20.1818Z" fill="#F1F1F1"/>
</g>
<mask id="mask2" mask-type="alpha" maskUnits="userSpaceOnUse" x="9" y="6" width="19" height="24">
<path d="M20.6015 6H11.3287C10.4287 6 9.69238 6.73636 9.69238 7.63636V28.3636C9.69238 29.2636 10.4287 30 11.3287 30H25.5106C26.4106 30 27.1469 29.2636 27.1469 28.3636V12.5455L20.6015 6Z" fill="white"/>
</mask>
<g mask="url(#mask2)">
<path d="M21.0801 12.0668L27.1469 18.1323V12.5455L21.0801 12.0668Z" fill="url(#paint0_linear)"/>
</g>
<mask id="mask3" mask-type="alpha" maskUnits="userSpaceOnUse" x="9" y="6" width="19" height="24">
<path d="M20.6015 6H11.3287C10.4287 6 9.69238 6.73636 9.69238 7.63636V28.3636C9.69238 29.2636 10.4287 30 11.3287 30H25.5106C26.4106 30 27.1469 29.2636 27.1469 28.3636V12.5455L20.6015 6Z" fill="white"/>
</mask>
<g mask="url(#mask3)">
<path d="M20.6016 6V10.9091C20.6016 11.8132 21.3338 12.5455 22.2379 12.5455H27.147L20.6016 6Z" fill="#87CEAC"/>
</g>
<mask id="mask4" mask-type="alpha" maskUnits="userSpaceOnUse" x="9" y="6" width="19" height="24">
<path d="M20.6015 6H11.3287C10.4287 6 9.69238 6.73636 9.69238 7.63636V28.3636C9.69238 29.2636 10.4287 30 11.3287 30H25.5106C26.4106 30 27.1469 29.2636 27.1469 28.3636V12.5455L20.6015 6Z" fill="white"/>
</mask>
<g mask="url(#mask4)">
<path d="M11.3287 6C10.4287 6 9.69238 6.73636 9.69238 7.63636V7.77273C9.69238 6.87273 10.4287 6.13636 11.3287 6.13636H20.6015V6H11.3287Z" fill="white" fill-opacity="0.2"/>
</g>
<mask id="mask5" mask-type="alpha" maskUnits="userSpaceOnUse" x="9" y="6" width="19" height="24">
<path d="M20.6015 6H11.3287C10.4287 6 9.69238 6.73636 9.69238 7.63636V28.3636C9.69238 29.2636 10.4287 30 11.3287 30H25.5106C26.4106 30 27.1469 29.2636 27.1469 28.3636V12.5455L20.6015 6Z" fill="white"/>
</mask>
<g mask="url(#mask5)">
<path d="M25.5106 29.8636H11.3287C10.4287 29.8636 9.69238 29.1273 9.69238 28.2273V28.3636C9.69238 29.2636 10.4287 30 11.3287 30H25.5106C26.4106 30 27.1469 29.2636 27.1469 28.3636V28.2273C27.1469 29.1273 26.4106 29.8636 25.5106 29.8636Z" fill="#263238" fill-opacity="0.2"/>
</g>
<mask id="mask6" mask-type="alpha" maskUnits="userSpaceOnUse" x="9" y="6" width="19" height="24">
<path d="M20.6015 6H11.3287C10.4287 6 9.69238 6.73636 9.69238 7.63636V28.3636C9.69238 29.2636 10.4287 30 11.3287 30H25.5106C26.4106 30 27.1469 29.2636 27.1469 28.3636V12.5455L20.6015 6Z" fill="white"/>
</mask>
<g mask="url(#mask6)">
<path d="M22.2379 12.5455C21.3338 12.5455 20.6016 11.8132 20.6016 10.9091V11.0455C20.6016 11.9496 21.3338 12.6818 22.2379 12.6818H27.147V12.5455H22.2379Z" fill="#263238" fill-opacity="0.1"/>
</g>
<path d="M20.6015 6H11.3287C10.4287 6 9.69238 6.73636 9.69238 7.63636V28.3636C9.69238 29.2636 10.4287 30 11.3287 30H25.5106C26.4106 30 27.1469 29.2636 27.1469 28.3636V12.5455L20.6015 6Z" fill="url(#paint1_radial)"/>
<defs>
<linearGradient id="paint0_linear" x1="24.1138" y1="12.5876" x2="24.1138" y2="18.1331" gradientUnits="userSpaceOnUse">
<stop stop-color="#263238" stop-opacity="0.2"/>
<stop offset="1" stop-color="#263238" stop-opacity="0.02"/>
</linearGradient>
<radialGradient id="paint1_radial" cx="0" cy="0" r="1" gradientUnits="userSpaceOnUse" gradientTransform="translate(10.2454 6.47705) scale(28.1452)">
<stop stop-color="white" stop-opacity="0.1"/>
<stop offset="1" stop-color="white" stop-opacity="0"/>
</radialGradient>
</defs>
</svg>
